<?xml version="1.0" encoding="utf-8"?>
<svg id="master-artboard" viewBox="0 0 379.55712890625 332.01519775390625" version="1.1" xmlns="http://www.w3.org/2000/svg" x="0px" y="0px" width="379.55712890625px" height="332.01519775390625px" enable-background="new 0 0 1400 980" xmlns:xlink="http://www.w3.org/1999/xlink"><defs><path d="M -14.547 -15 H 1415.453 V 995 H -14.547 V -15 Z" id="SVGID_1_"/></defs><rect id="ee-background" x="0" y="0" width="379.55712890625" height="332.01519775390625" style="fill: rgb(45, 83, 98); fill-opacity: 0; pointer-events: none;"/>

<g transform="matrix(0.4082270860671997, 0, 0, 0.4082270860671997, -91.22660064697266, -28.8359375)"><g transform="matrix(1, 0, 0, 1, -19.785136399984594, 146.25908055890824)">
		<g transform="matrix(1, 0, 0, 1, 4.939780240254038, -85.62285749773622)">
			<path d="M 740.8489990234375 76.0270004272461 L 1109.7459716796875 439.51800537109375 L 371.95098876953125 439.51800537109375 Z" fill="#F3F4FF" style="fill: rgb(250, 241, 220);" transform="matrix(1, 0, 0, 1, 0, -46.104615575704116)"/>
			<path d="M 587.353027 313.807007 H 894.346039 V 720.542999 H 587.353027 V 313.807007 Z" fill="#F3F4FF" style="fill: rgb(250, 241, 220);"/>
			
		</g>
	</g><g transform="matrix(1, 0, 0, 1, -1.6726088773102674, -1.9343264391172852)">
			
			
		</g><path fill="none" stroke="#F4446B" stroke-miterlimit="10" d="M528.791,214.367h137.61c6.784,0,12.284-5.5,12.284-12.284v-82.791&#10;&#9;&#9;&#9;c0-6.784-5.5-12.284-12.284-12.284h-137.61c-6.784,0-12.283,5.5-12.283,12.284v82.791&#10;&#9;&#9;&#9;C516.508,208.868,522.007,214.367,528.791,214.367z" transform="matrix(1, 0, 0, 1, -1.6726088773102674, -1.9343264391172852)" style="stroke: rgb(228, 185, 78);"/><path fill="#F4446B" d="M513.766,227.867h137.61c6.784,0,12.284-5.5,12.284-12.284v-82.791c0-6.784-5.5-12.284-12.284-12.284&#10;&#9;&#9;&#9;h-137.61c-6.784,0-12.284,5.5-12.284,12.284v82.791C501.482,222.368,506.981,227.867,513.766,227.867z" transform="matrix(1, 0, 0, 1, -1.6726088773102674, -1.9343264391172852)" style="fill: rgb(228, 186, 78);"/><path d="M 559.8150024414062 221.2790069580078 L 524.6339721679688 257.9010009765625 L 524.6339721679688 221.2790069580078 Z" fill="#F4446B" transform="matrix(1, 0, 0, 1, -1.6726088773102674, -1.9343264391172852)" style="fill: rgb(228, 185, 78);"/><path fill="#4B2676" d="M770.929,390.88l-71.974-9.383l10.555-25.052h5.439c3.071,0,6.131,0.38,9.109,1.131l50.287,12.678&#10;&#9;&#9;&#9;c5.664,1.141,9.33,6.656,8.189,12.319l0,0C781.449,387.961,776.379,391.59,770.929,390.88z" transform="matrix(1, 0, 0, 1, -1.6726088773102674, -1.9343264391172852)" style="fill: rgb(45, 83, 98);"/><path fill="#4B2676" d="M795.454,315.587l-12.535,67.219c-1.341,5.42-6.822,8.727-12.243,7.386l0,0&#10;&#9;&#9;&#9;c-5.42-1.341-8.727-6.823-7.386-12.243l17.916-65.887L795.454,315.587z" transform="matrix(1, 0, 0, 1, -1.6726088773102674, -1.9343264391172852)" style="fill: rgb(45, 83, 98);"/><path fill="#FFA7BB" d="M781.615,313.731c-0.479-1.381-0.194-3.455-0.246-4.852c-0.02-0.52-0.037-1.048,0.095-1.55&#10;&#9;&#9;&#9;c0.374-1.42,1.815-2.272,2.567-3.534c0.353-0.592,0.545-1.263,0.768-1.915c0.795-2.337,2.147-4.667,4.379-5.724&#10;&#9;&#9;&#9;c1.456-0.689,3.123-0.759,4.733-0.722c6.751,0.155,2.406,18.251,1.734,21.893c-0.264,1.427-2.741,2.089-3.855,2.126&#10;&#9;&#9;&#9;c-2.077,0.07-4.121-0.983-5.827-2.053c-1.19-0.747-3.452-1.979-4.145-3.213C781.739,314.047,781.672,313.894,781.615,313.731z" transform="matrix(1, 0, 0, 1, -1.6726088773102674, -1.9343264391172852)"/><path d="M 788.155029 141.899002 H 802.753029 V 686.899002 H 788.155029 V 141.899002 Z" fill="#F8687F" transform="matrix(1, 0, 0, 1, -1.6726088773102674, -1.9343264391172852)" style="fill: rgb(228, 185, 78);"/><path d="M 802.7529907226562 291.9440002441406 L 802.7529907226562 278.14801025390625 L 788.155029296875 289.6549987792969 L 788.155029296875 303.45098876953125 Z" fill="#D34063" transform="matrix(1, 0, 0, 1, -1.6726088773102674, -1.9343264391172852)" style="fill: rgb(187, 144, 36);"/><path d="M 802.7529907226562 392.42498779296875 L 802.7529907226562 378.6289978027344 L 788.155029296875 390.135009765625 L 788.155029296875 403.9309997558594 Z" fill="#D34063" transform="matrix(1, 0, 0, 1, -1.6726088773102674, -1.9343264391172852)" style="fill: rgb(187, 144, 36);"/><path d="M 802.7529907226562 425.9179992675781 L 802.7529907226562 412.12200927734375 L 788.155029296875 423.62799072265625 L 788.155029296875 437.42498779296875 Z" fill="#D34063" transform="matrix(1, 0, 0, 1, -1.6726088773102674, -1.9343264391172852)" style="fill: rgb(187, 144, 36);"/><path d="M 802.7529907226562 358.9320068359375 L 802.7529907226562 345.135009765625 L 788.155029296875 356.6419982910156 L 788.155029296875 370.43798828125 Z" fill="#D34063" transform="matrix(1, 0, 0, 1, -1.6726088773102674, -1.9343264391172852)" style="fill: rgb(187, 144, 36);"/><path d="M 788.155029296875 169.47799682617188 L 802.7529907226562 157.9709930419922 L 802.7529907226562 144.1750030517578 L 788.155029296875 155.68099975585938 Z" fill="#D34063" transform="matrix(1, 0, 0, 1, -1.6726088773102674, -1.9343264391172852)" style="fill: rgb(187, 144, 36);"/><path d="M 802.7529907226562 191.46400451660156 L 802.7529907226562 177.66799926757812 L 788.155029296875 189.1750030517578 L 788.155029296875 202.9709930419922 Z" fill="#D34063" transform="matrix(1, 0, 0, 1, -1.6726088773102674, -1.9343264391172852)" style="fill: rgb(187, 144, 36);"/><path d="M 802.7529907226562 224.95799255371094 L 802.7529907226562 211.16200256347656 L 788.155029296875 222.66799926757812 L 788.155029296875 236.46400451660156 Z" fill="#D34063" transform="matrix(1, 0, 0, 1, -1.6726088773102674, -1.9343264391172852)" style="fill: rgb(187, 144, 36);"/><path d="M 802.7529907226562 258.45098876953125 L 802.7529907226562 244.65499877929688 L 788.155029296875 256.1619873046875 L 788.155029296875 269.9580078125 Z" fill="#D34063" transform="matrix(1, 0, 0, 1, -1.6726088773102674, -1.9343264391172852)" style="fill: rgb(187, 144, 36);"/><path d="M 802.7529907226562 325.43798828125 L 802.7529907226562 311.6419982910156 L 788.155029296875 323.14801025390625 L 788.155029296875 336.9440002441406 Z" fill="#D34063" transform="matrix(1, 0, 0, 1, -1.6726088773102674, -1.9343264391172852)" style="fill: rgb(187, 144, 36);"/><path d="M 802.7529907226562 660.3720092773438 L 802.7529907226562 646.5759887695312 L 788.155029296875 658.0819702148438 L 788.155029296875 671.8790283203125 Z" fill="#D34063" transform="matrix(1, 0, 0, 1, -1.6726088773102674, -1.9343264391172852)" style="fill: rgb(187, 144, 36);"/><path d="M 802.7529907226562 626.8790283203125 L 802.7529907226562 613.0830078125 L 788.155029296875 624.5889892578125 L 788.155029296875 638.385009765625 Z" fill="#D34063" transform="matrix(1, 0, 0, 1, -1.6726088773102674, -1.9343264391172852)" style="fill: rgb(187, 144, 36);"/><path d="M 802.7529907226562 680.0689697265625 L 794.0880126953125 686.8989868164062 L 802.7529907226562 686.8989868164062 Z" fill="#D34063" transform="matrix(1, 0, 0, 1, -1.6726088773102674, -1.9343264391172852)"/><path d="M 802.7529907226562 526.3980102539062 L 802.7529907226562 512.60302734375 L 788.155029296875 524.1079711914062 L 788.155029296875 537.9039916992188 Z" fill="#D34063" transform="matrix(1, 0, 0, 1, -1.6726088773102674, -1.9343264391172852)" style="fill: rgb(187, 144, 36);"/><path d="M 802.7529907226562 492.9049987792969 L 802.7529907226562 479.1090087890625 L 788.155029296875 490.614990234375 L 788.155029296875 504.4110107421875 Z" fill="#D34063" transform="matrix(1, 0, 0, 1, -1.6726088773102674, -1.9343264391172852)" style="fill: rgb(187, 144, 36);"/><path d="M 802.7529907226562 559.8920288085938 L 802.7529907226562 546.0960083007812 L 788.155029296875 557.60302734375 L 788.155029296875 571.3980102539062 Z" fill="#D34063" transform="matrix(1, 0, 0, 1, -1.6726088773102674, -1.9343264391172852)" style="fill: rgb(187, 144, 36);"/><path d="M 802.7529907226562 459.4119873046875 L 802.7529907226562 445.614990234375 L 788.155029296875 457.12200927734375 L 788.155029296875 470.9179992675781 Z" fill="#D34063" transform="matrix(1, 0, 0, 1, -1.6726088773102674, -1.9343264391172852)" style="fill: rgb(187, 144, 36);"/><path fill="#3A2060" d="M976.07,426.979l22.494-69.009l-18.876-7.864l-7.396,2.796c-4.509,1.705-7.725,5.739-8.38,10.514&#10;&#9;&#9;&#9;l-7.933,57.774c-1.407,5.603,1.995,11.286,7.598,12.692l0,0C968.909,435.221,974.367,432.205,976.07,426.979z" transform="matrix(1, 0, 0, 1, -1.6726088773102674, -1.9343264391172852)" style="fill: rgb(45, 83, 98);"/><path fill="#3A2060" d="M897.551,416.727l66.073,17.603c5.47,1.121,10.813-2.405,11.935-7.875l0,0&#10;&#9;&#9;&#9;c1.121-5.47-2.405-10.813-7.875-11.934l-67.186-12.173L897.551,416.727z" transform="matrix(1, 0, 0, 1, -1.6726088773102674, -1.9343264391172852)" style="fill: rgb(45, 83, 98);"/><path fill="#FFA7BB" d="M901.933,403.301c-2.249-2.901-8.349-4.317-11.765-4.665c-1.535-0.156-3.167-0.136-4.512,0.623&#10;&#9;&#9;&#9;c-1.347,0.759-2.224,2.179-2.645,3.667c-0.42,1.488-0.436,3.057-0.417,4.604c0.014,1.132,0.048,2.287,0.426,3.354&#10;&#9;&#9;&#9;c0.998,2.819,4.307,4.739,7.163,5.045c3.102,0.332,5.801,0.899,8.856,1.719c2.129,0.573,3.829-2.815,4.152-4.274&#10;&#9;&#9;&#9;C903.763,410.795,903.575,405.428,901.933,403.301z" transform="matrix(1, 0, 0, 1, -1.6726088773102674, -1.9343264391172852)"/><path d="M 884.661987 141.899002 H 899.259987 V 686.899002 H 884.661987 V 141.899002 Z" fill="#F8687F" transform="matrix(1, 0, 0, 1, -1.6726088773102674, -1.9343264391172852)" style="fill: rgb(228, 185, 78);"/><path d="M 899.260009765625 291.9440002441406 L 899.260009765625 278.14801025390625 L 884.6619873046875 289.6549987792969 L 884.6619873046875 303.45098876953125 Z" fill="#D34063" transform="matrix(1, 0, 0, 1, -1.6726088773102674, -1.9343264391172852)" style="fill: rgb(187, 144, 36);"/><path d="M 899.260009765625 392.42498779296875 L 899.260009765625 378.6289978027344 L 884.6619873046875 390.135009765625 L 884.6619873046875 403.9309997558594 Z" fill="#D34063" transform="matrix(1, 0, 0, 1, -1.6726088773102674, -1.9343264391172852)" style="fill: rgb(187, 144, 36);"/><path d="M 899.260009765625 425.9179992675781 L 899.260009765625 412.12200927734375 L 884.6619873046875 423.62799072265625 L 884.6619873046875 437.42498779296875 Z" fill="#D34063" transform="matrix(1, 0, 0, 1, -1.6726088773102674, -1.9343264391172852)" style="fill: rgb(187, 144, 36);"/><path d="M 899.260009765625 358.9320068359375 L 899.260009765625 345.135009765625 L 884.6619873046875 356.6419982910156 L 884.6619873046875 370.43798828125 Z" fill="#D34063" transform="matrix(1, 0, 0, 1, -1.6726088773102674, -1.9343264391172852)" style="fill: rgb(187, 144, 36);"/><path d="M 884.6619873046875 169.47799682617188 L 899.260009765625 157.9709930419922 L 899.260009765625 144.1750030517578 L 884.6619873046875 155.68099975585938 Z" fill="#D34063" transform="matrix(1, 0, 0, 1, -1.6726088773102674, -1.9343264391172852)" style="fill: rgb(187, 144, 36);"/><path d="M 899.260009765625 191.46400451660156 L 899.260009765625 177.66799926757812 L 884.6619873046875 189.1750030517578 L 884.6619873046875 202.9709930419922 Z" fill="#D34063" transform="matrix(1, 0, 0, 1, -1.6726088773102674, -1.9343264391172852)" style="fill: rgb(187, 144, 36);"/><path d="M 899.260009765625 224.95799255371094 L 899.260009765625 211.16200256347656 L 884.6619873046875 222.66799926757812 L 884.6619873046875 236.46400451660156 Z" fill="#D34063" transform="matrix(1, 0, 0, 1, -1.6726088773102674, -1.9343264391172852)" style="fill: rgb(187, 144, 36);"/><path d="M 899.260009765625 258.45098876953125 L 899.260009765625 244.65499877929688 L 884.6619873046875 256.1619873046875 L 884.6619873046875 269.9580078125 Z" fill="#D34063" transform="matrix(1, 0, 0, 1, -1.6726088773102674, -1.9343264391172852)" style="fill: rgb(187, 144, 36);"/><path d="M 899.260009765625 325.43798828125 L 899.260009765625 311.6419982910156 L 884.6619873046875 323.14801025390625 L 884.6619873046875 336.9440002441406 Z" fill="#D34063" transform="matrix(1, 0, 0, 1, -1.6726088773102674, -1.9343264391172852)" style="fill: rgb(187, 144, 36);"/><path d="M 899.260009765625 660.3720092773438 L 899.260009765625 646.5759887695312 L 884.6619873046875 658.0819702148438 L 884.6619873046875 671.8790283203125 Z" fill="#D34063" transform="matrix(1, 0, 0, 1, -1.6726088773102674, -1.9343264391172852)" style="fill: rgb(187, 144, 36);"/><path d="M 899.260009765625 626.8790283203125 L 899.260009765625 613.0830078125 L 884.6619873046875 624.5889892578125 L 884.6619873046875 638.385009765625 Z" fill="#D34063" transform="matrix(1, 0, 0, 1, -1.6726088773102674, -1.9343264391172852)" style="fill: rgb(187, 144, 36);"/><path d="M 899.260009765625 593.385986328125 L 899.260009765625 579.5889892578125 L 884.6619873046875 591.0960083007812 L 884.6619873046875 604.8920288085938 Z" fill="#D34063" transform="matrix(1, 0, 0, 1, -1.6726088773102674, -1.9343264391172852)" style="fill: rgb(187, 144, 36);"/><path d="M 899.260009765625 680.0689697265625 L 890.5960083007812 686.8989868164062 L 899.260009765625 686.8989868164062 Z" fill="#D34063" transform="matrix(1, 0, 0, 1, -1.6726088773102674, -1.9343264391172852)"/><path d="M 899.260009765625 526.3980102539062 L 899.260009765625 512.60302734375 L 884.6619873046875 524.1079711914062 L 884.6619873046875 537.9039916992188 Z" fill="#D34063" transform="matrix(1, 0, 0, 1, -1.6726088773102674, -1.9343264391172852)" style="fill: rgb(187, 144, 36);"/><path d="M 899.260009765625 492.9049987792969 L 899.260009765625 479.1090087890625 L 884.6619873046875 490.614990234375 L 884.6619873046875 504.4110107421875 Z" fill="#D34063" transform="matrix(1, 0, 0, 1, -1.6726088773102674, -1.9343264391172852)" style="fill: rgb(187, 144, 36);"/><path d="M 899.260009765625 559.8920288085938 L 899.260009765625 546.0960083007812 L 884.6619873046875 557.60302734375 L 884.6619873046875 571.3980102539062 Z" fill="#D34063" transform="matrix(1, 0, 0, 1, -1.6726088773102674, -1.9343264391172852)" style="fill: rgb(187, 144, 36);"/><path d="M 899.260009765625 459.4119873046875 L 899.260009765625 445.614990234375 L 884.6619873046875 457.12200927734375 L 884.6619873046875 470.9179992675781 Z" fill="#D34063" transform="matrix(1, 0, 0, 1, -1.6726088773102674, -1.9343264391172852)" style="fill: rgb(187, 144, 36);"/><path d="M 388.438995 513.171997 H 396.938995 V 564.171997 H 388.438995 V 513.171997 Z" transform="matrix(0.9505003094673157, 0.3108000159263611, -0.3108000159263611, 0.9505003094673157, 185.17878999082416, -97.29952384977821)" fill="#C92751" style="fill: rgb(210, 162, 40);"/><path d="M 408.13499 514.55603 A 7.658 7.658 0 0 1 400.47699 522.21403 A 7.658 7.658 0 0 1 392.81899 514.55603 A 7.658 7.658 0 0 1 400.47699 506.89803 A 7.658 7.658 0 0 1 408.13499 514.55603 Z" fill="#C92751" transform="matrix(1, 0, 0, 1, -1.6726088773102674, -1.9343264391172852)" style="fill: rgb(210, 162, 40);"/><path fill="#FF5783" d="M399.588,581.428H370.5v-14.544c0-8.032,6.512-14.544,14.544-14.544l0,0&#10;&#9;&#9;&#9;c8.033,0,14.544,6.512,14.544,14.544V581.428z" transform="matrix(1, 0, 0, 1, -1.6726088773102674, -1.9343264391172852)" style="fill: rgb(205, 167, 70);"/><path fill="#FF9FBD" d="M399.588,581.428v-14.544c0-8.032-6.511-14.544-14.544-14.544v29.088H399.588z" transform="matrix(1, 0, 0, 1, -1.6726088773102674, -1.9343264391172852)" style="fill: rgb(228, 185, 78);"/><path fill="#F4446B" d="M1100.869,743.226L764.751,844.69c-39.15,11.818-81.258,9.037-118.514-7.828L377.631,715.268&#10;&#9;&#9;&#9;c-9.744-4.411-16.004-14.117-16.004-24.812l0,0c0-15.726,12.748-28.473,28.473-28.473h708.835&#10;&#9;&#9;&#9;c19.735,0,35.734,15.998,35.734,35.733l0,0C1134.669,718.679,1120.938,737.168,1100.869,743.226z" transform="matrix(1, 0, 0, 1, -1.6726088773102674, -1.9343264391172852)" style="fill: rgb(228, 185, 78);"/><path fill="#E03F69" d="M1006.541,748.894l-246.23,74.33c-28.681,8.658-59.527,6.621-86.82-5.734l-196.772-89.077&#10;&#9;&#9;&#9;c-7.138-3.231-11.724-10.342-11.724-18.177l0,0c0-11.52,9.339-20.858,20.858-20.858h519.271c14.457,0,26.178,11.721,26.178,26.178&#10;&#9;&#9;&#9;l0,0C1031.302,730.911,1021.242,744.456,1006.541,748.894z" transform="matrix(1, 0, 0, 1, -1.6726088773102674, -1.9343264391172852)" style="fill: rgb(223, 172, 42);"/><path fill="#C92751" d="M362.492,683.475h769.218c-5.503-12.646-18.104-21.492-32.775-21.492H390.1&#10;&#9;&#9;&#9;C376.783,661.982,365.605,671.125,362.492,683.475z" transform="matrix(1, 0, 0, 1, -1.6726088773102674, -1.9343264391172852)" style="fill: rgb(210, 162, 40);"/><path d="M 725.130977 772.333008 A 12.492 12.492 0 0 1 712.638977 784.825007 A 12.492 12.492 0 0 1 700.146977 772.333008 A 12.492 12.492 0 0 1 712.638977 759.841008 A 12.492 12.492 0 0 1 725.130977 772.333008 Z" fill="#C92751" transform="matrix(1, 0, 0, 1, -1.6726088773102674, -1.9343264391172852)" style="fill: rgb(210, 161, 40);"/><path d="M 807.066979 762.5 A 11.613 11.613 0 0 1 795.453979 774.113 A 11.613 11.613 0 0 1 783.84098 762.5 A 11.613 11.613 0 0 1 795.453979 750.887 A 11.613 11.613 0 0 1 807.066979 762.5 Z" fill="#C92751" transform="matrix(1, 0, 0, 1, -1.6726088773102674, -1.9343264391172852)" style="fill: rgb(210, 162, 40);"/><path fill="#FF5783" d="M757.154,766.404c-1.04-7.973-4.17-15.288-8.82-21.38l6.466-6.466l-8.386-8.386l-6.451,6.451&#10;&#9;&#9;&#9;c-6.088-4.684-13.409-7.843-21.395-8.905v-9.08H706.71v9.063c-8.001,1.044-15.34,4.192-21.445,8.871l-6.4-6.4l-8.386,8.386&#10;&#9;&#9;&#9;l6.4,6.4c-4.678,6.105-7.827,13.443-8.871,21.445h-9.063v11.858h9.08c1.062,7.985,4.222,15.307,8.905,21.395l-6.451,6.451&#10;&#9;&#9;&#9;l8.386,8.385l6.466-6.466c6.092,4.651,13.407,7.781,21.38,8.821v9.179h11.858v-9.195c7.956-1.059,15.254-4.199,21.329-8.854&#10;&#9;&#9;&#9;l6.517,6.516l8.386-8.385l-6.517-6.517c4.656-6.075,7.796-13.373,8.854-21.329h9.195v-11.858H757.154z M712.639,802.473&#10;&#9;&#9;&#9;c-16.646,0-30.139-13.493-30.139-30.14c0-16.646,13.494-30.14,30.139-30.14c16.646,0,30.141,13.494,30.141,30.14&#10;&#9;&#9;&#9;C742.779,788.979,729.285,802.473,712.639,802.473z" transform="matrix(1, 0, 0, 1, -1.6726088773102674, -1.9343264391172852)" style="fill: rgb(238, 194, 81);"/><path fill="#FF5783" d="M821.824,758.941c-0.624-4.785-2.503-9.176-5.294-12.832l3.881-3.881l-5.033-5.032l-3.871,3.871&#10;&#9;&#9;&#9;c-3.655-2.811-8.049-4.707-12.842-5.345v-5.449h-7.117v5.439c-4.802,0.627-9.207,2.517-12.871,5.324l-3.841-3.841l-5.033,5.032&#10;&#9;&#9;&#9;l3.842,3.842c-2.809,3.664-4.698,8.068-5.325,12.871h-5.439v7.117h5.45c0.638,4.793,2.533,9.187,5.344,12.841l-3.871,3.872&#10;&#9;&#9;&#9;l5.033,5.032l3.881-3.881c3.656,2.792,8.046,4.67,12.831,5.295v5.509h7.117v-5.519c4.775-0.636,9.155-2.521,12.802-5.314&#10;&#9;&#9;&#9;l3.911,3.91l5.033-5.032l-3.911-3.911c2.794-3.646,4.679-8.026,5.314-12.802h5.519v-7.117H821.824z M795.106,780.59&#10;&#9;&#9;&#9;c-9.99,0-18.089-8.1-18.089-18.09s8.099-18.09,18.089-18.09c9.991,0,18.09,8.1,18.09,18.09S805.098,780.59,795.106,780.59z" transform="matrix(1, 0, 0, 1, -1.6726088773102674, -1.9343264391172852)" style="fill: rgb(238, 193, 81);"/><path d="M 796.288999 713.143982 A 6.94 6.94 0 0 1 789.348999 720.083982 A 6.94 6.94 0 0 1 782.408999 713.143982 A 6.94 6.94 0 0 1 789.348999 706.203982 A 6.94 6.94 0 0 1 796.288999 713.143982 Z" fill="#C92751" transform="matrix(1, 0, 0, 1, -1.6726088773102674, -1.9343264391172852)" style="fill: rgb(210, 162, 40);"/><path fill="#FF5783" d="M805.107,711.018c-0.373-2.86-1.495-5.483-3.163-7.669l2.319-2.319l-3.008-3.008l-2.314,2.314&#10;&#9;&#9;&#9;c-2.184-1.681-4.81-2.813-7.674-3.194v-3.257h-4.253v3.251c-2.87,0.374-5.502,1.504-7.692,3.182l-2.295-2.296l-3.008,3.008&#10;&#9;&#9;&#9;l2.295,2.296c-1.678,2.189-2.807,4.822-3.182,7.692h-3.251v4.253h3.257c0.382,2.864,1.515,5.49,3.194,7.674l-2.313,2.313&#10;&#9;&#9;&#9;l3.008,3.008l2.318-2.319c2.186,1.669,4.81,2.791,7.669,3.164v3.292h4.253v-3.298c2.854-0.38,5.472-1.506,7.65-3.176l2.338,2.337&#10;&#9;&#9;&#9;l3.008-3.008l-2.338-2.337c1.67-2.179,2.797-4.797,3.176-7.65h3.299v-4.253H805.107z M789.142,723.954&#10;&#9;&#9;&#9;c-5.971,0-10.811-4.84-10.811-10.811s4.84-10.811,10.811-10.811c5.97,0,10.81,4.84,10.81,10.811S795.111,723.954,789.142,723.954z&#10;&#9;&#9;&#9;" transform="matrix(1, 0, 0, 1, -1.6726088773102674, -1.9343264391172852)" style="fill: rgb(238, 193, 81);"/><path fill="#C92751" d="M404.933,683.475h-42.441v-97.186c0-6.914,5.605-12.52,12.519-12.52h29.922V683.475z" transform="matrix(1, 0, 0, 1, -1.6726088773102674, -1.9343264391172852)" style="fill: rgb(210, 162, 40);"/><path d="M 529.132019 552.982971 H 541.864019 V 648.17997 H 529.132019 V 552.982971 Z" fill="#C13668" transform="matrix(1, 0, 0, 1, -1.6726088773102674, -1.9343264391172852)" style="fill: rgb(210, 162, 40);"/><path fill="#A01F47" d="M525.463,561.472h20.07c6.512,0,11.792-5.279,11.792-11.792v-6.473h-43.654v6.473&#10;&#9;&#9;&#9;C513.671,556.192,518.95,561.472,525.463,561.472z" transform="matrix(1, 0, 0, 1, -1.6726088773102674, -1.9343264391172852)" style="fill: rgb(210, 162, 40);"/><path d="M 524.596008 556.39502 H 546.399008 V 578.198019 H 524.596008 V 556.39502 Z" fill="#A01F47" transform="matrix(1, 0, 0, 1, -1.6726088773102674, -1.9343264391172852)" style="fill: rgb(210, 162, 40);"/><path fill="#A01F47" d="M492.572,661.822h85.852v-1.431c0-7.246-5.874-13.12-13.12-13.12h-59.612&#10;&#9;&#9;&#9;c-7.246,0-13.12,5.874-13.12,13.12V661.822z" transform="matrix(1, 0, 0, 1, -1.6726088773102674, -1.9343264391172852)" style="fill: rgb(210, 162, 40);"/><path d="M 588.116028 388.803009 H 596.903028 V 417.557009 H 588.116028 V 388.803009 Z" fill="#BC244C" transform="matrix(1, 0, 0, 1, -1.6726088773102674, -1.9343264391172852)" style="fill: rgb(210, 162, 40);"/><path d="M 566.14801 388.803009 H 574.93501 V 417.557009 H 566.14801 V 388.803009 Z" fill="#BC244C" transform="matrix(1, 0, 0, 1, -1.6726088773102674, -1.9343264391172852)" style="fill: rgb(210, 162, 40);"/><path fill="#F62E5D" d="M544.333,369.874h64.891c5.044,0,9.133,4.089,9.133,9.134v8.189c0,5.044-4.089,9.134-9.133,9.134h-64.891&#10;&#9;&#9;&#9;c-5.044,0-9.134-4.089-9.134-9.134v-8.189C535.199,373.963,539.289,369.874,544.333,369.874z" transform="matrix(1, 0, 0, 1, -1.6726088773102674, -1.9343264391172852)"/><path fill="#FF5783" d="M535.199,387.197v-8.189c0-5.044,4.089-9.134,9.134-9.134h54.697c5.044,0,9.134,4.089,9.134,9.134v8.189&#10;&#9;&#9;&#9;c0,5.044-4.089,9.134-9.134,9.134h-54.697C539.289,396.331,535.199,392.242,535.199,387.197z" transform="matrix(1, 0, 0, 1, -1.6726088773102674, -1.9343264391172852)" style="fill: rgb(228, 185, 78);"/><path fill="#F62E5D" d="M527.894,518.651h62.138c5.063,0,9.386-3.657,10.223-8.651l16.078-95.906&#10;&#9;&#9;&#9;c1.06-6.321-3.814-12.079-10.223-12.079h-62.139c-5.063,0-9.386,3.658-10.223,8.651l-16.078,95.906&#10;&#9;&#9;&#9;C516.611,512.894,521.485,518.651,527.894,518.651z" transform="matrix(1, 0, 0, 1, -1.6726088773102674, -1.9343264391172852)" style="fill: rgb(210, 162, 40);"/><path fill="#FF5783" d="M517.671,506.572l16.078-95.906c0.837-4.994,5.159-8.651,10.223-8.651h51.367&#10;&#9;&#9;&#9;c6.409,0,11.283,5.758,10.223,12.079L589.484,510c-0.837,4.994-5.159,8.651-10.222,8.651h-51.368&#10;&#9;&#9;&#9;C521.485,518.651,516.611,512.894,517.671,506.572z" transform="matrix(1, 0, 0, 1, -1.6726088773102674, -1.9343264391172852)" style="fill: rgb(228, 185, 78);"/><path fill="#F62E5D" d="M480.498,544.664h105.813c6.68,0,12.095-5.416,12.095-12.096v-2.639c0-6.68-5.416-12.095-12.095-12.095&#10;&#9;&#9;&#9;H480.498c-6.68,0-12.095,5.415-12.095,12.095v2.639C468.403,539.248,473.818,544.664,480.498,544.664z" transform="matrix(1, 0, 0, 1, -1.6726088773102674, -1.9343264391172852)" style="fill: rgb(210, 162, 40);"/><path fill="#FF5783" d="M468.402,531.249c0-7.408,6.006-13.414,13.415-13.414h84.077c7.408,0,13.414,6.006,13.414,13.414&#10;&#9;&#9;&#9;c0,7.409-6.006,13.415-13.414,13.415h-84.077C474.409,544.664,468.402,538.658,468.402,531.249z" transform="matrix(1, 0, 0, 1, -1.6726088773102674, -1.9343264391172852)" style="fill: rgb(228, 185, 78);"/><path fill="#2D1856" d="M654.068,545.746L654.068,545.746c-7.145-0.988-12.136-7.581-11.148-14.727l13.04-106.588l44.091,6.098&#10;&#9;&#9;&#9;l-31.376,104.79C667.343,542.119,660.933,546.695,654.068,545.746z" transform="matrix(1, 0, 0, 1, -1.6726088773102674, -1.9343264391172852)" style="fill: rgb(35, 65, 77);"/><path fill="#2D1856" d="M611.061,665.604l-19.497-8.146l52.333-128.044c2.653-6.351,9.952-9.348,16.302-6.694l0,0&#10;&#9;&#9;&#9;c6.523,2.725,9.476,10.324,6.503,16.738L611.061,665.604z" transform="matrix(1, 0, 0, 1, -1.6726088773102674, -1.9343264391172852)" style="fill: rgb(35, 65, 77);"/><path fill="#2D1856" d="M740.773,534.767L740.773,534.767c6.493-3.143,9.209-10.953,6.067-17.445l-45.255-97.381l-28.168,13.632&#10;&#9;&#9;&#9;l50.248,95.776C727.028,535.407,734.537,537.785,740.773,534.767z" transform="matrix(1, 0, 0, 1, -1.6726088773102674, -1.9343264391172852)" style="fill: rgb(35, 65, 77);"/><path fill="#2D1856" d="M756.702,661.982l20.61-4.661l-29.469-135.15c-1.519-6.713-8.19-10.924-14.903-9.405l0,0&#10;&#9;&#9;&#9;c-6.896,1.559-11.114,8.535-9.292,15.366L756.702,661.982z" transform="matrix(1, 0, 0, 1, -1.6726088773102674, -1.9343264391172852)" style="fill: rgb(35, 65, 77);"/><path fill="#4B2676" d="M706.894,428.661c0,0-11.194,3.477-25.81,3.477c-12.571,0-27.683-3.477-27.683-3.477l-3.8-58.632&#10;&#9;&#9;&#9;c-0.477-7.356,5.36-13.584,12.731-13.584h51.115L706.894,428.661z" transform="matrix(1, 0, 0, 1, -1.6726088773102674, -1.9343264391172852)" style="fill: rgb(45, 83, 98);"/><path d="M 706.989990234375 356.44500732421875 L 675.7160034179688 356.44500732421875 L 690.5759887695312 408.8680114746094 Z" fill="#FFFFFF" transform="matrix(1, 0, 0, 1, -1.6726088773102674, -1.9343264391172852)"/><path d="M 701.7239990234375 356.44500732421875 L 690.2069702148438 359.1199951171875 L 678.1409912109375 356.44500732421875 L 679.4459838867188 341.0379943847656 L 702.8930053710938 343.09100341796875 Z" fill="#E293A6" transform="matrix(1, 0, 0, 1, -1.6726088773102674, -1.9343264391172852)"/><path fill="#FFA7BB" d="M710.043,327.523c0.409,5.515-1.346,11.178-3.847,16.152c-1.593,3.167-3.974,6.523-7.502,6.874&#10;&#9;&#9;&#9;c-1.725,0.172-3.428-0.431-5.022-1.112c-8.594-3.677-18.194-10.519-18.528-20.772c-0.312-9.6,7.216-17.636,16.816-17.948&#10;&#9;&#9;&#9;c6.673-0.217,13.025,3.532,16.062,9.478C709.229,322.555,709.858,325.024,710.043,327.523z" transform="matrix(1, 0, 0, 1, -1.6726088773102674, -1.9343264391172852)"/><path d="M 613.302978515625 661.0349731445312 L 627.0460205078125 668.1409912109375 L 589.7249755859375 665.468017578125 L 591.5640258789062 657.4580078125 Z" fill="#511122" transform="matrix(1, 0, 0, 1, -1.6726088773102674, -1.9343264391172852)"/><path d="M 773.93798828125 657.4580078125 L 791.7219848632812 667.448974609375 L 756.1539916992188 666.8690185546875 L 756.2529907226562 660.7650146484375 Z" fill="#511122" transform="matrix(1, 0, 0, 1, -1.6726088773102674, -1.9343264391172852)"/><path fill="#2D1856" d="M678.141,356.445l12.571,52.423l-16.85-26.516l4.279-7.453l-9.628-8.345&#10;&#9;&#9;&#9;C668.513,366.555,667.978,353.771,678.141,356.445z" transform="matrix(1, 0, 0, 1, -1.6726088773102674, -1.9343264391172852)" style="fill: rgb(29, 108, 98);"/><path fill="#2D1856" d="M703.146,356.445l-12.57,52.423l16.851-26.516l-4.28-7.453l9.629-8.345&#10;&#9;&#9;&#9;C712.775,366.555,713.311,353.771,703.146,356.445z" transform="matrix(1, 0, 0, 1, -1.6726088773102674, -1.9343264391172852)" style="fill: rgb(29, 108, 98);"/><path fill="#EAEAEA" d="M677.044,351.363l13.163,7.756l-3.58,4.279l-9.353-7.322C677.274,356.077,674.965,352.166,677.044,351.363&#10;&#9;&#9;&#9;z" transform="matrix(1, 0, 0, 1, -1.6726088773102674, -1.9343264391172852)"/><path fill="#EAEAEA" d="M702.23,351.363l-12.023,7.756l3.58,4.279l9.353-7.322C703.14,356.077,704.31,352.166,702.23,351.363z" transform="matrix(1, 0, 0, 1, -1.6726088773102674, -1.9343264391172852)"/><path d="M 687.5020141601562 360.4570007324219 L 693.2080078125 360.4570007324219 L 690.35498046875 365.3479919433594 Z" fill="#FF406F" transform="matrix(1, 0, 0, 1, -1.6726088773102674, -1.9343264391172852)" style="fill: rgb(210, 162, 40);"/><path d="M 690.2069702148438 363.7560119628906 L 694.0999755859375 400.9339904785156 L 690.5759887695312 408.8680114746094 L 685.8980102539062 397.81298828125 Z" fill="#FF406F" transform="matrix(1, 0, 0, 1, -1.6726088773102674, -1.9343264391172852)" style="fill: rgb(210, 162, 40);"/><path d="M 674.656005859375 407.531005859375 L 668.7329711914062 421.1650085449219 L 670.7979736328125 422.24200439453125 L 676.3280029296875 408.5190124511719 Z" fill="#2D1856" transform="matrix(1, 0, 0, 1, -1.6726088773102674, -1.9343264391172852)" style="fill: rgb(20, 75, 68);"/><path fill="none" stroke="#231F20" stroke-miterlimit="10" d="M703.847,327.42c0,0,0.141,4.315,2.454,6.653&#10;&#9;&#9;&#9;c1.015,1.025,0.959,2.737-0.27,3.493c-0.495,0.305-1.102,0.535-1.835,0.603" transform="matrix(1, 0, 0, 1, -1.6726088773102674, -1.9343264391172852)"/><path fill="#1D1E30" d="M688.704,327.392c-1.201,0.213-2.364,0.535-2.965,1.793c-0.305,0.638-0.278,1.377-0.246,2.083&#10;&#9;&#9;&#9;c0.098,2.108,0.195,4.217,0.293,6.326c0.024,0.51,0.03,1.074-0.301,1.462c-0.222,0.261-0.556,0.392-0.857,0.554&#10;&#9;&#9;&#9;c-2.089,1.127-2.677,3.798-3.045,6.143c-2.351-0.161-4.106-2.205-5.298-4.237c-2.644-4.508-3.923-9.709-4.438-14.91&#10;&#9;&#9;&#9;c-0.971-9.799,3.985-15.116,13.083-18.203c2.208-0.749,4.52-1.091,6.838-1.251c1.567-0.109,2.972-0.658,4.494-0.792&#10;&#9;&#9;&#9;c3.651-0.323,7.809,2.087,10.162,4.698c2.836,3.148,4.167,7.596,3.524,11.784c-1.303-0.917-2.605-1.833-3.908-2.749&#10;&#9;&#9;&#9;c-0.142-0.1-0.29-0.202-0.462-0.227c-0.311-0.045-0.593,0.171-0.835,0.371c-2.895,2.389-6.207,4.267-9.733,5.546&#10;&#9;&#9;&#9;c-1.723,0.625-3.497,1.108-5.3,1.438C689.379,327.282,689.041,327.333,688.704,327.392z" transform="matrix(1, 0, 0, 1, -1.6726088773102674, -1.9343264391172852)"/><path fill="#FFA7BB" d="M685.655,332.779c-0.166-0.194-0.36-0.384-0.585-0.569c-0.416-0.343-0.867-0.642-1.344-0.893&#10;&#9;&#9;&#9;c-0.545-0.287-1.17-0.513-1.77-0.369c-0.561,0.135-1.008,0.586-1.254,1.108c-0.673,1.431-0.582,3.604-0.16,5.082&#10;&#9;&#9;&#9;c0.247,0.865,0.701,1.653,1.151,2.432c0.172,0.299,0.353,0.606,0.63,0.812c0.205,0.152,0.449,0.239,0.69,0.324&#10;&#9;&#9;&#9;c0.818,0.287,1.682,0.579,2.535,0.426C685.498,338.161,687.693,335.162,685.655,332.779z" transform="matrix(1, 0, 0, 1, -1.6726088773102674, -1.9343264391172852)"/><path fill="#771B35" d="M697.343,339.363c0,0,3.29,2.672,6.834,2.982c0,0-1.933,4.091-5.268,3.488&#10;&#9;&#9;&#9;S695.008,341.668,697.343,339.363z" transform="matrix(1, 0, 0, 1, -1.6726088773102674, -1.9343264391172852)"/><path fill="#562B96" d="M704.258,413.246l-31.604-50.036c-3.87-6.127-12.121-7.692-17.966-3.408l0,0&#10;&#9;&#9;&#9;c-5.571,4.083-6.777,11.909-2.694,17.479l34.984,47.734c3.415,4.659,9.96,5.668,14.62,2.253l0,0&#10;&#9;&#9;&#9;C706.03,424.019,707.193,417.893,704.258,413.246z" transform="matrix(1, 0, 0, 1, -1.6726088773102674, -1.9343264391172852)" style="fill: rgb(45, 83, 98);"/><path fill="#562B96" d="M785.932,423.466l-90.9-15.704c-5.549-0.618-10.549,3.379-11.167,8.929l0,0&#10;&#9;&#9;&#9;c-0.618,5.549,3.379,10.549,8.929,11.167l91.514,10.194L785.932,423.466z" transform="matrix(1, 0, 0, 1, -1.6726088773102674, -1.9343264391172852)" style="fill: rgb(45, 83, 98);"/><path fill="#FFA7BB" d="M785.94,422.267c0.721-0.401,1.42-0.677,2.044-0.741c-0.381,1.678,0.809,3.339,2.217,4.327&#10;&#9;&#9;&#9;c3.461,2.429,8.064,2.185,12.279,1.842c1.147,2.36,0.773,5.38-0.917,7.388c-0.901,1.071-2.11,1.839-3.36,2.469&#10;&#9;&#9;&#9;c-2.762,1.39-7.364,3.084-10.495,2.183c-2.977-0.857-6.278-3.106-9.062-4.533c-1.162-0.595-1.218-2.931-1.021-3.938&#10;&#9;&#9;&#9;c0.359-1.847,1.686-3.42,2.996-4.69C781.826,425.406,783.965,423.366,785.94,422.267z" transform="matrix(1, 0, 0, 1, -1.6726088773102674, -1.9343264391172852)"/><path fill="#2D1856" d="M1026.164,539.63L1026.164,539.63c7.213-0.093,12.984-6.015,12.892-13.228l0.301-107.383l-45.847,0.592&#10;&#9;&#9;&#9;l19.457,107.858C1013.443,534.383,1019.236,539.72,1026.164,539.63z" transform="matrix(1, 0, 0, 1, -1.6726088773102674, -1.9343264391172852)" style="fill: rgb(35, 65, 77);"/><path fill="#2D1856" d="M1046.022,665.312l20.646-4.499l-28.709-137.148c-2.4-6.451-9.574-9.734-16.024-7.335l0,0&#10;&#9;&#9;&#9;c-6.626,2.464-9.877,9.941-7.16,16.468L1046.022,665.312z" transform="matrix(1, 0, 0, 1, -1.6726088773102674, -1.9343264391172852)" style="fill: rgb(35, 65, 77);"/><path fill="#2D1856" d="M966.72,532.674L966.72,532.674c-6.826-2.328-10.473-9.751-8.144-16.577l33.071-102.164l29.617,10.104&#10;&#9;&#9;&#9;l-38.222,101.178C980.441,531.638,973.278,534.911,966.72,532.674z" transform="matrix(1, 0, 0, 1, -1.6726088773102674, -1.9343264391172852)" style="fill: rgb(35, 65, 77);"/><path fill="#2D1856" d="M966.387,660.883l-21.022-2.118l12.807-137.731c0.689-6.848,6.8-11.84,13.647-11.149l0,0&#10;&#9;&#9;&#9;c7.034,0.708,12.07,7.12,11.093,14.121L966.387,660.883z" transform="matrix(1, 0, 0, 1, -1.6726088773102674, -1.9343264391172852)" style="fill: rgb(35, 65, 77);"/><path fill="#4B2676" d="M984.782,429.522c0,0,12.531,6.429,27.042,4.677c12.48-1.508,29.385-10.927,29.385-10.927l-3.258-63.795&#10;&#9;&#9;&#9;c-0.409-7.359-6.951-12.843-14.27-11.959l-50.745,6.13L984.782,429.522z" transform="matrix(1, 0, 0, 1, -1.6726088773102674, -1.9343264391172852)" style="fill: rgb(45, 83, 98);"/><path d="M 983.323975 336.515991 H 1006.859974 V 353.633991 H 983.323975 V 336.515991 Z" transform="matrix(-0.978500247001648, 0.2061000019311905, -0.2061000019311905, -0.978500247001648, 2038.2629698256092, 475.7533945404498)" fill="#E293A6"/><path d="M 979.3469848632812 352.8739929199219 L 1010.39501953125 349.1239929199219 L 1001.9290161132812 402.95098876953125 Z" fill="#FFFFFF" transform="matrix(1, 0, 0, 1, -1.6726088773102674, -1.9343264391172852)"/><path fill="#FFA7BB" d="M974.171,324.341c0.774,5.646,3.373,11.049,5.923,16.229c1.346,2.734,3.405,5.526,6.781,5.456&#10;&#9;&#9;&#9;c1.733-0.037,3.352-0.839,4.853-1.707c8.091-4.681,16.802-12.625,15.903-22.844c-0.841-9.568-9.279-16.643-18.847-15.802&#10;&#9;&#9;&#9;c-3.701,0.325-7.244,1.887-10.021,4.349c-3.253,2.884-4.627,5.869-4.804,10.092C973.9,321.538,973.98,322.947,974.171,324.341z" transform="matrix(1, 0, 0, 1, -1.6726088773102674, -1.9343264391172852)"/><path d="M 1044.968017578125 664.6220092773438 L 1031.302001953125 671.8729858398438 L 1068.593017578125 668.802978515625 L 1066.66796875 660.81201171875 Z" fill="#511122" transform="matrix(1, 0, 0, 1, -1.6726088773102674, -1.9343264391172852)"/><path d="M 948.72900390625 658.489013671875 L 932.2930297851562 670.5700073242188 L 967.5260009765625 665.6669921875 L 966.6859741210938 659.6199951171875 Z" fill="#511122" transform="matrix(1, 0, 0, 1, -1.6726088773102674, -1.9343264391172852)"/><path d="M 996.885009765625 358.1189880371094 L 997.47900390625 395.4960021972656 L 1001.9290161132812 402.95098876953125 L 1005.2470092773438 391.41400146484375 Z" fill="#FF406F" transform="matrix(1, 0, 0, 1, -1.6726088773102674, -1.9343264391172852)" style="fill: rgb(210, 162, 40);"/><path fill="#2D1856" d="M1007.987,349.415l-6.194,53.553l13.549-28.345l-5.142-6.886l8.559-9.439&#10;&#9;&#9;&#9;C1018.759,358.297,1017.757,345.541,1007.987,349.415z" transform="matrix(1, 0, 0, 1, -1.6726088773102674, -1.9343264391172852)" style="fill: rgb(29, 108, 98);"/><path fill="#2D1856" d="M983.161,352.413l18.768,50.538l-19.909-24.303l3.355-7.913l-10.561-7.13&#10;&#9;&#9;&#9;C974.814,363.605,972.75,350.977,983.161,352.413z" transform="matrix(1, 0, 0, 1, -1.6726088773102674, -1.9343264391172852)" style="fill: rgb(29, 108, 98);"/><path fill="#EAEAEA" d="M1008.467,344.238l-12.138,9.279l4.066,3.819l8.407-8.391&#10;&#9;&#9;&#9;C1008.803,348.945,1010.627,344.785,1008.467,344.238z" transform="matrix(1, 0, 0, 1, -1.6726088773102674, -1.9343264391172852)"/><path fill="#EAEAEA" d="M983.462,347.258l12.867,6.258l-3.041,4.678l-10.163-6.147&#10;&#9;&#9;&#9;C983.125,352.047,981.494,348.304,983.462,347.258z" transform="matrix(1, 0, 0, 1, -1.6726088773102674, -1.9343264391172852)"/><path d="M 999.1740112304688 354.5199890136719 L 993.510009765625 355.2049865722656 L 996.9290161132812 359.7179870605469 Z" fill="none" stroke="#231F20" stroke-miterlimit="10" transform="matrix(1, 0, 0, 1, -1.6726088773102674, -1.9343264391172852)"/><path d="M 1017.572021484375 399.7139892578125 L 1025.0880126953125 412.5400085449219 L 1023.1680297851562 413.8559875488281 L 1016.031982421875 400.8949890136719 Z" fill="#2D1856" transform="matrix(1, 0, 0, 1, -1.6726088773102674, -1.9343264391172852)" style="fill: rgb(20, 75, 68);"/><path fill="none" stroke="#231F20" stroke-miterlimit="10" d="M980.536,323.682c0,0,0.378,4.301-1.639,6.899&#10;&#9;&#9;&#9;c-0.885,1.14-0.624,2.832,0.687,3.436c0.527,0.243,1.157,0.399,1.894,0.378" transform="matrix(1, 0, 0, 1, -1.6726088773102674, -1.9343264391172852)"/><path fill="#1D1E30" d="M994.034,321.539c1.297,0.346,2.576,0.835,3.141,1.724c0.379,0.597,0.441,1.334,0.493,2.039&#10;&#9;&#9;&#9;c0.156,2.105,0.312,4.21,0.468,6.315c0.038,0.509,0.1,1.07,0.475,1.416c0.252,0.232,0.599,0.322,0.918,0.447&#10;&#9;&#9;&#9;c2.209,0.868,3.113,3.45,3.76,5.733c2.313-0.442,3.812-2.681,4.751-4.842c2.085-4.792,2.73-10.109,2.619-15.334&#10;&#9;&#9;&#9;c-0.129-5.999-3.212-11.251-8.528-14.083c-2.56-1.363-5.42-2.122-8.299-2.397c-1.857-0.178-7.435,0.946-8.585-0.619&#10;&#9;&#9;&#9;c-0.279-0.381-0.335-0.875-0.477-1.326c-0.69-2.196-3.48-3.126-5.715-2.57c-1.532,0.381-2.924,1.307-3.868,2.572&#10;&#9;&#9;&#9;c-1.431,1.916-1.771,4.427-1.798,6.817c-0.022,2.04,0.159,4.126,0.981,5.992c1.32,2.997,3.891,3.991,6.837,4.836&#10;&#9;&#9;&#9;c3.366,0.965,6.811,1.629,10.167,2.63C992.072,321.099,993.059,321.278,994.034,321.539z" transform="matrix(1, 0, 0, 1, -1.6726088773102674, -1.9343264391172852)"/><path fill="#FFA7BB" d="M997.689,326.82c0.141-0.212,0.311-0.424,0.512-0.635c0.372-0.39,0.784-0.741,1.228-1.047&#10;&#9;&#9;&#9;c0.507-0.35,1.101-0.65,1.713-0.579c0.573,0.067,1.071,0.461,1.378,0.95c0.84,1.339,1.011,3.508,0.769,5.026&#10;&#9;&#9;&#9;c-0.142,0.888-0.498,1.725-0.852,2.552c-0.135,0.318-0.277,0.645-0.527,0.882c-0.186,0.175-0.418,0.291-0.646,0.404&#10;&#9;&#9;&#9;c-0.778,0.383-1.601,0.776-2.466,0.727C998.491,332.145,995.952,329.431,997.689,326.82z" transform="matrix(1, 0, 0, 1, -1.6726088773102674, -1.9343264391172852)"/><path fill="none" stroke="#231F20" stroke-miterlimit="10" d="M982.491,338.982c0,0,3.749-0.962,4.583-3.877" transform="matrix(1, 0, 0, 1, -1.6726088773102674, -1.9343264391172852)"/><path fill="#562B96" d="M961.662,349.529l59.146-2.021c7.243-0.248,13.179,5.693,12.926,12.936l0,0&#10;&#9;&#9;&#9;c-0.242,6.903-6.033,12.303-12.936,12.061l-59.146-2.069c-5.773-0.202-10.289-5.046-10.088-10.819l0,0&#10;&#9;&#9;&#9;C951.758,354.124,956.169,349.717,961.662,349.529z" transform="matrix(1, 0, 0, 1, -1.6726088773102674, -1.9343264391172852)" style="fill: rgb(45, 83, 98);"/><path fill="#562B96" d="M907.265,287.755l64.121,66.317c3.634,4.24,3.142,10.623-1.099,14.256l0,0&#10;&#9;&#9;&#9;c-4.24,3.633-10.623,3.141-14.256-1.099l-59.912-69.924L907.265,287.755z" transform="matrix(1, 0, 0, 1, -1.6726088773102674, -1.9343264391172852)" style="fill: rgb(45, 83, 98);"/><path fill="#FFA7BB" d="M907.909,287.101c-1.129-4.901-3.247-10.623-8.887-11.243c-0.018,1.737-0.034,3.475-0.052,5.211&#10;&#9;&#9;&#9;c-5.148-0.672-10.166-2.34-14.691-4.886c-0.244,1.874-0.364,3.763-0.358,5.653c0.003,1.223,0.062,2.462,0.428,3.628&#10;&#9;&#9;&#9;c0.336,1.07,0.919,2.043,1.496,3.005c3.48,5.796,9.967,8.718,15.816,11.912C901.661,300.382,908.864,302.034,907.909,287.101z" transform="matrix(1, 0, 0, 1, -1.6726088773102674, -1.9343264391172852)"/><g transform="matrix(1, 0, 0, 1, -4.457988328605666, 1.5473983518391492)">
			<path fill="#EAEAEA" d="M644.071,331.283c0,0-19.475-2.439-25.793,17.83l19.256,39.467c0,0,13.069-19.208,27.86-13.594&#10;&#9;&#9;&#9;&#9;L644.071,331.283z"/>
			<path fill="#EAEAEA" d="M589.161,358.074c0,0,10.064-16.851,29.928-9.357l19.256,39.466c0,0-23.183-1.52-27.861,13.594&#10;&#9;&#9;&#9;&#9;L589.161,358.074z"/>
			<path fill="#2D1856" d="M642.317,327.688c0,0-19.476-2.438-25.793,17.83l19.256,39.466c0,0,13.069-19.208,27.86-13.593&#10;&#9;&#9;&#9;&#9;L642.317,327.688z" style="fill: rgb(29, 108, 98);"/>
			<path fill="#321F60" d="M587.407,354.479c0,0,10.064-16.851,29.928-9.357l19.256,39.466c0,0-23.183-1.521-27.86,13.593&#10;&#9;&#9;&#9;&#9;L587.407,354.479z" style="fill: rgb(32, 118, 108);"/>
		</g><path fill="#1C1038" d="M440.026,517.322L440.026,517.322c-1.045-7.572,4.246-14.558,11.817-15.603l88.347-17.333l4.536,32.85&#10;&#9;&#9;&#9;l-89.867,11.987C447.541,529.819,441.03,524.596,440.026,517.322z" transform="matrix(1, 0, 0, 1, -1.6726088773102674, -1.9343264391172852)" style="fill: rgb(35, 65, 77);"/><path fill="#1C1038" d="M457.053,662.201l-22.371-0.966l5.191-146.492c0.314-7.286,6.476-12.938,13.763-12.624l0,0&#10;&#9;&#9;&#9;c7.484,0.323,13.201,6.801,12.592,14.268L457.053,662.201z" transform="matrix(1, 0, 0, 1, -1.6726088773102674, -1.9343264391172852)" style="fill: rgb(35, 65, 77);"/><path fill="#2D1856" d="M473.805,517.322L473.805,517.322c-1.045-7.572,4.245-14.558,11.817-15.603l88.347-17.333l1.645,11.914&#10;&#9;&#9;&#9;c1.594,11.547-6.504,22.189-18.059,23.73l-68.917,9.192C481.319,529.819,474.809,524.596,473.805,517.322z" transform="matrix(1, 0, 0, 1, -1.6726088773102674, -1.9343264391172852)" style="fill: rgb(45, 83, 98);"/><path fill="#2D1856" d="M529.954,655.724l-21.811,5.064l-34.255-142.524c-1.65-7.104,2.772-14.201,9.876-15.851l0,0&#10;&#9;&#9;&#9;c7.297-1.694,14.541,3.015,15.955,10.371L529.954,655.724z" transform="matrix(1, 0, 0, 1, -1.6726088773102674, -1.9343264391172852)" style="fill: rgb(45, 83, 98);"/><path fill="#4B2676" d="M519.645,488.092c0,0,11.862,3.685,27.351,3.685c13.322,0,29.335-3.685,29.335-3.685l4.96-76.527H512.7&#10;&#9;&#9;&#9;L519.645,488.092z" transform="matrix(1, 0, 0, 1, -1.6726088773102674, -1.9343264391172852)" style="fill: rgb(45, 83, 98);"/><path d="M 526.7459716796875 411.5639953613281 L 559.8870239257812 411.5639953613281 L 544.1400146484375 467.1180114746094 Z" fill="#FFFFFF" transform="matrix(1, 0, 0, 1, -1.6726088773102674, -1.9343264391172852)"/><path fill="#4B2676" d="M613.392,481.324l-52.203-56.488l13.849-11.128c4.171-3.352,10.27-2.687,13.621,1.484l41.514,51.667&#10;&#9;&#9;&#9;c3.834,4.772,3.074,11.749-1.698,15.583l0,0C623.935,486.09,617.345,485.602,613.392,481.324z" transform="matrix(1, 0, 0, 1, -1.6726088773102674, -1.9343264391172852)" style="fill: rgb(45, 83, 98);"/><path fill="#4B2676" d="M642.974,398.7l-9.547,77.28c-1.092,5.815-6.691,9.645-12.507,8.553l0,0&#10;&#9;&#9;&#9;c-5.815-1.092-9.645-6.691-8.553-12.507l15.32-76.196L642.974,398.7z" transform="matrix(1, 0, 0, 1, -1.6726088773102674, -1.9343264391172852)" style="fill: rgb(45, 83, 98);"/><path fill="#4B2676" d="M443.254,412.556l72.489,25.72l7.372-26.447l-73.177-20.397c-5.897-1.644-12.01,1.804-13.654,7.701l0,0&#10;&#9;&#9;&#9;C434.719,404.744,437.765,410.608,443.254,412.556z" transform="matrix(1, 0, 0, 1, -1.6726088773102674, -1.9343264391172852)" style="fill: rgb(45, 83, 98);"/><path fill="#4B2676" d="M420.303,332.005l16.936,74.134c1.725,5.66,7.711,8.851,13.372,7.126l0,0&#10;&#9;&#9;&#9;c5.66-1.725,8.851-7.712,7.126-13.372l-22.555-72.422L420.303,332.005z" transform="matrix(1, 0, 0, 1, -1.6726088773102674, -1.9343264391172852)" style="fill: rgb(45, 83, 98);"/><path d="M 533.8740234375 411.17498779296875 L 544.531005859375 414.39898681640625 L 555.760986328125 410.1669921875 L 555.760986328125 396.2590026855469 L 533.8740234375 396.2590026855469 Z" fill="#E293A6" transform="matrix(1, 0, 0, 1, -1.6726088773102674, -1.9343264391172852)"/><path fill="#FFA7BB" d="M528.604,385.297c0.492,6.001,2.615,11.873,6.134,16.763c0.789,1.096,1.666,2.163,2.805,2.886&#10;&#9;&#9;&#9;c2.239,1.421,5.192,1.288,7.656,0.307c3.318-1.321,6.599-3.955,9.512-6.002c4.422-3.109,7.04-8.502,7.04-13.864&#10;&#9;&#9;&#9;c0-9.483-7.688-17.17-17.17-17.17c-6.613,0-15.364,4.551-15.97,11.639C528.455,381.665,528.455,383.487,528.604,385.297z" transform="matrix(1, 0, 0, 1, -1.6726088773102674, -1.9343264391172852)"/><path d="M 434.6820068359375 661.2349853515625 L 420.07598876953125 668.6820068359375 L 457.6910095214844 666.2030029296875 L 457.2659912109375 659.7470092773438 Z" fill="#511122" transform="matrix(1, 0, 0, 1, -1.6726088773102674, -1.9343264391172852)"/><path d="M 508.14300537109375 660.7880249023438 L 496.06500244140625 671.8759765625 L 531.6409912109375 659.4089965820312 L 529.5009765625 653.302978515625 Z" fill="#511122" transform="matrix(1, 0, 0, 1, -1.6726088773102674, -1.9343264391172852)"/><path fill="#FFA7BB" d="M627.484,397.256c-1.696-1.397-3.915-4.421-3.174-6.681c0.415-1.266,2.167-1.458,2.391-2.65&#10;&#9;&#9;&#9;c0.236-1.264-1.868-4.182-2.129-5.642c-0.395-2.207-0.065-4.626,1.309-6.398c1.375-1.771,3.912-2.7,5.981-1.836&#10;&#9;&#9;&#9;c0.924,0.386,1.685,1.075,2.392,1.785c3.22,3.228,5.719,7.16,7.326,11.424c1.719,4.558,1.784,8.171,1.191,12.869&#10;&#9;&#9;&#9;C642.771,400.126,639.722,407.34,627.484,397.256z" transform="matrix(1, 0, 0, 1, -1.6726088773102674, -1.9343264391172852)"/><path d="M 547.39697265625 415.8160095214844 L 541.3510131835938 415.8160095214844 L 544.3740234375 420.9989929199219 Z" fill="#FF406F" transform="matrix(1, 0, 0, 1, -1.6726088773102674, -1.9343264391172852)" style="fill: rgb(210, 162, 40);"/><path d="M 544.531005859375 419.31201171875 L 540.406005859375 458.7090148925781 L 544.1400146484375 467.1180114746094 L 549.0980224609375 455.4020080566406 Z" fill="#FF406F" transform="matrix(1, 0, 0, 1, -1.6726088773102674, -1.9343264391172852)" style="fill: rgb(210, 162, 40);"/><path fill="#FFA7BB" d="M435.27,326.763c0,0,5.774-8.278,3.91-12.451c-1.864-4.173-4.573,3.467-4.573,3.467&#10;&#9;&#9;&#9;c0.345-0.974-1.706-4.458-2.087-5.344c-1.316-3.056-1.632-5.931-2.133-9.236c-0.244-1.61-0.539-3.327-1.655-4.513&#10;&#9;&#9;&#9;c-0.279-0.296-0.632-0.562-1.039-0.581c-1.064-0.049-1.422,1.394-1.418,2.458c0.004,1.099,0.009,2.197,0.014,3.295&#10;&#9;&#9;&#9;c0.005,1.129-0.056,2.409-0.91,3.146c-0.388,0.335-0.887,0.504-1.36,0.7c-4.084,1.693-6.686,5.975-6.574,10.346&#10;&#9;&#9;&#9;c0.053,2.069,0.884,3.726,1.342,5.684c0.528,2.26,0.472,5.536,1.605,7.561C420.392,331.297,424.216,338.132,435.27,326.763z" transform="matrix(1, 0, 0, 1, -1.6726088773102674, -1.9343264391172852)"/><path fill="#2D1856" d="M557.317,411.564l-13.322,55.553l17.856-28.099l-4.535-7.897l10.204-8.843&#10;&#9;&#9;&#9;C567.521,422.279,568.088,408.73,557.317,411.564z" transform="matrix(1, 0, 0, 1, -1.6726088773102674, -1.9343264391172852)" style="fill: rgb(29, 108, 98);"/><path fill="#2D1856" d="M530.819,411.564l13.321,55.553l-17.856-28.099l4.535-7.897l-10.204-8.843&#10;&#9;&#9;&#9;C520.615,422.279,520.048,408.73,530.819,411.564z" transform="matrix(1, 0, 0, 1, -1.6726088773102674, -1.9343264391172852)" style="fill: rgb(29, 108, 98);"/><path fill="#EAEAEA" d="M558.48,406.179l-13.949,8.22l3.793,4.535l9.911-7.759C558.235,411.175,560.683,407.03,558.48,406.179z" transform="matrix(1, 0, 0, 1, -1.6726088773102674, -1.9343264391172852)"/><path fill="#EAEAEA" d="M531.79,406.179l12.742,8.22l-3.793,4.535l-9.912-7.759C530.827,411.175,529.587,407.03,531.79,406.179z" transform="matrix(1, 0, 0, 1, -1.6726088773102674, -1.9343264391172852)"/><path d="M 524.7360229492188 466.70098876953125 L 518.458984375 481.14801025390625 L 520.64599609375 482.2900085449219 L 526.5070190429688 467.74700927734375 Z" fill="#2D1856" transform="matrix(1, 0, 0, 1, -1.6726088773102674, -1.9343264391172852)" style="fill: rgb(29, 108, 98);"/><path d="M 559.2769775390625 468.70098876953125 L 565.5540161132812 483.14801025390625 L 563.3670043945312 484.2900085449219 L 557.5059814453125 469.74700927734375 Z" fill="#2D1856" transform="matrix(1, 0, 0, 1, -1.6726088773102674, -1.9343264391172852)" style="fill: rgb(29, 108, 98);"/><path fill="#1D1E30" d="M559.887,373c0,0,1.632-6.095-10.789-8.5c-7.747-1.5-14.72,1.634-14.72,1.634&#10;&#9;&#9;&#9;s-22.337,15.159,13.513,10.379c0,0,2.905,16.43,6.718,17.122c0,0-1.315,5.703,2.184,6.356&#10;&#9;&#9;&#9;C556.792,399.99,571.794,387.114,559.887,373z" transform="matrix(1, 0, 0, 1, -1.6726088773102674, -1.9343264391172852)"/><path fill="none" stroke="#231F20" stroke-miterlimit="10" d="M536.306,386.777c0,0,0.622,6.208-4.479,5.959&#10;&#9;&#9;&#9;c0,0,3.857,2.115,5.101,1.493" transform="matrix(1, 0, 0, 1, -1.6726088773102674, -1.9343264391172852)"/><path fill="#771B35" d="M541.428,397.671h-7.554C533.874,397.671,536.913,403.768,541.428,397.671z" transform="matrix(1, 0, 0, 1, -1.6726088773102674, -1.9343264391172852)"/><path fill="none" stroke="#231F20" stroke-miterlimit="10" d="M553.803,385.174c0.663-0.62,1.542-1.06,2.448-1.006&#10;&#9;&#9;&#9;c0.445,0.026,0.919,0.201,1.141,0.587c0.11,0.192,0.146,0.417,0.181,0.635c0.224,1.407,0.438,2.905-0.132,4.211&#10;&#9;&#9;&#9;c-0.209,0.479-0.516,0.91-0.826,1.331c-0.501,0.68-1.03,1.358-1.715,1.852c-0.686,0.494-1.56,0.786-2.385,0.606&#10;&#9;&#9;&#9;C552.556,390.654,551.734,387.243,553.803,385.174z" transform="matrix(1, 0, 0, 1, -1.6726088773102674, -1.9343264391172852)"/><path fill="#FFA7BB" d="M901.841,403.027c0.54,1.313,1.084,2.789,0.566,4.11c-0.535,1.366-2.27,2.118-3.632,1.575&#10;&#9;&#9;c-1.465-0.584-2.159-2.263-2.428-3.817c-0.175-1.009-0.236-2.038-0.183-3.06c0.086-1.64-0.775-2.729-1.103-4.282&#10;&#9;&#9;c-0.199-0.948-0.13-1.992,0.401-2.802c0.574-0.876,1.678-1.373,2.714-1.222c-0.64-0.093,1.84,4.214,1.941,4.459&#10;&#9;&#9;C900.8,399.629,901.167,401.386,901.841,403.027z" transform="matrix(1, 0, 0, 1, -1.6726088773102674, -1.9343264391172852)"/><path d="M 552.822021 176.839005 H 563.828021 V 200.098005 H 552.822021 V 176.839005 Z" fill="#F3F4FF" transform="matrix(1, 0, 0, 1, -1.6726088773102674, -1.9343264391172852)"/><path d="M 568.307983 169.380005 H 579.313983 V 200.097004 H 568.307983 V 169.380005 Z" fill="#F3F4FF" transform="matrix(1, 0, 0, 1, -1.6726088773102674, -1.9343264391172852)"/><path d="M 583.79303 162.932007 H 594.799029 V 200.098007 H 583.79303 V 162.932007 Z" fill="#F3F4FF" transform="matrix(1, 0, 0, 1, -1.6726088773102674, -1.9343264391172852)"/><path d="M 599.278992 155.916 H 610.284991 V 200.098 H 599.278992 V 155.916 Z" fill="#F3F4FF" transform="matrix(1, 0, 0, 1, -1.6726088773102674, -1.9343264391172852)"/><path d="M 617.2760009765625 206.39599609375 L 545.3060302734375 206.39599609375 L 545.3060302734375 147.69500732421875 L 547.7520141601562 147.69500732421875 L 547.7520141601562 203.9499969482422 L 617.2760009765625 203.9499969482422 Z" fill="#F3F4FF" transform="matrix(1, 0, 0, 1, -1.6726088773102674, -1.9343264391172852)"/><path d="M 553.4550170898438 168.14700317382812 L 552.6530151367188 167.0030059814453 L 566.1719970703125 157.54200744628906 L 575.3790283203125 157.54200744628906 L 585.5989990234375 151.15499877929688 L 594.5029907226562 151.15499877929688 L 606.6420288085938 143.66200256347656 L 607.3759765625 144.8509979248047 L 594.8989868164062 152.55299377441406 L 586 152.55299377441406 L 575.780029296875 158.93899536132812 L 566.6119995117188 158.93899536132812 Z" fill="#F3F4FF" transform="matrix(1, 0, 0, 1, -1.6726088773102674, -1.9343264391172852)"/><path d="M 603.68701171875 142.197998046875 L 607.7329711914062 147.69500732421875 L 609.739990234375 141.97999572753906 Z" fill="#F3F4FF" transform="matrix(1, 0, 0, 1, -1.6726088773102674, -1.9343264391172852)"/><path d="M 250.339996 263.812012 H 345.995995 V 386.88401 H 250.339996 V 263.812012 Z" fill="none" stroke="#F3F4FF" stroke-miterlimit="10" transform="matrix(1, 0, 0, 1, -1.6726088773102674, -1.9343264391172852)"/><path d="M 262.58599853515625 378.53900146484375 L 260.9320068359375 377.6510009765625 L 273.5060119628906 354.23699951171875 L 283.5119934082031 360.0740051269531 L 307.9679870605469 311.8999938964844 L 319.25299072265625 311.8999938964844 L 335.281005859375 281.19500732421875 L 336.9469909667969 282.0639953613281 L 320.3919982910156 313.77801513671875 L 309.1210021972656 313.77801513671875 L 284.2850036621094 362.70001220703125 L 274.239990234375 356.8399963378906 Z" fill="#F3F4FF" transform="matrix(1, 0, 0, 1, -1.6726088773102674, -1.9343264391172852)"/><path d="M 332.14599609375 280.3479919433594 L 340.0830078125 284.7340087890625 L 340.0830078125 274.5 Z" fill="#F3F4FF" transform="matrix(1, 0, 0, 1, -1.6726088773102674, -1.9343264391172852)"/><path d="M 314.645996 338.841003 H 365.518997 V 402.364002 H 314.645996 V 338.841003 Z" fill="#F3F4FF" transform="matrix(1, 0, 0, 1, -1.6726088773102674, -1.9343264391172852)"/><path d="M 318.209991 344.765991 L 330.649994 344.765991" fill="none" stroke="#5F78D3" stroke-miterlimit="10" transform="matrix(1, 0, 0, 1, -1.6726088773102674, -1.9343264391172852)" style="fill: rgb(39, 145, 133); stroke: rgb(39, 145, 133);"/><path d="M 318.209991 349.071991 L 340.432007 349.071991" fill="none" stroke="#5F78D3" stroke-miterlimit="10" transform="matrix(1, 0, 0, 1, -1.6726088773102674, -1.9343264391172852)" style="fill: rgb(39, 145, 133); stroke: rgb(39, 145, 133);"/><path d="M 318.209991 370.602997 L 359.996002 370.602997" fill="none" stroke="#5F78D3" stroke-miterlimit="10" transform="matrix(1, 0, 0, 1, -1.1234703231375534, -1.9343265583266032)" style="stroke: rgb(39, 145, 133);"/><path d="M 343.975006 344.765991 H 359.996006 V 366.295992 H 343.975006 V 344.765991 Z" fill="#B9C1F0" transform="matrix(1, 0, 0, 1, -1.6726088773102674, -1.9343264391172852)" style="fill: rgb(145, 193, 177);"/><path d="M 466.115993 839.203979 A 18.021999 18.021999 0 0 1 448.093994 857.225979 A 18.021999 18.021999 0 0 1 430.071995 839.203979 A 18.021999 18.021999 0 0 1 448.093994 821.18198 A 18.021999 18.021999 0 0 1 466.115993 839.203979 Z" fill="#99A6DD" transform="matrix(1, 0, 0, 1, -1.6726088773102674, -1.9343264391172852)" style="fill: rgb(145, 193, 177);"/><path d="M 463.180987 839.203979 A 15.088 15.088 0 0 1 448.092987 854.29198 A 15.088 15.088 0 0 1 433.004987 839.203979 A 15.088 15.088 0 0 1 448.092987 824.115979 A 15.088 15.088 0 0 1 463.180987 839.203979 Z" fill="#6C7DBC" transform="matrix(1, 0, 0, 1, -1.6726088773102674, -1.9343264391172852)" style="fill: rgb(39, 145, 133);"/><path d="M 315.153988 624.874023 A 18.021999 18.021999 0 0 1 297.131989 642.896023 A 18.021999 18.021999 0 0 1 279.109989 624.874023 A 18.021999 18.021999 0 0 1 297.131989 606.852024 A 18.021999 18.021999 0 0 1 315.153988 624.874023 Z" fill="#99A6DD" transform="matrix(1, 0, 0, 1, -1.6726088773102674, -1.9343264391172852)" style="fill: rgb(145, 193, 177);"/><path d="M 312.219989 624.874023 A 15.088 15.088 0 0 1 297.131989 639.962024 A 15.088 15.088 0 0 1 282.043988 624.874023 A 15.088 15.088 0 0 1 297.131989 609.786023 A 15.088 15.088 0 0 1 312.219989 624.874023 Z" fill="#6C7DBC" transform="matrix(1, 0, 0, 1, -1.6726088773102674, -1.9343264391172852)" style="fill: rgb(39, 145, 133);"/><path d="M 381.465987 470.917999 A 10.679 10.679 0 0 1 370.786987 481.596999 A 10.679 10.679 0 0 1 360.107987 470.917999 A 10.679 10.679 0 0 1 370.786987 460.238999 A 10.679 10.679 0 0 1 381.465987 470.917999 Z" fill="#99A6DD" transform="matrix(1, 0, 0, 1, -1.6726088773102674, -1.9343264391172852)" style="fill: rgb(145, 193, 177);"/><path d="M 379.727987 470.917999 A 8.941 8.941 0 0 1 370.786987 479.858999 A 8.941 8.941 0 0 1 361.845987 470.917999 A 8.941 8.941 0 0 1 370.786987 461.976999 A 8.941 8.941 0 0 1 379.727987 470.917999 Z" fill="#6C7DBC" transform="matrix(1, 0, 0, 1, -1.6726088773102674, -1.9343264391172852)" style="fill: rgb(39, 145, 133);"/><path d="M 1087.016994 329.817993 A 18.021999 18.021999 0 0 1 1068.994995 347.839993 A 18.021999 18.021999 0 0 1 1050.972996 329.817993 A 18.021999 18.021999 0 0 1 1068.994995 311.795994 A 18.021999 18.021999 0 0 1 1087.016994 329.817993 Z" fill="#99A6DD" transform="matrix(1, 0, 0, 1, -1.6726088773102674, -1.9343264391172852)" style="fill: rgb(145, 193, 177);"/><path d="M 1084.082995 329.817993 A 15.088 15.088 0 0 1 1068.994995 344.905993 A 15.088 15.088 0 0 1 1053.906995 329.817993 A 15.088 15.088 0 0 1 1068.994995 314.729993 A 15.088 15.088 0 0 1 1084.082995 329.817993 Z" fill="#6C7DBC" transform="matrix(1, 0, 0, 1, -1.6726088773102674, -1.9343264391172852)" style="fill: rgb(39, 145, 133);"/><path d="M 1140.482005 641.333008 A 9.852 9.852 0 0 1 1130.630005 651.185008 A 9.852 9.852 0 0 1 1120.778005 641.333008 A 9.852 9.852 0 0 1 1130.630005 631.481008 A 9.852 9.852 0 0 1 1140.482005 641.333008 Z" fill="#99A6DD" transform="matrix(1, 0, 0, 1, -1.6726088773102674, -1.9343264391172852)" style="fill: rgb(145, 193, 177);"/><path d="M 1138.878005 641.333008 A 8.248 8.248 0 0 1 1130.630005 649.581008 A 8.248 8.248 0 0 1 1122.382005 641.333008 A 8.248 8.248 0 0 1 1130.630005 633.085008 A 8.248 8.248 0 0 1 1138.878005 641.333008 Z" fill="#6C7DBC" transform="matrix(1, 0, 0, 1, -1.6726088773102674, -1.9343264391172852)" style="fill: rgb(39, 145, 133);"/><path d="M 936.446004 478.006012 A 10.342 10.342 0 0 1 926.104004 488.348012 A 10.342 10.342 0 0 1 915.762004 478.006012 A 10.342 10.342 0 0 1 926.104004 467.664012 A 10.342 10.342 0 0 1 936.446004 478.006012 Z" fill="#99A6DD" transform="matrix(1, 0, 0, 1, -1.6726088773102674, -1.9343264391172852)" style="fill: rgb(145, 193, 177);"/><path d="M 934.763004 478.006012 A 8.659 8.659 0 0 1 926.104004 486.665012 A 8.659 8.659 0 0 1 917.445004 478.006012 A 8.659 8.659 0 0 1 926.104004 469.347012 A 8.659 8.659 0 0 1 934.763004 478.006012 Z" fill="#6C7DBC" transform="matrix(1, 0, 0, 1, -1.6726088773102674, -1.9343264391172852)" style="fill: rgb(39, 145, 133);"/><path d="M 802.7529907226562 626.8790283203125 L 802.7529907226562 613.0830078125 L 788.155029296875 624.5889892578125 L 788.155029296875 638.385009765625 Z" fill="#D34063" transform="matrix(1, 0, 0, 1, -1.5266760815185307, -34.02319768105744)" style="fill: rgb(187, 144, 36);"/><path d="M 318.209991 349.071991 L 340.432007 349.071991" fill="none" stroke="#5F78D3" stroke-miterlimit="10" transform="matrix(1, 0, 0, 1, -2.156180413904508, 1.7748310830418745)" style="fill: rgb(39, 145, 133); stroke: rgb(39, 145, 133);"/><path d="M 318.209991 349.071991 L 340.432007 349.071991" fill="none" stroke="#5F78D3" stroke-miterlimit="10" transform="matrix(1, 0, 0, 1, -1.6070418597316802, 5.618801200669992)" style="fill: rgb(39, 145, 133); stroke: rgb(39, 145, 133);"/><path d="M 318.209991 349.071991 L 340.432007 349.071991" fill="none" stroke="#5F78D3" stroke-miterlimit="10" transform="matrix(1, 0, 0, 1, -1.6070418597316802, 10.011910587726675)" style="fill: rgb(39, 145, 133); stroke: rgb(39, 145, 133);"/><path d="M 318.209991 349.071991 L 340.432007 349.071991" fill="none" stroke="#5F78D3" stroke-miterlimit="10" transform="matrix(1, 0, 0, 1, -1.6070418597316802, 14.405019021108984)" style="fill: rgb(39, 145, 133); stroke: rgb(39, 145, 133);"/><path d="M 318.209991 370.602997 L 359.996002 370.602997" fill="none" stroke="#5F78D3" stroke-miterlimit="10" transform="matrix(1, 0, 0, 1, -0.4062638641337344, 2.209367546578733)" style="stroke: rgb(39, 145, 133);"/><path d="M 318.209991 370.602997 L 359.996002 370.602997" fill="none" stroke="#5F78D3" stroke-miterlimit="10" transform="matrix(1, 0, 0, 1, -0.40626395354070155, 6.05333766420685)" style="stroke: rgb(39, 145, 133);"/><path d="M 318.209991 370.602997 L 359.996002 370.602997" fill="none" stroke="#5F78D3" stroke-miterlimit="10" transform="matrix(1, 0, 0, 1, -0.6808331710224138, 10.721016089931368)" style="stroke: rgb(39, 145, 133);"/><path d="M 318.209991 370.602997 L 359.996002 370.602997" fill="none" stroke="#5F78D3" stroke-miterlimit="10" transform="matrix(1, 0, 0, 1, -0.6808331710224138, 15.388694992493015)" style="stroke: rgb(39, 145, 133);"/><path d="M 318.209991 370.602997 L 359.996002 370.602997" fill="none" stroke="#5F78D3" stroke-miterlimit="10" transform="matrix(1, 0, 0, 1, -0.9554026269228189, 19.781803425875353)" style="stroke: rgb(39, 145, 133);"/><path d="M 318.209991 370.602997 L 359.996002 370.602997" fill="none" stroke="#5F78D3" stroke-miterlimit="10" transform="matrix(1, 0, 0, 1, -0.9554026269228189, 24.174911859257662)" style="stroke: rgb(39, 145, 133);"/></g>
<clipPath id="SVGID_2_">
			<use overflow="visible" xlink:href="#SVGID_1_"/>
		</clipPath></svg>