<?xml version="1.0" encoding="utf-8"?>
<svg id="master-artboard" viewBox="0 0 420.30853271484375 264.6087646484375" version="1.1" xmlns="http://www.w3.org/2000/svg" x="0px" y="0px" width="420.30853271484375px" height="264.6087646484375px" enable-background="new 0 0 1400 980" xmlns:xlink="http://www.w3.org/1999/xlink"><rect id="ee-background" x="0" y="0" width="420.30853271484375" height="264.6087646484375" style="fill: white; fill-opacity: 0; pointer-events: none;"/>

<g transform="matrix(0.3388989567756653, 0, 0, 0.3388989567756653, 10.109062433242798, -51.30464172363281)">
		<defs>
			<path d="M -14.547 -15 H 1415.453 V 995 H -14.547 V -15 Z" id="SVGID_1_"/>
		</defs>
		<clipPath id="SVGID_2_">
			<use overflow="visible" xlink:href="#SVGID_1_"/>
		</clipPath>
		<path d="M 885.0889892578125 548.0369873046875 L 62.409000396728516 1370.718017578125 L 885.0889892578125 1370.718017578125 Z" clip-path="url(#SVGID_2_)" fill="#AB99CE" style="fill: rgb(59, 109, 129); fill-opacity: 0.87;" transform="matrix(0.8610379099845885, 0, 0, 0.8610379099845885, 1.0456026703373027, 62.523370056991155)"/>
		<path d="M 510.35699462890625 654.697998046875 L -312.322998046875 1477.3790283203125 L 510.35699462890625 1477.3790283203125 Z" clip-path="url(#SVGID_2_)" fill="#AB99CE" style="fill: rgb(59, 109, 129); fill-opacity: 0.86;" transform="matrix(0.8610379099845885, 0, 0, 0.8610379099845885, 1.0456026703373027, 62.523370056991155)"/>
		<path d="M 132.7429962158203 762.947021484375 L -689.93798828125 1585.6280517578125 L 132.7429962158203 1585.6280517578125 Z" clip-path="url(#SVGID_2_)" fill="#AB99CE" style="fill: rgb(81, 124, 141); fill-opacity: 0.87;" transform="matrix(0.8610379099845885, 0, 0, 0.8610379099845885, 1.0456026703373027, 62.523370056991155)"/>
		
		<g clip-path="url(#SVGID_2_)" transform="matrix(0.8610379099845885, 0, 0, 0.8610379099845885, 1.0456026703373027, 62.523370056991155)">
			<path d="M 90.783997 498.915009 H 160.727997 V 588.906006 H 90.783997 V 498.915009 Z" fill="none" stroke="#BAC2F1" stroke-miterlimit="10"/>
			<path d="M 132.975998 479.096008 H 181.114998 V 539.20401 H 132.975998 V 479.096008 Z" fill="#A073E0" style="fill: rgb(145, 193, 177);"/>
			<g>
				<path d="M 137.50100708007812 535.4219970703125 L 136.6540069580078 534.968017578125 L 143.093994140625 522.9769897460938 L 148.21800231933594 525.9660034179688 L 160.74200439453125 501.2950134277344 L 166.52200317382812 501.2950134277344 L 174.72999572753906 485.57000732421875 L 175.58299255371094 486.0150146484375 L 167.10499572753906 502.2569885253906 L 161.33299255371094 502.2569885253906 L 148.61399841308594 527.3109741210938 L 143.47000122070312 524.3099975585938 Z" fill="#A5AFDB"/>
			</g>
			<path d="M 173.125 485.135986328125 L 177.18899536132812 487.3819885253906 L 177.18899536132812 482.1409912109375 Z" fill="#A5AFDB"/>
			<path d="M 97.189003 510.42099 L 113.82 510.42099" fill="none" stroke="#5F78D3" stroke-miterlimit="10"/>
			<path d="M 97.189003 516.177979 L 126.897003 516.177979" fill="none" stroke="#5F78D3" stroke-miterlimit="10"/>
			<path d="M 97.189003 521.934998 L 126.897003 521.934998" fill="none" stroke="#5F78D3" stroke-miterlimit="10"/>
			<path d="M 97.189003 527.690979 L 126.897003 527.690979" fill="none" stroke="#5F78D3" stroke-miterlimit="10"/>
			<path d="M 97.189003 533.447998 L 126.897003 533.447998" fill="none" stroke="#5F78D3" stroke-miterlimit="10"/>
			<path d="M 97.189003 539.203979 L 126.897003 539.203979" fill="none" stroke="#5F78D3" stroke-miterlimit="10"/>
			<path d="M 97.189003 544.960999 L 153.052994 544.960999" fill="none" stroke="#5F78D3" stroke-miterlimit="10"/>
			<path d="M 97.189003 550.718018 L 153.052994 550.718018" fill="none" stroke="#5F78D3" stroke-miterlimit="10"/>
			<path d="M 97.189003 556.474976 L 153.052994 556.474976" fill="none" stroke="#5F78D3" stroke-miterlimit="10"/>
			<path d="M 97.189003 562.231018 L 153.052994 562.231018" fill="none" stroke="#5F78D3" stroke-miterlimit="10"/>
			<path d="M 97.189003 567.987976 L 153.052994 567.987976" fill="none" stroke="#5F78D3" stroke-miterlimit="10"/>
			<path d="M 97.189003 573.744995 L 153.052994 573.744995" fill="none" stroke="#5F78D3" stroke-miterlimit="10"/>
			<path d="M 97.189003 579.502014 L 153.052994 579.502014" fill="none" stroke="#5F78D3" stroke-miterlimit="10"/>
		</g>
		<g clip-path="url(#SVGID_2_)" transform="matrix(0.8610379099845885, 0, 0, 0.8610379099845885, 1.0456026703373027, 62.523370056991155)">
			<path d="M 978.685974 574.69397 H 1225.30397 V 1532.157959 H 978.685974 V 574.69397 Z" fill="#A880E0" style="fill: rgb(45, 83, 98);"/>
			<path d="M 885.088989 548.036987 H 978.685989 V 1586.277954 H 885.088989 V 548.036987 Z" fill="#6E42B2" style="fill: rgb(35, 65, 77);"/>
			<path d="M 1225.303955078125 574.6939697265625 L 978.2340087890625 574.6939697265625 L 885.0889892578125 548.0369873046875 L 1132.157958984375 548.0369873046875 Z" fill="#CBB0F4" style="fill: rgb(59, 109, 129);"/>
		</g>
		<g clip-path="url(#SVGID_2_)" transform="matrix(0.8610379099845885, 0, 0, 0.8610379099845885, 1.0456026703373027, 62.523370056991155)">
			<path d="M 602.625 678.150024 H 849.244003 V 1635.614014 H 602.625 V 678.150024 Z" fill="#A880E0" style="fill: rgb(45, 83, 98);"/>
			<path d="M 509.028992 651.492981 H 602.624992 V 1689.732971 H 509.028992 V 651.492981 Z" fill="#6E42B2" style="fill: rgb(35, 65, 77);"/>
			<path d="M 849.2440185546875 678.1500244140625 L 602.1740112304688 678.1500244140625 L 509.02899169921875 651.4929809570312 L 756.0989990234375 651.4929809570312 Z" fill="#CBB0F4" style="fill: rgb(59, 109, 129);"/>
		</g>
		<g clip-path="url(#SVGID_2_)" transform="matrix(0.8610379099845885, 0, 0, 0.8610379099845885, 1.0456026703373027, 62.523370056991155)">
			<path d="M 224.897995 790.570007 H 471.515991 V 1748.033997 H 224.897995 V 790.570007 Z" fill="#A880E0" style="fill: rgb(45, 83, 98);"/>
			<path d="M 131.302002 763.914001 H 224.898003 V 1802.153992 H 131.302002 V 763.914001 Z" fill="#6E42B2" style="fill: rgb(35, 65, 77);"/>
			<path d="M 471.5159912109375 790.5700073242188 L 224.44700622558594 790.5700073242188 L 131.302001953125 763.9140014648438 L 378.3710021972656 763.9140014648438 Z" fill="#CBB0F4" style="fill: rgb(59, 109, 129);"/>
		</g>
		<g clip-path="url(#SVGID_2_)" transform="matrix(0.8610379099845885, 0, 0, 0.8610379099845885, 1.0456026703373027, 62.523370056991155)">
			<g>
				<path fill="#562B96" d="M244.246,678.776h-5.461c0-9.436-12.005-17.112-26.761-17.112s-26.76,7.677-26.76,17.112h-5.461&#10;&#9;&#9;&#9;&#9;&#9;c0-12.447,14.454-22.574,32.222-22.574S244.246,666.329,244.246,678.776z" style="fill: rgb(193, 149, 37);"/>
			</g>
			<path fill="#562B96" d="M263.634,676.409H154.407c-6.485,0-11.742,5.257-11.742,11.742v67.174&#10;&#9;&#9;&#9;&#9;c0,6.485,5.257,11.742,11.742,11.742h109.227c6.485,0,11.742-5.257,11.742-11.742v-67.174&#10;&#9;&#9;&#9;&#9;C275.375,681.666,270.119,676.409,263.634,676.409z" style="fill: rgb(193, 149, 37);"/>
			<path fill="#673FA8" d="M275.375,755.325v-67.174c0-6.485-5.257-11.742-11.742-11.742H165.33&#10;&#9;&#9;&#9;&#9;c-6.485,0-11.742,5.257-11.742,11.742v67.174c0,6.485,5.257,11.742,11.742,11.742h98.304&#10;&#9;&#9;&#9;&#9;C270.119,767.067,275.375,761.811,275.375,755.325z" style="fill: rgb(228, 185, 78);"/>
			<path fill="none" stroke="#704DB5" stroke-miterlimit="10" d="M159.049,685.147l40.346,32.197&#10;&#9;&#9;&#9;&#9;c8.844,7.058,21.377,7.117,30.288,0.144l41.325-32.341"/>
			<path d="M 221.873995 711.304993 A 7.392 7.392 0 0 1 214.481995 718.696993 A 7.392 7.392 0 0 1 207.089994 711.304993 A 7.392 7.392 0 0 1 214.481995 703.912992 A 7.392 7.392 0 0 1 221.873995 711.304993 Z" fill="#562B96" style="fill: rgb(193, 149, 37);"/>
			<path d="M 162.143997 749.228027 H 267.729996 V 754.325027 H 162.143997 V 749.228027 Z" fill="#704DB5" style="fill: rgb(193, 149, 37);"/>
		</g>
		<g clip-path="url(#SVGID_2_)" transform="matrix(0.8610379099845885, 0, 0, 0.8610379099845885, 1.0456026703373027, 62.523370056991155)">
			<path d="M 742.130005 233.162994 H 755.984005 V 262.438993 H 742.130005 V 233.162994 Z" fill="#F3F4FF" style="fill: rgb(145, 193, 177);"/>
			<path d="M 761.622009 223.774994 H 775.476009 V 262.438995 H 761.622009 V 223.774994 Z" fill="#F3F4FF" style="fill: rgb(145, 193, 177);"/>
			<path d="M 781.114014 215.658005 H 794.968014 V 262.440006 H 781.114014 V 215.658005 Z" fill="#F3F4FF" style="fill: rgb(145, 193, 177);"/>
			<path d="M 800.606995 206.826996 H 814.460995 V 262.439995 H 800.606995 V 206.826996 Z" fill="#F3F4FF" style="fill: rgb(145, 193, 177);"/>
			<g>
				<path d="M 823.260009765625 270.36700439453125 L 732.6699829101562 270.36700439453125 L 732.6699829101562 196.47900390625 L 735.7479858398438 196.47900390625 L 735.7479858398438 267.28900146484375 L 823.260009765625 267.28900146484375 Z" fill="#F3F4FF" style="fill: rgb(145, 193, 177);"/>
			</g>
			<g>
				<path d="M 742.927001953125 222.2239990234375 L 741.9180297851562 220.78199768066406 L 758.9349975585938 208.87399291992188 L 770.5230102539062 208.87399291992188 L 783.3880004882812 200.8350067138672 L 794.594970703125 200.8350067138672 L 809.875 191.40199279785156 L 810.7990112304688 192.8990020751953 L 795.093994140625 202.593994140625 L 783.8920288085938 202.593994140625 L 771.0280151367188 210.63299560546875 L 759.4879760742188 210.63299560546875 Z" fill="#F3F4FF" style="fill: rgb(145, 193, 177);"/>
			</g>
			<path d="M 806.155029296875 189.56100463867188 L 811.2470092773438 196.47900390625 L 813.7730102539062 189.28700256347656 Z" fill="#F3F4FF" style="fill: rgb(145, 193, 177);"/>
		</g>
		<g clip-path="url(#SVGID_2_)" transform="matrix(0.8610379099845885, 0, 0, 0.8610379099845885, 1.0456026703373027, 62.523370056991155)">
			<path fill="#A880E0" d="M1373.451,365.985h-71.169c-8.154,0-14.765-6.61-14.765-14.765V161.487&#10;&#9;&#9;&#9;&#9;c0-8.154,6.61-14.765,14.765-14.765h71.169c8.154,0,14.764,6.61,14.764,14.765v189.733&#10;&#9;&#9;&#9;&#9;C1388.215,359.375,1381.605,365.985,1373.451,365.985z" style="fill: rgb(45, 83, 98);"/>
			<path fill="#6E42B2" d="M1343.242,365.985h-71.169c-8.154,0-14.765-6.61-14.765-14.765V161.487&#10;&#9;&#9;&#9;&#9;c0-8.154,6.61-14.765,14.765-14.765h71.169c8.153,0,14.764,6.61,14.764,14.765v189.733&#10;&#9;&#9;&#9;&#9;C1358.006,359.375,1351.396,365.985,1343.242,365.985z" style="fill: rgb(35, 65, 77);"/>
			<path fill="#7C1530" d="M1333.518,207.815c0-21.123-12.364-38.247-27.615-38.247s-27.615,17.124-27.615,38.247&#10;&#9;&#9;&#9;&#9;c0,15.074,6.299,28.105,15.447,34.336v81.152c0,6.72,5.448,12.167,12.168,12.167s12.168-5.448,12.168-12.167v-81.152&#10;&#9;&#9;&#9;&#9;C1327.219,235.921,1333.518,222.889,1333.518,207.815z" style="fill: rgb(193, 148, 37);"/>
			<path fill="#F12C5A" d="M1314.11,171.287c-11.243,4.841-19.406,19.364-19.406,36.528c0,15.074,6.299,28.105,15.447,34.336v81.152&#10;&#9;&#9;&#9;&#9;c0,3.552,1.532,6.738,3.959,8.963c2.428-2.225,3.96-5.411,3.96-8.963v-81.152c9.148-6.231,15.447-19.263,15.447-34.336&#10;&#9;&#9;&#9;&#9;C1333.518,190.651,1325.354,176.128,1314.11,171.287z" style="fill: rgb(228, 185, 78);"/>
		</g>
		<g clip-path="url(#SVGID_2_)" transform="matrix(0.8610379099845885, 0, 0, 0.8610379099845885, 1.0456026703373027, 62.523370056991155)">
			<path fill="#2D1856" d="M1021.322,426.405L1021.322,426.405c-9.006-1.831-14.822-10.617-12.991-19.624l21.267-135.286&#10;&#9;&#9;&#9;&#9;l42.963,8.736l-31.825,134.089C1038.495,422.861,1029.975,428.165,1021.322,426.405z" style="fill: rgb(35, 65, 77);"/>
			<path fill="#2D1856" d="M944.957,555.729l-29.646-4.316l95.346-148.24c4.801-7.339,14.641-9.396,21.979-4.596l0,0&#10;&#9;&#9;&#9;&#9;c7.538,4.931,9.47,15.138,4.254,22.482L944.957,555.729z" style="fill: rgb(35, 65, 77);"/>
			<path fill="#2D1856" d="M1161.15,416.114L1161.15,416.114c7.083-5.857,8.077-16.347,2.22-23.43l-85.53-106.801l-30.729,25.411&#10;&#9;&#9;&#9;&#9;l91.224,103.301C1144.333,421.074,1154.347,421.741,1161.15,416.114z" style="fill: rgb(35, 65, 77);"/>
			<path fill="#2D1856" d="M1145.273,553.293l26.879-0.682l-3.236-145.636c-0.312-8.764-7.67-15.616-16.434-15.304l0,0&#10;&#9;&#9;&#9;&#9;c-9.002,0.32-15.935,8.056-15.271,17.04L1145.273,553.293z" style="fill: rgb(35, 65, 77);"/>
			<path fill="#4B2676" d="M1097.52,305.931l-17.423,2.678c-5.401,0.831-10.658-2.193-12.655-7.281l-1.497-3.812l-7.062,3.975&#10;&#9;&#9;&#9;&#9;c-2.838,1.597-6.25,1.81-9.265,0.578l-23.969-9.797l16.744-75.236c1.843-9.209,11.085-14.946,20.155-12.511l62.903,16.887&#10;&#9;&#9;&#9;&#9;L1097.52,305.931z" style="fill: rgb(45, 83, 98);"/>
			<path d="M 1113.9539794921875 218.32400512695312 L 1075.468994140625 207.99200439453125 L 1076.43603515625 277.4150085449219 Z" fill="#FFFFFF"/>
			<path fill="#4B2676" d="M996.287,273.179l42.578-62.238c5.213-7.622,15.793-9.229,23.036-3.502l0,0&#10;&#9;&#9;&#9;&#9;c6.903,5.459,8.074,15.48,2.615,22.384l-46.774,59.149c-4.566,5.774-12.948,6.753-18.722,2.187l0,0&#10;&#9;&#9;&#9;&#9;C993.527,286.814,992.333,278.959,996.287,273.179z" style="fill: rgb(45, 83, 98);"/>
			<path fill="#4B2676" d="M916.574,359.552l80.381-85.76c5.169-4.89,13.322-4.663,18.212,0.505l0,0&#10;&#9;&#9;&#9;&#9;c4.89,5.169,4.663,13.322-0.506,18.212l-85.234,80.629L916.574,359.552z" style="fill: rgb(45, 83, 98);"/>
			<path fill="#4B2676" d="M1183.008,284.113l-83.13-40.532l9.164-15.903c4.042-7.014,13.004-9.423,20.018-5.381l66.444,38.289&#10;&#9;&#9;&#9;&#9;c6.377,3.675,8.568,11.825,4.894,18.203l0,0C1196.9,284.856,1189.303,287.183,1183.008,284.113z" style="fill: rgb(45, 83, 98);"/>
			<path fill="#4B2676" d="M1275.818,260.286l-83.415,25.16c-6.92,1.655-13.871-2.613-15.525-9.533l0,0&#10;&#9;&#9;&#9;&#9;c-1.655-6.92,2.613-13.871,9.533-15.526l85.058-18.291L1275.818,260.286z" style="fill: rgb(45, 83, 98);"/>
			<path d="M 1107.7440185546875 216.79400634765625 L 1092.4169921875 216.0709991455078 L 1078.240966796875 206.61199951171875 L 1078.9239501953125 193.45799255371094 L 1108.8740234375 195.01199340820312 Z" fill="#E293A6"/>
			<path d="M 944.343994140625 553.1259765625 L 962.0040283203125 561.8870239257812 L 914.3980102539062 559.27197265625 L 916.572021484375 549.0289916992188 Z" fill="#511122"/>
			<path d="M 1172.1519775390625 552.6110229492188 L 1190.3370361328125 560.2239990234375 L 1145.011962890625 560.6430053710938 L 1144.93896484375 552.8629760742188 Z" fill="#511122"/>
			<path fill="#F7A0B1" d="M915.701,358.773c0,0-11.678,3.3-13.123,8.603c-1.445,5.302,6.896,0.259,6.896,0.259&#10;&#9;&#9;&#9;&#9;s-6.505,17.593-2.982,19.78s9.994,12.601,26.505-21.522C932.996,365.893,934.646,356.621,915.701,358.773z"/>
			<path fill="#F7A0B1" d="M1269.61,243.332c0,0,5.073-11.025,10.535-11.63c5.462-0.605-0.814,6.853-0.814,6.853&#10;&#9;&#9;&#9;&#9;s18.389-3.697,20.003,0.122c1.614,3.819,10.897,11.829-25.373,22.845C1273.961,261.521,1264.545,261.713,1269.61,243.332z"/>
			<path d="M 1088.64697265625 216.822998046875 L 1095.6689453125 218.70799255371094 L 1090.54296875 223.78500366210938 Z" fill="#FF406F" style="fill: rgb(223, 172, 42);"/>
			<path d="M 1090.885986328125 221.7760009765625 L 1083.39501953125 268.8139953613281 L 1076.43603515625 277.4150085449219 L 1074.3310546875 262.2650146484375 Z" fill="#FF406F" style="fill: rgb(223, 172, 42);"/>
			<path fill="#2D1856" d="M1078.452,208.793l-1.849,68.667l-11.977-38.197l7.729-7.758l-9.093-13.451&#10;&#9;&#9;&#9;&#9;C1063.263,218.054,1066.828,202.144,1078.452,208.793z" style="fill: rgb(59, 109, 129);"/>
			<path fill="#2D1856" d="M1109.226,217.054l-32.79,60.361l29.497-27.064l-2.805-10.585l14.606-7.088&#10;&#9;&#9;&#9;&#9;C1117.734,232.677,1122.616,217.121,1109.226,217.054z" style="fill: rgb(59, 109, 129);"/>
			<path fill="#EAEAEA" d="M1078.78,202.177l13.637,13.894l-5.818,4.084l-9.091-12.101&#10;&#9;&#9;&#9;&#9;C1077.508,208.054,1075.958,202.478,1078.78,202.177z"/>
			<path fill="#EAEAEA" d="M1109.776,210.498l-17.359,5.573l2.991,6.449l13.929-5.921&#10;&#9;&#9;&#9;&#9;C1109.337,216.599,1112.069,212.172,1109.776,210.498z" transform="matrix(1, 0, 0, 1, -1.208931759405175, 1.2089319339871452)"/>
			<path d="M 1060.8389892578125 271.4639892578125 L 1049.0460205078125 286.2850036621094 L 1051.22998046875 288.2919921875 L 1062.5689697265625 273.2309875488281 Z" fill="#2D1856" style="fill: rgb(71, 131, 154);"/>
			<path fill="#F7A0B1" d="M1072.202,178.087c-0.771,7.005,1.208,14.295,4.168,20.742c1.885,4.106,4.765,8.486,9.241,9.093&#10;&#9;&#9;&#9;&#9;c2.189,0.297,4.386-0.393,6.446-1.189c11.11-4.293,23.645-12.57,24.534-25.612c0.832-12.21-8.392-22.784-20.602-23.616&#10;&#9;&#9;&#9;&#9;c-8.487-0.579-16.746,3.908-20.883,11.342C1073.465,171.798,1072.552,174.913,1072.202,178.087z"/>
			<path fill="#1D1E30" d="M1099.74,178.064c2.175,1.483,3.756,3.443,3.554,5.906c-0.22,2.68-0.439,5.36-0.659,8.041&#10;&#9;&#9;&#9;&#9;c-0.053,0.648-0.087,1.366,0.316,1.876c0.271,0.342,0.69,0.523,1.067,0.744c2.609,1.529,3.237,4.958,3.6,7.96&#10;&#9;&#9;&#9;&#9;c3.001-0.099,5.329-2.622,6.938-5.156c1.973-3.106,2.814-5.863,3.539-9.356c0.815-3.922,2.282-7.203,1.841-11.343&#10;&#9;&#9;&#9;&#9;c-0.463-4.337-2.614-8.576-6.179-11.089c-4.852-3.422-4.717-9.579-10.368-12.574c-2.427-1.286-4.042-2.944-6.923-3.053&#10;&#9;&#9;&#9;&#9;c-2.878-0.108-5.786-0.214-8.611,0.344c-4.318,0.853-8.186,3.201-12.377,4.544c-4.192,1.343-9.293,1.463-12.465-1.589&#10;&#9;&#9;&#9;&#9;c-1.668,8.068,3.479,16.976,11.303,19.559c5.467,1.806,11.477,0.741,17.122,1.872&#10;&#9;&#9;&#9;&#9;C1093.7,175.203,1097.144,176.293,1099.74,178.064z"/>
			<path fill="#F7A0B1" d="M1101.323,185.972c0.22-0.239,0.476-0.472,0.771-0.698c0.545-0.417,1.133-0.778,1.752-1.076&#10;&#9;&#9;&#9;&#9;c0.708-0.341,1.514-0.601,2.271-0.39c0.708,0.198,1.258,0.792,1.547,1.468c0.792,1.852,0.578,4.616-0.026,6.479&#10;&#9;&#9;&#9;&#9;c-0.354,1.089-0.968,2.073-1.576,3.044c-0.232,0.373-0.477,0.756-0.838,1.006c-0.268,0.185-0.584,0.284-0.895,0.38&#10;&#9;&#9;&#9;&#9;c-1.055,0.329-2.167,0.661-3.248,0.428C1101.28,192.833,1098.62,188.915,1101.323,185.972z"/>
			<path fill="none" stroke="#231F20" stroke-miterlimit="10" d="M1078.341,183.35c0,0-0.41,6.792-2.903,9.99&#10;&#9;&#9;&#9;&#9;c-2.494,3.198,5.511,0.737,5.511,0.737"/>
			<path fill="#7A1C37" d="M1079.04,196.836l9.441-0.49c0,0-1.2,5.016-4.433,5.797S1079.04,196.836,1079.04,196.836z"/>
		</g>
		<g clip-path="url(#SVGID_2_)" transform="matrix(0.8610379099845885, 0, 0, 0.8610379099845885, 1.0456026703373027, 62.523370056991155)">
			<path fill="#2D1856" d="M311.872,660.685L311.872,660.685c-8.833,0.517-16.411-6.225-16.928-15.057l-9.755-131.357l38.32-2.241&#10;&#9;&#9;&#9;&#9;l3.448,132.624C326.977,653.152,320.356,660.188,311.872,660.685z" style="fill: rgb(35, 65, 77);"/>
			<path fill="#2D1856" d="M225.224,779.735l-24.938-2.953l97.364-138.959c4.897-6.876,14.442-8.48,21.318-3.583l0,0&#10;&#9;&#9;&#9;&#9;c7.063,5.031,8.532,14.923,3.234,21.788L225.224,779.735z" style="fill: rgb(35, 65, 77);"/>
			<path fill="#2D1856" d="M431.389,618.824L431.389,618.824c6.098-6.411,5.843-16.551-0.568-22.648l-94.006-92.264l-26.454,27.814&#10;&#9;&#9;&#9;&#9;l99.046,88.265C415.883,625.495,425.531,624.983,431.389,618.824z" style="fill: rgb(35, 65, 77);"/>
			<path fill="#2D1856" d="M388.667,776.701l25.74,3.034l21.157-168.35c0.988-8.384-5.007-15.981-13.391-16.97l0,0&#10;&#9;&#9;&#9;&#9;c-8.612-1.015-16.342,5.33-17.027,13.974L388.667,776.701z" style="fill: rgb(35, 65, 77);"/>
			<path fill="#4B2676" d="M353.8,518.341c0,0-18.501,3.335-36.43,3.335c-15.42,0-33.957-4.266-33.957-4.266l-4.661-71.919&#10;&#9;&#9;&#9;&#9;c-0.585-9.022,6.575-16.662,15.617-16.662h62.698L353.8,518.341z" style="fill: rgb(45, 83, 98);"/>
			<path d="M 345.6080017089844 428.8290100097656 L 307.24700927734375 428.8290100097656 L 325.4739990234375 493.1319885253906 Z" fill="#FFFFFF"/>
			<path fill="#4B2676" d="M228.484,398.71l64.619,33.079c7.913,4.051,10.737,13.958,6.149,21.572l0,0&#10;&#9;&#9;&#9;&#9;c-4.372,7.257-13.799,9.595-21.056,5.223l-62.179-37.463c-6.069-3.657-8.025-11.542-4.369-17.611l0,0&#10;&#9;&#9;&#9;&#9;C215.127,397.735,222.483,395.638,228.484,398.71z" style="fill: rgb(45, 83, 98);"/>
			<path fill="#4B2676" d="M283.966,315.043l-51.899,100.548c-3.501,5.887-11.112,7.82-16.999,4.318l0,0&#10;&#9;&#9;&#9;&#9;c-5.887-3.501-7.82-11.112-4.318-16.999l57.742-97.072L283.966,315.043z" style="fill: rgb(45, 83, 98);"/>
			<path fill="#4B2676" d="M428.997,456.469l-88.973,3.24l0.578-17.66c0.255-7.789,6.776-13.896,14.564-13.641l73.783,2.415&#10;&#9;&#9;&#9;&#9;c7.083,0.232,12.636,6.161,12.404,13.243l0,0C441.133,450.806,435.734,456.224,428.997,456.469z" style="fill: rgb(45, 83, 98);"/>
			<path fill="#4B2676" d="M430.144,358.833l11.585,83.069c0.55,6.827-4.539,12.808-11.366,13.357l0,0&#10;&#9;&#9;&#9;&#9;c-6.827,0.55-12.808-4.539-13.357-11.366l-4.808-83.615L430.144,358.833z" style="fill: rgb(45, 83, 98);"/>
			<path d="M 339.4530029296875 428.95599365234375 L 325.02099609375 432.1090087890625 L 309.4809875488281 426.85400390625 L 306.8320007324219 414.4530029296875 L 335.0660095214844 408.4219970703125 Z" fill="#E293A6"/>
			<path fill="#F7A0B1" d="M337.848,387.593c2.464,6.32,2.445,13.593,1.302,20.325c-0.728,4.288-2.312,9.08-6.323,10.761&#10;&#9;&#9;&#9;&#9;c-1.961,0.822-4.176,0.729-6.29,0.503c-11.401-1.219-25.121-5.786-29.203-17.689c-3.822-11.145,2.115-23.277,13.259-27.099&#10;&#9;&#9;&#9;&#9;c7.746-2.656,16.545-0.546,22.247,5.333C335.104,382.061,336.731,384.729,337.848,387.593z"/>
			<path d="M 227.4409942626953 778.218017578125 L 244.91400146484375 785.6229858398438 L 199.01800537109375 785.843017578125 L 200.5189971923828 775.8740234375 Z" fill="#511122"/>
			<path d="M 414.7030029296875 777.3380126953125 L 431.7409973144531 785.6950073242188 L 388.1619873046875 783.4990234375 L 388.53900146484375 776.02001953125 Z" fill="#511122"/>
			<path fill="#F7A0B1" d="M284.979,315.535c0,0,9.947-6.126,9.893-11.416c-0.055-5.29-6.455,1.572-6.455,1.572&#10;&#9;&#9;&#9;&#9;s1.4-18.002-2.437-19.102s-12.567-9.042-18.889,26.897C267.092,313.487,268,322.507,284.979,315.535z"/>
			<path fill="#F7A0B1" d="M413.098,362.228c0,0-9.736-6.458-9.503-11.742c0.232-5.285,6.397,1.789,6.397,1.789&#10;&#9;&#9;&#9;&#9;s-0.794-18.039,3.077-19.009c3.872-0.97,12.865-8.615,17.974,27.517C431.043,360.783,429.833,369.767,413.098,362.228z"/>
			<path d="M 321.7040100097656 433.75 L 328.7030029296875 433.75 L 325.2040100097656 439.7489929199219 Z" fill="#FF406F" style="fill: rgb(210, 162, 40);"/>
			<path d="M 325.02099609375 437.7959899902344 L 329.7969970703125 483.39898681640625 L 325.4739990234375 493.1319885253906 L 319.7359924316406 479.5719909667969 Z" fill="#FF406F" style="fill: rgb(223, 172, 42);"/>
			<path fill="#2D1856" d="M310.221,428.829l15.42,64.303l-20.669-32.524l5.249-9.142l-11.811-10.236&#10;&#9;&#9;&#9;&#9;C298.411,441.23,297.754,425.548,310.221,428.829z" style="fill: rgb(59, 109, 129);"/>
			<path fill="#2D1856" d="M340.894,428.829l-15.42,64.303l20.669-32.524l-5.249-9.142l11.811-10.236&#10;&#9;&#9;&#9;&#9;C352.705,441.23,353.361,425.548,340.894,428.829z" style="fill: rgb(59, 109, 129);"/>
			<path fill="#EAEAEA" d="M308.875,422.595l16.146,9.514l-4.391,5.249l-11.473-8.981&#10;&#9;&#9;&#9;&#9;C309.158,428.377,306.326,423.579,308.875,422.595z" transform="matrix(1, 0, 0, 1, 0.6044659171581372, 0.604465901851647)"/>
			<path fill="#EAEAEA" d="M339.77,422.595l-14.749,9.514l4.391,5.249l11.472-8.981C340.884,428.377,342.319,423.579,339.77,422.595&#10;&#9;&#9;&#9;&#9;z"/>
			<path d="M 309.48699951171875 491.49200439453125 L 302.22198486328125 508.21600341796875 L 304.7539978027344 509.5369873046875 L 311.5369873046875 492.7030029296875 Z" fill="#2D1856" style="fill: rgb(59, 109, 129);"/>
			<path fill="#1D1E30" d="M312.466,394.64c-1.829,1.706-2.943,3.71-2.058,6.182c0.874,2.438,1.747,4.875,2.62,7.312&#10;&#9;&#9;&#9;&#9;c0.211,0.589,0.421,1.249,0.174,1.823c-0.167,0.386-0.511,0.659-0.806,0.958c-2.044,2.073-1.772,5.417-1.36,8.299&#10;&#9;&#9;&#9;&#9;c-2.814,0.657-5.609-1.107-7.738-3.062c-4.723-4.335-8.095-9.974-10.571-15.888c-2.863-6.837-3.147-14.756,3.62-19.516&#10;&#9;&#9;&#9;&#9;c1.448-1.019,3.115-1.776,4.293-3.098c0.926-1.039,1.478-2.348,2.079-3.604c2.647-5.529,6.595-10.487,11.64-13.969&#10;&#9;&#9;&#9;&#9;c5.045-3.483,11.206-5.434,17.327-5.083c1.264,0.072,2.529,0.242,3.738,0.619c3.335,1.041,6.108,3.738,7.242,7.043&#10;&#9;&#9;&#9;&#9;c1.133,3.305,0.6,7.137-1.395,10.006c-1.38,1.985-3.356,3.463-5.296,4.905c-5.311,3.946-10.621,7.892-15.932,11.837&#10;&#9;&#9;&#9;&#9;C318.022,390.907,314.708,392.549,312.466,394.64z"/>
			<path fill="#F7A0B1" d="M312.74,402.192c-0.264-0.167-0.56-0.32-0.89-0.457c-0.611-0.252-1.248-0.441-1.897-0.563&#10;&#9;&#9;&#9;&#9;c-0.743-0.14-1.558-0.181-2.208,0.204c-0.609,0.361-0.971,1.051-1.071,1.751c-0.274,1.92,0.614,4.436,1.642,6.017&#10;&#9;&#9;&#9;&#9;c0.601,0.924,1.417,1.686,2.225,2.437c0.31,0.288,0.632,0.584,1.031,0.726c0.295,0.105,0.613,0.118,0.926,0.131&#10;&#9;&#9;&#9;&#9;c1.063,0.042,2.181,0.073,3.127-0.413C314.493,408.56,315.988,404.253,312.74,402.192z"/>
			<path fill="none" stroke="#231F20" stroke-miterlimit="10" d="M333.454,394.018c0,0,2.076,6.213,5.193,8.564&#10;&#9;&#9;&#9;&#9;s-4.939,2.061-4.939,2.061"/>
			<path fill="#7A1C37" d="M336.17,406.731l-8.9,1.901c0,0,2.367,4.364,5.568,4.283S336.17,406.731,336.17,406.731z"/>
		</g>
		<g clip-path="url(#SVGID_2_)" transform="matrix(0.8610379099845885, 0, 0, 0.8610379099845885, 1.0456026703373027, 62.523370056991155)">
			<path d="M 699.352972 264.79599 A 7.982 7.982 0 0 1 691.370972 272.77799 A 7.982 7.982 0 0 1 683.388972 264.79599 A 7.982 7.982 0 0 1 691.370972 256.81399 A 7.982 7.982 0 0 1 699.352972 264.79599 Z" fill="#072130"/>
			<path fill="#F7A0B1" d="M624.037,530.085L624.037,530.085c-7.927-2.559-12.279-11.06-9.721-18.986l36.234-118.602l34.393,11.101&#10;&#9;&#9;&#9;&#9;L642.742,521.16C639.862,528.626,631.652,532.543,624.037,530.085z"/>
			<path fill="#F7A0B1" d="M620.671,659.054l-12.8-2.018l4.796-138.814c0.47-7.935,7.283-13.985,15.217-13.516l0,0&#10;&#9;&#9;&#9;&#9;c8.15,0.482,14.267,7.641,13.473,15.766L620.671,659.054z"/>
			<path fill="#F7A0B1" d="M700.061,516.141L700.061,516.141c-8.288,0.838-15.686-5.2-16.525-13.488L669.117,379.48l35.957-3.638&#10;&#9;&#9;&#9;&#9;l8.537,124.615C713.969,508.452,708.022,515.335,700.061,516.141z"/>
			<path fill="#F7A0B1" d="M741.845,658.063l-12.758,2.271l-44.31-153.479c-2.146-7.653,2.319-15.597,9.972-17.742l0,0&#10;&#9;&#9;&#9;&#9;c7.861-2.204,15.979,2.565,17.881,10.504L741.845,658.063z"/>
			<path fill="#EAEAEA" d="M596.771,353.255l40.555-52.601c1.263-1.639,3.65-1.864,5.198-0.49l17.834,15.829l-53.713,60.515&#10;&#9;&#9;&#9;&#9;c-3.809,4.291-10.807,3.036-12.887-2.312l0,0C591.335,367.97,592.691,358.546,596.771,353.255z"/>
			<path fill="#C4C4C4" d="M703.684,374.242c0,0,16.618,26.249,9.681,88.701c0,0-66.547,18.711-89.838-7.653&#10;&#9;&#9;&#9;&#9;c0,0,11.968-37.292,19.249-76.83C642.775,378.46,671.1,363.368,703.684,374.242z"/>
			<path fill="#EAEAEA" d="M640.724,383.372l22.859,3.09c3.215,0.619,6.426-1.091,7.707-4.105l2.65-6.238l1.905,5.824&#10;&#9;&#9;&#9;&#9;c1.178,3.602,4.758,5.85,8.514,5.348l23.904-2.819l-5.747-33.331l3.075-50.952c0,0-14.904-2.123-28.489-2.51&#10;&#9;&#9;&#9;&#9;c-13.585-0.387-38.358,1.419-38.358,1.419l10.408,52.17L640.724,383.372z"/>
			<path fill="#E293A6" d="M689.056,298.444c-4.232-0.374-8.407-0.665-11.955-0.766c-6.52-0.186-15.613,0.134-23.312,0.517&#10;&#9;&#9;&#9;&#9;c-0.143,6.988,0.165,19.524,4.031,22.365C662.992,324.359,690.942,321.209,689.056,298.444z"/>
			
				<path d="M 661.606995 279.136993 H 677.195994 V 304.893993 H 661.606995 V 279.136993 Z" transform="matrix(-0.9748 -0.2229 0.2229 -0.9748 1256.8799 725.8842)" fill="#E293A6"/>
			<path fill="#F7A0B1" d="M656.165,265.943c-1.495,4.884-1.333,10.178-0.587,15.134c0.575,3.819,1.934,7.784,4.896,8.841&#10;&#9;&#9;&#9;&#9;c1.984,0.708,4.281-0.053,6.422-0.956c5.679-2.396,11.936-7.697,14.277-14.984c2.918-9.083-0.326-18.249-7.244-20.471&#10;&#9;&#9;&#9;&#9;c-4.809-1.544-10.496,0.754-14.379,5.81C657.967,261.377,656.877,263.613,656.165,265.943z"/>
			<path fill="none" stroke="#231F20" stroke-miterlimit="10" d="M659.129,275.114c0,0-1.064,3.221-2.388,2.763&#10;&#9;&#9;&#9;&#9;c0,0,0.495,1.751,2.547,1.858"/>
			<path fill="#7A1C37" d="M657.333,282.451c1.325,1.129,3.21-0.008,3.21-0.008s1.043,3.319-1.255,3.55&#10;&#9;&#9;&#9;&#9;S657.333,282.451,657.333,282.451z"/>
			<path fill="#0A2C45" d="M657.765,258.277c0,0-0.859,14.325,20.049,31.919c0,0,26.45-24.828,1.842-37.165&#10;&#9;&#9;&#9;&#9;C664.888,245.627,657.765,258.277,657.765,258.277z"/>
			<path d="M 606.5859985351562 657.3870239257812 L 592.4229736328125 663.6329956054688 L 621.4769897460938 665.2990112304688 L 621.8809814453125 658.260009765625 Z" fill="#0A2C45"/>
			<path d="M 727.4229736328125 657.8569946289062 L 712.8770141601562 665.2849731445312 L 741.968994140625 664.5360107421875 L 741.7880249023438 657.4879760742188 Z" fill="#0A2C45"/>
			<path fill="#FFFFFF" d="M684.467,312.32c0,0-8.611,4.103-15.982,3.893c-8.067-0.23-15.663-4.794-15.663-4.794&#10;&#9;&#9;&#9;&#9;s-2.526,17.975,13.987,37.708C666.81,349.126,683.994,334.226,684.467,312.32z"/>
			<path fill="#C4C4C4" d="M681.697,297.471c0,0,0.71,13.165-2.451,26.465c-3.497,14.714-12.437,25.191-12.437,25.191l23.302-21.617&#10;&#9;&#9;&#9;&#9;l-4.695-8.744l7.063-9.307C692.479,309.458,693.518,294.717,681.697,297.471z"/>
			<path fill="#C4C4C4" d="M655.585,296.727c0,0-1.458,13.103,0.94,26.562c2.653,14.89,10.284,25.838,10.284,25.838l-21.335-22.889&#10;&#9;&#9;&#9;&#9;l5.185-8.462l-6.522-9.694C644.137,308.081,643.94,293.305,655.585,296.727z"/>
			<path d="M 650.9600219726562 358.60101318359375 L 643.6740112304688 374.1449890136719 L 646.02099609375 375.45599365234375 L 652.8569946289062 359.7950134277344 Z" fill="#C4C4C4"/>
			<path d="M 690.7680053710938 359.7349853515625 L 697.156005859375 375.6679992675781 L 694.7379760742188 376.843994140625 L 688.8060302734375 360.8190002441406 Z" fill="#D3D3D3"/>
		</g>
		<g clip-path="url(#SVGID_2_)" transform="matrix(0.8610379099845885, 0, 0, 0.8610379099845885, 1.0456026703373027, 62.523370056991155)">
			<g>
				<path fill="#F12C5A" d="M428.276,135.076c-58.937-25.719-127.562,1.209-153.281,60.146s1.21,127.562,60.146,153.281&#10;&#9;&#9;&#9;&#9;&#9;s127.562-1.21,153.28-60.146C514.141,229.42,487.212,160.794,428.276,135.076z M355.081,302.81&#10;&#9;&#9;&#9;&#9;&#9;c-33.701-14.706-49.099-53.948-34.393-87.648c14.706-33.7,53.948-49.099,87.648-34.392&#10;&#9;&#9;&#9;&#9;&#9;c33.701,14.706,49.099,53.948,34.392,87.648C428.023,302.118,388.781,317.516,355.081,302.81z" style="fill: rgb(45, 83, 98);"/>
				<path fill="#F12C5A" d="M764.326,415.034l4.099-9.392c4.375-10.024-0.205-21.696-10.229-26.071L452.446,246.149l-19.939,45.693&#10;&#9;&#9;&#9;&#9;&#9;l305.749,133.422C748.28,429.639,759.952,425.059,764.326,415.034z" style="fill: rgb(45, 83, 98);"/>
				<path fill="#F12C5A" d="M687.319,461.562l-29.667-12.946c-8.099-3.534-11.8-12.965-8.265-21.064l34.994-80.192l58.996,25.745&#10;&#9;&#9;&#9;&#9;&#9;l-34.993,80.192C704.85,461.396,695.418,465.096,687.319,461.562z" style="fill: rgb(45, 83, 98);"/>
				<path fill="#F12C5A" d="M619.701,411.398l-29.667-12.946c-8.099-3.534-11.799-12.965-8.265-21.064l27.422-62.84l58.996,25.745&#10;&#9;&#9;&#9;&#9;&#9;l-27.422,62.84C637.23,411.232,627.8,414.933,619.701,411.398z" style="fill: rgb(45, 83, 98);"/>
			</g>
		</g>
		<g clip-path="url(#SVGID_2_)" transform="matrix(0.8610379099845885, 0, 0, 0.8610379099845885, 1.0456026703373027, 62.523370056991155)">
			<path fill="#F7A0B1" d="M601.218,399.016c-0.158-0.149-0.325-0.286-0.5-0.407c-1.357-0.942-3.101-1.065-4.664-1.601&#10;&#9;&#9;&#9;&#9;c-1.848-0.633-3.434-1.841-4.981-3.031c-2.192-1.686-4.477-3.421-7.176-4.019c-2.7-0.598-5.943,0.292-7.19,2.759&#10;&#9;&#9;&#9;&#9;c-1.202,2.377-0.201,5.285,1.24,7.525c2.815,4.377,7.321,7.636,12.36,8.938c3.786,0.978,9.606,2.308,11.925-0.994&#10;&#9;&#9;&#9;&#9;C603.975,405.702,603.436,401.103,601.218,399.016z"/>
			<path fill="#EAEAEA" d="M755.592,343.241l-37.489-36.724c-3.559-3.486-8.146-5.733-13.082-6.407l-3.039-0.415l-9.64,24.061&#10;&#9;&#9;&#9;&#9;l49.279,36.905c4.943,3.692,11.944,2.677,15.636-2.267l0,0C760.77,353.691,760.042,347.07,755.592,343.241z"/>
			<path fill="#EAEAEA" d="M695.989,421.083l60.708-61.909c3.854-4.552,3.287-11.366-1.265-15.219l0,0&#10;&#9;&#9;&#9;&#9;c-4.553-3.854-11.366-3.287-15.22,1.265l-53.053,68.39L695.989,421.083z"/>
			<path fill="#F7A0B1" d="M682.762,416.676c0,0-5.584,7.435-4.003,11.336c1.581,3.902,4.323-3.044,4.323-3.044&#10;&#9;&#9;&#9;&#9;s4.205,13.741,7.367,13.438s11.941,3.038,6.158-25.423C696.606,412.984,693.308,406.568,682.762,416.676z"/>
		</g>
		
	</g>
</svg>