<?xml version="1.0" encoding="utf-8"?>
<svg id="master-artboard" viewBox="0 0 563.39013671875 419.1179504394531" version="1.1" xmlns="http://www.w3.org/2000/svg" x="0px" y="0px" width="563.39013671875px" height="419.1179504394531px" enable-background="new 0 0 1400 980" xmlns:xlink="http://www.w3.org/1999/xlink"><rect id="ee-background" x="0" y="0" width="563.39013671875" height="419.1179504394531" style="fill: white; fill-opacity: 0; pointer-events: none;"/><defs><path d="M -14.547 -15 H 1415.453 V 995 H -14.547 V -15 Z" id="SVGID_1_"/></defs>

<path d="M 931.97900390625 66.81500244140625 L 83.37699890136719 915.4169921875 L 1277.06103515625 915.4169921875 L 1044.6400146484375 66.81500244140625 Z" fill="#F3F4FF" transform="matrix(0.4355539381504059, 0, 0, 0.4355539381504059, -14.210990905761719, 5.1863508224487305)" style="fill: rgb(250, 241, 220);"/><g transform="matrix(0.4355539381504059, 0, 0, 0.4355539381504059, -14.210990905761719, 5.1863508224487305)">
			<path fill="#95A0C6" d="M1193.924,617.299c0,0,0.975,22.409,18.504,26.791C1229.958,648.473,1193.924,617.299,1193.924,617.299z" style="fill: rgb(228, 185, 78);"/>
			<path fill="#808CAD" d="M1205.581,596.37c0,0-10.804,35.904,11.656,48.143S1205.581,596.37,1205.581,596.37z" style="fill: rgb(193, 149, 37);"/>
			<path fill="#95A0C6" d="M1277.319,617.299c0,0-0.974,22.409-18.504,26.791C1241.285,648.473,1277.319,617.299,1277.319,617.299z" style="fill: rgb(228, 185, 78);"/>
			<path fill="#808CAD" d="M1265.663,596.37c0,0,10.803,35.904-11.657,48.143C1231.547,656.751,1265.663,596.37,1265.663,596.37z" style="fill: rgb(193, 149, 37);"/>
			<path fill="#95A0C6" d="M1234.833,573.383c0,0-33.595,74.603,0,77.038C1268.427,652.855,1234.833,573.383,1234.833,573.383z" style="fill: rgb(200, 163, 68);"/>
			<path fill="#A5AFDB" d="M1193.924,637.497v13.716c0,18.062,14.644,32.706,32.707,32.706h23.373&#10;&#9;&#9;&#9;&#9;c18.063,0,32.706-14.644,32.706-32.706v-13.716H1193.924z" style="fill: rgb(228, 185, 78);"/>
		</g><path d="M 1132.775024 681.812988 H 1285.166031 V 691.606988 H 1132.775024 V 681.812988 Z" fill="#5F78D3" transform="matrix(0.4355539381504059, 0, 0, 0.4355539381504059, -14.210990905761719, 5.1863508224487305)" style="fill: rgb(59, 109, 129);"/><path d="M 1140.881958 691.606995 H 1277.060959 V 920.125992 H 1140.881958 V 691.606995 Z" fill="#BAC2F1" transform="matrix(0.4355539381504059, 0, 0, 0.4355539381504059, -14.210990905761719, 5.1863508224487305)" style="fill: rgb(98, 136, 151);"/><path d="M 1147.365967 702.489014 H 1270.575966 V 909.244019 H 1147.365967 V 702.489014 Z" fill="#A5AFDB" transform="matrix(0.4355539381504059, 0, 0, 0.4355539381504059, -14.210990905761719, 5.1863508224487305)" style="fill: rgb(59, 109, 129); fill-opacity: 0.79;"/><path d="M 1147.365967 742.336975 L 1270.57605 742.336975" fill="none" stroke="#BAC2F1" stroke-miterlimit="10" transform="matrix(0.4355539381504059, 0, 0, 0.4355539381504059, -14.210990905761719, 5.1863508224487305)" style="fill: rgb(250, 241, 220);"/><path d="M 1147.365967 783.406982 L 1270.57605 783.406982" fill="none" stroke="#BAC2F1" stroke-miterlimit="10" transform="matrix(0.4355539381504059, 0, 0, 0.4355539381504059, -14.210990905761719, 5.1863508224487305)"/><path d="M 1147.365967 824.47699 L 1270.57605 824.47699" fill="none" stroke="#BAC2F1" stroke-miterlimit="10" transform="matrix(0.4355539381504059, 0, 0, 0.4355539381504059, -14.210990905761719, 5.1863508224487305)"/><path d="M 1147.365967 865.546997 L 1270.57605 865.546997" fill="none" stroke="#BAC2F1" stroke-miterlimit="10" transform="matrix(0.4355539381504059, 0, 0, 0.4355539381504059, -14.210990905761719, 5.1863508224487305)"/><path d="M 1215.050976 725.786987 A 7.701 3.445 0 0 1 1207.349976 729.231987 A 7.701 3.445 0 0 1 1199.648975 725.786987 A 7.701 3.445 0 0 1 1207.349976 722.341987 A 7.701 3.445 0 0 1 1215.050976 725.786987 Z" fill="#E0E1FF" transform="matrix(0.4355539381504059, 0, 0, 0.4355539381504059, -14.210990905761719, 5.1863508224487305)"/><path d="M 1215.050976 765.304016 A 7.701 3.445 0 0 1 1207.349976 768.749016 A 7.701 3.445 0 0 1 1199.648975 765.304016 A 7.701 3.445 0 0 1 1207.349976 761.859016 A 7.701 3.445 0 0 1 1215.050976 765.304016 Z" fill="#E0E1FF" transform="matrix(0.4355539381504059, 0, 0, 0.4355539381504059, -14.210990905761719, 5.1863508224487305)"/><path d="M 1215.050976 806.440979 A 7.701 3.444 0 0 1 1207.349976 809.884979 A 7.701 3.444 0 0 1 1199.648975 806.440979 A 7.701 3.444 0 0 1 1207.349976 802.996979 A 7.701 3.444 0 0 1 1215.050976 806.440979 Z" fill="#E0E1FF" transform="matrix(0.4355539381504059, 0, 0, 0.4355539381504059, -14.210990905761719, 5.1863508224487305)"/><path d="M 1215.050976 847.578003 A 7.701 3.445 0 0 1 1207.349976 851.023003 A 7.701 3.445 0 0 1 1199.648975 847.578003 A 7.701 3.445 0 0 1 1207.349976 844.133003 A 7.701 3.445 0 0 1 1215.050976 847.578003 Z" fill="#E0E1FF" transform="matrix(0.4355539381504059, 0, 0, 0.4355539381504059, -14.210990905761719, 5.1863508224487305)"/><path d="M 1215.050976 888.716003 A 7.701 3.445 0 0 1 1207.349976 892.161003 A 7.701 3.445 0 0 1 1199.648975 888.716003 A 7.701 3.445 0 0 1 1207.349976 885.271003 A 7.701 3.445 0 0 1 1215.050976 888.716003 Z" fill="#E0E1FF" transform="matrix(0.4355539381504059, 0, 0, 0.4355539381504059, -14.210990905761719, 5.1863508224487305)"/><path fill="#2D1856" d="M907.97,331.74L907.97,331.74c2.099-6.994-1.869-14.365-8.863-16.463l-103.612-32.878l-9.105,30.342&#10;&#9;&#9;&#9;l105.832,28.055C899.041,342.433,905.953,338.458,907.97,331.74z" transform="matrix(0.4355539381504059, 0, 0, 0.4355539381504059, -14.210990905761719, 5.1863508224487305)" style="fill: rgb(32, 60, 71);"/><path fill="#2D1856" d="M800.877,397.53l14.051,16.127l88.922-74.552c5.253-4.577,5.801-12.545,1.225-17.798l0,0&#10;&#9;&#9;&#9;c-4.701-5.396-12.944-5.804-18.156-0.9L800.877,397.53z" transform="matrix(0.4355539381504059, 0, 0, 0.4355539381504059, -14.210990905761719, 5.1863508224487305)" style="fill: rgb(32, 60, 71);"/><path fill="#2D1856" d="M758.295,403.274L758.295,403.274c-7.155-1.455-11.776-8.435-10.321-15.59l19.985-106.852l37.721,7.67&#10;&#9;&#9;&#9;l-31.962,105.17C771.938,400.458,765.169,404.672,758.295,403.274z" transform="matrix(0.4355539381504059, 0, 0, 0.4355539381504059, -14.210990905761719, 5.1863508224487305)" style="fill: rgb(32, 60, 71);"/><path fill="#2D1856" d="M724.092,501.931l-19.662-8.423l44.523-106.87c2.743-6.404,10.159-9.372,16.562-6.628l0,0&#10;&#9;&#9;&#9;c6.578,2.818,9.498,10.538,6.431,17.003L724.092,501.931z" transform="matrix(0.4355539381504059, 0, 0, 0.4355539381504059, -14.210990905761719, 5.1863508224487305)" style="fill: rgb(32, 60, 71);"/><path fill="#4B2676" d="M824.041,290.9c0,0-15.508,0.463-30.141-1.727c-12.586-1.883-27.194-7.627-27.194-7.627l4.978-59.27&#10;&#9;&#9;&#9;c0.624-7.435,7.401-12.796,14.78-11.692l51.174,7.656L824.041,290.9z" transform="matrix(0.4355539381504059, 0, 0, 0.4355539381504059, -14.210990905761719, 5.1863508224487305)" style="fill: rgb(45, 83, 98);"/><path d="M 828.2839965820312 216.83999633789062 L 796.9749755859375 212.156005859375 L 803.9990234375 266.8659973144531 Z" fill="#FFFFFF" transform="matrix(0.4355539381504059, 0, 0, 0.4355539381504059, -14.210990905761719, 5.1863508224487305)"/><path d="M 819.5499877929688 214.86099243164062 L 811.0809936523438 217.00399780273438 L 799.0919799804688 211.67799377441406 L 800.9719848632812 200.21200561523438 L 822.1719970703125 198.89700317382812 Z" fill="#E293A6" transform="matrix(0.4355539381504059, 0, 0, 0.4355539381504059, -14.210990905761719, 5.1863508224487305)"/><path fill="#F7A0B1" d="M825.843,182.362c0.169,1.572,0.254,3.113,0.339,4.455c0.267,4.22,0.079,8.457-0.256,12.667&#10;&#9;&#9;&#9;c-0.096,1.217-0.209,2.454-0.658,3.589c-1.772,4.48-7.438,4.59-11.371,3.564c-9.156-2.387-19.797-7.79-21.675-18.004&#10;&#9;&#9;&#9;c-1.759-9.563,4.568-18.741,14.131-20.499c3.375-0.621,6.904-0.203,10.061,1.136c2.538,1.077,6.022,3.197,7.441,5.643&#10;&#9;&#9;&#9;C825.028,176.938,825.556,179.694,825.843,182.362z" transform="matrix(0.4355539381504059, 0, 0, 0.4355539381504059, -14.210990905761719, 5.1863508224487305)"/><path d="M 724.2369995117188 501.37298583984375 L 735.52099609375 512.2349853515625 L 700.0809936523438 498.864990234375 L 704.1790161132812 491.625 Z" fill="#511122" transform="matrix(0.4355539381504059, 0, 0, 0.4355539381504059, -14.210990905761719, 5.1863508224487305)"/><path d="M 816.7030029296875 412.72900390625 L 821.9819946289062 427.4739990234375 L 797.4500122070312 401.11199951171875 L 801.9749755859375 396.9020080566406 Z" fill="#511122" transform="matrix(0.4355539381504059, 0, 0, 0.4355539381504059, -14.210990905761719, 5.1863508224487305)"/><path fill="#4B2676" d="M904.723,233.892l-72.648,10.995l-2.124-26.14l72.33-5.878c5.829-0.474,10.938,3.867,11.411,9.696v0&#10;&#9;&#9;&#9;C914.143,228.11,910.224,233.059,904.723,233.892z" transform="matrix(0.4355539381504059, 0, 0, 0.4355539381504059, -14.210990905761719, 5.1863508224487305)" style="fill: rgb(45, 83, 98);"/><path fill="#4B2676" d="M947.759,168.564l-34.171,60.195c-3.072,4.745-9.409,6.102-14.154,3.03l0,0&#10;&#9;&#9;&#9;c-4.745-3.072-6.102-9.409-3.029-14.154l38.882-57.146L947.759,168.564z" transform="matrix(0.4355539381504059, 0, 0, 0.4355539381504059, -14.210990905761719, 5.1863508224487305)" style="fill: rgb(45, 83, 98);"/><path fill="#F7A0B1" d="M935.079,160.3c0,0-3.127-9.12-0.317-12.462c2.809-3.342,3.288,4.387,3.288,4.387&#10;&#9;&#9;&#9;s8.548-12.207,11.569-10.896s12.75,0.828-2.067,27.046C947.552,168.375,942.244,173.646,935.079,160.3z" transform="matrix(0.4355539381504059, 0, 0, 0.4355539381504059, -14.210990905761719, 5.1863508224487305)"/><path d="M 808.1740112304688 217.93800354003906 L 813.885986328125 218.79299926757812 L 810.2969970703125 223.26199340820312 Z" fill="#FF406F" transform="matrix(0.4355539381504059, 0, 0, 0.4355539381504059, -14.210990905761719, 5.1863508224487305)" style="fill: rgb(193, 149, 37);"/><path d="M 810.3870239257812 221.64599609375 L 808.7160034179688 259.45001220703125 L 803.9990234375 266.8659973144531 L 800.9719848632812 255.09800720214844 Z" fill="#FF406F" transform="matrix(0.4355539381504059, 0, 0, 0.4355539381504059, -14.210990905761719, 5.1863508224487305)" style="fill: rgb(193, 149, 37);"/><path fill="#2D1856" d="M799.402,212.52l4.733,54.367l-12.898-29.07l5.4-6.821l-8.39-9.796&#10;&#9;&#9;&#9;C788.248,221.2,789.627,208.32,799.402,212.52z" transform="matrix(0.4355539381504059, 0, 0, 0.4355539381504059, -14.210990905761719, 5.1863508224487305)" style="fill: rgb(35, 65, 77);"/><path fill="#2D1856" d="M824.437,216.265l-20.438,50.602l20.842-24.022l-3.168-8.102l10.89-6.913&#10;&#9;&#9;&#9;C832.562,227.829,835.013,215.109,824.437,216.265z" transform="matrix(0.4355539381504059, 0, 0, 0.4355539381504059, -14.210990905761719, 5.1863508224487305)" style="fill: rgb(35, 65, 77);"/><path fill="#EAEAEA" d="M799.064,207.268l12.017,9.737l-4.225,3.749l-8.267-8.731C798.59,212.021,796.863,207.759,799.064,207.268&#10;&#9;&#9;&#9;z" transform="matrix(0.4355539381504059, 0, 0, 0.4355539381504059, -13.958244323730469, 5.1863508224487305)"/><path fill="#EAEAEA" d="M824.28,211.04l-13.199,5.964l2.942,4.821l10.461-5.93C824.484,215.896,826.241,212.155,824.28,211.04z" transform="matrix(0.4355539381504059, 0, 0, 0.4355539381504059, -14.210990905761719, 5.1863508224487305)"/><path d="M 791.1510009765625 263.57598876953125 L 783.1799926757812 276.3380126953125 L 785.083984375 277.72601318359375 L 792.677001953125 264.8139953613281 Z" fill="none" stroke="#231F20" stroke-miterlimit="10" transform="matrix(0.4355539381504059, 0, 0, 0.4355539381504059, -14.210990905761719, 5.1863508224487305)"/><path fill="#1D1E30" d="M805.356,184.818c-1.674,1.188-2.804,2.736-2.382,4.866c0.415,2.096,0.83,4.191,1.245,6.287&#10;&#9;&#9;&#9;c0.363,1.832-1.458,2.178-2.202,3.463c-0.416,0.719-0.456,1.586-0.568,2.41c-0.086,0.637-0.22,1.271-0.408,1.886&#10;&#9;&#9;&#9;c-0.112,0.368-0.166,0.91-0.31,1.244c-0.166,0.386-0.725,0.345-1.122,0.208c-4.022-1.381-6.105-5.911-7.87-9.458&#10;&#9;&#9;&#9;c-1.369-2.752-2.375-5.677-3.129-8.654c-1.047-4.136-1.212-9.63,1.994-12.944c1.627-1.681,3.224-2.094,4.468-4.285&#10;&#9;&#9;&#9;c1.055-1.857,1.65-3.935,2.943-5.664c4.783-6.398,17.218-6.094,22.667-0.811c0.747,0.725,1.4,1.562,1.817,2.517&#10;&#9;&#9;&#9;c0.71,1.629,0.688,3.471,0.652,5.248c-0.024,1.242-0.07,2.557-0.75,3.597c-0.504,0.77-1.297,1.294-2.068,1.796&#10;&#9;&#9;&#9;c-2.585,1.685-5.147,3.666-7.918,5.011C810.069,182.676,807.519,183.283,805.356,184.818z" transform="matrix(0.4355539381504059, 0, 0, 0.4355539381504059, -14.210990905761719, 5.1863508224487305)"/><path fill="#F7A0B1" d="M804.711,191.087c-0.195-0.169-0.418-0.33-0.672-0.482c-0.468-0.28-0.965-0.512-1.479-0.691&#10;&#9;&#9;&#9;c-0.589-0.205-1.249-0.338-1.827-0.103c-0.541,0.22-0.921,0.739-1.089,1.298c-0.458,1.534-0.04,3.696,0.605,5.112&#10;&#9;&#9;&#9;c0.378,0.828,0.951,1.549,1.519,2.261c0.218,0.273,0.444,0.554,0.752,0.718c0.229,0.122,0.486,0.171,0.74,0.22&#10;&#9;&#9;&#9;c0.862,0.165,1.771,0.326,2.603,0.045C805.363,196.498,807.109,193.166,804.711,191.087z" transform="matrix(0.4355539381504059, 0, 0, 0.4355539381504059, -14.210990905761719, 5.1863508224487305)"/><path fill="#7A1C37" d="M824.365,197.652l-7.497,0.465c0,0,1.399,3.851,4.021,4.176&#10;&#9;&#9;&#9;C823.513,202.618,824.365,197.652,824.365,197.652z" transform="matrix(0.4355539381504059, 0, 0, 0.4355539381504059, -14.210990905761719, 5.1863508224487305)"/><path fill="none" stroke="#231F20" stroke-miterlimit="10" d="M822.229,188.201c0,0,2.248,4.649,4.046,5.125&#10;&#9;&#9;&#9;c1.797,0.475-1.489,4.248-5.264,1.327" transform="matrix(0.4355539381504059, 0, 0, 0.4355539381504059, -14.210990905761719, 5.1863508224487305)"/><path d="M 974.6320190429688 101.72699737548828 L 942.9359741210938 117.77899932861328 L 942.9420166015625 117.69499969482422 L 939.8179931640625 155.3159942626953 L 974.6320190429688 140.71800231933594 L 974.6320190429688 140.71800231933594 Z" fill="#F4446B" transform="matrix(0.4355539381504059, 0, 0, 0.4355539381504059, -14.210990905761719, 5.1863508224487305)" style="fill: rgb(228, 185, 78);"/><path fill="#4B2676" d="M567.224,683.364l-32.271-62.892l12.894-5.527c5.687-2.438,12.272,0.196,14.71,5.883L585.65,674.7&#10;&#9;&#9;&#9;c2.216,5.171-0.179,11.159-5.35,13.376l0,0C575.381,690.186,569.668,688.127,567.224,683.364z" transform="matrix(0.4355539381504059, 0, 0, 0.4355539381504059, -14.210990905761719, 5.1863508224487305)" style="fill: rgb(45, 83, 98);"/><path fill="#4B2676" d="M630.986,639.812l-47.258,46.917c-4.075,3.601-10.298,3.215-13.898-0.86l0,0&#10;&#9;&#9;&#9;c-3.601-4.076-3.215-10.298,0.86-13.898l50.832-42.871L630.986,639.812z" transform="matrix(0.4355539381504059, 0, 0, 0.4355539381504059, -14.210990905761719, 5.1863508224487305)" style="fill: rgb(45, 83, 98);"/><path fill="#F7A0B1" d="M620.712,630.6c0,0-0.534-9.26,2.934-11.629c3.469-2.369,1.91,4.916,1.91,4.916s11.082-9.095,13.542-7.097&#10;&#9;&#9;&#9;s11.599,4.07-8.923,24.522C630.176,641.312,623.892,644.821,620.712,630.6z" transform="matrix(0.4355539381504059, 0, 0, 0.4355539381504059, -14.210990905761719, 5.1863508224487305)"/><path d="M 671.237976 416.697998 H 839.118973 V 438.594997 H 671.237976 V 416.697998 Z" fill="#A81A46" transform="matrix(0.4355539381504059, 0, 0, 0.4355539381504059, -14.210990905761719, 5.1863508224487305)"/><path d="M 671.237976 427.647003 H 839.118973 V 438.596004 H 671.237976 V 427.647003 Z" fill="#7C183C" transform="matrix(0.4355539381504059, 0, 0, 0.4355539381504059, -14.210990905761719, 5.1863508224487305)"/><path d="M 656.640015 497.718994 H 824.52002 V 519.615993 H 656.640015 V 497.718994 Z" fill="#A81A46" transform="matrix(0.4355539381504059, 0, 0, 0.4355539381504059, -14.210990905761719, 5.1863508224487305)" style="fill: rgb(164, 126, 32);"/><path d="M 656.640015 508.667999 H 824.52002 V 519.615999 H 656.640015 V 508.667999 Z" fill="#7C183C" transform="matrix(0.4355539381504059, 0, 0, 0.4355539381504059, -14.210990905761719, 5.1863508224487305)" style="fill: rgb(122, 94, 24);"/><path d="M 642.041992 578.73999 H 809.922989 V 600.63699 H 642.041992 V 578.73999 Z" fill="#A81A46" transform="matrix(0.4355539381504059, 0, 0, 0.4355539381504059, -14.210990905761719, 5.1863508224487305)" style="fill: rgb(164, 126, 32);"/><path d="M 642.041992 589.687988 H 809.922989 V 600.636989 H 642.041992 V 589.687988 Z" fill="#7C183C" transform="matrix(0.4355539381504059, 0, 0, 0.4355539381504059, -14.210990905761719, 5.1863508224487305)" style="fill: rgb(122, 94, 24);"/><path d="M 627.442993 659.760986 H 795.32399 V 681.657986 H 627.442993 V 659.760986 Z" fill="#A81A46" transform="matrix(0.4355539381504059, 0, 0, 0.4355539381504059, -14.210990905761719, 5.1863508224487305)" style="fill: rgb(164, 126, 32);"/><path d="M 627.442993 670.708984 H 795.32399 V 681.657985 H 627.442993 V 670.708984 Z" fill="#7C183C" transform="matrix(0.4355539381504059, 0, 0, 0.4355539381504059, -14.210990905761719, 5.1863508224487305)" style="fill: rgb(122, 94, 24);"/><path d="M 612.844971 740.781006 H 780.725967 V 762.678005 H 612.844971 V 740.781006 Z" fill="#A81A46" transform="matrix(0.4355539381504059, 0, 0, 0.4355539381504059, -14.210990905761719, 5.1863508224487305)" style="fill: rgb(164, 126, 32);"/><path d="M 612.844971 751.72998 H 780.725967 V 762.67798 H 612.844971 V 751.72998 Z" fill="#7C183C" transform="matrix(0.4355539381504059, 0, 0, 0.4355539381504059, -14.210990905761719, 5.1863508224487305)" style="fill: rgb(122, 94, 24);"/><path d="M 598.247009 821.802002 H 766.128006 V 843.700003 H 598.247009 V 821.802002 Z" fill="#A81A46" transform="matrix(0.4355539381504059, 0, 0, 0.4355539381504059, -14.210990905761719, 5.1863508224487305)" style="fill: rgb(164, 126, 32);"/><path d="M 598.247009 832.750977 H 766.128006 V 843.699977 H 598.247009 V 832.750977 Z" fill="#7C183C" transform="matrix(0.4355539381504059, 0, 0, 0.4355539381504059, -14.210990905761719, 5.1863508224487305)" style="fill: rgb(122, 94, 24);"/><path fill="#A81A46" d="M741.311,918.881h18.978l97.285-539.361c1.033-5.729-3.369-10.996-9.189-10.996l0,0&#10;&#9;&#9;&#9;c-4.519,0-8.388,3.234-9.19,7.681L741.311,918.881z" transform="matrix(0.4355539381504059, 0, 0, 0.4355539381504059, -14.210990905761719, 5.1863508224487305)" style="fill: rgb(164, 127, 32);"/><path fill="#A81A46" d="M575.439,918.881h18.978l97.286-539.361c1.033-5.729-3.369-10.996-9.19-10.996l0,0&#10;&#9;&#9;&#9;c-4.518,0-8.388,3.234-9.19,7.681L575.439,918.881z" transform="matrix(0.4355539381504059, 0, 0, 0.4355539381504059, -14.210990905761719, 5.1863508224487305)" style="fill: rgb(164, 126, 32);"/><path fill="#2D1856" d="M1046.026,792.566L1046.026,792.566c7.155-1.455,11.776-8.436,10.321-15.591l-19.984-106.851&#10;&#9;&#9;&#9;l-31.044,6.312l25.284,106.528C1032.384,789.75,1039.152,793.964,1046.026,792.566z" transform="matrix(0.4355539381504059, 0, 0, 0.4355539381504059, -14.210990905761719, 5.1863508224487305)" style="fill: rgb(32, 60, 71);"/><path fill="#2D1856" d="M1106.35,906.762l18.438-10.842l-70.042-121.251c-3.531-6.006-11.263-8.012-17.269-4.48l0,0&#10;&#9;&#9;&#9;c-6.169,3.627-8.088,11.654-4.228,17.68L1106.35,906.762z" transform="matrix(0.4355539381504059, 0, 0, 0.4355539381504059, -14.210990905761719, 5.1863508224487305)" style="fill: rgb(32, 60, 71);"/><path fill="#2D1856" d="M948.077,782.827L948.077,782.827c-6.572-3.181-9.322-11.088-6.142-17.66l45.812-98.579l28.515,13.8&#10;&#9;&#9;&#9;l-50.866,96.955C961.992,783.476,954.391,785.883,948.077,782.827z" transform="matrix(0.4355539381504059, 0, 0, 0.4355539381504059, -14.210990905761719, 5.1863508224487305)" style="fill: rgb(32, 60, 71);"/><path fill="#2D1856" d="M978.942,911.066l-21.254,2.407l-16.832-139.013c-0.784-6.922,4.192-13.17,11.115-13.954l0,0&#10;&#9;&#9;&#9;c7.111-0.806,13.467,4.459,13.999,11.596L978.942,911.066z" transform="matrix(0.4355539381504059, 0, 0, 0.4355539381504059, -14.210990905761719, 5.1863508224487305)" style="fill: rgb(32, 60, 71);"/><path fill="#4B2676" d="M981.359,676.184c0,0,15.268,2.752,30.064,2.752c12.726,0,28.023-3.52,28.023-3.52l3.847-59.354&#10;&#9;&#9;&#9;c0.482-7.446-5.427-13.751-12.889-13.751h-51.743L981.359,676.184z" transform="matrix(0.4355539381504059, 0, 0, 0.4355539381504059, -14.210990905761719, 5.1863508224487305)" style="fill: rgb(45, 83, 98);"/><path d="M 988.1199951171875 602.31201171875 L 1019.7780151367188 602.31201171875 L 1004.7360229492188 655.3800048828125 Z" fill="#FFFFFF" transform="matrix(0.4355539381504059, 0, 0, 0.4355539381504059, -14.210990905761719, 5.1863508224487305)"/><path fill="#4B2676" d="M1093.085,589.609l-58.489,12.965c-7.162,1.588-11.48,8.911-9.402,15.947l0,0&#10;&#9;&#9;&#9;c1.981,6.705,9.023,10.535,15.729,8.554l57.454-16.974c5.608-1.657,8.812-7.547,7.155-13.154l0,0&#10;&#9;&#9;&#9;C1103.954,591.61,1098.518,588.405,1093.085,589.609z" transform="matrix(0.4355539381504059, 0, 0, 0.4355539381504059, -14.210990905761719, 5.1863508224487305)" style="fill: rgb(45, 83, 98);"/><path fill="#4B2676" d="M1130.799,515.31l-46.098,81.21c-2.49,5.074-0.396,11.207,4.68,13.696l0,0&#10;&#9;&#9;&#9;c5.074,2.49,11.207,0.396,13.696-4.68l41.061-83.682L1130.799,515.31z" transform="matrix(0.4355539381504059, 0, 0, 0.4355539381504059, -14.210990905761719, 5.1863508224487305)" style="fill: rgb(45, 83, 98);"/><path fill="#4B2676" d="M960.398,673.93l33.544-65.373l-13.403-5.745c-5.91-2.533-12.757,0.204-15.29,6.115l-24.004,55.997&#10;&#9;&#9;&#9;c-2.304,5.374,0.186,11.6,5.561,13.903l0,0C951.92,681.02,957.858,678.88,960.398,673.93z" transform="matrix(0.4355539381504059, 0, 0, 0.4355539381504059, -14.210990905761719, 5.1863508224487305)" style="fill: rgb(45, 83, 98);"/><path fill="#4B2676" d="M894.121,628.659l49.122,48.769c4.236,3.742,10.704,3.342,14.446-0.895l0,0&#10;&#9;&#9;&#9;c3.742-4.236,3.342-10.704-0.895-14.446l-52.836-44.562L894.121,628.659z" transform="matrix(0.4355539381504059, 0, 0, 0.4355539381504059, -14.210990905761719, 5.1863508224487305)" style="fill: rgb(45, 83, 98);"/><path d="M 993.2000122070312 602.4169921875 L 1005.1090087890625 605.02001953125 L 1017.9349975585938 600.6820068359375 L 1020.1209716796875 590.447998046875 L 996.8200073242188 585.4710083007812 Z" fill="#E293A6" transform="matrix(0.4355539381504059, 0, 0, 0.4355539381504059, -14.210990905761719, 5.1863508224487305)"/><path fill="#F7A0B1" d="M994.524,568.281c-2.034,5.216-2.018,11.218-1.074,16.773c0.601,3.538,1.907,7.492,5.218,8.881&#10;&#9;&#9;&#9;c1.618,0.678,3.445,0.602,5.19,0.415c9.409-1.006,20.731-4.775,24.101-14.599c3.154-9.197-1.745-19.211-10.942-22.364&#10;&#9;&#9;&#9;c-6.393-2.192-13.654-0.45-18.36,4.401C996.789,563.715,995.446,565.918,994.524,568.281z" transform="matrix(0.4355539381504059, 0, 0, 0.4355539381504059, -14.210990905761719, 5.1863508224487305)"/><path d="M 1105.2130126953125 906.18798828125 L 1095.39501953125 918.3900146484375 L 1128.8580322265625 900.64501953125 L 1123.876953125 893.97998046875 Z" fill="#511122" transform="matrix(0.4355539381504059, 0, 0, 0.4355539381504059, -14.210990905761719, 5.1863508224487305)"/><path d="M 957.5 912.2319946289062 L 943.6489868164062 919.5430297851562 L 979.5449829101562 916.6649780273438 L 979.051025390625 910.5040283203125 Z" fill="#511122" transform="matrix(0.4355539381504059, 0, 0, 0.4355539381504059, -14.210990905761719, 5.1863508224487305)"/><path fill="#F7A0B1" d="M1130.002,514.83c0,0-0.251-9.638,3.431-11.985c3.681-2.347,1.823,5.171,1.823,5.171&#10;&#9;&#9;&#9;s11.812-9.085,14.302-6.929s11.917,4.609-10.075,25.185C1139.482,526.271,1132.839,529.711,1130.002,514.83z" transform="matrix(0.4355539381504059, 0, 0, 0.4355539381504059, -14.210990905761719, 5.1863508224487305)"/><path fill="#F7A0B1" d="M904.801,619.084c0,0,0.555-9.626-3.051-12.088c-3.604-2.463-1.985,5.11-1.985,5.11&#10;&#9;&#9;&#9;s-11.519-9.454-14.075-7.377c-2.558,2.076-12.057,4.23,9.274,25.489C894.964,630.219,901.496,633.866,904.801,619.084z" transform="matrix(0.4355539381504059, 0, 0, 0.4355539381504059, -14.210990905761719, 5.1863508224487305)"/><path d="M 1007.8480224609375 606.3729858398438 L 1002.0709838867188 606.3729858398438 L 1004.958984375 611.323974609375 Z" fill="#FF406F" transform="matrix(0.4355539381504059, 0, 0, 0.4355539381504059, -14.210990905761719, 5.1863508224487305)" style="fill: rgb(193, 149, 37);"/><path d="M 1005.1090087890625 609.7130126953125 L 1001.1680297851562 647.3480224609375 L 1004.7360229492188 655.3800048828125 L 1009.4719848632812 644.18798828125 Z" fill="#FF406F" transform="matrix(0.4355539381504059, 0, 0, 0.4355539381504059, -14.210990905761719, 5.1863508224487305)" style="fill: rgb(193, 149, 37);"/><path fill="#2D1856" d="M1017.323,602.312l-12.726,53.068l17.059-26.842l-4.333-7.544l9.748-8.447&#10;&#9;&#9;&#9;C1027.071,612.547,1027.612,599.604,1017.323,602.312z" transform="matrix(0.4355539381504059, 0, 0, 0.4355539381504059, -14.210990905761719, 5.1863508224487305)" style="fill: rgb(32, 60, 71);"/><path fill="#2D1856" d="M992.011,602.312l12.726,53.068l-17.058-26.842l4.332-7.544l-9.748-8.447&#10;&#9;&#9;&#9;C982.263,612.547,981.722,599.604,992.011,602.312z" transform="matrix(0.4355539381504059, 0, 0, 0.4355539381504059, -14.210990905761719, 5.1863508224487305)" style="fill: rgb(32, 60, 71);"/><path fill="#EAEAEA" d="M1018.435,597.167l-13.325,7.853l3.624,4.332l9.468-7.412&#10;&#9;&#9;&#9;C1018.201,601.939,1020.539,597.979,1018.435,597.167z" transform="matrix(0.4355539381504059, 0, 0, 0.4355539381504059, -14.210990905761719, 5.1863508224487305)"/><path fill="#EAEAEA" d="M992.938,597.167l12.172,7.853l-3.623,4.332l-9.469-7.412&#10;&#9;&#9;&#9;C992.018,601.939,990.834,597.979,992.938,597.167z" transform="matrix(0.4355539381504059, 0, 0, 0.4355539381504059, -14.210990905761719, 5.1863508224487305)"/><path d="M 1017.9299926757812 654.0260009765625 L 1023.926025390625 667.8280029296875 L 1021.8359985351562 668.9180297851562 L 1016.2379760742188 655.0250244140625 Z" fill="#2D1856" transform="matrix(0.4355539381504059, 0, 0, 0.4355539381504059, -14.210990905761719, 5.1863508224487305)" style="fill: rgb(32, 60, 71);"/><path fill="#1D1E30" d="M1015.471,574.097c1.51,1.408,2.43,3.062,1.699,5.102c-0.722,2.012-1.442,4.023-2.163,6.035&#10;&#9;&#9;&#9;c-0.174,0.486-0.348,1.029-0.144,1.504c0.138,0.318,0.422,0.544,0.666,0.791c1.687,1.711,1.463,4.471,1.122,6.85&#10;&#9;&#9;&#9;c2.322,0.542,4.629-0.914,6.386-2.527c3.898-3.578,6.681-8.231,8.725-13.111c2.363-5.643,2.598-12.178-2.987-16.106&#10;&#9;&#9;&#9;c-1.195-0.841-2.571-1.466-3.544-2.557c-0.764-0.857-1.219-1.938-1.715-2.974c-2.185-4.563-5.443-8.654-9.606-11.528&#10;&#9;&#9;&#9;s-9.248-4.484-14.299-4.195c-1.044,0.06-2.088,0.199-3.085,0.511c-2.753,0.859-5.041,3.085-5.977,5.812s-0.495,5.89,1.15,8.258&#10;&#9;&#9;&#9;c1.139,1.639,2.77,2.858,4.371,4.048c4.383,3.257,8.766,6.513,13.148,9.77C1010.886,571.017,1013.621,572.371,1015.471,574.097z" transform="matrix(0.4355539381504059, 0, 0, 0.4355539381504059, -14.210990905761719, 5.1863508224487305)"/><path fill="#F7A0B1" d="M1015.245,580.329c0.218-0.139,0.462-0.265,0.734-0.377c0.505-0.208,1.03-0.363,1.566-0.465&#10;&#9;&#9;&#9;c0.612-0.115,1.285-0.148,1.822,0.169c0.502,0.298,0.802,0.867,0.884,1.445c0.227,1.584-0.507,3.661-1.354,4.966&#10;&#9;&#9;&#9;c-0.496,0.763-1.169,1.392-1.836,2.011c-0.256,0.238-0.521,0.482-0.851,0.6c-0.243,0.086-0.506,0.098-0.765,0.107&#10;&#9;&#9;&#9;c-0.877,0.035-1.799,0.061-2.58-0.341C1013.799,585.585,1012.564,582.03,1015.245,580.329z" transform="matrix(0.4355539381504059, 0, 0, 0.4355539381504059, -14.210990905761719, 5.1863508224487305)"/><path fill="none" stroke="#231F20" stroke-miterlimit="10" d="M998.15,573.584c0,0-1.714,5.127-4.286,7.067&#10;&#9;&#9;&#9;c-2.572,1.939,4.077,1.7,4.077,1.7" transform="matrix(0.4355539381504059, 0, 0, 0.4355539381504059, -14.210990905761719, 5.1863508224487305)"/><path fill="#7A1C37" d="M995.909,584.075l7.346,1.569c0,0-1.954,3.601-4.596,3.534&#10;&#9;&#9;&#9;C996.018,589.113,995.909,584.075,995.909,584.075z" transform="matrix(0.4355539381504059, 0, 0, 0.4355539381504059, -14.210990905761719, 5.1863508224487305)"/><path d="M 692.254028 416.697998 H 860.134033 V 438.594997 H 692.254028 V 416.697998 Z" fill="#F62E5D" transform="matrix(0.4355539381504059, 0, 0, 0.4355539381504059, -14.210990905761719, 5.1863508224487305)" style="fill: rgb(228, 185, 78);"/><path d="M 692.254028 427.647003 H 860.134033 V 438.596004 H 692.254028 V 427.647003 Z" fill="#C92751" transform="matrix(0.4355539381504059, 0, 0, 0.4355539381504059, -14.210990905761719, 5.1863508224487305)" style="fill: rgb(193, 149, 37);"/><path d="M 706.853027 497.718994 H 874.734024 V 519.615993 H 706.853027 V 497.718994 Z" fill="#F62E5D" transform="matrix(0.4355539381504059, 0, 0, 0.4355539381504059, -14.210990905761719, 5.1863508224487305)" style="fill: rgb(228, 185, 78);"/><path d="M 706.853027 508.667999 H 874.734024 V 519.615999 H 706.853027 V 508.667999 Z" fill="#C92751" transform="matrix(0.4355539381504059, 0, 0, 0.4355539381504059, -14.210990905761719, 5.1863508224487305)" style="fill: rgb(193, 149, 37);"/><path d="M 721.450989 578.73999 H 889.331985 V 600.63699 H 721.450989 V 578.73999 Z" fill="#F62E5D" transform="matrix(0.4355539381504059, 0, 0, 0.4355539381504059, -14.210990905761719, 5.1863508224487305)" style="fill: rgb(228, 185, 78);"/><path d="M 721.450989 589.687988 H 889.331985 V 600.636989 H 721.450989 V 589.687988 Z" fill="#C92751" transform="matrix(0.4355539381504059, 0, 0, 0.4355539381504059, -14.210990905761719, 5.1863508224487305)" style="fill: rgb(193, 149, 37);"/><path d="M 736.049988 659.760986 H 903.930984 V 681.657986 H 736.049988 V 659.760986 Z" fill="#F62E5D" transform="matrix(0.4355539381504059, 0, 0, 0.4355539381504059, -14.210990905761719, 5.1863508224487305)" style="fill: rgb(228, 185, 78);"/><path d="M 736.049988 670.708984 H 903.930984 V 681.657985 H 736.049988 V 670.708984 Z" fill="#C92751" transform="matrix(0.4355539381504059, 0, 0, 0.4355539381504059, -14.210990905761719, 5.1863508224487305)" style="fill: rgb(193, 149, 37);"/><path d="M 750.646973 740.781006 H 918.527969 V 762.678005 H 750.646973 V 740.781006 Z" fill="#F62E5D" transform="matrix(0.4355539381504059, 0, 0, 0.4355539381504059, -14.210990905761719, 5.1863508224487305)" style="fill: rgb(228, 185, 78);"/><path d="M 750.646973 751.72998 H 918.527969 V 762.67798 H 750.646973 V 751.72998 Z" fill="#C92751" transform="matrix(0.4355539381504059, 0, 0, 0.4355539381504059, -14.210990905761719, 5.1863508224487305)" style="fill: rgb(193, 149, 37);"/><path d="M 765.245972 821.802002 H 933.126968 V 843.700003 H 765.245972 V 821.802002 Z" fill="#F62E5D" transform="matrix(0.4355539381504059, 0, 0, 0.4355539381504059, -14.210990905761719, 5.1863508224487305)" style="fill: rgb(228, 185, 78);"/><path d="M 765.245972 832.750977 H 933.126968 V 843.699977 H 765.245972 V 832.750977 Z" fill="#C92751" transform="matrix(0.4355539381504059, 0, 0, 0.4355539381504059, -14.210990905761719, 5.1863508224487305)" style="fill: rgb(193, 149, 37);"/><path fill="#F62E5D" d="M790.063,918.881h-18.978L673.8,379.52c-1.034-5.729,3.369-10.996,9.19-10.996l0,0&#10;&#9;&#9;&#9;c4.518,0,8.388,3.234,9.189,7.681L790.063,918.881z" transform="matrix(0.4355539381504059, 0, 0, 0.4355539381504059, -14.210990905761719, 5.1863508224487305)" style="fill: rgb(228, 185, 78);"/><path fill="#F62E5D" d="M955.935,918.881h-18.978L839.672,379.52c-1.033-5.729,3.369-10.996,9.189-10.996l0,0&#10;&#9;&#9;&#9;c4.519,0,8.388,3.234,9.19,7.681L955.935,918.881z" transform="matrix(0.4355539381504059, 0, 0, 0.4355539381504059, -14.210990905761719, 5.1863508224487305)" style="fill: rgb(228, 185, 78);"/><path fill="#BAC2F1" d="M1190.119,448.2h-101.826c-11.893,0-21.532-9.64-21.532-21.532v-79h123.358V448.2z" transform="matrix(0.4355539381504059, 0, 0, 0.4355539381504059, -14.210990905761719, 5.1863508224487305)" style="fill: rgb(59, 109, 129); fill-opacity: 0.76;"/><path d="M 1098.287964 373.044006 H 1149.443962 V 435.573006 H 1098.287964 V 373.044006 Z" fill="#A5AFDB" transform="matrix(0.4355539381504059, 0, 0, 0.4355539381504059, -14.210990905761719, 5.1863508224487305)" style="fill: rgb(59, 109, 129);"/><path d="M 1136.008057 355.640991 H 1168.305058 V 387.937992 H 1136.008057 V 355.640991 Z" fill="none" stroke="#E0E1FF" stroke-miterlimit="10" transform="matrix(0.4355539381504059, 0, 0, 0.4355539381504059, -14.210990905761719, 5.1863508224487305)"/><path d="M 1169.145996 349.756012 H 1200.712996 V 357.040012 H 1169.145996 V 349.756012 Z" transform="matrix(0.33132582902908325, 0.28271809220314026, -0.28271809220314026, 0.33132582902908325, 209.17318725585938, -292.96220302581787)" fill="#5F78D3" style="fill: rgb(59, 109, 129);"/><path d="M 1057.001953 349.756012 H 1088.569954 V 357.041012 H 1057.001953 V 349.756012 Z" transform="matrix(-0.3313693702220917, 0.2826746106147766, -0.2826746106147766, -0.3313693702220917, 908.4161987304688, -27.056706428527832)" fill="#5F78D3" style="fill: rgb(59, 109, 129);"/><path fill="#2D1856" d="M491.826,798.822L491.826,798.822c-6.958-0.962-11.819-7.383-10.856-14.342l12.699-103.805l41.286,3.94&#10;&#9;&#9;&#9;L506.05,788.668C504.753,795.29,498.51,799.747,491.826,798.822z" transform="matrix(0.4355539381504059, 0, 0, 0.4355539381504059, -14.210990905761719, 5.1863508224487305)" style="fill: rgb(32, 60, 71);"/><path fill="#2D1856" d="M449.941,915.55l-18.988-7.933l50.967-124.7c2.583-6.185,9.691-9.104,15.876-6.521l0,0&#10;&#9;&#9;&#9;c6.353,2.654,9.228,10.055,6.333,16.302L449.941,915.55z" transform="matrix(0.4355539381504059, 0, 0, 0.4355539381504059, -14.210990905761719, 5.1863508224487305)" style="fill: rgb(32, 60, 71);"/><path fill="#2D1856" d="M576.267,788.129L576.267,788.129c6.323-3.06,8.968-10.666,5.908-16.989l-44.073-94.839l-31.994,15.484&#10;&#9;&#9;&#9;l53.497,91.068C562.88,788.753,570.193,791.069,576.267,788.129z" transform="matrix(0.4355539381504059, 0, 0, 0.4355539381504059, -14.210990905761719, 5.1863508224487305)" style="fill: rgb(32, 60, 71);"/><path fill="#2D1856" d="M546.573,911.502l20.447,2.316l16.193-133.737c0.754-6.66-4.033-12.67-10.693-13.425l0,0&#10;&#9;&#9;&#9;c-6.841-0.774-12.956,4.29-13.468,11.156L546.573,911.502z" transform="matrix(0.4355539381504059, 0, 0, 0.4355539381504059, -14.210990905761719, 5.1863508224487305)" style="fill: rgb(32, 60, 71);"/><path fill="#4B2676" d="M543.272,684.794c0,0-10.902,3.387-25.137,3.387c-12.243,0-26.96-3.387-26.96-3.387l-3.701-57.101&#10;&#9;&#9;&#9;c-0.464-7.164,5.221-13.229,12.399-13.229h49.78L543.272,684.794z" transform="matrix(0.4355539381504059, 0, 0, 0.4355539381504059, -14.210990905761719, 5.1863508224487305)" style="fill: rgb(45, 83, 98);"/><path d="M 543.364990234375 614.4639892578125 L 512.9089965820312 614.4639892578125 L 527.3800048828125 665.5189819335938 Z" fill="#FFFFFF" transform="matrix(0.4355539381504059, 0, 0, 0.4355539381504059, -14.210990905761719, 5.1863508224487305)"/><path d="M 538.1920166015625 615.219970703125 L 527.02099609375 617.0689697265625 L 515.27001953125 614.4639892578125 L 515.27001953125 600.3980102539062 L 538.1920166015625 600.3980102539062 Z" fill="#E293A6" transform="matrix(0.4355539381504059, 0, 0, 0.4355539381504059, -14.210990905761719, 5.1863508224487305)"/><path fill="#F7A0B1" d="M543.807,584.687c0.865,5.316-0.356,10.96-2.36,15.997c-1.276,3.209-3.301,6.666-6.694,7.307&#10;&#9;&#9;&#9;c-1.659,0.313-3.363-0.126-4.967-0.652c-8.65-2.838-18.545-8.659-19.74-18.578c-1.119-9.287,5.502-17.723,14.79-18.842&#10;&#9;&#9;&#9;c6.455-0.778,12.937,2.32,16.389,7.831C542.594,579.937,543.415,582.278,543.807,584.687z" transform="matrix(0.4355539381504059, 0, 0, 0.4355539381504059, -14.210990905761719, 5.1863508224487305)"/><path d="M 452.125 911.1019897460938 L 465.5090026855469 918.02099609375 L 429.1619873046875 915.4180297851562 L 430.9540100097656 907.6170043945312 Z" fill="#511122" transform="matrix(0.4355539381504059, 0, 0, 0.4355539381504059, -14.210990905761719, 5.1863508224487305)"/><path d="M 567.2020263671875 912.6240234375 L 580.5269775390625 919.656982421875 L 545.9940185546875 916.8889770507812 L 546.468994140625 910.9619750976562 Z" fill="#511122" transform="matrix(0.4355539381504059, 0, 0, 0.4355539381504059, -14.210990905761719, 5.1863508224487305)"/><path fill="#2D1856" d="M513.997,612.325l13.516,53.193l-16.411-25.823l4.168-7.258l-10.651-10.267&#10;&#9;&#9;&#9;C504.619,622.171,504.098,609.72,513.997,612.325z" transform="matrix(0.4355539381504059, 0, 0, 0.4355539381504059, -14.210990905761719, 5.1863508224487305)" style="fill: rgb(32, 60, 71);"/><path fill="#2D1856" d="M539.397,612.325l-12.018,53.193l16.411-25.823l-4.168-7.258l9.152-10.267&#10;&#9;&#9;&#9;C548.775,622.171,549.296,609.72,539.397,612.325z" transform="matrix(0.4355539381504059, 0, 0, 0.4355539381504059, -14.210990905761719, 5.1863508224487305)" style="fill: rgb(32, 60, 71);"/><path d="M 524.3870239257812 618.3709716796875 L 529.9439697265625 618.3709716796875 L 527.1649780273438 623.135009765625 Z" fill="#FF406F" transform="matrix(0.4355539381504059, 0, 0, 0.4355539381504059, -14.210990905761719, 5.1863508224487305)" style="fill: rgb(193, 149, 37);"/><path d="M 527.02099609375 621.583984375 L 530.81201171875 657.791015625 L 527.3800048828125 665.5189819335938 L 522.823974609375 654.7520141601562 Z" fill="#FF406F" transform="matrix(0.4355539381504059, 0, 0, 0.4355539381504059, -14.210990905761719, 5.1863508224487305)" style="fill: rgb(193, 149, 37);"/><path fill="#EAEAEA" d="M514.201,609.515l12.819,7.555l-3.486,4.167l-9.109-7.131&#10;&#9;&#9;&#9;C514.426,614.105,512.177,610.297,514.201,609.515z" transform="matrix(0.4355539381504059, 0, 0, 0.4355539381504059, -14.210990905761719, 5.1863508224487305)"/><path fill="#EAEAEA" d="M538.73,609.515l-11.71,7.555l3.486,4.167l9.108-7.131C539.615,614.105,540.754,610.297,538.73,609.515z" transform="matrix(0.4355539381504059, 0, 0, 0.4355539381504059, -14.210990905761719, 5.1863508224487305)"/><path d="M 511.8760070800781 664.2169799804688 L 506.1080017089844 677.4940185546875 L 508.1180114746094 678.5430297851562 L 513.5040283203125 665.177978515625 Z" fill="#2D1856" transform="matrix(0.4355539381504059, 0, 0, 0.4355539381504059, -14.210990905761719, 5.1863508224487305)" style="fill: rgb(32, 60, 71);"/><path fill="none" stroke="#231F20" stroke-miterlimit="10" d="M535.891,586.736c0,0,0.724,6.012,4.657,7.186&#10;&#9;&#9;&#9;c0,0-0.662,2.717-3.404,3.213" transform="matrix(0.4355539381504059, 0, 0, 0.4355539381504059, -14.210990905761719, 5.1863508224487305)"/><path fill="none" stroke="#231F20" stroke-miterlimit="10" d="M532.362,599.854c0,0,4.511,3.238,7.14,1.117" transform="matrix(0.4355539381504059, 0, 0, 0.4355539381504059, -14.210990905761719, 5.1863508224487305)"/><path fill="#1D1E30" d="M523.016,586.092c-1.167,0.59-2.288,1.312-2.647,2.272c-0.241,0.646-0.153,1.36-0.061,2.043&#10;&#9;&#9;&#9;c0.274,2.037,0.548,4.074,0.822,6.112c0.066,0.492,0.12,1.039-0.168,1.444c-0.193,0.271-0.506,0.427-0.785,0.61&#10;&#9;&#9;&#9;c-1.931,1.271-2.275,3.912-2.433,6.219c-2.294,0.043-4.171-1.791-5.5-3.661c-2.948-4.149-4.631-9.087-5.573-14.089&#10;&#9;&#9;&#9;c-0.9-4.781-1.12-9.571,2.438-13.261c2.38-2.468,4.853-5.001,8.016-6.324c1.734-0.726,3.605-1.055,5.467-1.312&#10;&#9;&#9;&#9;c4.655-0.646,9.792-0.764,13.601,1.988c1.848,1.336,3.291,3.479,3.125,5.753c-0.241,3.297-3.507,5.408-6.412,6.986&#10;&#9;&#9;&#9;c-2.495,1.355-4.99,2.711-7.484,4.066C524.797,585.278,523.894,585.647,523.016,586.092z" transform="matrix(0.4355539381504059, 0, 0, 0.4355539381504059, -14.210990905761719, 5.1863508224487305)"/><path fill="#F7A0B1" d="M521.891,591.858c-0.177-0.175-0.381-0.342-0.616-0.503c-0.433-0.297-0.896-0.549-1.38-0.752&#10;&#9;&#9;&#9;c-0.554-0.231-1.18-0.398-1.748-0.207c-0.533,0.179-0.929,0.654-1.123,1.182c-0.531,1.445-0.259,3.547,0.277,4.944&#10;&#9;&#9;&#9;c0.313,0.817,0.821,1.544,1.323,2.261c0.193,0.275,0.394,0.559,0.68,0.734c0.212,0.131,0.457,0.194,0.698,0.256&#10;&#9;&#9;&#9;c0.818,0.209,1.681,0.418,2.496,0.198C522.195,597.093,524.071,593.997,521.891,591.858z" transform="matrix(0.4355539381504059, 0, 0, 0.4355539381504059, -14.210990905761719, 5.1863508224487305)"/><path fill="#562B96" d="M540.705,669.782l-30.779-48.729c-3.769-5.967-11.805-7.491-17.497-3.319l0,0&#10;&#9;&#9;&#9;c-5.425,3.976-6.6,11.598-2.624,17.023l34.071,46.487c3.326,4.537,9.7,5.52,14.238,2.194l0,0&#10;&#9;&#9;&#9;C542.431,680.273,543.563,674.308,540.705,669.782z" transform="matrix(0.4355539381504059, 0, 0, 0.4355539381504059, -14.210990905761719, 5.1863508224487305)" style="fill: rgb(59, 109, 129);"/><path fill="#562B96" d="M620.246,679.735l-88.527-15.294c-5.405-0.602-10.274,3.291-10.876,8.696l0,0&#10;&#9;&#9;&#9;c-0.602,5.404,3.291,10.273,8.695,10.876l89.125,9.928L620.246,679.735z" transform="matrix(0.4355539381504059, 0, 0, 0.4355539381504059, -14.210990905761719, 5.1863508224487305)" style="fill: rgb(59, 109, 129);"/><path fill="#F7A0B1" d="M620.42,678.858c0,0,8.644-3.365,11.967-0.797c3.324,2.568-4.087,3.334-4.087,3.334&#10;&#9;&#9;&#9;s12.07,7.735,10.929,10.691c-1.142,2.956-0.293,12.289-26.079-0.922C613.149,691.165,607.873,686.271,620.42,678.858z" transform="matrix(0.4355539381504059, 0, 0, 0.4355539381504059, -14.210990905761719, 5.1863508224487305)"/><path d="M 1044.6400146484375 66.81500244140625 L 1007.89501953125 58.1619987487793 L 988.3099975585938 25.888999938964844 L 968.7249755859375 58.1619987487793 L 931.97900390625 66.81500244140625 L 956.6199951171875 95.41500091552734 L 956.6129760742188 95.5 L 988.3099975585938 79.447998046875 L 988.3099975585938 118.43900299072266 L 1023.1240234375 133.03599548339844 L 1019.9990234375 95.41500091552734 Z" fill="#F4446B" transform="matrix(0.4355539381504059, 0, 0, 0.4355539381504059, -14.210990905761719, 5.1863508224487305)" style="fill: rgb(228, 185, 78);"/><path fill="#562B96" d="M793.507,283.397l-0.969-59.901c-0.118-7.335-6.427-13.034-13.736-12.409l0,0&#10;&#9;&#9;&#9;c-6.967,0.596-12.131,6.726-11.535,13.692l5.103,59.691c0.498,5.827,5.626,10.146,11.452,9.648l0,0&#10;&#9;&#9;&#9;C789.365,293.645,793.597,288.961,793.507,283.397z" transform="matrix(0.4355539381504059, 0, 0, 0.4355539381504059, -14.210990905761719, 5.1863508224487305)" style="fill: rgb(59, 109, 129);"/><path fill="#562B96" d="M839.475,355.544l-48.858-79.58c-3.242-4.631-9.623-5.757-14.254-2.516v0&#10;&#9;&#9;&#9;c-4.631,3.241-5.757,9.623-2.516,14.254l53.455,76.362L839.475,355.544z" transform="matrix(0.4355539381504059, 0, 0, 0.4355539381504059, -14.210990905761719, 5.1863508224487305)" style="fill: rgb(59, 109, 129);"/><path fill="#F7A0B1" d="M840.278,355.078c0,0,8.561,4.434,8.839,8.791s-5.408-0.9-5.408-0.9s2.253,14.73-0.838,15.87&#10;&#9;&#9;&#9;c-3.09,1.14-9.791,8.21-17.189-20.982C825.682,357.856,825.878,350.377,840.278,355.078z" transform="matrix(0.4355539381504059, 0, 0, 0.4355539381504059, -14.210990905761719, 5.1863508224487305)"/><path d="M 428.827006 773.638977 A 8.908 8.908 0 0 1 419.919006 782.546977 A 8.908 8.908 0 0 1 411.011006 773.638977 A 8.908 8.908 0 0 1 419.919006 764.730977 A 8.908 8.908 0 0 1 428.827006 773.638977 Z" fill="#BAC2F1" transform="matrix(0.4355539381504059, 0, 0, 0.4355539381504059, -14.210990905761719, 5.1863508224487305)"/><path d="M 427.377007 773.638977 A 7.458 7.458 0 0 1 419.919006 781.096977 A 7.458 7.458 0 0 1 412.461006 773.638977 A 7.458 7.458 0 0 1 419.919006 766.180977 A 7.458 7.458 0 0 1 427.377007 773.638977 Z" fill="#A5AFDB" transform="matrix(0.4355539381504059, 0, 0, 0.4355539381504059, -14.210990905761719, 5.1863508224487305)" style="fill: rgb(59, 109, 129);"/><path d="M 588.909001 423.765015 A 11.995 11.995 0 0 1 576.914001 435.760015 A 11.995 11.995 0 0 1 564.919002 423.765015 A 11.995 11.995 0 0 1 576.914001 411.770015 A 11.995 11.995 0 0 1 588.909001 423.765015 Z" fill="#BAC2F1" transform="matrix(0.4355539381504059, 0, 0, 0.4355539381504059, -14.210990905761719, 5.1863508224487305)"/><path d="M 586.956001 423.765015 A 10.042 10.042 0 0 1 576.914001 433.807014 A 10.042 10.042 0 0 1 566.872002 423.765015 A 10.042 10.042 0 0 1 576.914001 413.723015 A 10.042 10.042 0 0 1 586.956001 423.765015 Z" fill="#A5AFDB" transform="matrix(0.4355539381504059, 0, 0, 0.4355539381504059, -14.210990905761719, 5.1863508224487305)" style="fill: rgb(59, 109, 129);"/><path d="M 881.368012 277.726013 A 9.53 9.53 0 0 1 871.838013 287.256013 A 9.53 9.53 0 0 1 862.308013 277.726013 A 9.53 9.53 0 0 1 871.838013 268.196013 A 9.53 9.53 0 0 1 881.368012 277.726013 Z" fill="#BAC2F1" transform="matrix(0.4355539381504059, 0, 0, 0.4355539381504059, -14.210990905761719, 5.1863508224487305)"/><path d="M 879.816013 277.726013 A 7.978 7.978 0 0 1 871.838013 285.704013 A 7.978 7.978 0 0 1 863.860013 277.726013 A 7.978 7.978 0 0 1 871.838013 269.748013 A 7.978 7.978 0 0 1 879.816013 277.726013 Z" fill="#A5AFDB" transform="matrix(0.4355539381504059, 0, 0, 0.4355539381504059, -14.210990905761719, 5.1863508224487305)" style="fill: rgb(59, 109, 129);"/><path d="M 934.078025 567.919006 A 9.915 9.915 0 0 1 924.163025 577.834006 A 9.915 9.915 0 0 1 914.248025 567.919006 A 9.915 9.915 0 0 1 924.163025 558.004006 A 9.915 9.915 0 0 1 934.078025 567.919006 Z" fill="#BAC2F1" transform="matrix(0.4355539381504059, 0, 0, 0.4355539381504059, -14.210990905761719, 5.1863508224487305)"/><path d="M 932.464025 567.919006 A 8.301 8.301 0 0 1 924.163025 576.220006 A 8.301 8.301 0 0 1 915.862025 567.919006 A 8.301 8.301 0 0 1 924.163025 559.618007 A 8.301 8.301 0 0 1 932.464025 567.919006 Z" fill="#A5AFDB" transform="matrix(0.4355539381504059, 0, 0, 0.4355539381504059, -14.210990905761719, 5.1863508224487305)" style="fill: rgb(59, 109, 129);"/><path d="M 215.235992 411.769989 H 360.661987 V 598.875992 H 215.235992 V 411.769989 Z" fill="none" stroke="#BAC2F1" stroke-miterlimit="10" transform="matrix(0.4355539381504059, 0, 0, 0.4355539381504059, -14.210990905761719, 5.1863508224487305)"/><path d="M 302.959991 370.562012 H 403.047989 V 495.53801 H 302.959991 V 370.562012 Z" fill="#BAC2F1" transform="matrix(0.4355539381504059, 0, 0, 0.4355539381504059, -14.210990905761719, 5.1863508224487305)" style="fill: rgb(106, 144, 159);"/><path d="M 312.3689880371094 487.67401123046875 L 310.60699462890625 486.72900390625 L 323.9960021972656 461.7969970703125 L 334.6499938964844 468.0119934082031 L 360.6910095214844 416.7170104980469 L 372.7080078125 416.7170104980469 L 389.77398681640625 384.0220031738281 L 391.5480041503906 384.947998046875 L 373.9200134277344 418.7170104980469 L 361.9179992675781 418.7170104980469 L 335.4739990234375 470.8089904785156 L 324.77801513671875 464.5679931640625 Z" fill="#A5AFDB" transform="matrix(0.4355539381504059, 0, 0, 0.4355539381504059, -14.210990905761719, 5.1863508224487305)" style="fill: rgb(250, 241, 220);"/><path d="M 386.4360046386719 383.1210021972656 L 394.885986328125 387.7909851074219 L 394.885986328125 376.8940124511719 Z" fill="#A5AFDB" transform="matrix(0.4355539381504059, 0, 0, 0.4355539381504059, -14.210990905761719, 5.1863508224487305)" style="fill: rgb(250, 241, 220);"/><path d="M 228.552994 435.69101 L 263.131012 435.69101" fill="none" stroke="#5F78D3" stroke-miterlimit="10" transform="matrix(0.4355539381504059, 0, 0, 0.4355539381504059, -14.210990905761719, 5.1863508224487305)"/><path d="M 228.552994 447.661011 L 290.321991 447.661011" fill="none" stroke="#5F78D3" stroke-miterlimit="10" transform="matrix(0.4355539381504059, 0, 0, 0.4355539381504059, -14.210990905761719, 5.1863508224487305)"/><path d="M 228.552994 459.630005 L 290.321991 459.630005" fill="none" stroke="#5F78D3" stroke-miterlimit="10" transform="matrix(0.4355539381504059, 0, 0, 0.4355539381504059, -14.210990905761719, 5.1863508224487305)"/><path d="M 228.552994 471.598999 L 290.321991 471.598999" fill="none" stroke="#5F78D3" stroke-miterlimit="10" transform="matrix(0.4355539381504059, 0, 0, 0.4355539381504059, -14.210990905761719, 5.1863508224487305)"/><path d="M 228.552994 483.567993 L 290.321991 483.567993" fill="none" stroke="#5F78D3" stroke-miterlimit="10" transform="matrix(0.4355539381504059, 0, 0, 0.4355539381504059, -14.210990905761719, 5.1863508224487305)"/><path d="M 228.552994 495.537994 L 290.321991 495.537994" fill="none" stroke="#5F78D3" stroke-miterlimit="10" transform="matrix(0.4355539381504059, 0, 0, 0.4355539381504059, -14.210990905761719, 5.1863508224487305)"/><path d="M 228.552994 507.506989 L 344.70401 507.506989" fill="none" stroke="#5F78D3" stroke-miterlimit="10" transform="matrix(0.4355539381504059, 0, 0, 0.4355539381504059, -14.210990905761719, 5.1863508224487305)"/><path d="M 228.552994 519.47699 L 344.70401 519.47699" fill="none" stroke="#5F78D3" stroke-miterlimit="10" transform="matrix(0.4355539381504059, 0, 0, 0.4355539381504059, -14.210990905761719, 5.1863508224487305)"/><path d="M 228.552994 531.445007 L 344.70401 531.445007" fill="none" stroke="#5F78D3" stroke-miterlimit="10" transform="matrix(0.4355539381504059, 0, 0, 0.4355539381504059, -14.210990905761719, 5.1863508224487305)"/><path d="M 228.552994 543.414978 L 344.70401 543.414978" fill="none" stroke="#5F78D3" stroke-miterlimit="10" transform="matrix(0.4355539381504059, 0, 0, 0.4355539381504059, -14.210990905761719, 5.1863508224487305)"/><path d="M 228.552994 555.383972 L 344.70401 555.383972" fill="none" stroke="#5F78D3" stroke-miterlimit="10" transform="matrix(0.4355539381504059, 0, 0, 0.4355539381504059, -14.210990905761719, 5.1863508224487305)"/><path d="M 228.552994 567.354004 L 344.70401 567.354004" fill="none" stroke="#5F78D3" stroke-miterlimit="10" transform="matrix(0.4355539381504059, 0, 0, 0.4355539381504059, -14.210990905761719, 5.1863508224487305)"/><path d="M 228.552994 579.322021 L 344.70401 579.322021" fill="none" stroke="#5F78D3" stroke-miterlimit="10" transform="matrix(0.4355539381504059, 0, 0, 0.4355539381504059, -14.210990905761719, 5.1863508224487305)"/>
<clipPath id="SVGID_2_">
			<use overflow="visible" xlink:href="#SVGID_1_"/>
		</clipPath><clipPath id="path-1">
			<use overflow="visible" xlink:href="#SVGID_1_"/>
		</clipPath><g clip-path="url(#SVGID_2_)" transform="matrix(0.48746031522750854, 0, 0, 0.48746031522750854, 25.628124237060547, 29.964272499084473)">
			<g>
				<path fill="#562B96" d="M244.246,678.776h-5.461c0-9.436-12.005-17.112-26.761-17.112s-26.76,7.677-26.76,17.112h-5.461&#10;&#9;&#9;&#9;&#9;&#9;c0-12.447,14.454-22.574,32.222-22.574S244.246,666.329,244.246,678.776z" style="fill: rgb(193, 149, 37);"/>
			</g>
			<path fill="#562B96" d="M263.634,676.409H154.407c-6.485,0-11.742,5.257-11.742,11.742v67.174&#10;&#9;&#9;&#9;&#9;c0,6.485,5.257,11.742,11.742,11.742h109.227c6.485,0,11.742-5.257,11.742-11.742v-67.174&#10;&#9;&#9;&#9;&#9;C275.375,681.666,270.119,676.409,263.634,676.409z" style="fill: rgb(193, 149, 37);"/>
			<path fill="#673FA8" d="M275.375,755.325v-67.174c0-6.485-5.257-11.742-11.742-11.742H165.33&#10;&#9;&#9;&#9;&#9;c-6.485,0-11.742,5.257-11.742,11.742v67.174c0,6.485,5.257,11.742,11.742,11.742h98.304&#10;&#9;&#9;&#9;&#9;C270.119,767.067,275.375,761.811,275.375,755.325z" style="fill: rgb(228, 185, 78);"/>
			<path fill="none" stroke="#704DB5" stroke-miterlimit="10" d="M159.049,685.147l40.346,32.197&#10;&#9;&#9;&#9;&#9;c8.844,7.058,21.377,7.117,30.288,0.144l41.325-32.341"/>
			<path d="M 221.873995 711.304993 A 7.392 7.392 0 0 1 214.481995 718.696993 A 7.392 7.392 0 0 1 207.089994 711.304993 A 7.392 7.392 0 0 1 214.481995 703.912992 A 7.392 7.392 0 0 1 221.873995 711.304993 Z" fill="#562B96" style="fill: rgb(193, 149, 37);"/>
			<path d="M 162.143997 749.228027 H 267.729996 V 754.325027 H 162.143997 V 749.228027 Z" fill="#704DB5" style="fill: rgb(193, 149, 37);"/>
		</g></svg>