<?xml version="1.0" encoding="utf-8"?>
<svg id="master-artboard" viewBox="0 0 558.7545166015625 290.60028076171875" data-name="Layer 1" xmlns="http://www.w3.org/2000/svg" width="558.7545166015625px" height="290.60028076171875px"><rect id="ee-background" x="0" y="0" width="558.7545166015625" height="290.60028076171875" style="fill: white; fill-opacity: 0; pointer-events: none;"/><title>Untitled-1</title><path class="cls-2" d="M1085.31,1329.13v-14.57h-21.43V1300H980.54v-55.24H592v-29h14.5l12.26-77.07V969.29h-9.38l9.38-73.57V838l-3.9-15.32-5.29,9.81-12,22.24L583,969.29H575.8l7.47-144.42L571.91,791l-4.54,10.18-10.29,23.07-7.5,145h-5.8L541.64,779l-13.49-33.5-3.9,10.3-8.83,23.33,2.13,190.13H506.78q-1.44-34.74-4.76-69.45h2.14c1.08,0,2-.57,2-1.28v-.17c0-.71-.88-1.28-2-1.28H502V781.81h2.14c1.08,0,2-.57,2-1.28v-.17c0-.71-.88-1.28-2-1.28H502l-9.37-24-.88-2.25-.44-1.13-.81-2.08h0l0-.09a1,1,0,0,0-.35-.42L490,749a1.79,1.79,0,0,0-.55-.23c-.82-.19-1.87,0-2.13.72L475.8,779.09h-2.14c-1.08,0-2,.57-2,1.28v.17c0,.71.88,1.28,2,1.28h2.14v115.3h-2.14c-1.08,0-2,.57-2,1.28v.17c0,.71.88,1.28,2,1.28h2.14q-3.35,34.7-4.77,69.45H459q-2.27-14.85-4.88-29.67l2.13-.07c1.08,0,1.91-.64,1.86-1.34V938c-.06-.71-1-1.25-2.06-1.21l-2.13.07-9.19-115.15,2.18-.07c1.08,0,1.91-.64,1.86-1.34v-.17c-.06-.7-1-1.25-2.06-1.21l-2.13.07-11.26-23.65h0L430.72,790l0-.09a1.09,1.09,0,0,0-.38-.41l-.11-.07a1.89,1.89,0,0,0-.56-.21c-.84-.17-1.86.11-2.07.79l-9.18,29.9-2.13.07c-1.08,0-1.91.64-1.86,1.34v.17c.06.7,1,1.25,2.06,1.21l2.09-.07,9.18,115.15-2.14.07c-1.08,0-1.91.64-1.86,1.34v.17c.06.7,1,1.25,2.06,1.21l2.14-.07q-.25,14.4-.16,28.79H366.47l39.2,246.47h15v29H343a30,30,0,0,0-30,30v24.13H189.66a27.07,27.07,0,0,0,0,54.14h915.25v-.1h4v-23.79Z" style="fill: rgb(69, 132, 160);" transform="matrix(0.23626095095233896, 0, 0, 0.23626095095233896, -26.729665044946145, -58.675281660869935)"/><path class="cls-2" d="M2373.43,1329.13v-14.57H2352V1300h-83.34v-55.24h-7.74V1073.53a38.18,38.18,0,0,0-14.79-73.38c-1,0-2,.05-3,.13l-65.31-126.2,39.62-18.55a119.18,119.18,0,0,0,68-95.23q.16-1.43.28-2.87a118.6,118.6,0,0,0-.32-23.16q-.16-1.45-.36-2.91-.4-2.91-.94-5.81-.27-1.45-.58-2.9-.62-2.9-1.39-5.78-.39-1.44-.81-2.88-.85-2.87-1.84-5.73a120.45,120.45,0,0,0-4.61-11.3h0a119.25,119.25,0,0,0-158.56-57.44l-50.9,23.83L2053,669.16l.22.46a15.78,15.78,0,0,0-18.6-8.54c-5.41,1.56-13.4,1.6-20.33,1.22a61,61,0,0,0-29.27,5.63l-15,7,43.41,92.74-1.09.61a46.84,46.84,0,0,0,39.59,84.57l1.16-.45,43.41,92.74,15-7a51.72,51.72,0,0,0,20.86-17.75,59.5,59.5,0,0,1,16.17-16,15.59,15.59,0,0,0,6.53-9.85l61.72,119.28a38.18,38.18,0,0,0,14.52,59.66v171.21h-13.13a128.1,128.1,0,0,0-72.8-144.19l.13.06.33-.93.09-.24.71-2,17.61,6.29,8.18-22.9a19.91,19.91,0,0,0-12-25.45l-15.59-5.57a19.91,19.91,0,0,0-25.45,12.05l-2.78,7.79h0l-5.39,15.1,17.61,6.29-1.1,3.09h0a128,128,0,0,0-32.23-4.71v-14.68h0v-1.69q3.42.11,6.82.55c4.95.81,8.88-2,8.88-7.23s-3.93-8-8.88-7.23a72.75,72.75,0,0,1-18.44,0c-4.94-.81-8.88,2-8.87,7.23s3.93,8,8.87,7.23q3.4-.43,6.82-.55v1.69h0v14.68a128,128,0,0,0-32.21,4.7l-1.1-3.09,17.61-6.29-8.18-22.9a19.91,19.91,0,0,0-25.45-12.05l-15.59,5.57a19.91,19.91,0,0,0-12,25.45l8.18,22.9,17.61-6.29.63,1.76.17.48.33.93A128.17,128.17,0,0,0,1968,1244.74H1747.19a30,30,0,0,0-29.55,30v24.13H1594.31a27.07,27.07,0,0,0,0,54.14H2393v-.1h4v-23.79Z" style="fill: rgb(69, 132, 160);" transform="matrix(0.23626095095233896, 0, 0, 0.23626095095233896, -26.729665044946145, -58.675281660869935)"/><path class="cls-3" d="M2090.35,1057.81l56.07-31L2115,951.06l-61.55,17.73a207.37,207.37,0,0,0-46.93-46.91l17.75-61.57-75.76-31.39-31,56.08a207.37,207.37,0,0,0-66.35,0l-31-56.07-75.77,31.37,17.73,61.55a207.37,207.37,0,0,0-46.91,46.93L1653.71,951l-31.39,75.76,56.08,31a207.36,207.36,0,0,0,0,66.35l-56.07,31,31.37,75.77,61.55-17.73a207.37,207.37,0,0,0,46.93,46.91l-17.75,61.57,75.76,31.39,31-56.08a207.37,207.37,0,0,0,66.35,0l31,56.07,75.77-31.37-17.73-61.55a207.37,207.37,0,0,0,46.91-46.93l61.57,17.75,31.39-75.76-56.08-31A207.37,207.37,0,0,0,2090.35,1057.81ZM1915.72,1166.7a82,82,0,1,1,44.38-107.09A82,82,0,0,1,1915.72,1166.7Z" style="fill: rgb(54, 112, 132);" transform="matrix(0.23626095095233896, 0, 0, 0.23626095095233896, -26.729665044946145, -58.675281660869935)"/><path class="cls-4" d="M1884.36,936.81A154.15,154.15,0,1,0,2038.51,1091,154.15,154.15,0,0,0,1884.36,936.81Zm31.36,229.89a82,82,0,1,1,44.38-107.09A82,82,0,0,1,1915.72,1166.7Z" style="fill: rgb(55, 94, 112);" transform="matrix(0.23626095095233896, 0, 0, 0.23626095095233896, -26.729665044946145, -58.675281660869935)"/><g id="_Group_" data-name="&lt;Group&gt;" transform="matrix(0.23626095095233896, 0, 0, 0.23626095095233896, -26.729665044946145, -58.675281660869935)"><path d="M 1771.650024 1181.219971 H 1943.450027 V 1353.019974 H 1771.650024 V 1181.219971 Z" id="_Path_" data-name="&lt;Path&gt;" class="cls-5" style="fill: rgb(91, 166, 166);"/><path d="M 1771.650024 1334.099976 H 1943.450027 V 1353.019976 H 1771.650024 V 1334.099976 Z" id="_Path_2" data-name="&lt;Path&gt;" class="cls-6" style="fill: rgb(61, 135, 133);"/><path d="M 1908.75 1189.109985 H 1935.540001 V 1215.899986 H 1908.75 V 1189.109985 Z" id="_Path_3" data-name="&lt;Path&gt;" class="cls-7" style="fill: rgb(202, 32, 38);"/><path id="_Path_4" data-name="&lt;Path&gt;" class="cls-8" d="M1924.65,1193.84l-1.2,2.66h2l-2.31,4,.75-2.91h-1.46l.49-3.79h-7.57v3.85a6.8,6.8,0,0,0,6.49,6.79l-.38,5.34h-3.31a.5.5,0,1,0,0,1h8.34a.5.5,0,1,0,0-1h-3.31l-.38-5.36a6.8,6.8,0,0,0,6.15-6.77v-3.85Z" style="fill: rgb(242, 221, 195);"/></g><g id="_Group_2" data-name="&lt;Group&gt;" transform="matrix(0.23626095095233896, 0, 0, 0.23626095095233896, -26.729665044946145, -58.675281660869935)"><path d="M 718.929993 1181.219971 H 890.729996 V 1353.019974 H 718.929993 V 1181.219971 Z" id="_Path_5" data-name="&lt;Path&gt;" class="cls-5" style="fill: rgb(91, 166, 166);"/><path d="M 718.940002 1334.099976 H 890.740005 V 1353.019976 H 718.940002 V 1334.099976 Z" id="_Path_6" data-name="&lt;Path&gt;" class="cls-6" style="fill: rgb(61, 135, 133);"/><path d="M 856.039978 1189.109985 H 882.829979 V 1215.899986 H 856.039978 V 1189.109985 Z" id="_Path_7" data-name="&lt;Path&gt;" class="cls-7" style="fill: rgb(202, 32, 38);"/><path id="_Path_8" data-name="&lt;Path&gt;" class="cls-8" d="M871.94,1193.84l-1.2,2.66h2l-2.31,4,.75-2.91h-1.46l.49-3.79h-7.57v3.85a6.8,6.8,0,0,0,6.49,6.79l-.38,5.34h-3.31a.5.5,0,1,0,0,1h8.34a.5.5,0,1,0,0-1h-3.31l-.38-5.36a6.8,6.8,0,0,0,6.15-6.77v-3.85Z" style="fill: rgb(242, 221, 195);"/></g><path d="M 519.820007 1067.040039 H 550.660007 V 1353.02005 H 519.820007 V 1067.040039 Z" class="cls-9" style="fill: rgb(204, 204, 204);" transform="matrix(0.23626095095233896, 0, 0, 0.23626095095233896, -26.729665044946145, -58.675281660869935)"/><path d="M 887.179993 1067.040039 H 918.019993 V 1353.02005 H 887.179993 V 1067.040039 Z" class="cls-9" style="fill: rgb(204, 204, 204);" transform="matrix(0.23626095095233896, 0, 0, 0.23626095095233896, -26.729665044946145, -58.675281660869935)"/><path d="M 887.179993 1067.040039 H 902.599993 V 1353.02005 H 887.179993 V 1067.040039 Z" class="cls-10" style="fill: rgb(188, 187, 187);" transform="matrix(0.23626095095233896, 0, 0, 0.23626095095233896, -26.729665044946145, -58.675281660869935)"/><path d="M 519.820007 1067.040039 H 535.240007 V 1353.02005 H 519.820007 V 1067.040039 Z" class="cls-10" style="fill: rgb(188, 187, 187);" transform="matrix(0.23626095095233896, 0, 0, 0.23626095095233896, -26.729665044946145, -58.675281660869935)"/><path d="M 550.650024 1073.430054 H 887.170013 V 1204.690048 H 550.650024 V 1073.430054 Z" class="cls-11" style="fill: rgb(242, 196, 54);" transform="matrix(0.23626095095233896, 0, 0, 0.23626095095233896, -26.729665044946145, -58.675281660869935)"/><path d="M 841.5900268554688 1204.68994140625 L 887.1799926757812 1204.68994140625 L 887.1799926757812 1095.8399658203125 L 841.5900268554688 1204.68994140625 Z" class="cls-12" style="fill: rgb(35, 39, 37);" transform="matrix(0.23626095095233896, 0, 0, 0.23626095095233896, -26.729665044946145, -58.675281660869935)"/><path d="M 786.6199951171875 1204.68994140625 L 718.9199829101562 1204.68994140625 L 773.8900146484375 1073.4300537109375 L 841.5900268554688 1073.4300537109375 L 786.6199951171875 1204.68994140625 Z" class="cls-12" style="fill: rgb(35, 39, 37);" transform="matrix(0.23626095095233896, 0, 0, 0.23626095095233896, -26.729665044946145, -58.675281660869935)"/><path d="M 663.9500122070312 1204.68994140625 L 596.239990234375 1204.68994140625 L 651.2100219726562 1073.4300537109375 L 718.9199829101562 1073.4300537109375 L 663.9500122070312 1204.68994140625 Z" class="cls-12" style="fill: rgb(35, 39, 37);" transform="matrix(0.23626095095233896, 0, 0, 0.23626095095233896, -26.729665044946145, -58.675281660869935)"/><path d="M 596.239990234375 1073.4300537109375 L 550.6500244140625 1073.4300537109375 L 550.6500244140625 1182.280029296875 L 596.239990234375 1073.4300537109375 Z" class="cls-12" style="fill: rgb(35, 39, 37);" transform="matrix(0.23626095095233896, 0, 0, 0.23626095095233896, -26.729665044946145, -58.675281660869935)"/><path d="M 782.650024 1163.97998 H 930.580017 V 1353.019974 H 782.650024 V 1163.97998 Z" class="cls-13" style="fill: rgb(59, 120, 147);" transform="matrix(0.23626095095233896, 0, 0, 0.23626095095233896, -26.729665044946145, -58.675281660869935)"/><path d="M 782.629983 1163.97998 H 929.399985 A 5.71 5.71 0 0 1 935.109985 1169.689981 V 1178.789981 A 5.71 5.71 0 0 1 929.399985 1184.499981 H 782.629983 A 5.71 5.71 0 0 1 776.919983 1178.789981 V 1169.689981 A 5.71 5.71 0 0 1 782.629983 1163.97998 Z" class="cls-4" style="fill: rgb(55, 94, 112);" transform="matrix(0.23626095095233896, 0, 0, 0.23626095095233896, -26.729665044946145, -58.675281660869935)"/><path d="M 782.629983 1332.5 H 929.399985 A 5.71 5.71 0 0 1 935.109985 1338.21 V 1347.31 A 5.71 5.71 0 0 1 929.399985 1353.02 H 782.629983 A 5.71 5.71 0 0 1 776.919983 1347.31 V 1338.21 A 5.71 5.71 0 0 1 782.629983 1332.5 Z" class="cls-4" style="fill: rgb(55, 94, 112);" transform="matrix(0.23626095095233896, 0, 0, 0.23626095095233896, -26.729665044946145, -58.675281660869935)"/><path d="M 782.629983 1276.609985 H 929.399985 A 5.71 5.71 0 0 1 935.109985 1282.319985 V 1291.419986 A 5.71 5.71 0 0 1 929.399985 1297.129986 H 782.629983 A 5.71 5.71 0 0 1 776.919983 1291.419986 V 1282.319985 A 5.71 5.71 0 0 1 782.629983 1276.609985 Z" class="cls-4" style="fill: rgb(55, 94, 112);" transform="matrix(0.23626095095233896, 0, 0, 0.23626095095233896, -26.729665044946145, -58.675281660869935)"/><path d="M 782.629983 1219.880005 H 929.399985 A 5.71 5.71 0 0 1 935.109985 1225.590005 V 1234.690005 A 5.71 5.71 0 0 1 929.399985 1240.400005 H 782.629983 A 5.71 5.71 0 0 1 776.919983 1234.690005 V 1225.590005 A 5.71 5.71 0 0 1 782.629983 1219.880005 Z" class="cls-4" style="fill: rgb(55, 94, 112);" transform="matrix(0.23626095095233896, 0, 0, 0.23626095095233896, -26.729665044946145, -58.675281660869935)"/><path class="cls-4" d="M696.06,1316.38V434.6H588.93v881.78Zm-89.55-10.29,36-36,36,36Zm72-764.35-36,36-36-36Zm-72-10.3,36-36,36,36Zm72,96.83h-72l36-36Zm0,10.3-36,36-36-36Zm0,86.53h-72l36-36Zm0,10.3-36,36-36-36Zm0,86.53h-72l36-36Zm0,10.3-36,36-36-36Zm0,86.53h-72l36-36Zm0,10.3-36,36-36-36Zm0,86.53h-72l36-36Zm0,10.3-36,36-36-36Zm0,86.53h-72l36-36Zm0,10.3-36,36-36-36Zm0,86.53h-72l36-36Zm0,10.3-36,36-36-36Zm7.28,79.25-36-36,36-36Zm0-96.83-36-36,36-36Zm0-96.83-36-36,36-36Zm0-96.83-36-36,36-36Zm0-96.83-36-36,36-36Zm0-96.83-36-36,36-36Zm0-96.83-36-36,36-36Zm0-96.83-36-36,36-36Zm0-96.83-36-36,36-36Zm-7.28-79.25-36,36-36-36Zm-79.25,7.28,36,36-36,36Zm0,96.83,36,36-36,36Zm0,96.83,36,36-36,36Zm0,96.83,36,36-36,36Zm0,96.83,36,36-36,36Zm0,96.83,36,36-36,36Zm0,96.83,36,36-36,36Zm0,96.83,36,36-36,36Zm0,96.83,36,36-36,36Z" style="fill: rgb(55, 94, 112);" transform="matrix(0.23626095095233896, 0, 0, 0.23626095095233896, -26.729665044946145, -58.675281660869935)"/><path class="cls-13" d="M2204.88,374.48H1323.1V481.61h881.78ZM2194.59,464l-36-36,36-36Zm-764.35-72,36,36-36,36Zm-10.3,72-36-36,36-36Zm96.83-72v72l-36-36Zm10.3,0,36,36-36,36Zm86.53,0v72l-36-36Zm10.3,0,36,36-36,36Zm86.53,0v72l-36-36Zm10.3,0,36,36-36,36Zm86.53,0v72l-36-36Zm10.3,0,36,36-36,36Zm86.53,0v72l-36-36Zm10.3,0,36,36-36,36Zm86.53,0v72l-36-36Zm10.3,0,36,36-36,36Zm86.53,0v72l-36-36Zm10.3,0,36,36-36,36Zm79.25-7.28-36,36-36-36Zm-96.83,0-36,36-36-36Zm-96.83,0-36,36-36-36Zm-96.83,0-36,36-36-36Zm-96.83,0-36,36-36-36Zm-96.83,0-36,36-36-36Zm-96.83,0-36,36-36-36Zm-96.83,0-36,36-36-36Zm-96.83,0-36,36-36-36Zm-79.25,7.28,36,36-36,36Zm7.28,79.25,36-36,36,36Zm96.83,0,36-36,36,36Zm96.83,0,36-36,36,36Zm96.83,0,36-36,36,36Zm96.83,0,36-36,36,36Zm96.83,0,36-36,36,36Zm96.83,0,36-36,36,36Zm96.83,0,36-36,36,36Zm96.83,0,36-36,36,36Z" style="fill: rgb(59, 120, 147);" transform="matrix(0.23626095095233896, 0, 0, 0.23626095095233896, -26.729665044946145, -58.675281660869935)"/><path class="cls-13" d="M2097.75,471.24V1353h107.13V471.24Zm89.55,10.29-36,36-36-36Zm-72,764.35,36-36,36,36Zm72,10.3-36,36-36-36Zm-72-96.83h72l-36,36Zm0-10.3,36-36,36,36Zm0-86.53h72l-36,36Zm0-10.3,36-36,36,36Zm0-86.53h72l-36,36Zm0-10.3,36-36,36,36Zm0-86.53h72l-36,36Zm0-10.3,36-36,36,36Zm0-86.53h72l-36,36Zm0-10.3,36-36,36,36Zm0-86.53h72l-36,36Zm0-10.3,36-36,36,36Zm0-86.53h72l-36,36Zm0-10.3,36-36,36,36ZM2108,488.82l36,36-36,36Zm0,96.83,36,36-36,36Zm0,96.83,36,36-36,36Zm0,96.83,36,36-36,36Zm0,96.83,36,36-36,36Zm0,96.83,36,36-36,36Zm0,96.83,36,36-36,36Zm0,96.83,36,36-36,36Zm0,96.83,36,36-36,36Zm7.28,79.25,36-36,36,36Zm79.25-7.28-36-36,36-36Zm0-96.83-36-36,36-36Zm0-96.83-36-36,36-36Zm0-96.83-36-36,36-36Zm0-96.83-36-36,36-36Zm0-96.83-36-36,36-36Zm0-96.83-36-36,36-36Zm0-96.83-36-36,36-36Zm0-96.83-36-36,36-36Z" style="fill: rgb(59, 120, 147);" transform="matrix(0.23626095095233896, 0, 0, 0.23626095095233896, -26.729665044946145, -58.675281660869935)"/><path class="cls-13" d="M1323.1,471.24V1353h107.13V471.24Zm89.55,10.29-36,36-36-36Zm-72,764.35,36-36,36,36Zm72,10.3-36,36-36-36Zm-72-96.83h72l-36,36Zm0-10.3,36-36,36,36Zm0-86.53h72l-36,36Zm0-10.3,36-36,36,36Zm0-86.53h72l-36,36Zm0-10.3,36-36,36,36Zm0-86.53h72l-36,36Zm0-10.3,36-36,36,36Zm0-86.53h72l-36,36Zm0-10.3,36-36,36,36Zm0-86.53h72l-36,36Zm0-10.3,36-36,36,36Zm0-86.53h72l-36,36Zm0-10.3,36-36,36,36Zm-7.28-79.25,36,36-36,36Zm0,96.83,36,36-36,36Zm0,96.83,36,36-36,36Zm0,96.83,36,36-36,36Zm0,96.83,36,36-36,36Zm0,96.83,36,36-36,36Zm0,96.83,36,36-36,36Zm0,96.83,36,36-36,36Zm0,96.83,36,36-36,36Zm7.28,79.25,36-36,36,36Zm79.25-7.28-36-36,36-36Zm0-96.83-36-36,36-36Zm0-96.83-36-36,36-36Zm0-96.83-36-36,36-36Zm0-96.83-36-36,36-36Zm0-96.83-36-36,36-36Zm0-96.83-36-36,36-36Zm0-96.83-36-36,36-36Zm0-96.83-36-36,36-36Z" style="fill: rgb(59, 120, 147);" transform="matrix(0.23626095095233896, 0, 0, 0.23626095095233896, -26.729665044946145, -58.675281660869935)"/><path class="cls-13" d="M499.38,628.27H481.8v688.11H588.93V628.27H499.38Zm72,10.3-36,36-36-36Zm-72,570.69,36-36,36,36Zm72,10.3-36,36-36-36Zm-72-96.83h72l-36,36Zm0-10.3,36-36,36,36Zm0-86.53h72l-36,36Zm0-10.3,36-36,36,36Zm0-86.53h72l-36,36Zm0-10.3,36-36,36,36Zm0-86.53h72l-36,36Zm0-10.3,36-36,36,36Zm0-86.53h72l-36,36Zm0-10.3,36-36,36,36Zm-7.28-79.25,36,36-36,36Zm0,96.83,36,36-36,36Zm0,96.83,36,36-36,36Zm0,96.83,36,36-36,36Zm0,96.83,36,36-36,36Zm0,96.83,36,36-36,36Zm0,96.83,36,36-36,36Zm7.28,79.25,36-36,36,36Zm79.25-7.28-36-36,36-36Zm0-96.83-36-36,36-36Zm0-96.83-36-36,36-36Zm0-96.83-36-36,36-36Zm0-96.83-36-36,36-36Zm0-96.83-36-36,36-36Zm0-96.83-36-36,36-36Z" style="fill: rgb(59, 120, 147);" transform="matrix(0.23626095095233896, 0, 0, 0.23626095095233896, -26.729665044946145, -58.675281660869935)"/><path class="cls-13" d="M1172.24,327.47h-782V434.6h889.62Zm-692.48,10.3-36,36-36-36Zm-79.25,7.28,36,36-36,36Zm7.28,79.25,36-36,36,36ZM487,417l-36-36,36-36Zm89.55-79.25-36,36-36-36Zm-79.25,7.28,36,36-36,36Zm7.28,79.25,36-36,36,36ZM583.87,417l-36-36,36-36Zm89.55-79.25-36,36-36-36Zm-79.25,7.28,36,36-36,36Zm7.28,79.25,36-36,36,36ZM680.7,417l-36-36,36-36Zm89.55-79.25-36,36-36-36ZM691,345.05l36,36-36,36Zm7.28,79.25,36-36,36,36ZM777.53,417l-36-36,36-36Zm89.55-79.25-36,36-36-36Zm-79.25,7.28,36,36-36,36Zm7.28,79.25,36-36,36,36ZM874.37,417l-36-36,36-36Zm89.55-79.25-36,36-36-36Zm-79.25,7.28,36,36-36,36ZM892,424.3l36-36,36,36ZM971.2,417l-36-36,36-36Zm89.55-79.25-36,36-36-36Zm-79.25,7.28,36,36-36,36Zm7.28,79.25,36-36,36,36ZM1068,417l-36-36,36-36Zm89.55-79.25-36,36-36-36Zm-79.25,7.28,36,36-36,36Zm7.28,79.25,36-36,36,36Zm79.25-7.28-36-36,36-36Zm10.3-72,36,36-36,36Zm7.28,79.25,36-36,36,36Z" style="fill: rgb(59, 120, 147);" transform="matrix(0.23626095095233896, 0, 0, 0.23626095095233896, -26.729665044946145, -58.675281660869935)"/><g id="_Group_3" data-name="&lt;Group&gt;" transform="matrix(0.23626095095233896, 0, 0, 0.23626095095233896, -26.729665044946145, -58.675281660869935)"><path d="M 2223.219970703125 1289.0999755859375 L 2089.929931640625 1289.0999755859375 L 2115.93994140625 1352.489990234375 L 2197.2099609375 1352.489990234375 L 2223.219970703125 1289.0999755859375 Z" id="_Path_9" data-name="&lt;Path&gt;" class="cls-14" style="fill: rgb(191, 176, 169);"/><path d="M 2085.090088 1275.939941 H 2228.060089 A 4.5 4.5 0 0 1 2232.560089 1280.439941 V 1284.599941 A 4.5 4.5 0 0 1 2228.060089 1289.099941 H 2085.090088 A 4.5 4.5 0 0 1 2080.590088 1284.599941 V 1280.439941 A 4.5 4.5 0 0 1 2085.090088 1275.939941 Z" id="_Path_10" data-name="&lt;Path&gt;" class="cls-15" style="fill: rgb(215, 193, 185);"/><path d="M 2150.97998 1228.560059 H 2162.17998 V 1275.94006 H 2150.97998 V 1228.560059 Z" id="_Path_11" data-name="&lt;Path&gt;" class="cls-16" style="fill: rgb(215, 103, 41);"/><path d="M 2150.97998 1228.560059 H 2155.57998 V 1275.94006 H 2150.97998 V 1228.560059 Z" id="_Path_12" data-name="&lt;Path&gt;" class="cls-17" style="fill: rgb(193, 90, 40);"/><path d="M 2220.900078 1176.73999 A 64.32 64.32 0 0 1 2156.580078 1241.05999 A 64.32 64.32 0 0 1 2092.260078 1176.73999 A 64.32 64.32 0 0 1 2156.580078 1112.419991 A 64.32 64.32 0 0 1 2220.900078 1176.73999 Z" id="_Path_13" data-name="&lt;Path&gt;" class="cls-18" style="fill: rgb(124, 177, 80);"/><path id="_Path_14" data-name="&lt;Path&gt;" class="cls-19" d="M2156.58,1112.42a64,64,0,0,0-35.84,10.91,64.32,64.32,0,0,0,85.46,94.32,64.32,64.32,0,0,0-49.62-105.23Z" style="fill: rgb(125, 186, 83);"/><path d="M 2155.480049 1201.650024 A 21.68 21.68 0 0 1 2133.800049 1223.330025 A 21.68 21.68 0 0 1 2112.120049 1201.650024 A 21.68 21.68 0 0 1 2133.800049 1179.970024 A 21.68 21.68 0 0 1 2155.480049 1201.650024 Z" id="_Path_15" data-name="&lt;Path&gt;" class="cls-20" style="fill: rgb(116, 167, 73);"/><path d="M 2223.219970703125 1289.0999755859375 L 2093.469970703125 1297.719970703125 L 2089.929931640625 1289.0999755859375 L 2223.219970703125 1289.0999755859375 Z" id="_Path_16" data-name="&lt;Path&gt;" class="cls-21" style="fill: rgb(178, 164, 161);"/></g><g id="_Group_4" data-name="&lt;Group&gt;" transform="matrix(0.23626095095233896, 0, 0, 0.23626095095233896, -26.729665044946145, -58.675281660869935)"><path d="M 1833.31005859375 1289.0999755859375 L 1700.010009765625 1289.0999755859375 L 1726.02001953125 1352.489990234375 L 1807.300048828125 1352.489990234375 L 1833.31005859375 1289.0999755859375 Z" id="_Path_17" data-name="&lt;Path&gt;" class="cls-14" style="fill: rgb(191, 176, 169);"/><path d="M 1695.180054 1275.939941 H 1838.150055 A 4.5 4.5 0 0 1 1842.650055 1280.439941 V 1284.599941 A 4.5 4.5 0 0 1 1838.150055 1289.099941 H 1695.180054 A 4.5 4.5 0 0 1 1690.680054 1284.599941 V 1280.439941 A 4.5 4.5 0 0 1 1695.180054 1275.939941 Z" id="_Path_18" data-name="&lt;Path&gt;" class="cls-15" style="fill: rgb(215, 193, 185);"/><path d="M 1761.060059 1228.560059 H 1772.260058 V 1275.94006 H 1761.060059 V 1228.560059 Z" id="_Path_19" data-name="&lt;Path&gt;" class="cls-16" style="fill: rgb(215, 103, 41);"/><path d="M 1761.060059 1228.560059 H 1765.660058 V 1275.94006 H 1761.060059 V 1228.560059 Z" id="_Path_20" data-name="&lt;Path&gt;" class="cls-17" style="fill: rgb(193, 90, 40);"/><path d="M 1830.980034 1176.73999 A 64.32 64.32 0 0 1 1766.660034 1241.05999 A 64.32 64.32 0 0 1 1702.340034 1176.73999 A 64.32 64.32 0 0 1 1766.660034 1112.419991 A 64.32 64.32 0 0 1 1830.980034 1176.73999 Z" id="_Path_21" data-name="&lt;Path&gt;" class="cls-18" style="fill: rgb(124, 177, 80);"/><path id="_Path_22" data-name="&lt;Path&gt;" class="cls-19" d="M1766.66,1112.42a64,64,0,0,0-35.84,10.91,64.32,64.32,0,0,0,85.46,94.32,64.32,64.32,0,0,0-49.62-105.23Z" style="fill: rgb(125, 186, 83);"/><path d="M 1765.560005 1201.650024 A 21.68 21.68 0 0 1 1743.880005 1223.330025 A 21.68 21.68 0 0 1 1722.200005 1201.650024 A 21.68 21.68 0 0 1 1743.880005 1179.970024 A 21.68 21.68 0 0 1 1765.560005 1201.650024 Z" id="_Path_23" data-name="&lt;Path&gt;" class="cls-20" style="fill: rgb(116, 167, 73);"/><path d="M 1833.31005859375 1289.0999755859375 L 1703.550048828125 1297.719970703125 L 1700.010009765625 1289.0999755859375 L 1833.31005859375 1289.0999755859375 Z" id="_Path_24" data-name="&lt;Path&gt;" class="cls-21" style="fill: rgb(178, 164, 161);"/></g><path class="cls-11" d="M2023.75,1048,1920.6,1304h249.17l-103.15-256C2058.85,1028.72,2031.52,1028.72,2023.75,1048Z" style="fill: rgb(242, 196, 54);" transform="matrix(0.23626095095233896, 0, 0, 0.23626095095233896, -26.729665044946145, -58.675281660869935)"/><path d="M 1915.139971 1304 H 2175.229963 A 21.67 21.67 0 0 1 2196.899963 1325.67 V 1331.35 A 21.67 21.67 0 0 1 2175.229963 1353.02 H 1915.139971 A 21.67 21.67 0 0 1 1893.469971 1331.35 V 1325.67 A 21.67 21.67 0 0 1 1915.139971 1304 Z" class="cls-22" style="fill: rgb(209, 157, 28);" transform="matrix(0.23626095095233896, 0, 0, 0.23626095095233896, -26.729665044946145, -58.675281660869935)"/><path class="cls-23" d="M1915.2,1353h260c12,0,21.73-11,21.73-24.51H1893.47C1893.47,1342,1903.2,1353,1915.2,1353Z" style="fill: rgb(198, 145, 26);" transform="matrix(0.23626095095233896, 0, 0, 0.23626095095233896, -26.729665044946145, -58.675281660869935)"/><path d="M 1920.5999755859375 1304 L 2169.77001953125 1304 L 2163.389892578125 1288.1600341796875 L 1926.97998046875 1288.1600341796875 L 1920.5999755859375 1304 Z" class="cls-24" style="fill: rgb(234, 187, 54);" transform="matrix(0.23626095095233896, 0, 0, 0.23626095095233896, -26.729665044946145, -58.675281660869935)"/><path d="M 1980.5400390625 1155.25 L 2109.830078125 1155.25 L 2091.89990234375 1110.75 L 1998.469970703125 1110.75 L 1980.5400390625 1155.25 Z" class="cls-25" style="fill: rgb(249, 219, 133);" transform="matrix(0.23626095095233896, 0, 0, 0.23626095095233896, -26.729665044946145, -58.675281660869935)"/><path d="M 1942.550048828125 1249.52001953125 L 2147.820068359375 1249.52001953125 L 2129.889892578125 1205.030029296875 L 1960.47998046875 1205.030029296875 L 1942.550048828125 1249.52001953125 Z" class="cls-25" style="fill: rgb(249, 219, 133);" transform="matrix(0.23626095095233896, 0, 0, 0.23626095095233896, -26.729665044946145, -58.675281660869935)"/><g id="_Group_5" data-name="&lt;Group&gt;" transform="matrix(0.23626095095233896, 0, 0, 0.23626095095233896, -26.729665044946145, -58.675281660869935)"><path d="M 770.610004 498.290009 H 1795.499981 A 35.48 35.48 0 0 1 1830.97998 533.770008 V 1215.52998 A 35.48 35.48 0 0 1 1795.499981 1251.009979 H 770.610004 A 35.48 35.48 0 0 1 735.130005 1215.52998 V 533.770008 A 35.48 35.48 0 0 1 770.610004 498.290009 Z" id="_Path_25" data-name="&lt;Path&gt;" class="cls-26" style="fill: rgb(241, 241, 242);"/><path id="_Path_26" data-name="&lt;Path&gt;" class="cls-27" d="M1795.51,495H770.61a35.48,35.48,0,0,0-35.48,35.48v616.46H1831V530.45A35.48,35.48,0,0,0,1795.51,495Z" style="fill: rgb(53, 74, 97);"/><path d="M 781.689987 522.640015 H 1784.419998 A 18.889999 18.889999 0 0 1 1803.309998 541.530014 V 1100.340042 A 18.889999 18.889999 0 0 1 1784.419998 1119.230042 H 781.689987 A 18.889999 18.889999 0 0 1 762.799988 1100.340042 V 541.530014 A 18.889999 18.889999 0 0 1 781.689987 522.640015 Z" id="_Path_27" data-name="&lt;Path&gt;" class="cls-28" style="fill: rgb(209, 211, 212);"/><path d="M 1049.26001 1251.030029 H 1516.869995 V 1319.020027 H 1049.26001 V 1251.030029 Z" id="_Path_28" data-name="&lt;Path&gt;" class="cls-29" style="fill: rgb(187, 189, 191);"/><path id="_Path_29" data-name="&lt;Path&gt;" class="cls-30" d="M1516.86,1261.37c0,39.88-467.61,39.88-467.61,0V1251h467.61Z" style="fill: rgb(166, 168, 171);"/><path id="_Path_30" data-name="&lt;Path&gt;" class="cls-26" d="M1690.4,1353H875.72c-10.88,0-19.71-7.61-19.71-17h0c0-9.39,8.82-17,19.71-17H1690.4c10.88,0,19.71,7.61,19.71,17h0C1710.11,1345.41,1701.29,1353,1690.4,1353Z" style="fill: rgb(241, 241, 242);"/><path d="M 1308.190058 1200.050049 A 25.129999 25.129999 0 0 1 1283.060059 1225.180048 A 25.129999 25.129999 0 0 1 1257.930059 1200.050049 A 25.129999 25.129999 0 0 1 1283.060059 1174.92005 A 25.129999 25.129999 0 0 1 1308.190058 1200.050049 Z" class="cls-31" style="fill: rgb(219, 219, 221);"/></g><path d="M 1068.030029 434.600006 H 1175.160027 V 449.690006 H 1068.030029 V 434.600006 Z" class="cls-4" style="fill: rgb(55, 94, 112);" transform="matrix(0.23626095095233896, 0, 0, 0.23626095095233896, -26.729665044946145, -58.675281660869935)"/><path d="M 1084.25 449.690002 H 1158.940002 V 464.780003 H 1084.25 V 449.690002 Z" class="cls-13" style="fill: rgb(59, 120, 147);" transform="matrix(0.23626095095233896, 0, 0, 0.23626095095233896, -26.729665044946145, -58.675281660869935)"/><path d="M 790.109985 628.27002 H 1272.399994 V 1090.180023 H 790.109985 V 628.27002 Z" class="cls-32" style="fill: rgb(188, 190, 192);" transform="matrix(0.23626095095233896, 0, 0, 0.23626095095233896, -26.729665044946145, -58.675281660869935)"/><path d="M 1292.670044 628.27002 H 1774.960052 V 1090.180023 H 1292.670044 V 628.27002 Z" class="cls-32" style="fill: rgb(188, 190, 192);" transform="matrix(0.23626095095233896, 0, 0, 0.23626095095233896, -26.729665044946145, -58.675281660869935)"/><path d="M 802.570007 679.77002 H 1257.929993 V 859.220016 H 802.570007 V 679.77002 Z" class="cls-28" style="fill: rgb(209, 211, 212);" transform="matrix(0.23626095095233896, 0, 0, 0.23626095095233896, -26.729665044946145, -58.675281660869935)"/><path d="M 802.570007 879.289978 H 1257.929993 V 908.379978 H 802.570007 V 879.289978 Z" class="cls-28" style="fill: rgb(209, 211, 212);" transform="matrix(0.23626095095233896, 0, 0, 0.23626095095233896, -26.729665044946145, -58.675281660869935)"/><path d="M 1312.73999 967.190002 H 1752.769989 V 989.890003 H 1312.73999 V 967.190002 Z" class="cls-28" style="fill: rgb(209, 211, 212);" transform="matrix(0.23626095095233896, 0, 0, 0.23626095095233896, -26.729665044946145, -58.675281660869935)"/><path d="M 1312.73999 1002.909973 H 1752.769989 V 1025.609974 H 1312.73999 V 1002.909973 Z" class="cls-28" style="fill: rgb(209, 211, 212);" transform="matrix(0.23626095095233896, 0, 0, 0.23626095095233896, -26.729665044946145, -58.675281660869935)"/><path d="M 1312.73999 1038.630005 H 1752.769989 V 1061.330006 H 1312.73999 V 1038.630005 Z" class="cls-28" style="fill: rgb(209, 211, 212);" transform="matrix(0.23626095095233896, 0, 0, 0.23626095095233896, -26.729665044946145, -58.675281660869935)"/><path d="M 873.449995 932.429993 H 1248.599993 A 9.33 9.33 0 0 1 1257.929993 941.759993 V 943.209993 A 9.33 9.33 0 0 1 1248.599993 952.539993 H 873.449995 A 9.33 9.33 0 0 1 864.119995 943.209993 V 941.759993 A 9.33 9.33 0 0 1 873.449995 932.429993 Z" class="cls-28" style="fill: rgb(209, 211, 212);" transform="matrix(0.23626095095233896, 0, 0, 0.23626095095233896, -26.729665044946145, -58.675281660869935)"/><path class="cls-33" d="M802.57,644.16v18.27h455.36V644.16ZM814,659.24a5.95,5.95,0,1,1,5.95-5.95A5.95,5.95,0,0,1,814,659.24Zm19.12,0a5.95,5.95,0,1,1,5.95-5.95A5.95,5.95,0,0,1,833.09,659.24Zm19.12,0a5.95,5.95,0,1,1,5.95-5.95A5.95,5.95,0,0,1,852.22,659.24ZM1238.92,657a2.25,2.25,0,0,1-2.25,2.25H869.9a2.25,2.25,0,0,1-2.25-2.25v-7.4a2.25,2.25,0,0,1,2.25-2.25h366.78a2.25,2.25,0,0,1,2.25,2.25Zm9.68,2.25a5.95,5.95,0,1,1,5.95-5.95A5.95,5.95,0,0,1,1248.61,659.24Z" style="fill: rgb(167, 169, 172);" transform="matrix(0.23626095095233896, 0, 0, 0.23626095095233896, -26.729665044946145, -58.675281660869935)"/><g id="_Group_6" data-name="&lt;Group&gt;" transform="matrix(0.23626095095233896, 0, 0, 0.23626095095233896, -26.729665044946145, -58.675281660869935)"><path d="M 1120.170053 619.299988 H 1158.200052 A 5.24 5.24 0 0 1 1163.440052 624.539988 V 939.839987 A 5.24 5.24 0 0 1 1158.200052 945.079987 H 1120.170053 A 5.24 5.24 0 0 1 1114.930054 939.839987 V 624.539988 A 5.24 5.24 0 0 1 1120.170053 619.299988 Z" id="_Path_31" data-name="&lt;Path&gt;" class="cls-33" transform="translate(-61.58 1466.11) rotate(-64.14)" style="fill: rgb(167, 169, 172);"/><path d="M 995.419992 697.469971 H 1033.449991 A 5.24 5.24 0 0 1 1038.689991 702.70997 V 740.739969 A 5.24 5.24 0 0 1 1033.449991 745.979969 H 995.419992 A 5.24 5.24 0 0 1 990.179993 740.739969 V 702.70997 A 5.24 5.24 0 0 1 995.419992 697.469971 Z" id="_Path_32" data-name="&lt;Path&gt;" class="cls-32" transform="translate(-77.5 1319.76) rotate(-64.14)" style="fill: rgb(188, 190, 192);"/><g id="_Group_7" data-name="&lt;Group&gt;"><path id="_Compound_Path_" data-name="&lt;Compound Path&gt;" class="cls-28" d="M998.11,713.81a18.14,18.14,0,1,0,24.24-8.41A18.14,18.14,0,0,0,998.11,713.81Zm2.11,1a15.8,15.8,0,1,1,7.32,21.1A15.8,15.8,0,0,1,1000.22,714.83Z" style="fill: rgb(209, 211, 212);"/><path id="_Compound_Path_2" data-name="&lt;Compound Path&gt;" class="cls-28" d="M998.11,713.81a18.14,18.14,0,1,0,24.24-8.41A18.14,18.14,0,0,0,998.11,713.81Zm2.11,1a15.8,15.8,0,1,1,7.32,21.1A15.8,15.8,0,0,1,1000.22,714.83Z" style="fill: rgb(209, 211, 212);"/><path d="M 1020.750002 717.070007 A 4.06 4.06 0 0 1 1016.690002 721.130007 A 4.06 4.06 0 0 1 1012.630002 717.070007 A 4.06 4.06 0 0 1 1016.690002 713.010007 A 4.06 4.06 0 0 1 1020.750002 717.070007 Z" id="_Path_33" data-name="&lt;Path&gt;" class="cls-28" transform="translate(-72.04 1319.17) rotate(-64.14)" style="fill: rgb(209, 211, 212);"/><g id="_Group_8" data-name="&lt;Group&gt;"><path id="_Path_34" data-name="&lt;Path&gt;" class="cls-28" d="M1006.21,726.76a2.83,2.83,0,0,1,.58-3.95c2.54-2,5.46-2.66,7.84-1.5s3.66,3.87,3.68,7.09a2.83,2.83,0,0,1-2.74,2.9,12.74,12.74,0,0,1-9.37-4.54Z" style="fill: rgb(209, 211, 212);"/></g></g></g><g id="_Group_9" data-name="&lt;Group&gt;" transform="matrix(0.23626095095233896, 0, 0, 0.23626095095233896, -26.729665044946145, -58.675281660869935)"><path id="_Path_35" data-name="&lt;Path&gt;" class="cls-28" d="M1747.53,773.43l-429.53.09a5.24,5.24,0,0,1-5.25-5.24v-38A5.24,5.24,0,0,1,1318,725l429.53-.09a5.24,5.24,0,0,1,5.25,5.24v38A5.24,5.24,0,0,1,1747.53,773.43Z" style="fill: rgb(209, 211, 212);"/><path d="M 1317.99 725 H 1356.019999 A 5.24 5.24 0 0 1 1361.259998 730.24 V 768.269999 A 5.24 5.24 0 0 1 1356.019999 773.509998 H 1317.99 A 5.24 5.24 0 0 1 1312.75 768.269999 V 730.24 A 5.24 5.24 0 0 1 1317.99 725 Z" id="_Path_36" data-name="&lt;Path&gt;" class="cls-33" style="fill: rgb(167, 169, 172);"/><g id="_Group_10" data-name="&lt;Group&gt;"><path id="_Compound_Path_3" data-name="&lt;Compound Path&gt;" class="cls-28" d="M1318.86,749.26A18.14,18.14,0,1,0,1337,731.11,18.14,18.14,0,0,0,1318.86,749.26Zm2.35,0a15.8,15.8,0,1,1,15.8,15.79A15.8,15.8,0,0,1,1321.21,749.26Z" style="fill: rgb(209, 211, 212);"/><path id="_Compound_Path_4" data-name="&lt;Compound Path&gt;" class="cls-28" d="M1318.86,749.26A18.14,18.14,0,1,0,1337,731.11,18.14,18.14,0,0,0,1318.86,749.26Zm2.35,0a15.8,15.8,0,1,1,15.8,15.79A15.8,15.8,0,0,1,1321.21,749.26Z" style="fill: rgb(209, 211, 212);"/><path d="M 1341.06 744.080017 A 4.06 4.06 0 0 1 1337 748.140017 A 4.06 4.06 0 0 1 1332.94 744.080017 A 4.06 4.06 0 0 1 1337 740.020017 A 4.06 4.06 0 0 1 1341.06 744.080017 Z" id="_Path_37" data-name="&lt;Path&gt;" class="cls-28" style="fill: rgb(209, 211, 212);"/><g id="_Group_11" data-name="&lt;Group&gt;"><path id="_Path_38" data-name="&lt;Path&gt;" class="cls-28" d="M1331.8,757.38a2.83,2.83,0,0,1-1.2-3.8c1.42-2.89,3.75-4.77,6.4-4.78s5,1.89,6.4,4.77a2.83,2.83,0,0,1-1.19,3.81,12.74,12.74,0,0,1-10.42,0Z" style="fill: rgb(209, 211, 212);"/></g></g></g><g id="_Group_12" data-name="&lt;Group&gt;" transform="matrix(0.23626095095233896, 0, 0, 0.23626095095233896, -26.729665044946145, -58.675281660869935)"><path id="_Path_39" data-name="&lt;Path&gt;" class="cls-28" d="M1747.53,854.19l-429.53.09a5.24,5.24,0,0,1-5.25-5.24V811a5.24,5.24,0,0,1,5.24-5.25l429.53-.09a5.24,5.24,0,0,1,5.25,5.24v38A5.24,5.24,0,0,1,1747.53,854.19Z" style="fill: rgb(209, 211, 212);"/><path d="M 1317.99 805.76001 H 1356.019999 A 5.24 5.24 0 0 1 1361.259998 811.00001 V 849.030008 A 5.24 5.24 0 0 1 1356.019999 854.270008 H 1317.99 A 5.24 5.24 0 0 1 1312.75 849.030008 V 811.00001 A 5.24 5.24 0 0 1 1317.99 805.76001 Z" id="_Path_40" data-name="&lt;Path&gt;" class="cls-33" style="fill: rgb(167, 169, 172);"/><g id="_Group_13" data-name="&lt;Group&gt;"><path id="_Compound_Path_5" data-name="&lt;Compound Path&gt;" class="cls-28" d="M1318.86,830A18.14,18.14,0,1,0,1337,811.87,18.14,18.14,0,0,0,1318.86,830Zm2.35,0a15.8,15.8,0,1,1,15.8,15.79A15.8,15.8,0,0,1,1321.21,830Z" style="fill: rgb(209, 211, 212);"/><path id="_Compound_Path_6" data-name="&lt;Compound Path&gt;" class="cls-28" d="M1318.86,830A18.14,18.14,0,1,0,1337,811.87,18.14,18.14,0,0,0,1318.86,830Zm2.35,0a15.8,15.8,0,1,1,15.8,15.79A15.8,15.8,0,0,1,1321.21,830Z" style="fill: rgb(209, 211, 212);"/><path d="M 1341.06 824.840027 A 4.06 4.06 0 0 1 1337 828.900027 A 4.06 4.06 0 0 1 1332.94 824.840027 A 4.06 4.06 0 0 1 1337 820.780027 A 4.06 4.06 0 0 1 1341.06 824.840027 Z" id="_Path_41" data-name="&lt;Path&gt;" class="cls-28" style="fill: rgb(209, 211, 212);"/><g id="_Group_14" data-name="&lt;Group&gt;"><path id="_Path_42" data-name="&lt;Path&gt;" class="cls-28" d="M1331.8,838.14a2.83,2.83,0,0,1-1.2-3.8c1.42-2.89,3.75-4.77,6.4-4.78s5,1.89,6.4,4.77a2.83,2.83,0,0,1-1.19,3.81,12.74,12.74,0,0,1-10.42,0Z" style="fill: rgb(209, 211, 212);"/></g></g></g><g id="_Group_15" data-name="&lt;Group&gt;" transform="matrix(0.23626095095233896, 0, 0, 0.23626095095233896, -26.729665044946145, -58.675281660869935)"><path id="_Path_43" data-name="&lt;Path&gt;" class="cls-28" d="M1747.53,934.95,1318,935a5.24,5.24,0,0,1-5.25-5.24v-38a5.24,5.24,0,0,1,5.24-5.25l429.53-.09a5.24,5.24,0,0,1,5.25,5.24v38A5.24,5.24,0,0,1,1747.53,934.95Z" style="fill: rgb(209, 211, 212);"/><path d="M 1317.99 886.52002 H 1356.019999 A 5.24 5.24 0 0 1 1361.259998 891.760019 V 929.790018 A 5.24 5.24 0 0 1 1356.019999 935.030018 H 1317.99 A 5.24 5.24 0 0 1 1312.75 929.790018 V 891.760019 A 5.24 5.24 0 0 1 1317.99 886.52002 Z" id="_Path_44" data-name="&lt;Path&gt;" class="cls-33" style="fill: rgb(167, 169, 172);"/><g id="_Group_16" data-name="&lt;Group&gt;"><path id="_Compound_Path_7" data-name="&lt;Compound Path&gt;" class="cls-28" d="M1318.86,910.78A18.14,18.14,0,1,0,1337,892.63,18.14,18.14,0,0,0,1318.86,910.78Zm2.35,0a15.8,15.8,0,1,1,15.8,15.79A15.8,15.8,0,0,1,1321.21,910.78Z" style="fill: rgb(209, 211, 212);"/><path id="_Compound_Path_8" data-name="&lt;Compound Path&gt;" class="cls-28" d="M1318.86,910.78A18.14,18.14,0,1,0,1337,892.63,18.14,18.14,0,0,0,1318.86,910.78Zm2.35,0a15.8,15.8,0,1,1,15.8,15.79A15.8,15.8,0,0,1,1321.21,910.78Z" style="fill: rgb(209, 211, 212);"/><path d="M 1341.06 905.599976 A 4.06 4.06 0 0 1 1337 909.659976 A 4.06 4.06 0 0 1 1332.94 905.599976 A 4.06 4.06 0 0 1 1337 901.539976 A 4.06 4.06 0 0 1 1341.06 905.599976 Z" id="_Path_45" data-name="&lt;Path&gt;" class="cls-28" style="fill: rgb(209, 211, 212);"/><g id="_Group_17" data-name="&lt;Group&gt;"><path id="_Path_46" data-name="&lt;Path&gt;" class="cls-28" d="M1331.8,918.89a2.83,2.83,0,0,1-1.2-3.8c1.42-2.89,3.75-4.77,6.4-4.78s5,1.89,6.4,4.77a2.83,2.83,0,0,1-1.19,3.81,12.74,12.74,0,0,1-10.42,0Z" style="fill: rgb(209, 211, 212);"/></g></g></g><path d="M 432.98999 356.079987 H 438.37999 A 16.75 16.75 0 0 1 455.12999 372.829987 V 467.899994 A 16.75 16.75 0 0 1 438.37999 484.649994 H 432.98999 A 16.75 16.75 0 0 1 416.23999 467.899994 V 372.829987 A 16.75 16.75 0 0 1 432.98999 356.079987 Z" class="cls-34" style="fill: rgb(216, 216, 216);" transform="matrix(0.23626095095233896, 0, 0, 0.23626095095233896, -26.729665044946145, -58.675281660869935)"/><path class="cls-35" d="M429.88,351.78V357a19.54,19.54,0,0,1,11.61,0v-5.17A19.84,19.84,0,0,0,421.67,332h-5.43v11.61h5.43A8.22,8.22,0,0,1,429.88,351.78Z" style="fill: rgb(181, 177, 177);" transform="matrix(0.23626095095233896, 0, 0, 0.23626095095233896, -26.729665044946145, -58.675281660869935)"/><path class="cls-36" d="M429.87,351.59c0,.06,0,.13,0,.19V357a19.54,19.54,0,0,1,11.61,0v-5.17c0-.07,0-.13,0-.2a19.53,19.53,0,0,0-11.61,0Z" style="fill: rgb(165, 164, 164);" transform="matrix(0.23626095095233896, 0, 0, 0.23626095095233896, -26.729665044946145, -58.675281660869935)"/><path d="M 432.059988 1316.380005 H 745.789988 A 17.01 17.01 0 0 1 762.799988 1333.390005 V 1336.010004 A 17.01 17.01 0 0 1 745.789988 1353.020004 H 432.059988 A 17.01 17.01 0 0 1 415.049988 1336.010004 V 1333.390005 A 17.01 17.01 0 0 1 432.059988 1316.380005 Z" class="cls-4" style="fill: rgb(55, 94, 112);" transform="matrix(0.23626095095233896, 0, 0, 0.23626095095233896, -26.729665044946145, -58.675281660869935)"/><path d="M 790.109985 555.820007 H 1776.01001 V 605.210007 H 790.109985 V 555.820007 Z" class="cls-32" style="fill: rgb(188, 190, 192);" transform="matrix(0.23626095095233896, 0, 0, 0.23626095095233896, -26.729665044946145, -58.675281660869935)"/><path d="M 971.679978 564.440002 H 1718.979995 A 5.64 5.64 0 0 1 1724.619995 570.080002 V 590.950004 A 5.64 5.64 0 0 1 1718.979995 596.590004 H 971.679978 A 5.64 5.64 0 0 1 966.039978 590.950004 V 570.080002 A 5.64 5.64 0 0 1 971.679978 564.440002 Z" class="cls-28" style="fill: rgb(209, 211, 212);" transform="matrix(0.23626095095233896, 0, 0, 0.23626095095233896, -26.729665044946145, -58.675281660869935)"/><path d="M 1100.52002 464.790009 H 1107.490019 V 689.410004 H 1100.52002 V 464.790009 Z" class="cls-4" style="fill: rgb(55, 94, 112);" transform="matrix(0.23626095095233896, 0, 0, 0.23626095095233896, -26.729665044946145, -58.675281660869935)"/><path d="M 1135.699951 464.790009 H 1142.669951 V 689.410004 H 1135.699951 V 464.790009 Z" class="cls-4" style="fill: rgb(55, 94, 112);" transform="matrix(0.23626095095233896, 0, 0, 0.23626095095233896, -26.729665044946145, -58.675281660869935)"/><path d="M 1089.560059 704.5 H 1153.64006 V 716.92 H 1089.560059 V 704.5 Z" class="cls-4" style="fill: rgb(55, 94, 112);" transform="matrix(0.23626095095233896, 0, 0, 0.23626095095233896, -26.729665044946145, -58.675281660869935)"/><path d="M 1121.5999755859375 716.9199829101562 L 1089.56005859375 716.9199829101562 L 1101.9200439453125 739.0399780273438 L 1121.5999755859375 739.0399780273438 L 1141.280029296875 739.0399780273438 L 1153.6400146484375 716.9199829101562 L 1121.5999755859375 716.9199829101562 Z" class="cls-13" style="fill: rgb(59, 120, 147);" transform="matrix(0.23626095095233896, 0, 0, 0.23626095095233896, -26.729665044946145, -58.675281660869935)"/><path class="cls-4" d="M1138.76,760.64l-1.52,1.9a16.57,16.57,0,0,0-3,6.48,13.11,13.11,0,0,1-13.33,9.91,13.09,13.09,0,0,1-2.12-25.88,8.83,8.83,0,0,0,6.81-8.72V739h-8.13v5.3a.85.85,0,0,1-.67.83,21.22,21.22,0,0,0,4.59,41.9h.16a21,21,0,0,0,14.64-5.87,21.34,21.34,0,0,0,3.86-5,15,15,0,0,0-.73-15.58h0A.32.32,0,0,0,1138.76,760.64Z" style="fill: rgb(55, 94, 112);" transform="matrix(0.23626095095233896, 0, 0, 0.23626095095233896, -26.729665044946145, -58.675281660869935)"/><path class="cls-4" d="M452.83,387.18h119a17.14,17.14,0,0,1,17.14,17.14V605.21H435.69V404.32A17.14,17.14,0,0,1,452.83,387.18Z" style="fill: rgb(55, 94, 112);" transform="matrix(0.23626095095233896, 0, 0, 0.23626095095233896, -26.729665044946145, -58.675281660869935)"/><path d="M 463.390015 404.339996 H 561.220016 A 11 11 0 0 1 572.220016 415.339996 V 513.169998 A 11 11 0 0 1 561.220016 524.169998 H 463.390015 A 11 11 0 0 1 452.390015 513.169998 V 415.339996 A 11 11 0 0 1 463.390015 404.339996 Z" class="cls-37" style="fill: rgb(47, 83, 96);" transform="matrix(0.23626095095233896, 0, 0, 0.23626095095233896, -26.729665044946145, -58.675281660869935)"/><path d="M 465.200005 410.079987 H 559.410003 A 7.07 7.07 0 0 1 566.480003 417.149987 V 511.359985 A 7.07 7.07 0 0 1 559.410003 518.429985 H 465.200005 A 7.07 7.07 0 0 1 458.130005 511.359985 V 417.149987 A 7.07 7.07 0 0 1 465.200005 410.079987 Z" class="cls-34" style="fill: rgb(216, 216, 216);" transform="matrix(0.23626095095233896, 0, 0, 0.23626095095233896, -26.729665044946145, -58.675281660869935)"/><path d="M 435.690002 603.849976 H 588.930008 V 628.259975 H 435.690002 V 603.849976 Z" class="cls-37" style="fill: rgb(47, 83, 96);" transform="matrix(0.23626095095233896, 0, 0, 0.23626095095233896, -26.729665044946145, -58.675281660869935)"/><path d="M 426.009996 379.339996 A 2.42 2.42 0 0 1 423.589996 381.759996 A 2.42 2.42 0 0 1 421.169996 379.339996 A 2.42 2.42 0 0 1 423.589996 376.919996 A 2.42 2.42 0 0 1 426.009996 379.339996 Z" class="cls-35" style="fill: rgb(181, 177, 177);" transform="matrix(0.23626095095233896, 0, 0, 0.23626095095233896, -26.729665044946145, -58.675281660869935)"/><path d="M 426.009996 387.079987 A 2.42 2.42 0 0 1 423.589996 389.499987 A 2.42 2.42 0 0 1 421.169996 387.079987 A 2.42 2.42 0 0 1 423.589996 384.659986 A 2.42 2.42 0 0 1 426.009996 387.079987 Z" class="cls-35" style="fill: rgb(181, 177, 177);" transform="matrix(0.23626095095233896, 0, 0, 0.23626095095233896, -26.729665044946145, -58.675281660869935)"/><path d="M 426.009996 394.820007 A 2.42 2.42 0 0 1 423.589996 397.240007 A 2.42 2.42 0 0 1 421.169996 394.820007 A 2.42 2.42 0 0 1 423.589996 392.400007 A 2.42 2.42 0 0 1 426.009996 394.820007 Z" class="cls-35" style="fill: rgb(181, 177, 177);" transform="matrix(0.23626095095233896, 0, 0, 0.23626095095233896, -26.729665044946145, -58.675281660869935)"/><path d="M 426.009996 402.559998 A 2.42 2.42 0 0 1 423.589996 404.979998 A 2.42 2.42 0 0 1 421.169996 402.559998 A 2.42 2.42 0 0 1 423.589996 400.139997 A 2.42 2.42 0 0 1 426.009996 402.559998 Z" class="cls-35" style="fill: rgb(181, 177, 177);" transform="matrix(0.23626095095233896, 0, 0, 0.23626095095233896, -26.729665044946145, -58.675281660869935)"/><path d="M 426.009996 410.299988 A 2.42 2.42 0 0 1 423.589996 412.719988 A 2.42 2.42 0 0 1 421.169996 410.299988 A 2.42 2.42 0 0 1 423.589996 407.879988 A 2.42 2.42 0 0 1 426.009996 410.299988 Z" class="cls-35" style="fill: rgb(181, 177, 177);" transform="matrix(0.23626095095233896, 0, 0, 0.23626095095233896, -26.729665044946145, -58.675281660869935)"/><path d="M 433.270006 379.339996 A 2.42 2.42 0 0 1 430.850006 381.759996 A 2.42 2.42 0 0 1 428.430006 379.339996 A 2.42 2.42 0 0 1 430.850006 376.919996 A 2.42 2.42 0 0 1 433.270006 379.339996 Z" class="cls-35" style="fill: rgb(181, 177, 177);" transform="matrix(0.23626095095233896, 0, 0, 0.23626095095233896, -26.729665044946145, -58.675281660869935)"/><path d="M 433.270006 387.079987 A 2.42 2.42 0 0 1 430.850006 389.499987 A 2.42 2.42 0 0 1 428.430006 387.079987 A 2.42 2.42 0 0 1 430.850006 384.659986 A 2.42 2.42 0 0 1 433.270006 387.079987 Z" class="cls-35" style="fill: rgb(181, 177, 177);" transform="matrix(0.23626095095233896, 0, 0, 0.23626095095233896, -26.729665044946145, -58.675281660869935)"/><path d="M 433.270006 394.820007 A 2.42 2.42 0 0 1 430.850006 397.240007 A 2.42 2.42 0 0 1 428.430006 394.820007 A 2.42 2.42 0 0 1 430.850006 392.400007 A 2.42 2.42 0 0 1 433.270006 394.820007 Z" class="cls-35" style="fill: rgb(181, 177, 177);" transform="matrix(0.23626095095233896, 0, 0, 0.23626095095233896, -26.729665044946145, -58.675281660869935)"/><path d="M 433.270006 402.559998 A 2.42 2.42 0 0 1 430.850006 404.979998 A 2.42 2.42 0 0 1 428.430006 402.559998 A 2.42 2.42 0 0 1 430.850006 400.139997 A 2.42 2.42 0 0 1 433.270006 402.559998 Z" class="cls-35" style="fill: rgb(181, 177, 177);" transform="matrix(0.23626095095233896, 0, 0, 0.23626095095233896, -26.729665044946145, -58.675281660869935)"/><path d="M 433.270006 410.299988 A 2.42 2.42 0 0 1 430.850006 412.719988 A 2.42 2.42 0 0 1 428.430006 410.299988 A 2.42 2.42 0 0 1 430.850006 407.879988 A 2.42 2.42 0 0 1 433.270006 410.299988 Z" class="cls-35" style="fill: rgb(181, 177, 177);" transform="matrix(0.23626095095233896, 0, 0, 0.23626095095233896, -26.729665044946145, -58.675281660869935)"/><path d="M 1766.880049 580.51001 A 16.08 16.08 0 0 1 1750.800049 596.59001 A 16.08 16.08 0 0 1 1734.720049 580.51001 A 16.08 16.08 0 0 1 1750.800049 564.43001 A 16.08 16.08 0 0 1 1766.880049 580.51001 Z" class="cls-28" style="fill: rgb(209, 211, 212);" transform="matrix(0.23626095095233896, 0, 0, 0.23626095095233896, -26.729665044946145, -58.675281660869935)"/><path d="M 940.389997 580.51001 A 16.08 16.08 0 0 1 924.309998 596.59001 A 16.08 16.08 0 0 1 908.229998 580.51001 A 16.08 16.08 0 0 1 924.309998 564.43001 A 16.08 16.08 0 0 1 940.389997 580.51001 Z" class="cls-28" style="fill: rgb(209, 211, 212);" transform="matrix(0.23626095095233896, 0, 0, 0.23626095095233896, -26.729665044946145, -58.675281660869935)"/><path d="M 888.689985 580.51001 A 16.08 16.08 0 0 1 872.609985 596.59001 A 16.08 16.08 0 0 1 856.529985 580.51001 A 16.08 16.08 0 0 1 872.609985 564.43001 A 16.08 16.08 0 0 1 888.689985 580.51001 Z" class="cls-28" style="fill: rgb(209, 211, 212);" transform="matrix(0.23626095095233896, 0, 0, 0.23626095095233896, -26.729665044946145, -58.675281660869935)"/><path d="M 836.989973 580.51001 A 16.08 16.08 0 0 1 820.909973 596.59001 A 16.08 16.08 0 0 1 804.829973 580.51001 A 16.08 16.08 0 0 1 820.909973 564.43001 A 16.08 16.08 0 0 1 836.989973 580.51001 Z" class="cls-28" style="fill: rgb(209, 211, 212);" transform="matrix(0.23626095095233896, 0, 0, 0.23626095095233896, -26.729665044946145, -58.675281660869935)"/><path d="M 1087.170044 689.409973 H 1156.020042 A 6.5 6.5 0 0 1 1162.520042 695.909973 V 697.999973 A 6.5 6.5 0 0 1 1156.020042 704.499973 H 1087.170044 A 6.5 6.5 0 0 1 1080.670044 697.999973 V 695.909973 A 6.5 6.5 0 0 1 1087.170044 689.409973 Z" class="cls-1" style="fill: rgb(77, 141, 175);" transform="matrix(0.23626095095233896, 0, 0, 0.23626095095233896, -26.729665044946145, -58.675281660869935)"/><path d="M 1876.640015 603.030029 H 2040.51001 V 634.80003 H 1876.640015 V 603.030029 Z" class="cls-3" style="fill: rgb(54, 112, 132);" transform="matrix(0.23626095095233896, 0, 0, 0.23626095095233896, -26.729665044946145, -58.675281660869935)"/><path d="M 1958.5799560546875 634.7999877929688 L 2040.52001953125 634.7999877929688 L 2008.9100341796875 691.3599853515625 L 1958.5799560546875 691.3599853515625 L 1908.25 691.3599853515625 L 1876.6400146484375 634.7999877929688 L 1958.5799560546875 634.7999877929688 Z" class="cls-13" style="fill: rgb(59, 120, 147);" transform="matrix(0.23626095095233896, 0, 0, 0.23626095095233896, -26.729665044946145, -58.675281660869935)"/><path class="cls-4" d="M1914.69,746.6l3.89,4.85a42.37,42.37,0,0,1,7.77,16.57,33.52,33.52,0,0,0,34.1,25.34,33.48,33.48,0,0,0,5.42-66.18c-10.31-2.2-17.41-11.74-17.41-22.29V691.36h20.78v13.55A2.17,2.17,0,0,0,1971,707a54.25,54.25,0,0,1,41.8,59.13c-3,27-26.37,47.83-53.54,48h-.41a53.78,53.78,0,0,1-37.43-15,54.58,54.58,0,0,1-9.88-12.67c-7-12.46-6-27.91,1.88-39.84h0A.81.81,0,0,1,1914.69,746.6Z" style="fill: rgb(55, 94, 112);" transform="matrix(0.23626095095233896, 0, 0, 0.23626095095233896, -26.729665044946145, -58.675281660869935)"/><path d="M 1860.420044 564.440002 H 2056.730042 A 6.5 6.5 0 0 1 2063.230042 570.940002 V 596.540001 A 6.5 6.5 0 0 1 2056.730042 603.040001 H 1860.420044 A 6.5 6.5 0 0 1 1853.920044 596.540001 V 570.940002 A 6.5 6.5 0 0 1 1860.420044 564.440002 Z" class="cls-4" style="fill: rgb(55, 94, 112);" transform="matrix(0.23626095095233896, 0, 0, 0.23626095095233896, -26.729665044946145, -58.675281660869935)"/><path d="M 835.610027 942.48999 A 16.52 16.52 0 0 1 819.090027 959.009991 A 16.52 16.52 0 0 1 802.570026 942.48999 A 16.52 16.52 0 0 1 819.090027 925.96999 A 16.52 16.52 0 0 1 835.610027 942.48999 Z" class="cls-28" style="fill: rgb(209, 211, 212);" transform="matrix(0.23626095095233896, 0, 0, 0.23626095095233896, -26.729665044946145, -58.675281660869935)"/><path d="M 873.449995 986.830017 H 1248.599993 A 9.33 9.33 0 0 1 1257.929993 996.160017 V 997.610018 A 9.33 9.33 0 0 1 1248.599993 1006.940018 H 873.449995 A 9.33 9.33 0 0 1 864.119995 997.610018 V 996.160017 A 9.33 9.33 0 0 1 873.449995 986.830017 Z" class="cls-28" style="fill: rgb(209, 211, 212);" transform="matrix(0.23626095095233896, 0, 0, 0.23626095095233896, -26.729665044946145, -58.675281660869935)"/><path d="M 835.610027 996.880005 A 16.52 16.52 0 0 1 819.090027 1013.400005 A 16.52 16.52 0 0 1 802.570026 996.880005 A 16.52 16.52 0 0 1 819.090027 980.360004 A 16.52 16.52 0 0 1 835.610027 996.880005 Z" class="cls-28" style="fill: rgb(209, 211, 212);" transform="matrix(0.23626095095233896, 0, 0, 0.23626095095233896, -26.729665044946145, -58.675281660869935)"/><path d="M 873.449995 1041.219971 H 1248.599993 A 9.33 9.33 0 0 1 1257.929993 1050.549971 V 1051.999971 A 9.33 9.33 0 0 1 1248.599993 1061.329971 H 873.449995 A 9.33 9.33 0 0 1 864.119995 1051.999971 V 1050.549971 A 9.33 9.33 0 0 1 873.449995 1041.219971 Z" class="cls-28" style="fill: rgb(209, 211, 212);" transform="matrix(0.23626095095233896, 0, 0, 0.23626095095233896, -26.729665044946145, -58.675281660869935)"/><path d="M 835.610027 1051.27002 A 16.52 16.52 0 0 1 819.090027 1067.79002 A 16.52 16.52 0 0 1 802.570026 1051.27002 A 16.52 16.52 0 0 1 819.090027 1034.750019 A 16.52 16.52 0 0 1 835.610027 1051.27002 Z" class="cls-28" style="fill: rgb(209, 211, 212);" transform="matrix(0.23626095095233896, 0, 0, 0.23626095095233896, -26.729665044946145, -58.675281660869935)"/><path d="M 1795.949951171875 1353.02001953125 L 1846.030029296875 907.97998046875 L 1857.550048828125 907.97998046875 L 1807.469970703125 1353.02001953125 L 1795.949951171875 1353.02001953125 Z" class="cls-38" style="fill: rgb(40, 76, 89);" transform="matrix(0.23626095095233896, 0, 0, 0.23626095095233896, -26.729665044946145, -58.675281660869935)"/><path d="M 1699.030029296875 1353.02001953125 L 1749.1099853515625 907.97998046875 L 1760.6199951171875 907.97998046875 L 1710.550048828125 1353.02001953125 L 1699.030029296875 1353.02001953125 Z" class="cls-38" style="fill: rgb(40, 76, 89);" transform="matrix(0.23626095095233896, 0, 0, 0.23626095095233896, -26.729665044946145, -58.675281660869935)"/><path d="M 1799.77001953125 1319.0799560546875 L 1798.5699462890625 1329.800048828125 L 1713.1600341796875 1329.800048828125 L 1714.3699951171875 1319.0799560546875 L 1799.77001953125 1319.0799560546875 Z" class="cls-39" style="fill: rgb(67, 116, 137);" transform="matrix(0.23626095095233896, 0, 0, 0.23626095095233896, -26.729665044946145, -58.675281660869935)"/><path d="M 1793.8800048828125 1329.800048828125 L 1798.5699462890625 1329.800048828125 L 1799.77001953125 1319.0799560546875 L 1795.0799560546875 1319.0799560546875 L 1793.8800048828125 1329.800048828125 Z" class="cls-40" style="fill: rgb(57, 99, 114);" transform="matrix(0.23626095095233896, 0, 0, 0.23626095095233896, -26.729665044946145, -58.675281660869935)"/><path d="M 1713.1600341796875 1329.800048828125 L 1717.8499755859375 1329.800048828125 L 1719.06005859375 1319.0799560546875 L 1714.3699951171875 1319.0799560546875 L 1713.1600341796875 1329.800048828125 Z" class="cls-40" style="fill: rgb(57, 99, 114);" transform="matrix(0.23626095095233896, 0, 0, 0.23626095095233896, -26.729665044946145, -58.675281660869935)"/><path d="M 1805.93994140625 1264.300048828125 L 1804.72998046875 1275.010009765625 L 1719.3299560546875 1275.010009765625 L 1720.530029296875 1264.300048828125 L 1805.93994140625 1264.300048828125 Z" class="cls-39" style="fill: rgb(67, 116, 137);" transform="matrix(0.23626095095233896, 0, 0, 0.23626095095233896, -26.729665044946145, -58.675281660869935)"/><path d="M 1800.0400390625 1275.010009765625 L 1804.72998046875 1275.010009765625 L 1805.93994140625 1264.300048828125 L 1801.25 1264.300048828125 L 1800.0400390625 1275.010009765625 Z" class="cls-40" style="fill: rgb(57, 99, 114);" transform="matrix(0.23626095095233896, 0, 0, 0.23626095095233896, -26.729665044946145, -58.675281660869935)"/><path d="M 1719.3299560546875 1275.010009765625 L 1724.02001953125 1275.010009765625 L 1725.219970703125 1264.300048828125 L 1720.530029296875 1264.300048828125 L 1719.3299560546875 1275.010009765625 Z" class="cls-40" style="fill: rgb(57, 99, 114);" transform="matrix(0.23626095095233896, 0, 0, 0.23626095095233896, -26.729665044946145, -58.675281660869935)"/><path d="M 1812.0999755859375 1209.52001953125 L 1810.9000244140625 1220.22998046875 L 1725.489990234375 1220.22998046875 L 1726.68994140625 1209.52001953125 L 1812.0999755859375 1209.52001953125 Z" class="cls-39" style="fill: rgb(67, 116, 137);" transform="matrix(0.23626095095233896, 0, 0, 0.23626095095233896, -26.729665044946145, -58.675281660869935)"/><path d="M 1806.199951171875 1220.22998046875 L 1810.9000244140625 1220.22998046875 L 1812.0999755859375 1209.52001953125 L 1807.4100341796875 1209.52001953125 L 1806.199951171875 1220.22998046875 Z" class="cls-40" style="fill: rgb(57, 99, 114);" transform="matrix(0.23626095095233896, 0, 0, 0.23626095095233896, -26.729665044946145, -58.675281660869935)"/><path d="M 1725.489990234375 1220.22998046875 L 1730.1800537109375 1220.22998046875 L 1731.3900146484375 1209.52001953125 L 1726.68994140625 1209.52001953125 L 1725.489990234375 1220.22998046875 Z" class="cls-40" style="fill: rgb(57, 99, 114);" transform="matrix(0.23626095095233896, 0, 0, 0.23626095095233896, -26.729665044946145, -58.675281660869935)"/><path d="M 1818.27001953125 1154.72998046875 L 1817.06005859375 1165.449951171875 L 1731.6500244140625 1165.449951171875 L 1732.8599853515625 1154.72998046875 L 1818.27001953125 1154.72998046875 Z" class="cls-39" style="fill: rgb(67, 116, 137);" transform="matrix(0.23626095095233896, 0, 0, 0.23626095095233896, -26.729665044946145, -58.675281660869935)"/><path d="M 1812.3699951171875 1165.449951171875 L 1817.06005859375 1165.449951171875 L 1818.27001953125 1154.72998046875 L 1813.5699462890625 1154.72998046875 L 1812.3699951171875 1165.449951171875 Z" class="cls-40" style="fill: rgb(57, 99, 114);" transform="matrix(0.23626095095233896, 0, 0, 0.23626095095233896, -26.729665044946145, -58.675281660869935)"/><path d="M 1731.6500244140625 1165.449951171875 L 1736.3499755859375 1165.449951171875 L 1737.550048828125 1154.72998046875 L 1732.8599853515625 1154.72998046875 L 1731.6500244140625 1165.449951171875 Z" class="cls-40" style="fill: rgb(57, 99, 114);" transform="matrix(0.23626095095233896, 0, 0, 0.23626095095233896, -26.729665044946145, -58.675281660869935)"/><path d="M 1824.4300537109375 1099.949951171875 L 1823.219970703125 1110.6700439453125 L 1737.8199462890625 1110.6700439453125 L 1739.02001953125 1099.949951171875 L 1824.4300537109375 1099.949951171875 Z" class="cls-39" style="fill: rgb(67, 116, 137);" transform="matrix(0.23626095095233896, 0, 0, 0.23626095095233896, -26.729665044946145, -58.675281660869935)"/><path d="M 1818.530029296875 1110.6700439453125 L 1823.219970703125 1110.6700439453125 L 1824.4300537109375 1099.949951171875 L 1819.739990234375 1099.949951171875 L 1818.530029296875 1110.6700439453125 Z" class="cls-40" style="fill: rgb(57, 99, 114);" transform="matrix(0.23626095095233896, 0, 0, 0.23626095095233896, -26.729665044946145, -58.675281660869935)"/><path d="M 1737.8199462890625 1110.6700439453125 L 1742.510009765625 1110.6700439453125 L 1743.7099609375 1099.949951171875 L 1739.02001953125 1099.949951171875 L 1737.8199462890625 1110.6700439453125 Z" class="cls-40" style="fill: rgb(57, 99, 114);" transform="matrix(0.23626095095233896, 0, 0, 0.23626095095233896, -26.729665044946145, -58.675281660869935)"/><path d="M 1830.5899658203125 1045.1700439453125 L 1829.3900146484375 1055.8900146484375 L 1743.97998046875 1055.8900146484375 L 1745.18994140625 1045.1700439453125 L 1830.5899658203125 1045.1700439453125 Z" class="cls-39" style="fill: rgb(67, 116, 137);" transform="matrix(0.23626095095233896, 0, 0, 0.23626095095233896, -26.729665044946145, -58.675281660869935)"/><path d="M 1824.68994140625 1055.8900146484375 L 1829.3900146484375 1055.8900146484375 L 1830.5899658203125 1045.1700439453125 L 1825.9000244140625 1045.1700439453125 L 1824.68994140625 1055.8900146484375 Z" class="cls-40" style="fill: rgb(57, 99, 114);" transform="matrix(0.23626095095233896, 0, 0, 0.23626095095233896, -26.729665044946145, -58.675281660869935)"/><path d="M 1743.97998046875 1055.8900146484375 L 1748.6700439453125 1055.8900146484375 L 1749.8800048828125 1045.1700439453125 L 1745.18994140625 1045.1700439453125 L 1743.97998046875 1055.8900146484375 Z" class="cls-40" style="fill: rgb(57, 99, 114);" transform="matrix(0.23626095095233896, 0, 0, 0.23626095095233896, -26.729665044946145, -58.675281660869935)"/><path d="M 1836.760009765625 990.3900146484375 L 1835.550048828125 1001.1099853515625 L 1750.1400146484375 1001.1099853515625 L 1751.3499755859375 990.3900146484375 L 1836.760009765625 990.3900146484375 Z" class="cls-39" style="fill: rgb(67, 116, 137);" transform="matrix(0.23626095095233896, 0, 0, 0.23626095095233896, -26.729665044946145, -58.675281660869935)"/><path d="M 1830.8599853515625 1001.1099853515625 L 1835.550048828125 1001.1099853515625 L 1836.760009765625 990.3900146484375 L 1832.0699462890625 990.3900146484375 L 1830.8599853515625 1001.1099853515625 Z" class="cls-40" style="fill: rgb(57, 99, 114);" transform="matrix(0.23626095095233896, 0, 0, 0.23626095095233896, -26.729665044946145, -58.675281660869935)"/><path d="M 1750.1400146484375 1001.1099853515625 L 1754.8399658203125 1001.1099853515625 L 1756.0400390625 990.3900146484375 L 1751.3499755859375 990.3900146484375 L 1750.1400146484375 1001.1099853515625 Z" class="cls-40" style="fill: rgb(57, 99, 114);" transform="matrix(0.23626095095233896, 0, 0, 0.23626095095233896, -26.729665044946145, -58.675281660869935)"/><path d="M 1842.9200439453125 935.6099853515625 L 1841.7099609375 946.3300170898438 L 1756.31005859375 946.3300170898438 L 1757.510009765625 935.6099853515625 L 1842.9200439453125 935.6099853515625 Z" class="cls-39" style="fill: rgb(67, 116, 137);" transform="matrix(0.23626095095233896, 0, 0, 0.23626095095233896, -26.729665044946145, -58.675281660869935)"/><path d="M 1756.31005859375 946.3300170898438 L 1761 946.3300170898438 L 1762.2099609375 935.6099853515625 L 1757.510009765625 935.6099853515625 L 1756.31005859375 946.3300170898438 Z" class="cls-40" style="fill: rgb(57, 99, 114);" transform="matrix(0.23626095095233896, 0, 0, 0.23626095095233896, -26.729665044946145, -58.675281660869935)"/><path d="M 1837.02001953125 946.3300170898438 L 1841.7099609375 946.3300170898438 L 1842.9200439453125 935.6099853515625 L 1838.22998046875 935.6099853515625 L 1837.02001953125 946.3300170898438 Z" class="cls-40" style="fill: rgb(57, 99, 114);" transform="matrix(0.23626095095233896, 0, 0, 0.23626095095233896, -26.729665044946145, -58.675281660869935)"/><path d="M 1810.6800537109375 1353.02001953125 L 1760.5999755859375 907.97998046875 L 1749.0899658203125 907.97998046875 L 1799.1600341796875 1353.02001953125 L 1810.6800537109375 1353.02001953125 Z" class="cls-4" style="fill: rgb(55, 94, 112);" transform="matrix(0.23626095095233896, 0, 0, 0.23626095095233896, -26.729665044946145, -58.675281660869935)"/><path d="M 1907.5999755859375 1353.02001953125 L 1857.530029296875 907.97998046875 L 1846.010009765625 907.97998046875 L 1896.0899658203125 1353.02001953125 L 1907.5999755859375 1353.02001953125 Z" class="cls-4" style="fill: rgb(55, 94, 112);" transform="matrix(0.23626095095233896, 0, 0, 0.23626095095233896, -26.729665044946145, -58.675281660869935)"/><path d="M 1806.8599853515625 1319.0799560546875 L 1808.0699462890625 1329.800048828125 L 1893.469970703125 1329.800048828125 L 1892.27001953125 1319.0799560546875 L 1806.8599853515625 1319.0799560546875 Z" class="cls-1" style="fill: rgb(77, 141, 175);" transform="matrix(0.23626095095233896, 0, 0, 0.23626095095233896, -26.729665044946145, -58.675281660869935)"/><path d="M 1812.760009765625 1329.800048828125 L 1808.0699462890625 1329.800048828125 L 1806.8599853515625 1319.0799560546875 L 1811.550048828125 1319.0799560546875 L 1812.760009765625 1329.800048828125 Z" class="cls-13" style="fill: rgb(59, 120, 147);" transform="matrix(0.23626095095233896, 0, 0, 0.23626095095233896, -26.729665044946145, -58.675281660869935)"/><path d="M 1893.469970703125 1329.800048828125 L 1888.780029296875 1329.800048828125 L 1887.5699462890625 1319.0799560546875 L 1892.27001953125 1319.0799560546875 L 1893.469970703125 1329.800048828125 Z" class="cls-13" style="fill: rgb(59, 120, 147);" transform="matrix(0.23626095095233896, 0, 0, 0.23626095095233896, -26.729665044946145, -58.675281660869935)"/><path d="M 1800.68994140625 1264.300048828125 L 1801.9000244140625 1275.010009765625 L 1887.31005859375 1275.010009765625 L 1886.0999755859375 1264.300048828125 L 1800.68994140625 1264.300048828125 Z" class="cls-1" style="fill: rgb(77, 141, 175);" transform="matrix(0.23626095095233896, 0, 0, 0.23626095095233896, -26.729665044946145, -58.675281660869935)"/><path d="M 1806.5899658203125 1275.010009765625 L 1801.9000244140625 1275.010009765625 L 1800.68994140625 1264.300048828125 L 1805.3900146484375 1264.300048828125 L 1806.5899658203125 1275.010009765625 Z" class="cls-13" style="fill: rgb(59, 120, 147);" transform="matrix(0.23626095095233896, 0, 0, 0.23626095095233896, -26.729665044946145, -58.675281660869935)"/><path d="M 1887.31005859375 1275.010009765625 L 1882.6199951171875 1275.010009765625 L 1881.4100341796875 1264.300048828125 L 1886.0999755859375 1264.300048828125 L 1887.31005859375 1275.010009765625 Z" class="cls-13" style="fill: rgb(59, 120, 147);" transform="matrix(0.23626095095233896, 0, 0, 0.23626095095233896, -26.729665044946145, -58.675281660869935)"/><path d="M 1794.530029296875 1209.52001953125 L 1795.739990234375 1220.22998046875 L 1881.1400146484375 1220.22998046875 L 1879.93994140625 1209.52001953125 L 1794.530029296875 1209.52001953125 Z" class="cls-1" style="fill: rgb(77, 141, 175);" transform="matrix(0.23626095095233896, 0, 0, 0.23626095095233896, -26.729665044946145, -58.675281660869935)"/><path d="M 1800.4300537109375 1220.22998046875 L 1795.739990234375 1220.22998046875 L 1794.530029296875 1209.52001953125 L 1799.219970703125 1209.52001953125 L 1800.4300537109375 1220.22998046875 Z" class="cls-13" style="fill: rgb(59, 120, 147);" transform="matrix(0.23626095095233896, 0, 0, 0.23626095095233896, -26.729665044946145, -58.675281660869935)"/><path d="M 1881.1400146484375 1220.22998046875 L 1876.449951171875 1220.22998046875 L 1875.239990234375 1209.52001953125 L 1879.93994140625 1209.52001953125 L 1881.1400146484375 1220.22998046875 Z" class="cls-13" style="fill: rgb(59, 120, 147);" transform="matrix(0.23626095095233896, 0, 0, 0.23626095095233896, -26.729665044946145, -58.675281660869935)"/><path d="M 1788.3699951171875 1154.72998046875 L 1789.5699462890625 1165.449951171875 L 1874.97998046875 1165.449951171875 L 1873.77001953125 1154.72998046875 L 1788.3699951171875 1154.72998046875 Z" class="cls-1" style="fill: rgb(77, 141, 175);" transform="matrix(0.23626095095233896, 0, 0, 0.23626095095233896, -26.729665044946145, -58.675281660869935)"/><path d="M 1794.27001953125 1165.449951171875 L 1789.5699462890625 1165.449951171875 L 1788.3699951171875 1154.72998046875 L 1793.06005859375 1154.72998046875 L 1794.27001953125 1165.449951171875 Z" class="cls-13" style="fill: rgb(59, 120, 147);" transform="matrix(0.23626095095233896, 0, 0, 0.23626095095233896, -26.729665044946145, -58.675281660869935)"/><path d="M 1874.97998046875 1165.449951171875 L 1870.2900390625 1165.449951171875 L 1869.0799560546875 1154.72998046875 L 1873.77001953125 1154.72998046875 L 1874.97998046875 1165.449951171875 Z" class="cls-13" style="fill: rgb(59, 120, 147);" transform="matrix(0.23626095095233896, 0, 0, 0.23626095095233896, -26.729665044946145, -58.675281660869935)"/><path d="M 1782.199951171875 1099.949951171875 L 1783.4100341796875 1110.6700439453125 L 1868.8199462890625 1110.6700439453125 L 1867.6099853515625 1099.949951171875 L 1782.199951171875 1099.949951171875 Z" class="cls-1" style="fill: rgb(77, 141, 175);" transform="matrix(0.23626095095233896, 0, 0, 0.23626095095233896, -26.729665044946145, -58.675281660869935)"/><path d="M 1788.0999755859375 1110.6700439453125 L 1783.4100341796875 1110.6700439453125 L 1782.199951171875 1099.949951171875 L 1786.9000244140625 1099.949951171875 L 1788.0999755859375 1110.6700439453125 Z" class="cls-13" style="fill: rgb(59, 120, 147);" transform="matrix(0.23626095095233896, 0, 0, 0.23626095095233896, -26.729665044946145, -58.675281660869935)"/><path d="M 1868.8199462890625 1110.6700439453125 L 1864.1199951171875 1110.6700439453125 L 1862.9200439453125 1099.949951171875 L 1867.6099853515625 1099.949951171875 L 1868.8199462890625 1110.6700439453125 Z" class="cls-13" style="fill: rgb(59, 120, 147);" transform="matrix(0.23626095095233896, 0, 0, 0.23626095095233896, -26.729665044946145, -58.675281660869935)"/><path d="M 1776.0400390625 1045.1700439453125 L 1777.239990234375 1055.8900146484375 L 1862.6500244140625 1055.8900146484375 L 1861.449951171875 1045.1700439453125 L 1776.0400390625 1045.1700439453125 Z" class="cls-1" style="fill: rgb(77, 141, 175);" transform="matrix(0.23626095095233896, 0, 0, 0.23626095095233896, -26.729665044946145, -58.675281660869935)"/><path d="M 1781.93994140625 1055.8900146484375 L 1777.239990234375 1055.8900146484375 L 1776.0400390625 1045.1700439453125 L 1780.72998046875 1045.1700439453125 L 1781.93994140625 1055.8900146484375 Z" class="cls-13" style="fill: rgb(59, 120, 147);" transform="matrix(0.23626095095233896, 0, 0, 0.23626095095233896, -26.729665044946145, -58.675281660869935)"/><path d="M 1862.6500244140625 1055.8900146484375 L 1857.9599609375 1055.8900146484375 L 1856.75 1045.1700439453125 L 1861.449951171875 1045.1700439453125 L 1862.6500244140625 1055.8900146484375 Z" class="cls-13" style="fill: rgb(59, 120, 147);" transform="matrix(0.23626095095233896, 0, 0, 0.23626095095233896, -26.729665044946145, -58.675281660869935)"/><path d="M 1769.8800048828125 990.3900146484375 L 1771.0799560546875 1001.1099853515625 L 1856.489990234375 1001.1099853515625 L 1855.280029296875 990.3900146484375 L 1769.8800048828125 990.3900146484375 Z" class="cls-1" style="fill: rgb(77, 141, 175);" transform="matrix(0.23626095095233896, 0, 0, 0.23626095095233896, -26.729665044946145, -58.675281660869935)"/><path d="M 1775.77001953125 1001.1099853515625 L 1771.0799560546875 1001.1099853515625 L 1769.8800048828125 990.3900146484375 L 1774.5699462890625 990.3900146484375 L 1775.77001953125 1001.1099853515625 Z" class="cls-13" style="fill: rgb(59, 120, 147);" transform="matrix(0.23626095095233896, 0, 0, 0.23626095095233896, -26.729665044946145, -58.675281660869935)"/><path d="M 1856.489990234375 1001.1099853515625 L 1851.800048828125 1001.1099853515625 L 1850.5899658203125 990.3900146484375 L 1855.280029296875 990.3900146484375 L 1856.489990234375 1001.1099853515625 Z" class="cls-13" style="fill: rgb(59, 120, 147);" transform="matrix(0.23626095095233896, 0, 0, 0.23626095095233896, -26.729665044946145, -58.675281660869935)"/><path d="M 1763.7099609375 935.6099853515625 L 1764.9200439453125 946.3300170898438 L 1850.3199462890625 946.3300170898438 L 1849.1199951171875 935.6099853515625 L 1763.7099609375 935.6099853515625 Z" class="cls-1" style="fill: rgb(77, 141, 175);" transform="matrix(0.23626095095233896, 0, 0, 0.23626095095233896, -26.729665044946145, -58.675281660869935)"/><path d="M 1769.6099853515625 946.3300170898438 L 1764.9200439453125 946.3300170898438 L 1763.7099609375 935.6099853515625 L 1768.4000244140625 935.6099853515625 L 1769.6099853515625 946.3300170898438 Z" class="cls-13" style="fill: rgb(59, 120, 147);" transform="matrix(0.23626095095233896, 0, 0, 0.23626095095233896, -26.729665044946145, -58.675281660869935)"/><path d="M 1850.3199462890625 946.3300170898438 L 1845.6300048828125 946.3300170898438 L 1844.4300537109375 935.6099853515625 L 1849.1199951171875 935.6099853515625 L 1850.3199462890625 946.3300170898438 Z" class="cls-13" style="fill: rgb(59, 120, 147);" transform="matrix(0.23626095095233896, 0, 0, 0.23626095095233896, -26.729665044946145, -58.675281660869935)"/><path d="M 1733.660034 901.859985 H 1872.970032 V 907.969985 H 1733.660034 V 901.859985 Z" class="cls-40" style="fill: rgb(57, 99, 114);" transform="matrix(0.23626095095233896, 0, 0, 0.23626095095233896, -26.729665044946145, -58.675281660869935)"/><path d="M 1733.660034 887.809998 H 1872.970032 V 901.859998 H 1733.660034 V 887.809998 Z" class="cls-39" style="fill: rgb(67, 116, 137);" transform="matrix(0.23626095095233896, 0, 0, 0.23626095095233896, -26.729665044946145, -58.675281660869935)"/><path class="cls-4" d="M1838.22,794.67h-99.94V875.1A12.71,12.71,0,0,0,1751,887.81h74.52a12.71,12.71,0,0,0,12.71-12.71Z" style="fill: rgb(55, 94, 112);" transform="matrix(0.23626095095233896, 0, 0, 0.23626095095233896, -26.729665044946145, -58.675281660869935)"/><path class="cls-1" d="M1764,794.67h-12.57v82.58a6.28,6.28,0,0,0,12.57,0V828.71a6.28,6.28,0,0,1,12.57,0v20a6.28,6.28,0,1,0,12.57,0v-54H1764Z" style="fill: rgb(77, 141, 175);" transform="matrix(0.23626095095233896, 0, 0, 0.23626095095233896, -26.729665044946145, -58.675281660869935)"/><path d="M 1804.399995 813.02002 A 6.28 6.28 0 0 1 1798.119995 819.30002 A 6.28 6.28 0 0 1 1791.839995 813.02002 A 6.28 6.28 0 0 1 1798.119995 806.740019 A 6.28 6.28 0 0 1 1804.399995 813.02002 Z" class="cls-1" style="fill: rgb(77, 141, 175);" transform="matrix(0.23626095095233896, 0, 0, 0.23626095095233896, -26.729665044946145, -58.675281660869935)"/><path class="cls-41" d="M1788.25,851.31c-15.07,0-29.16-4.53-39.67-12.75-12.08-9.44-18.46-22.87-18.46-38.85a4.07,4.07,0,0,1,8.14,0c0,29.86,25.92,43.46,50,43.46s50-13.6,50-43.46a4.07,4.07,0,0,1,8.14,0c0,16-6.38,29.42-18.46,38.85C1817.41,846.78,1803.32,851.31,1788.25,851.31Z" style="fill: rgb(36, 73, 86);" transform="matrix(0.23626095095233896, 0, 0, 0.23626095095233896, -26.729665044946145, -58.675281660869935)"/><path class="cls-4" d="M1742.11,1259.35H1641.6v77.6a16.08,16.08,0,0,0,16.08,16.08H1726a16.08,16.08,0,0,0,16.08-16.08Z" style="fill: rgb(55, 94, 112);" transform="matrix(0.23626095095233896, 0, 0, 0.23626095095233896, -26.729665044946145, -58.675281660869935)"/><path d="M 1641.930034 1240.890015 H 1741.780034 A 5.52 5.52 0 0 1 1747.300034 1246.410015 V 1253.830014 A 5.52 5.52 0 0 1 1741.780034 1259.350014 H 1641.930034 A 5.52 5.52 0 0 1 1636.410034 1253.830014 V 1246.410015 A 5.52 5.52 0 0 1 1641.930034 1240.890015 Z" class="cls-1" style="fill: rgb(77, 141, 175);" transform="matrix(0.23626095095233896, 0, 0, 0.23626095095233896, -26.729665044946145, -58.675281660869935)"/><path class="cls-41" d="M1691.86,1316.31c-15.15,0-29.32-4.55-39.9-12.82-12.14-9.49-18.56-23-18.56-39.07a4.09,4.09,0,1,1,8.18,0c0,30,26.06,43.71,50.28,43.71s50.28-13.68,50.28-43.71a4.09,4.09,0,1,1,8.18,0c0,16.07-6.42,29.58-18.56,39.07C1721.18,1311.76,1707,1316.31,1691.86,1316.31Z" style="fill: rgb(36, 73, 86);" transform="matrix(0.23626095095233896, 0, 0, 0.23626095095233896, -26.729665044946145, -58.675281660869935)"/><path class="cls-4" d="M1742.11,1147.22H1641.6v77.6a16.08,16.08,0,0,0,16.08,16.08H1726a16.08,16.08,0,0,0,16.08-16.08Z" style="fill: rgb(55, 94, 112);" transform="matrix(0.23626095095233896, 0, 0, 0.23626095095233896, -26.729665044946145, -58.675281660869935)"/><path d="M 1641.930034 1128.76001 H 1741.780034 A 5.52 5.52 0 0 1 1747.300034 1134.28001 V 1141.700009 A 5.52 5.52 0 0 1 1741.780034 1147.220009 H 1641.930034 A 5.52 5.52 0 0 1 1636.410034 1141.700009 V 1134.28001 A 5.52 5.52 0 0 1 1641.930034 1128.76001 Z" class="cls-1" style="fill: rgb(77, 141, 175);" transform="matrix(0.23626095095233896, 0, 0, 0.23626095095233896, -26.729665044946145, -58.675281660869935)"/><path class="cls-41" d="M1691.86,1204.18c-15.15,0-29.32-4.55-39.9-12.82-12.14-9.49-18.56-23-18.56-39.07a4.09,4.09,0,0,1,8.18,0c0,30,26.06,43.71,50.28,43.71s50.28-13.68,50.28-43.71a4.09,4.09,0,0,1,8.18,0c0,16.07-6.42,29.58-18.56,39.07C1721.18,1199.63,1707,1204.18,1691.86,1204.18Z" style="fill: rgb(36, 73, 86);" transform="matrix(0.23626095095233896, 0, 0, 0.23626095095233896, -26.729665044946145, -58.675281660869935)"/><g id="_Group_18" data-name="&lt;Group&gt;" transform="matrix(0.23626095095233896, 0, 0, 0.23626095095233896, -26.729665044946145, -58.675281660869935)"><path d="M 1423.540039 1181.219971 H 1595.340042 V 1353.019974 H 1423.540039 V 1181.219971 Z" id="_Path_47" data-name="&lt;Path&gt;" class="cls-42" style="fill: rgb(242, 195, 99);"/><path d="M 1423.540039 1334.099976 H 1595.340042 V 1353.019976 H 1423.540039 V 1334.099976 Z" id="_Path_48" data-name="&lt;Path&gt;" class="cls-43" style="fill: rgb(225, 176, 97);"/><path d="M 1560.640015 1189.109985 H 1587.430016 V 1215.899986 H 1560.640015 V 1189.109985 Z" id="_Path_49" data-name="&lt;Path&gt;" class="cls-7" style="fill: rgb(202, 32, 38);"/><path id="_Path_50" data-name="&lt;Path&gt;" class="cls-8" d="M1576.54,1193.84l-1.2,2.66h2l-2.31,4,.75-2.91h-1.46l.49-3.79h-7.57v3.85a6.8,6.8,0,0,0,6.49,6.79l-.38,5.34H1570a.5.5,0,1,0,0,1h8.34a.5.5,0,1,0,0-1h-3.31l-.38-5.36a6.8,6.8,0,0,0,6.15-6.77v-3.85Z" style="fill: rgb(242, 221, 195);"/></g><path class="cls-4" d="M1622.19,1259.35H1521.69v77.6a16.08,16.08,0,0,0,16.08,16.08h68.36a16.08,16.08,0,0,0,16.08-16.08Z" style="fill: rgb(55, 94, 112);" transform="matrix(0.23626095095233896, 0, 0, 0.23626095095233896, -26.729665044946145, -58.675281660869935)"/><path d="M 1522.02 1240.890015 H 1621.869999 A 5.52 5.52 0 0 1 1627.389999 1246.410015 V 1253.830014 A 5.52 5.52 0 0 1 1621.869999 1259.350014 H 1522.02 A 5.52 5.52 0 0 1 1516.5 1253.830014 V 1246.410015 A 5.52 5.52 0 0 1 1522.02 1240.890015 Z" class="cls-1" style="fill: rgb(77, 141, 175);" transform="matrix(0.23626095095233896, 0, 0, 0.23626095095233896, -26.729665044946145, -58.675281660869935)"/><path class="cls-41" d="M1571.94,1316.31c-15.15,0-29.32-4.55-39.9-12.82-12.14-9.49-18.56-23-18.56-39.07a4.09,4.09,0,1,1,8.18,0c0,30,26.06,43.71,50.28,43.71s50.28-13.68,50.28-43.71a4.09,4.09,0,1,1,8.18,0c0,16.07-6.42,29.58-18.56,39.07C1601.26,1311.76,1587.09,1316.31,1571.94,1316.31Z" style="fill: rgb(36, 73, 86);" transform="matrix(0.23626095095233896, 0, 0, 0.23626095095233896, -26.729665044946145, -58.675281660869935)"/><path d="M 952.890015 1163.97998 H 1100.820007 V 1353.019974 H 952.890015 V 1163.97998 Z" class="cls-13" style="fill: rgb(59, 120, 147);" transform="matrix(0.23626095095233896, 0, 0, 0.23626095095233896, -26.729665044946145, -58.675281660869935)"/><path d="M 952.860024 1163.97998 H 1099.630027 A 5.71 5.71 0 0 1 1105.340027 1169.689981 V 1178.789981 A 5.71 5.71 0 0 1 1099.630027 1184.499981 H 952.860024 A 5.71 5.71 0 0 1 947.150024 1178.789981 V 1169.689981 A 5.71 5.71 0 0 1 952.860024 1163.97998 Z" class="cls-4" style="fill: rgb(55, 94, 112);" transform="matrix(0.23626095095233896, 0, 0, 0.23626095095233896, -26.729665044946145, -58.675281660869935)"/><path d="M 952.860024 1332.5 H 1099.630027 A 5.71 5.71 0 0 1 1105.340027 1338.21 V 1347.31 A 5.71 5.71 0 0 1 1099.630027 1353.02 H 952.860024 A 5.71 5.71 0 0 1 947.150024 1347.31 V 1338.21 A 5.71 5.71 0 0 1 952.860024 1332.5 Z" class="cls-4" style="fill: rgb(55, 94, 112);" transform="matrix(0.23626095095233896, 0, 0, 0.23626095095233896, -26.729665044946145, -58.675281660869935)"/><path d="M 952.860024 1276.609985 H 1099.630027 A 5.71 5.71 0 0 1 1105.340027 1282.319985 V 1291.419986 A 5.71 5.71 0 0 1 1099.630027 1297.129986 H 952.860024 A 5.71 5.71 0 0 1 947.150024 1291.419986 V 1282.319985 A 5.71 5.71 0 0 1 952.860024 1276.609985 Z" class="cls-4" style="fill: rgb(55, 94, 112);" transform="matrix(0.23626095095233896, 0, 0, 0.23626095095233896, -26.729665044946145, -58.675281660869935)"/><path d="M 952.860024 1219.880005 H 1099.630027 A 5.71 5.71 0 0 1 1105.340027 1225.590005 V 1234.690005 A 5.71 5.71 0 0 1 1099.630027 1240.400005 H 952.860024 A 5.71 5.71 0 0 1 947.150024 1234.690005 V 1225.590005 A 5.71 5.71 0 0 1 952.860024 1219.880005 Z" class="cls-4" style="fill: rgb(55, 94, 112);" transform="matrix(0.23626095095233896, 0, 0, 0.23626095095233896, -26.729665044946145, -58.675281660869935)"/><path d="M 1913.349976 489.709991 H 1930.479975 V 564.439995 H 1913.349976 V 489.709991 Z" class="cls-27" style="fill: rgb(53, 74, 97);" transform="matrix(0.23626095095233896, 0, 0, 0.23626095095233896, -26.729665044946145, -58.675281660869935)"/><path d="M 1985.660034 489.709991 H 2002.790033 V 564.439995 H 1985.660034 V 489.709991 Z" class="cls-27" style="fill: rgb(53, 74, 97);" transform="matrix(0.23626095095233896, 0, 0, 0.23626095095233896, -26.729665044946145, -58.675281660869935)"/><path d="M 1904.890019 366.380005 H 2013.970019 A 7.12 7.12 0 0 1 2021.090019 373.500005 V 482.580005 A 7.12 7.12 0 0 1 2013.970019 489.700005 H 1904.890019 A 7.12 7.12 0 0 1 1897.77002 482.580005 V 373.500005 A 7.12 7.12 0 0 1 1904.890019 366.380005 Z" class="cls-4" style="fill: rgb(55, 94, 112);" transform="matrix(0.23626095095233896, 0, 0, 0.23626095095233896, -26.729665044946145, -58.675281660869935)"/><g id="_Group_19" data-name="&lt;Group&gt;" transform="matrix(0.23626095095233896, 0, 0, 0.23626095095233896, -26.729665044946145, -58.675281660869935)"><path d="M 519.9600219726562 1289.0999755859375 L 386.6700134277344 1289.0999755859375 L 412.67999267578125 1352.489990234375 L 493.95001220703125 1352.489990234375 L 519.9600219726562 1289.0999755859375 Z" id="_Path_51" data-name="&lt;Path&gt;" class="cls-14" style="fill: rgb(191, 176, 169);"/><path d="M 381.829987 1275.939941 H 524.799988 A 4.5 4.5 0 0 1 529.299988 1280.439941 V 1284.599941 A 4.5 4.5 0 0 1 524.799988 1289.099941 H 381.829987 A 4.5 4.5 0 0 1 377.329987 1284.599941 V 1280.439941 A 4.5 4.5 0 0 1 381.829987 1275.939941 Z" id="_Path_52" data-name="&lt;Path&gt;" class="cls-15" style="fill: rgb(215, 193, 185);"/><path d="M 447.720001 1228.560059 H 458.920001 V 1275.94006 H 447.720001 V 1228.560059 Z" id="_Path_53" data-name="&lt;Path&gt;" class="cls-16" style="fill: rgb(215, 103, 41);"/><path d="M 447.720001 1228.560059 H 452.320001 V 1275.94006 H 447.720001 V 1228.560059 Z" id="_Path_54" data-name="&lt;Path&gt;" class="cls-17" style="fill: rgb(193, 90, 40);"/><path d="M 517.640007 1176.73999 A 64.32 64.32 0 0 1 453.320007 1241.05999 A 64.32 64.32 0 0 1 389.000008 1176.73999 A 64.32 64.32 0 0 1 453.320007 1112.419991 A 64.32 64.32 0 0 1 517.640007 1176.73999 Z" id="_Path_55" data-name="&lt;Path&gt;" class="cls-18" style="fill: rgb(124, 177, 80);"/><path id="_Path_56" data-name="&lt;Path&gt;" class="cls-19" d="M453.32,1112.42a64,64,0,0,0-35.84,10.91,64.32,64.32,0,0,0,85.46,94.32,64.32,64.32,0,0,0-49.62-105.23Z" style="fill: rgb(125, 186, 83);"/><path d="M 452.220009 1201.650024 A 21.68 21.68 0 0 1 430.540009 1223.330025 A 21.68 21.68 0 0 1 408.860008 1201.650024 A 21.68 21.68 0 0 1 430.540009 1179.970024 A 21.68 21.68 0 0 1 452.220009 1201.650024 Z" id="_Path_57" data-name="&lt;Path&gt;" class="cls-20" style="fill: rgb(116, 167, 73);"/><path d="M 519.9600219726562 1289.0999755859375 L 390.2099914550781 1297.719970703125 L 386.6700134277344 1289.0999755859375 L 519.9600219726562 1289.0999755859375 Z" id="_Path_58" data-name="&lt;Path&gt;" class="cls-21" style="fill: rgb(178, 164, 161);"/></g></svg>