<?xml version="1.0" encoding="utf-8"?>
<svg id="master-artboard" viewBox="0 0 241.5216827392578 209.26876831054688" version="1.1" xmlns="http://www.w3.org/2000/svg" x="0px" y="0px" width="241.5216827392578px" height="209.26876831054688px" enable-background="new 0 0 2340 1560"><rect id="ee-background" x="0" y="0" width="241.5216827392578" height="209.26876831054688" style="fill: rgb(45, 83, 98); fill-opacity: 0; pointer-events: none;"/>
<metadata><!--?xpacket begin="﻿" id="W5M0MpCehiHzreSzNTczkc9d"?-->

                                                                                                    
                                                                                                    
                                                                                                    
                                                                                                    
                                                                                                    
                                                                                                    
                                                                                                    
                                                                                                    
                                                                                                    
                                                                                                    
                                                                                                    
                                                                                                    
                                                                                                    
                                                                                                    
                                                                                                    
                                                                                                    
                                                                                                    
                                                                                                    
                                                                                                    
                                                                                                    
                           
<!--?xpacket end="w"?-->
	</metadata>


<path fill="#36255F" d="M 1388.624 672.938 C 1388.624 667.759 1384.498 662.672 1379.428 661.614 L 1362.0690000000002 657.952 C 1357.0280000000002 656.894 1351.9810000000002 651.899 1350.9060000000002 646.864 L 1346.593 630.659 C 1345.0130000000001 625.745 1346.867 618.895 1350.7060000000001 615.457 L 1363.9050000000002 603.6419999999999 C 1367.746 600.1859999999999 1368.7920000000001 593.7199999999999 1366.2000000000003 589.246 L 1352.4620000000002 565.461 C 1349.8940000000002 560.976 1343.7720000000002 558.652 1338.851 560.255 L 1322.0110000000002 565.771 C 1317.1030000000003 567.3729999999999 1310.2470000000003 565.564 1306.7810000000002 561.7489999999999 L 1294.93 549.8979999999999 C 1291.097 546.4139999999999 1289.289 539.5589999999999 1290.903 534.6499999999999 L 1296.424 517.8109999999999 C 1298.027 512.9079999999999 1295.686 506.76699999999994 1291.201 504.1929999999999 L 1267.432 490.4609999999999 C 1262.952 487.8859999999999 1256.474 488.9159999999999 1253.018 492.7559999999999 L 1241.22 505.9559999999999 C 1237.7640000000001 509.7949999999999 1230.915 511.6659999999999 1226 510.0689999999999 L 1209.796 505.7719999999999 C 1204.761 504.6729999999999 1199.766 499.64999999999986 1198.707 494.59199999999987 L 1195.0610000000001 477.2259999999999 C 1193.9920000000002 472.15699999999987 1188.8990000000001 468.03699999999986 1183.7390000000003 468.03699999999986 L 1156.2620000000002 468.03699999999986 C 1151.101 468.03699999999986 1146.0080000000003 472.15699999999987 1144.9560000000001 477.2259999999999 L 1144.63 478.7479999999999 L 1141.294 494.59199999999987 C 1140.241 499.64999999999986 1135.24 504.6729999999999 1130.2050000000002 505.7719999999999 L 1114.0010000000002 510.0689999999999 C 1109.092 511.6659999999999 1102.2370000000003 509.7949999999999 1098.7980000000002 505.9559999999999 L 1086.9660000000001 492.7559999999999 C 1083.528 488.91599999999994 1077.0500000000002 487.8859999999999 1072.5870000000002 490.4609999999999 L 1048.8020000000001 504.19299999999987 C 1044.316 506.7669999999999 1041.976 512.9079999999999 1043.5770000000002 517.8109999999999 L 1049.0980000000002 534.6499999999999 C 1050.7120000000002 539.5589999999999 1048.9040000000002 546.4139999999999 1045.0700000000002 549.8979999999999 L 1033.2200000000003 561.7489999999999 C 1029.7520000000002 565.564 1022.8980000000003 567.3729999999999 1017.9900000000002 565.771 L 1001.1330000000003 560.255 C 996.2300000000002 558.635 990.1080000000003 560.976 987.5160000000003 565.461 L 973.7840000000003 589.246 C 971.2100000000004 593.709 972.2560000000003 600.186 976.0960000000003 603.6419999999999 L 989.2960000000004 615.457 C 993.1230000000004 618.895 994.9880000000004 625.745 993.4100000000004 630.659 L 989.0960000000005 646.864 C 988.0200000000004 651.899 982.9730000000004 656.894 977.9330000000004 657.952 L 960.5670000000005 661.614 C 955.5040000000005 662.667 951.3670000000004 667.76 951.3670000000004 672.921 L 951.3670000000004 700.397 C 951.3670000000004 705.558 955.5040000000004 710.657 960.5670000000005 711.7030000000001 L 977.9330000000004 715.3660000000001 C 982.9730000000004 716.4190000000001 988.0200000000004 721.4190000000001 989.0960000000005 726.4660000000001 L 993.4100000000004 742.6700000000001 C 994.9880000000004 747.5790000000001 993.1230000000004 754.4230000000001 989.2960000000004 757.8610000000001 L 976.0900000000004 769.6940000000001 C 972.2560000000004 773.1320000000001 971.2100000000004 779.6160000000001 973.7840000000003 784.0730000000001 L 987.5160000000003 807.8760000000001 C 990.1080000000003 812.3450000000001 996.2300000000004 814.7020000000001 1001.1330000000003 813.0830000000001 L 1017.9900000000002 807.5670000000001 C 1022.8980000000003 805.9630000000001 1054.6679169921877 782.8568999023439 1058.1349169921878 786.6678999023438 C 1058.1349169921878 786.6678999023438 1030.8550000000002 761.7669999999999 1030.8550000000002 686.651 C 1030.8550000000002 609.813 1093.1590000000003 547.5079999999999 1170.0020000000002 547.5079999999999 C 1174.351 547.5079999999999 1178.6360000000002 547.7769999999999 1182.8760000000002 548.16 C 1253.6770000000001 554.672 1315.9450439453126 618.6899682617187 1315.9450439453126 691.1799682617187 C 1315.9450439453126 718.4669682617188 1388.624 672.938 1388.624 672.938 Z" transform="matrix(0.10874114185571672, -0.04963020980358124, 0.04963020980358124, 0.10874114185571672, -24.683532228418528, 84.36525499051226)" style="fill: rgb(255, 255, 255);"/>
<path class="st7" d="M331.6,67.8h-26.1V94h26.1V67.8z M330.1,92.4H307V69.4h23.1V92.4z" style="fill: rgb(255, 255, 255);" transform="matrix(2.3326733112335205, -2.276738166809082, 2.276738166809082, 2.3326733112335205, -806.1820673846686, 608.9794593972505)"/><path fill="#36255F" d="M 1388.624 672.938 C 1388.624 667.759 1384.498 662.672 1379.428 661.614 L 1362.0690000000002 657.952 C 1357.0280000000002 656.894 1351.9810000000002 651.899 1350.9060000000002 646.864 L 1346.593 630.659 C 1345.0130000000001 625.745 1346.867 618.895 1350.7060000000001 615.457 L 1363.9050000000002 603.6419999999999 C 1367.746 600.1859999999999 1368.7920000000001 593.7199999999999 1366.2000000000003 589.246 L 1352.4620000000002 565.461 C 1349.8940000000002 560.976 1343.7720000000002 558.652 1338.851 560.255 L 1322.0110000000002 565.771 C 1317.1030000000003 567.3729999999999 1310.2470000000003 565.564 1306.7810000000002 561.7489999999999 L 1294.93 549.8979999999999 C 1291.097 546.4139999999999 1289.289 539.5589999999999 1290.903 534.6499999999999 L 1296.424 517.8109999999999 C 1298.027 512.9079999999999 1295.686 506.76699999999994 1291.201 504.1929999999999 L 1267.432 490.4609999999999 C 1262.952 487.8859999999999 1256.474 488.9159999999999 1253.018 492.7559999999999 L 1241.22 505.9559999999999 C 1237.7640000000001 509.7949999999999 1230.915 511.6659999999999 1226 510.0689999999999 L 1209.796 505.7719999999999 C 1204.761 504.6729999999999 1199.766 499.64999999999986 1198.707 494.59199999999987 L 1195.0610000000001 477.2259999999999 C 1193.9920000000002 472.15699999999987 1188.8990000000001 468.03699999999986 1183.7390000000003 468.03699999999986 L 1156.2620000000002 468.03699999999986 C 1151.101 468.03699999999986 1146.0080000000003 472.15699999999987 1144.9560000000001 477.2259999999999 L 1144.63 478.7479999999999 L 1141.294 494.59199999999987 C 1140.241 499.64999999999986 1135.24 504.6729999999999 1130.2050000000002 505.7719999999999 L 1114.0010000000002 510.0689999999999 C 1109.092 511.6659999999999 1102.2370000000003 509.7949999999999 1098.7980000000002 505.9559999999999 L 1086.9660000000001 492.7559999999999 C 1083.528 488.91599999999994 1077.0500000000002 487.8859999999999 1072.5870000000002 490.4609999999999 L 1048.8020000000001 504.19299999999987 C 1044.316 506.7669999999999 1041.976 512.9079999999999 1043.5770000000002 517.8109999999999 L 1049.0980000000002 534.6499999999999 C 1050.7120000000002 539.5589999999999 1048.9040000000002 546.4139999999999 1045.0700000000002 549.8979999999999 L 1033.2200000000003 561.7489999999999 C 1029.7520000000002 565.564 1022.8980000000003 567.3729999999999 1017.9900000000002 565.771 L 1001.1330000000003 560.255 C 996.2300000000002 558.635 990.1080000000003 560.976 987.5160000000003 565.461 L 973.7840000000003 589.246 C 971.2100000000004 593.709 972.2560000000003 600.186 976.0960000000003 603.6419999999999 L 989.2960000000004 615.457 C 993.1230000000004 618.895 994.9880000000004 625.745 993.4100000000004 630.659 L 989.0960000000005 646.864 C 988.0200000000004 651.899 982.9730000000004 656.894 977.9330000000004 657.952 L 960.5670000000005 661.614 C 955.5040000000005 662.667 951.3670000000004 667.76 951.3670000000004 672.921 L 951.3670000000004 700.397 C 951.3670000000004 705.558 955.5040000000004 710.657 960.5670000000005 711.7030000000001 L 977.9330000000004 715.3660000000001 C 982.9730000000004 716.4190000000001 988.0200000000004 721.4190000000001 989.0960000000005 726.4660000000001 L 993.4100000000004 742.6700000000001 C 994.9880000000004 747.5790000000001 993.1230000000004 754.4230000000001 989.2960000000004 757.8610000000001 L 976.0900000000004 769.6940000000001 C 972.2560000000004 773.1320000000001 971.2100000000004 779.6160000000001 973.7840000000003 784.0730000000001 L 987.5160000000003 807.8760000000001 C 990.1080000000003 812.3450000000001 996.2300000000004 814.7020000000001 1001.1330000000003 813.0830000000001 L 1017.9900000000002 807.5670000000001 C 1022.8980000000003 805.9630000000001 1054.6679169921877 782.8568999023439 1058.1349169921878 786.6678999023438 C 1058.1349169921878 786.6678999023438 1030.8550000000002 761.7669999999999 1030.8550000000002 686.651 C 1030.8550000000002 609.813 1093.1590000000003 547.5079999999999 1170.0020000000002 547.5079999999999 C 1174.351 547.5079999999999 1178.6360000000002 547.7769999999999 1182.8760000000002 548.16 C 1253.6770000000001 554.672 1315.9450439453126 618.6899682617187 1315.9450439453126 691.1799682617187 C 1315.9450439453126 718.4669682617188 1388.624 672.938 1388.624 672.938 Z" transform="matrix(-0.12039699405431746, 0.054822068661451326, -0.054822068661451326, -0.12039699405431746, 282.9622502422844, 62.60637437527785)" style="fill: rgb(255, 255, 255);"/><defs><style id="ee-google-fonts">@import url(https://fonts.googleapis.com/css?family=Abel:400);</style></defs><path d="M 179.9822998046875 367.58489990234375 L 179.9822998046875 356.0649108886719 L 179.87229919433594 356.784912109375 L 175.9722900390625 367.58489990234375 L 175.17230224609375 367.58489990234375 L 171.24229431152344 356.784912109375 L 171.1422882080078 356.0649108886719 L 171.1422882080078 367.58489990234375 L 169.63229370117188 367.58489990234375 L 169.63229370117188 350.784912109375 L 170.42230224609375 350.784912109375 L 175.51229858398438 364.5649108886719 L 175.5623016357422 365.1849060058594 L 175.61228942871094 364.5649108886719 L 180.69229125976562 350.784912109375 L 181.49229431152344 350.784912109375 L 181.49229431152344 367.58489990234375 L 179.9822998046875 367.58489990234375 ZM 192.26632690429688 367.58489990234375 L 191.46633911132812 366.3848876953125 C 191.13966369628906 366.8182373046875 190.7296600341797 367.1648864746094 190.236328125 367.4248962402344 C 189.7429962158203 367.6849060058594 189.2030029296875 367.8149108886719 188.6163330078125 367.8149108886719 L 188.25633239746094 367.8149108886719 C 187.76966857910156 367.8149108886719 187.31300354003906 367.72491455078125 186.88633728027344 367.5448913574219 C 186.4530029296875 367.3582458496094 186.07632446289062 367.1048889160156 185.75633239746094 366.784912109375 C 185.4363250732422 366.46490478515625 185.1863250732422 366.091552734375 185.00633239746094 365.6648864746094 C 184.81967163085938 365.2315673828125 184.72633361816406 364.77490234375 184.72633361816406 364.2948913574219 L 184.72633361816406 364.1748962402344 C 184.72633361816406 363.688232421875 184.81967163085938 363.2315673828125 185.00633239746094 362.8049011230469 C 185.1863250732422 362.37158203125 185.4363250732422 361.9949035644531 185.75633239746094 361.6748962402344 C 186.07632446289062 361.3548889160156 186.4530029296875 361.1048889160156 186.88633728027344 360.9248962402344 C 187.31300354003906 360.73822021484375 187.76966857910156 360.6448974609375 188.25633239746094 360.6448974609375 L 191.30633544921875 360.6448974609375 L 191.30633544921875 358.7948913574219 C 191.30633544921875 358.50823974609375 191.24966430664062 358.23822021484375 191.13633728027344 357.9848937988281 C 191.0296630859375 357.7315673828125 190.88299560546875 357.50823974609375 190.6963348388672 357.3149108886719 C 190.50965881347656 357.12823486328125 190.2863311767578 356.9815673828125 190.02633666992188 356.8749084472656 C 189.7729949951172 356.7615661621094 189.50299072265625 356.70489501953125 189.21632385253906 356.70489501953125 L 188.37632751464844 356.70489501953125 C 188.08299255371094 356.70489501953125 187.80966186523438 356.7615661621094 187.55633544921875 356.8749084472656 C 187.30299377441406 356.9815673828125 187.08299255371094 357.12823486328125 186.89633178710938 357.3149108886719 C 186.7096710205078 357.50823974609375 186.55966186523438 357.7315673828125 186.4463348388672 357.9848937988281 C 186.33966064453125 358.23822021484375 186.2863311767578 358.50823974609375 186.2863311767578 358.7948913574219 L 186.2863311767578 359.22491455078125 L 184.84632873535156 358.9949035644531 L 184.84632873535156 358.8749084472656 C 184.84632873535156 358.3948974609375 184.9363250732422 357.938232421875 185.1163330078125 357.5049133300781 C 185.30299377441406 357.0782470703125 185.55633544921875 356.70489501953125 185.87632751464844 356.3848876953125 C 186.1963348388672 356.0649108886719 186.56967163085938 355.8115539550781 186.996337890625 355.6249084472656 C 187.42965698242188 355.44488525390625 187.88966369628906 355.3548889160156 188.37632751464844 355.3548889160156 L 189.21632385253906 355.3548889160156 C 189.7030029296875 355.3548889160156 190.15966796875 355.44488525390625 190.58633422851562 355.6249084472656 C 191.01966857910156 355.8115539550781 191.39633178710938 356.0649108886719 191.71633911132812 356.3848876953125 C 192.0363311767578 356.70489501953125 192.2863311767578 357.0782470703125 192.46633911132812 357.5049133300781 C 192.6529998779297 357.938232421875 192.746337890625 358.3948974609375 192.746337890625 358.8749084472656 L 192.746337890625 367.58489990234375 L 192.26632690429688 367.58489990234375 M 191.30633544921875 361.77490234375 L 188.25633239746094 361.77490234375 C 187.96966552734375 361.77490234375 187.6963348388672 361.8282470703125 187.4363250732422 361.9349060058594 C 187.18299865722656 362.0482177734375 186.96299743652344 362.1982421875 186.77633666992188 362.3848876953125 C 186.58966064453125 362.5782470703125 186.4429931640625 362.80157470703125 186.33633422851562 363.0549011230469 C 186.22299194335938 363.3082275390625 186.1663360595703 363.5815734863281 186.1663360595703 363.8749084472656 L 186.1663360595703 364.3749084472656 C 186.1663360595703 364.66156005859375 186.22299194335938 364.93157958984375 186.33633422851562 365.1849060058594 C 186.4429931640625 365.438232421875 186.58966064453125 365.66156005859375 186.77633666992188 365.8548889160156 C 186.96299743652344 366.04156494140625 187.18299865722656 366.188232421875 187.4363250732422 366.2948913574219 C 187.6963348388672 366.4015808105469 187.96966552734375 366.45489501953125 188.25633239746094 366.45489501953125 L 189.21632385253906 366.45489501953125 C 189.50299072265625 366.45489501953125 189.7729949951172 366.4015808105469 190.02633666992188 366.2948913574219 C 190.2863311767578 366.188232421875 190.50965881347656 366.04156494140625 190.6963348388672 365.8548889160156 C 190.88299560546875 365.66156005859375 191.0296630859375 365.438232421875 191.13633728027344 365.1849060058594 C 191.24966430664062 364.93157958984375 191.30633544921875 364.66156005859375 191.30633544921875 364.3749084472656 L 191.30633544921875 361.77490234375 ZM 195.8674774169922 352.70489501953125 L 195.8674774169922 350.784912109375 L 197.54747009277344 350.784912109375 L 197.54747009277344 352.70489501953125 L 195.8674774169922 352.70489501953125 M 195.9874725341797 367.58489990234375 L 195.9874725341797 355.58489990234375 L 197.42747497558594 355.58489990234375 L 197.42747497558594 367.58489990234375 L 195.9874725341797 367.58489990234375 ZM 207.37257385253906 367.58489990234375 L 207.37257385253906 358.7948913574219 C 207.37257385253906 358.50823974609375 207.31590270996094 358.23822021484375 207.20257568359375 357.9848937988281 C 207.0959014892578 357.7315673828125 206.94923400878906 357.50823974609375 206.7625732421875 357.3149108886719 C 206.57589721679688 357.12823486328125 206.35256958007812 356.9815673828125 206.0925750732422 356.8749084472656 C 205.8392333984375 356.7615661621094 205.56922912597656 356.70489501953125 205.28256225585938 356.70489501953125 L 204.32257080078125 356.70489501953125 C 204.03590393066406 356.70489501953125 203.7625732421875 356.7615661621094 203.5025634765625 356.8749084472656 C 203.24923706054688 356.9815673828125 203.02923583984375 357.12823486328125 202.8425750732422 357.3149108886719 C 202.65589904785156 357.50823974609375 202.5092315673828 357.7315673828125 202.40257263183594 357.9848937988281 C 202.2892303466797 358.23822021484375 202.23257446289062 358.50823974609375 202.23257446289062 358.7948913574219 L 202.23257446289062 367.58489990234375 L 200.79257202148438 367.58489990234375 L 200.79257202148438 355.58489990234375 L 201.27256774902344 355.58489990234375 L 202.0625762939453 356.8049011230469 C 202.3892364501953 356.3582458496094 202.7992401123047 356.0049133300781 203.29257202148438 355.7449035644531 C 203.79257202148438 355.4848937988281 204.33590698242188 355.3548889160156 204.92257690429688 355.3548889160156 L 205.28256225585938 355.3548889160156 C 205.7692413330078 355.3548889160156 206.2259063720703 355.44488525390625 206.65257263183594 355.6249084472656 C 207.08590698242188 355.8115539550781 207.4625701904297 356.0649108886719 207.78256225585938 356.3848876953125 C 208.10256958007812 356.70489501953125 208.35256958007812 357.0782470703125 208.53256225585938 357.5049133300781 C 208.71923828125 357.938232421875 208.8125762939453 358.3948974609375 208.8125762939453 358.8749084472656 L 208.8125762939453 367.58489990234375 L 207.37257385253906 367.58489990234375 ZM 216.25088500976562 352.22491455078125 L 216.25088500976562 367.58489990234375 L 214.7408905029297 367.58489990234375 L 214.7408905029297 352.22491455078125 L 210.7308807373047 352.22491455078125 L 210.7308807373047 350.784912109375 L 220.26087951660156 350.784912109375 L 220.26087951660156 352.22491455078125 L 216.25088500976562 352.22491455078125 ZM 229.7185821533203 364.2948913574219 C 229.7185821533203 364.77490234375 229.625244140625 365.2315673828125 229.43856811523438 365.6648864746094 C 229.25857543945312 366.091552734375 229.00857543945312 366.46490478515625 228.68856811523438 366.784912109375 C 228.3685760498047 367.1048889160156 227.99191284179688 367.3582458496094 227.55857849121094 367.5448913574219 C 227.1319122314453 367.72491455078125 226.6752471923828 367.8149108886719 226.18856811523438 367.8149108886719 L 225.22857666015625 367.8149108886719 C 224.74191284179688 367.8149108886719 224.28524780273438 367.72491455078125 223.85858154296875 367.5448913574219 C 223.4252471923828 367.3582458496094 223.04856872558594 367.1048889160156 222.72857666015625 366.784912109375 C 222.4085693359375 366.46490478515625 222.1585693359375 366.091552734375 221.97857666015625 365.6648864746094 C 221.7919158935547 365.2315673828125 221.69857788085938 364.77490234375 221.69857788085938 364.2948913574219 L 221.69857788085938 358.8749084472656 C 221.69857788085938 358.3948974609375 221.7919158935547 357.938232421875 221.97857666015625 357.5049133300781 C 222.1585693359375 357.0782470703125 222.4085693359375 356.70489501953125 222.72857666015625 356.3848876953125 C 223.04856872558594 356.0649108886719 223.4252471923828 355.8115539550781 223.85858154296875 355.6249084472656 C 224.28524780273438 355.44488525390625 224.74191284179688 355.3548889160156 225.22857666015625 355.3548889160156 L 226.18856811523438 355.3548889160156 C 226.6752471923828 355.3548889160156 227.1319122314453 355.44488525390625 227.55857849121094 355.6249084472656 C 227.99191284179688 355.8115539550781 228.3685760498047 356.0649108886719 228.68856811523438 356.3848876953125 C 229.00857543945312 356.70489501953125 229.25857543945312 357.0782470703125 229.43856811523438 357.5049133300781 C 229.625244140625 357.938232421875 229.7185821533203 358.3948974609375 229.7185821533203 358.8749084472656 L 229.7185821533203 364.2948913574219 L 229.7185821533203 364.2948913574219 M 228.27857971191406 358.7948913574219 C 228.27857971191406 358.50823974609375 228.22190856933594 358.23822021484375 228.10858154296875 357.9848937988281 C 228.0019073486328 357.7315673828125 227.85523986816406 357.50823974609375 227.6685791015625 357.3149108886719 C 227.48190307617188 357.12823486328125 227.25857543945312 356.9815673828125 226.9985809326172 356.8749084472656 C 226.7452392578125 356.7615661621094 226.47523498535156 356.70489501953125 226.18856811523438 356.70489501953125 L 225.22857666015625 356.70489501953125 C 224.94190979003906 356.70489501953125 224.6685791015625 356.7615661621094 224.4085693359375 356.8749084472656 C 224.15524291992188 356.9815673828125 223.93524169921875 357.12823486328125 223.7485809326172 357.3149108886719 C 223.56190490722656 357.50823974609375 223.4152374267578 357.7315673828125 223.30857849121094 357.9848937988281 C 223.1952362060547 358.23822021484375 223.13858032226562 358.50823974609375 223.13858032226562 358.7948913574219 L 223.13858032226562 364.3749084472656 C 223.13858032226562 364.66156005859375 223.1952362060547 364.93157958984375 223.30857849121094 365.1849060058594 C 223.4152374267578 365.438232421875 223.56190490722656 365.66156005859375 223.7485809326172 365.8548889160156 C 223.93524169921875 366.04156494140625 224.15524291992188 366.188232421875 224.4085693359375 366.2948913574219 C 224.6685791015625 366.4015808105469 224.94190979003906 366.45489501953125 225.22857666015625 366.45489501953125 L 226.18856811523438 366.45489501953125 C 226.47523498535156 366.45489501953125 226.7452392578125 366.4015808105469 226.9985809326172 366.2948913574219 C 227.25857543945312 366.188232421875 227.48190307617188 366.04156494140625 227.6685791015625 365.8548889160156 C 227.85523986816406 365.66156005859375 228.0019073486328 365.438232421875 228.10858154296875 365.1849060058594 C 228.22190856933594 364.93157958984375 228.27857971191406 364.66156005859375 228.27857971191406 364.3749084472656 L 228.27857971191406 358.7948913574219 ZM 241.80642700195312 363.69488525390625 C 241.80642700195312 364.2615661621094 241.6997528076172 364.7948913574219 241.48641967773438 365.2948913574219 C 241.27308654785156 365.7948913574219 240.97975158691406 366.2348937988281 240.60641479492188 366.6148986816406 C 240.22642517089844 366.98822021484375 239.7864227294922 367.28155517578125 239.2864227294922 367.4949035644531 C 238.7864227294922 367.7082214355469 238.25308227539062 367.8149108886719 237.68641662597656 367.8149108886719 L 236.48641967773438 367.8149108886719 C 235.9197540283203 367.8149108886719 235.38308715820312 367.7082214355469 234.8764190673828 367.4949035644531 C 234.3764190673828 367.28155517578125 233.93641662597656 366.98822021484375 233.55642700195312 366.6148986816406 C 233.18309020996094 366.2348937988281 232.88975524902344 365.7948913574219 232.67642211914062 365.2948913574219 C 232.4630889892578 364.7948913574219 232.35641479492188 364.2615661621094 232.35641479492188 363.69488525390625 L 232.35641479492188 350.784912109375 L 233.86642456054688 350.784912109375 L 233.86642456054688 363.69488525390625 C 233.86642456054688 364.0682373046875 233.93641662597656 364.4182434082031 234.076416015625 364.7449035644531 C 234.21641540527344 365.0649108886719 234.40975952148438 365.3482360839844 234.6564178466797 365.59490966796875 C 234.90309143066406 365.841552734375 235.18641662597656 366.034912109375 235.5064239501953 366.1748962402344 C 235.8330841064453 366.3149108886719 236.18309020996094 366.3848876953125 236.55642700195312 366.3848876953125 L 237.61642456054688 366.3848876953125 C 237.98976135253906 366.3848876953125 238.33975219726562 366.3149108886719 238.6664276123047 366.1748962402344 C 238.98641967773438 366.034912109375 239.26976013183594 365.841552734375 239.51641845703125 365.59490966796875 C 239.7564239501953 365.3482360839844 239.94642639160156 365.0649108886719 240.08642578125 364.7449035644531 C 240.22642517089844 364.4182434082031 240.29641723632812 364.0682373046875 240.29641723632812 363.69488525390625 L 240.29641723632812 350.784912109375 L 241.80642700195312 350.784912109375 L 241.80642700195312 363.69488525390625 L 241.80642700195312 363.69488525390625 Z" transform="matrix(1.431784987449646, 0, 0, 1.431784987449646, -175.89930725097656, -359.88818359375)" style="fill: rgb(255, 255, 255); white-space: pre; color: rgb(255, 255, 255);"/><path d="M 180.86228942871094 367.30548095703125 L 180.07229614257812 367.30548095703125 L 176.8022918701172 354.66546630859375 L 176.76229858398438 354.0054931640625 L 176.69229125976562 354.66546630859375 L 173.44229125976562 367.30548095703125 L 172.66229248046875 367.30548095703125 L 168.19229125976562 350.5054931640625 L 169.70230102539062 350.5054931640625 L 173.00228881835938 363.2754821777344 L 173.04229736328125 363.8954772949219 L 173.09230041503906 363.2754821777344 L 176.32229614257812 350.5054931640625 L 177.17230224609375 350.5054931640625 L 180.4022979736328 363.2754821777344 L 180.45230102539062 363.8954772949219 L 180.51229858398438 363.2754821777344 L 183.79229736328125 350.5054931640625 L 185.3022918701172 350.5054931640625 L 180.86228942871094 367.30548095703125 ZM 195.0714569091797 364.0154724121094 C 195.0714569091797 364.4954833984375 194.97811889648438 364.9521484375 194.79144287109375 365.3854675292969 C 194.6114501953125 365.8121337890625 194.3614501953125 366.18548583984375 194.04144287109375 366.5054931640625 C 193.72145080566406 366.8254699707031 193.34478759765625 367.0788269042969 192.9114532470703 367.2654724121094 C 192.4847869873047 367.44549560546875 192.0281219482422 367.5354919433594 191.54144287109375 367.5354919433594 L 190.58145141601562 367.5354919433594 C 190.09478759765625 367.5354919433594 189.63812255859375 367.44549560546875 189.21145629882812 367.2654724121094 C 188.7781219482422 367.0788269042969 188.4014434814453 366.8254699707031 188.08145141601562 366.5054931640625 C 187.76144409179688 366.18548583984375 187.51144409179688 365.8121337890625 187.33145141601562 365.3854675292969 C 187.14479064941406 364.9521484375 187.05145263671875 364.4954833984375 187.05145263671875 364.0154724121094 L 187.05145263671875 358.5954895019531 C 187.05145263671875 358.115478515625 187.14479064941406 357.6588134765625 187.33145141601562 357.2254943847656 C 187.51144409179688 356.798828125 187.76144409179688 356.42547607421875 188.08145141601562 356.10546875 C 188.4014434814453 355.7854919433594 188.7781219482422 355.5321350097656 189.21145629882812 355.3454895019531 C 189.63812255859375 355.16546630859375 190.09478759765625 355.0754699707031 190.58145141601562 355.0754699707031 L 191.54144287109375 355.0754699707031 C 192.0281219482422 355.0754699707031 192.4847869873047 355.16546630859375 192.9114532470703 355.3454895019531 C 193.34478759765625 355.5321350097656 193.72145080566406 355.7854919433594 194.04144287109375 356.10546875 C 194.3614501953125 356.42547607421875 194.6114501953125 356.798828125 194.79144287109375 357.2254943847656 C 194.97811889648438 357.6588134765625 195.0714569091797 358.115478515625 195.0714569091797 358.5954895019531 L 195.0714569091797 361.42547607421875 L 188.491455078125 361.42547607421875 L 188.491455078125 364.0954895019531 C 188.491455078125 364.38214111328125 188.54811096191406 364.65216064453125 188.6614532470703 364.9054870605469 C 188.7681121826172 365.1588134765625 188.91477966308594 365.38214111328125 189.10145568847656 365.5754699707031 C 189.28811645507812 365.76214599609375 189.50811767578125 365.9088134765625 189.76144409179688 366.0154724121094 C 190.02145385742188 366.1221618652344 190.29478454589844 366.17547607421875 190.58145141601562 366.17547607421875 L 191.54144287109375 366.17547607421875 C 191.82810974121094 366.17547607421875 192.09811401367188 366.1221618652344 192.35145568847656 366.0154724121094 C 192.6114501953125 365.9088134765625 192.83477783203125 365.76214599609375 193.02145385742188 365.5754699707031 C 193.20811462402344 365.38214111328125 193.3547821044922 365.1588134765625 193.46145629882812 364.9054870605469 C 193.5747833251953 364.65216064453125 193.63145446777344 364.38214111328125 193.63145446777344 364.0954895019531 L 193.63145446777344 363.29547119140625 L 195.0714569091797 363.5354919433594 L 195.0714569091797 364.0154724121094 L 195.0714569091797 364.0154724121094 M 193.63145446777344 358.5154724121094 C 193.63145446777344 358.22882080078125 193.5747833251953 357.95880126953125 193.46145629882812 357.7054748535156 C 193.3547821044922 357.4521484375 193.20811462402344 357.22882080078125 193.02145385742188 357.0354919433594 C 192.83477783203125 356.84881591796875 192.6114501953125 356.7021484375 192.35145568847656 356.5954895019531 C 192.09811401367188 356.4821472167969 191.82810974121094 356.42547607421875 191.54144287109375 356.42547607421875 L 190.58145141601562 356.42547607421875 C 190.29478454589844 356.42547607421875 190.02145385742188 356.4821472167969 189.76144409179688 356.5954895019531 C 189.50811767578125 356.7021484375 189.28811645507812 356.84881591796875 189.10145568847656 357.0354919433594 C 188.91477966308594 357.22882080078125 188.7681121826172 357.4521484375 188.6614532470703 357.7054748535156 C 188.54811096191406 357.95880126953125 188.491455078125 358.22882080078125 188.491455078125 358.5154724121094 L 188.491455078125 360.29547119140625 L 193.63145446777344 360.29547119140625 L 193.63145446777344 358.5154724121094 ZM 214.12838745117188 367.30548095703125 L 214.12838745117188 355.7854919433594 L 214.0183868408203 356.5054931640625 L 210.11837768554688 367.30548095703125 L 209.31838989257812 367.30548095703125 L 205.3883819580078 356.5054931640625 L 205.2883758544922 355.7854919433594 L 205.2883758544922 367.30548095703125 L 203.77838134765625 367.30548095703125 L 203.77838134765625 350.5054931640625 L 204.56838989257812 350.5054931640625 L 209.65838623046875 364.2854919433594 L 209.70838928222656 364.9054870605469 L 209.7583770751953 364.2854919433594 L 214.83837890625 350.5054931640625 L 215.6383819580078 350.5054931640625 L 215.6383819580078 367.30548095703125 L 214.12838745117188 367.30548095703125 ZM 226.41151428222656 367.30548095703125 L 225.61151123046875 366.10546875 C 225.28485107421875 366.538818359375 224.87484741210938 366.8854675292969 224.3815155029297 367.1454772949219 C 223.88818359375 367.4054870605469 223.3481903076172 367.5354919433594 222.7615203857422 367.5354919433594 L 222.40151977539062 367.5354919433594 C 221.91485595703125 367.5354919433594 221.45819091796875 367.44549560546875 221.03152465820312 367.2654724121094 C 220.5981903076172 367.0788269042969 220.2215118408203 366.8254699707031 219.90151977539062 366.5054931640625 C 219.58151245117188 366.18548583984375 219.33151245117188 365.8121337890625 219.15151977539062 365.3854675292969 C 218.96485900878906 364.9521484375 218.87152099609375 364.4954833984375 218.87152099609375 364.0154724121094 L 218.87152099609375 363.8954772949219 C 218.87152099609375 363.4088134765625 218.96485900878906 362.9521484375 219.15151977539062 362.5254821777344 C 219.33151245117188 362.0921630859375 219.58151245117188 361.7154846191406 219.90151977539062 361.3954772949219 C 220.2215118408203 361.0754699707031 220.5981903076172 360.8254699707031 221.03152465820312 360.6454772949219 C 221.45819091796875 360.45880126953125 221.91485595703125 360.365478515625 222.40151977539062 360.365478515625 L 225.45152282714844 360.365478515625 L 225.45152282714844 358.5154724121094 C 225.45152282714844 358.22882080078125 225.3948516845703 357.95880126953125 225.28152465820312 357.7054748535156 C 225.1748504638672 357.4521484375 225.02818298339844 357.22882080078125 224.84152221679688 357.0354919433594 C 224.65484619140625 356.84881591796875 224.4315185546875 356.7021484375 224.17152404785156 356.5954895019531 C 223.91818237304688 356.4821472167969 223.64817810058594 356.42547607421875 223.36151123046875 356.42547607421875 L 222.52151489257812 356.42547607421875 C 222.22817993164062 356.42547607421875 221.95484924316406 356.4821472167969 221.70152282714844 356.5954895019531 C 221.44818115234375 356.7021484375 221.22817993164062 356.84881591796875 221.04151916503906 357.0354919433594 C 220.8548583984375 357.22882080078125 220.70484924316406 357.4521484375 220.59152221679688 357.7054748535156 C 220.48484802246094 357.95880126953125 220.4315185546875 358.22882080078125 220.4315185546875 358.5154724121094 L 220.4315185546875 358.94549560546875 L 218.99151611328125 358.7154846191406 L 218.99151611328125 358.5954895019531 C 218.99151611328125 358.115478515625 219.08151245117188 357.6588134765625 219.2615203857422 357.2254943847656 C 219.44818115234375 356.798828125 219.70152282714844 356.42547607421875 220.02151489257812 356.10546875 C 220.34152221679688 355.7854919433594 220.71485900878906 355.5321350097656 221.1415252685547 355.3454895019531 C 221.57485961914062 355.16546630859375 222.03485107421875 355.0754699707031 222.52151489257812 355.0754699707031 L 223.36151123046875 355.0754699707031 C 223.8481903076172 355.0754699707031 224.3048553466797 355.16546630859375 224.7315216064453 355.3454895019531 C 225.16485595703125 355.5321350097656 225.54151916503906 355.7854919433594 225.86151123046875 356.10546875 C 226.1815185546875 356.42547607421875 226.4315185546875 356.798828125 226.61151123046875 357.2254943847656 C 226.79818725585938 357.6588134765625 226.8915252685547 358.115478515625 226.8915252685547 358.5954895019531 L 226.8915252685547 367.30548095703125 L 226.41151428222656 367.30548095703125 M 225.45152282714844 361.4954833984375 L 222.40151977539062 361.4954833984375 C 222.11485290527344 361.4954833984375 221.84152221679688 361.548828125 221.58151245117188 361.6554870605469 C 221.32818603515625 361.768798828125 221.10818481445312 361.9188232421875 220.92152404785156 362.10546875 C 220.73484802246094 362.298828125 220.5881805419922 362.52215576171875 220.4815216064453 362.7754821777344 C 220.36817932128906 363.02880859375 220.3115234375 363.3021545410156 220.3115234375 363.5954895019531 L 220.3115234375 364.0954895019531 C 220.3115234375 364.38214111328125 220.36817932128906 364.65216064453125 220.4815216064453 364.9054870605469 C 220.5881805419922 365.1588134765625 220.73484802246094 365.38214111328125 220.92152404785156 365.5754699707031 C 221.10818481445312 365.76214599609375 221.32818603515625 365.9088134765625 221.58151245117188 366.0154724121094 C 221.84152221679688 366.1221618652344 222.11485290527344 366.17547607421875 222.40151977539062 366.17547607421875 L 223.36151123046875 366.17547607421875 C 223.64817810058594 366.17547607421875 223.91818237304688 366.1221618652344 224.17152404785156 366.0154724121094 C 224.4315185546875 365.9088134765625 224.65484619140625 365.76214599609375 224.84152221679688 365.5754699707031 C 225.02818298339844 365.38214111328125 225.1748504638672 365.1588134765625 225.28152465820312 364.9054870605469 C 225.3948516845703 364.65216064453125 225.45152282714844 364.38214111328125 225.45152282714844 364.0954895019531 L 225.45152282714844 361.4954833984375 ZM 230.0120391845703 352.42547607421875 L 230.0120391845703 350.5054931640625 L 231.69203186035156 350.5054931640625 L 231.69203186035156 352.42547607421875 L 230.0120391845703 352.42547607421875 M 230.1320343017578 367.30548095703125 L 230.1320343017578 355.30548095703125 L 231.57203674316406 355.30548095703125 L 231.57203674316406 367.30548095703125 L 230.1320343017578 367.30548095703125 ZM 241.51683044433594 367.30548095703125 L 241.51683044433594 358.5154724121094 C 241.51683044433594 358.22882080078125 241.4601593017578 357.95880126953125 241.34683227539062 357.7054748535156 C 241.2401580810547 357.4521484375 241.09349060058594 357.22882080078125 240.90682983398438 357.0354919433594 C 240.72015380859375 356.84881591796875 240.496826171875 356.7021484375 240.23683166503906 356.5954895019531 C 239.98348999023438 356.4821472167969 239.71348571777344 356.42547607421875 239.42681884765625 356.42547607421875 L 238.46682739257812 356.42547607421875 C 238.18016052246094 356.42547607421875 237.90682983398438 356.4821472167969 237.64682006835938 356.5954895019531 C 237.39349365234375 356.7021484375 237.17349243164062 356.84881591796875 236.98683166503906 357.0354919433594 C 236.80015563964844 357.22882080078125 236.6534881591797 357.4521484375 236.5468292236328 357.7054748535156 C 236.43348693847656 357.95880126953125 236.3768310546875 358.22882080078125 236.3768310546875 358.5154724121094 L 236.3768310546875 367.30548095703125 L 234.93682861328125 367.30548095703125 L 234.93682861328125 355.30548095703125 L 235.4168243408203 355.30548095703125 L 236.2068328857422 356.5254821777344 C 236.5334930419922 356.0788269042969 236.94349670410156 355.7254943847656 237.43682861328125 355.4654846191406 C 237.93682861328125 355.2054748535156 238.48016357421875 355.0754699707031 239.06683349609375 355.0754699707031 L 239.42681884765625 355.0754699707031 C 239.9134979248047 355.0754699707031 240.3701629638672 355.16546630859375 240.7968292236328 355.3454895019531 C 241.23016357421875 355.5321350097656 241.60682678222656 355.7854919433594 241.92681884765625 356.10546875 C 242.246826171875 356.42547607421875 242.496826171875 356.798828125 242.67681884765625 357.2254943847656 C 242.86349487304688 357.6588134765625 242.9568328857422 358.115478515625 242.9568328857422 358.5954895019531 L 242.9568328857422 367.30548095703125 L 241.51683044433594 367.30548095703125 ZM 250.20449829101562 367.30548095703125 C 249.7711639404297 367.30548095703125 249.3611602783203 367.2221374511719 248.97450256347656 367.05548095703125 C 248.58782958984375 366.8954772949219 248.25115966796875 366.6688232421875 247.96450805664062 366.37548828125 C 247.67784118652344 366.08880615234375 247.451171875 365.7554931640625 247.2845001220703 365.37548828125 C 247.11782836914062 364.9888000488281 247.0345001220703 364.5788269042969 247.0345001220703 364.1454772949219 L 247.0345001220703 356.67547607421875 L 244.87449645996094 356.67547607421875 L 244.87449645996094 355.30548095703125 L 247.0345001220703 355.30548095703125 L 247.0345001220703 352.42547607421875 L 248.47450256347656 352.18548583984375 L 248.47450256347656 355.30548095703125 L 251.52450561523438 355.30548095703125 L 251.52450561523438 356.67547607421875 L 248.47450256347656 356.67547607421875 L 248.47450256347656 364.2154846191406 C 248.47450256347656 364.4554748535156 248.51783752441406 364.6788024902344 248.60450744628906 364.8854675292969 C 248.6978302001953 365.0921325683594 248.8211669921875 365.27215576171875 248.97450256347656 365.42547607421875 C 249.13450622558594 365.5854797363281 249.31784057617188 365.70880126953125 249.52450561523438 365.79547119140625 C 249.7378387451172 365.8888244628906 249.96450805664062 365.93548583984375 250.20449829101562 365.93548583984375 L 251.52450561523438 365.93548583984375 L 251.52450561523438 367.30548095703125 L 250.20449829101562 367.30548095703125 ZM 261.7059631347656 367.30548095703125 L 260.9059753417969 366.10546875 C 260.5793151855469 366.538818359375 260.1693115234375 366.8854675292969 259.67596435546875 367.1454772949219 C 259.1826477050781 367.4054870605469 258.64263916015625 367.5354919433594 258.05596923828125 367.5354919433594 L 257.6959533691406 367.5354919433594 C 257.20928955078125 367.5354919433594 256.75262451171875 367.44549560546875 256.3259582519531 367.2654724121094 C 255.89263916015625 367.0788269042969 255.51596069335938 366.8254699707031 255.1959686279297 366.5054931640625 C 254.87596130371094 366.18548583984375 254.62596130371094 365.8121337890625 254.4459686279297 365.3854675292969 C 254.25930786132812 364.9521484375 254.1659698486328 364.4954833984375 254.1659698486328 364.0154724121094 L 254.1659698486328 363.8954772949219 C 254.1659698486328 363.4088134765625 254.25930786132812 362.9521484375 254.4459686279297 362.5254821777344 C 254.62596130371094 362.0921630859375 254.87596130371094 361.7154846191406 255.1959686279297 361.3954772949219 C 255.51596069335938 361.0754699707031 255.89263916015625 360.8254699707031 256.3259582519531 360.6454772949219 C 256.75262451171875 360.45880126953125 257.20928955078125 360.365478515625 257.6959533691406 360.365478515625 L 260.7459716796875 360.365478515625 L 260.7459716796875 358.5154724121094 C 260.7459716796875 358.22882080078125 260.6893005371094 357.95880126953125 260.5759582519531 357.7054748535156 C 260.46929931640625 357.4521484375 260.3226318359375 357.22882080078125 260.1359558105469 357.0354919433594 C 259.9493103027344 356.84881591796875 259.7259521484375 356.7021484375 259.4659729003906 356.5954895019531 C 259.212646484375 356.4821472167969 258.942626953125 356.42547607421875 258.6559753417969 356.42547607421875 L 257.81597900390625 356.42547607421875 C 257.52264404296875 356.42547607421875 257.2492980957031 356.4821472167969 256.9959716796875 356.5954895019531 C 256.7426452636719 356.7021484375 256.52264404296875 356.84881591796875 256.3359680175781 357.0354919433594 C 256.1492919921875 357.22882080078125 255.99929809570312 357.4521484375 255.88597106933594 357.7054748535156 C 255.779296875 357.95880126953125 255.72596740722656 358.22882080078125 255.72596740722656 358.5154724121094 L 255.72596740722656 358.94549560546875 L 254.2859649658203 358.7154846191406 L 254.2859649658203 358.5954895019531 C 254.2859649658203 358.115478515625 254.37596130371094 357.6588134765625 254.55596923828125 357.2254943847656 C 254.7426300048828 356.798828125 254.9959716796875 356.42547607421875 255.3159637451172 356.10546875 C 255.63597106933594 355.7854919433594 256.0093078613281 355.5321350097656 256.43597412109375 355.3454895019531 C 256.8692932128906 355.16546630859375 257.3293151855469 355.0754699707031 257.81597900390625 355.0754699707031 L 258.6559753417969 355.0754699707031 C 259.14263916015625 355.0754699707031 259.59930419921875 355.16546630859375 260.0259704589844 355.3454895019531 C 260.45928955078125 355.5321350097656 260.8359680175781 355.7854919433594 261.1559753417969 356.10546875 C 261.4759521484375 356.42547607421875 261.7259521484375 356.798828125 261.9059753417969 357.2254943847656 C 262.0926208496094 357.6588134765625 262.18597412109375 358.115478515625 262.18597412109375 358.5954895019531 L 262.18597412109375 367.30548095703125 L 261.7059631347656 367.30548095703125 M 260.7459716796875 361.4954833984375 L 257.6959533691406 361.4954833984375 C 257.4093017578125 361.4954833984375 257.1359558105469 361.548828125 256.8759765625 361.6554870605469 C 256.62261962890625 361.768798828125 256.40264892578125 361.9188232421875 256.2159729003906 362.10546875 C 256.029296875 362.298828125 255.88262939453125 362.52215576171875 255.77597045898438 362.7754821777344 C 255.66262817382812 363.02880859375 255.60597229003906 363.3021545410156 255.60597229003906 363.5954895019531 L 255.60597229003906 364.0954895019531 C 255.60597229003906 364.38214111328125 255.66262817382812 364.65216064453125 255.77597045898438 364.9054870605469 C 255.88262939453125 365.1588134765625 256.029296875 365.38214111328125 256.2159729003906 365.5754699707031 C 256.40264892578125 365.76214599609375 256.62261962890625 365.9088134765625 256.8759765625 366.0154724121094 C 257.1359558105469 366.1221618652344 257.4093017578125 366.17547607421875 257.6959533691406 366.17547607421875 L 258.6559753417969 366.17547607421875 C 258.942626953125 366.17547607421875 259.212646484375 366.1221618652344 259.4659729003906 366.0154724121094 C 259.7259521484375 365.9088134765625 259.9493103027344 365.76214599609375 260.1359558105469 365.5754699707031 C 260.3226318359375 365.38214111328125 260.46929931640625 365.1588134765625 260.5759582519531 364.9054870605469 C 260.6893005371094 364.65216064453125 260.7459716796875 364.38214111328125 260.7459716796875 364.0954895019531 L 260.7459716796875 361.4954833984375 ZM 265.42364501953125 352.42547607421875 L 265.42364501953125 350.5054931640625 L 267.1036682128906 350.5054931640625 L 267.1036682128906 352.42547607421875 L 265.42364501953125 352.42547607421875 M 265.5436706542969 367.30548095703125 L 265.5436706542969 355.30548095703125 L 266.983642578125 355.30548095703125 L 266.983642578125 367.30548095703125 L 265.5436706542969 367.30548095703125 ZM 276.9284362792969 367.30548095703125 L 276.9284362792969 358.5154724121094 C 276.9284362792969 358.22882080078125 276.87176513671875 357.95880126953125 276.7584533691406 357.7054748535156 C 276.65179443359375 357.4521484375 276.505126953125 357.22882080078125 276.3184509277344 357.0354919433594 C 276.13177490234375 356.84881591796875 275.908447265625 356.7021484375 275.6484375 356.5954895019531 C 275.3951110839844 356.4821472167969 275.1251220703125 356.42547607421875 274.83843994140625 356.42547607421875 L 273.8784484863281 356.42547607421875 C 273.5917663574219 356.42547607421875 273.3184509277344 356.4821472167969 273.0584411621094 356.5954895019531 C 272.80511474609375 356.7021484375 272.5851135253906 356.84881591796875 272.3984375 357.0354919433594 C 272.2117919921875 357.22882080078125 272.06512451171875 357.4521484375 271.95843505859375 357.7054748535156 C 271.8451232910156 357.95880126953125 271.7884521484375 358.22882080078125 271.7884521484375 358.5154724121094 L 271.7884521484375 367.30548095703125 L 270.34844970703125 367.30548095703125 L 270.34844970703125 355.30548095703125 L 270.8284606933594 355.30548095703125 L 271.6184387207031 356.5254821777344 C 271.9450988769531 356.0788269042969 272.3551025390625 355.7254943847656 272.84844970703125 355.4654846191406 C 273.34844970703125 355.2054748535156 273.89178466796875 355.0754699707031 274.47845458984375 355.0754699707031 L 274.83843994140625 355.0754699707031 C 275.3251037597656 355.0754699707031 275.7817687988281 355.16546630859375 276.20843505859375 355.3454895019531 C 276.64178466796875 355.5321350097656 277.0184326171875 355.7854919433594 277.33843994140625 356.10546875 C 277.658447265625 356.42547607421875 277.908447265625 356.798828125 278.08843994140625 357.2254943847656 C 278.2751159667969 357.6588134765625 278.3684387207031 358.115478515625 278.3684387207031 358.5954895019531 L 278.3684387207031 367.30548095703125 L 276.9284362792969 367.30548095703125 ZM 282.0961608886719 370.66546630859375 L 281.48614501953125 370.66546630859375 L 281.48614501953125 365.5054931640625 L 283.2861633300781 365.5054931640625 L 282.0961608886719 370.66546630859375 ZM 303.6311950683594 367.30548095703125 L 302.8411865234375 367.30548095703125 L 299.5711975097656 354.66546630859375 L 299.53118896484375 354.0054931640625 L 299.4612121582031 354.66546630859375 L 296.2112121582031 367.30548095703125 L 295.43121337890625 367.30548095703125 L 290.9612121582031 350.5054931640625 L 292.47119140625 350.5054931640625 L 295.7712097167969 363.2754821777344 L 295.8111877441406 363.8954772949219 L 295.8612060546875 363.2754821777344 L 299.0911865234375 350.5054931640625 L 299.9411926269531 350.5054931640625 L 303.17120361328125 363.2754821777344 L 303.22119140625 363.8954772949219 L 303.28118896484375 363.2754821777344 L 306.5611877441406 350.5054931640625 L 308.0711975097656 350.5054931640625 L 303.6311950683594 367.30548095703125 ZM 317.84033203125 364.0154724121094 C 317.84033203125 364.4954833984375 317.74700927734375 364.9521484375 317.5603332519531 365.3854675292969 C 317.3803405761719 365.8121337890625 317.1303405761719 366.18548583984375 316.8103332519531 366.5054931640625 C 316.4903259277344 366.8254699707031 316.1136779785156 367.0788269042969 315.6803283691406 367.2654724121094 C 315.253662109375 367.44549560546875 314.7969970703125 367.5354919433594 314.3103332519531 367.5354919433594 L 313.350341796875 367.5354919433594 C 312.8636779785156 367.5354919433594 312.4070129394531 367.44549560546875 311.9803466796875 367.2654724121094 C 311.5469970703125 367.0788269042969 311.17034912109375 366.8254699707031 310.850341796875 366.5054931640625 C 310.53033447265625 366.18548583984375 310.28033447265625 365.8121337890625 310.100341796875 365.3854675292969 C 309.9136657714844 364.9521484375 309.8203430175781 364.4954833984375 309.8203430175781 364.0154724121094 L 309.8203430175781 358.5954895019531 C 309.8203430175781 358.115478515625 309.9136657714844 357.6588134765625 310.100341796875 357.2254943847656 C 310.28033447265625 356.798828125 310.53033447265625 356.42547607421875 310.850341796875 356.10546875 C 311.17034912109375 355.7854919433594 311.5469970703125 355.5321350097656 311.9803466796875 355.3454895019531 C 312.4070129394531 355.16546630859375 312.8636779785156 355.0754699707031 313.350341796875 355.0754699707031 L 314.3103332519531 355.0754699707031 C 314.7969970703125 355.0754699707031 315.253662109375 355.16546630859375 315.6803283691406 355.3454895019531 C 316.1136779785156 355.5321350097656 316.4903259277344 355.7854919433594 316.8103332519531 356.10546875 C 317.1303405761719 356.42547607421875 317.3803405761719 356.798828125 317.5603332519531 357.2254943847656 C 317.74700927734375 357.6588134765625 317.84033203125 358.115478515625 317.84033203125 358.5954895019531 L 317.84033203125 361.42547607421875 L 311.2603454589844 361.42547607421875 L 311.2603454589844 364.0954895019531 C 311.2603454589844 364.38214111328125 311.3170166015625 364.65216064453125 311.4303283691406 364.9054870605469 C 311.5370178222656 365.1588134765625 311.6836853027344 365.38214111328125 311.8703308105469 365.5754699707031 C 312.0570068359375 365.76214599609375 312.2770080566406 365.9088134765625 312.53033447265625 366.0154724121094 C 312.79034423828125 366.1221618652344 313.06365966796875 366.17547607421875 313.350341796875 366.17547607421875 L 314.3103332519531 366.17547607421875 C 314.5970153808594 366.17547607421875 314.86700439453125 366.1221618652344 315.1203308105469 366.0154724121094 C 315.3803405761719 365.9088134765625 315.6036682128906 365.76214599609375 315.79034423828125 365.5754699707031 C 315.9770202636719 365.38214111328125 316.1236877441406 365.1588134765625 316.2303466796875 364.9054870605469 C 316.34368896484375 364.65216064453125 316.40032958984375 364.38214111328125 316.40032958984375 364.0954895019531 L 316.40032958984375 363.29547119140625 L 317.84033203125 363.5354919433594 L 317.84033203125 364.0154724121094 L 317.84033203125 364.0154724121094 M 316.40032958984375 358.5154724121094 C 316.40032958984375 358.22882080078125 316.34368896484375 357.95880126953125 316.2303466796875 357.7054748535156 C 316.1236877441406 357.4521484375 315.9770202636719 357.22882080078125 315.79034423828125 357.0354919433594 C 315.6036682128906 356.84881591796875 315.3803405761719 356.7021484375 315.1203308105469 356.5954895019531 C 314.86700439453125 356.4821472167969 314.5970153808594 356.42547607421875 314.3103332519531 356.42547607421875 L 313.350341796875 356.42547607421875 C 313.06365966796875 356.42547607421875 312.79034423828125 356.4821472167969 312.53033447265625 356.5954895019531 C 312.2770080566406 356.7021484375 312.0570068359375 356.84881591796875 311.8703308105469 357.0354919433594 C 311.6836853027344 357.22882080078125 311.5370178222656 357.4521484375 311.4303283691406 357.7054748535156 C 311.3170166015625 357.95880126953125 311.2603454589844 358.22882080078125 311.2603454589844 358.5154724121094 L 311.2603454589844 360.29547119140625 L 316.40032958984375 360.29547119140625 L 316.40032958984375 358.5154724121094 ZM 335.75726318359375 363.41546630859375 C 335.75726318359375 363.9821472167969 335.6506042480469 364.5154724121094 335.437255859375 365.0154724121094 C 335.22393798828125 365.5154724121094 334.93060302734375 365.9554748535156 334.5572509765625 366.3354797363281 C 334.17724609375 366.70880126953125 333.73724365234375 367.00213623046875 333.23724365234375 367.2154846191406 C 332.73724365234375 367.4288024902344 332.20391845703125 367.5354919433594 331.63726806640625 367.5354919433594 L 330.437255859375 367.5354919433594 C 329.87060546875 367.5354919433594 329.33392333984375 367.4288024902344 328.8272705078125 367.2154846191406 C 328.3272705078125 367.00213623046875 327.88726806640625 366.70880126953125 327.50726318359375 366.3354797363281 C 327.1339111328125 365.9554748535156 326.8406066894531 365.5154724121094 326.62725830078125 365.0154724121094 C 326.4139099121094 364.5154724121094 326.3072509765625 363.9821472167969 326.3072509765625 363.41546630859375 L 326.3072509765625 354.3954772949219 C 326.3072509765625 353.8221435546875 326.4139099121094 353.2854919433594 326.62725830078125 352.7854919433594 C 326.8406066894531 352.2854919433594 327.1339111328125 351.84881591796875 327.50726318359375 351.4754943847656 C 327.88726806640625 351.1021423339844 328.3272705078125 350.80548095703125 328.8272705078125 350.5854797363281 C 329.33392333984375 350.3721618652344 329.87060546875 350.2654724121094 330.437255859375 350.2654724121094 L 331.63726806640625 350.2654724121094 C 332.20391845703125 350.2654724121094 332.73724365234375 350.3721618652344 333.23724365234375 350.5854797363281 C 333.73724365234375 350.80548095703125 334.17724609375 351.1021423339844 334.5572509765625 351.4754943847656 C 334.93060302734375 351.84881591796875 335.22393798828125 352.2854919433594 335.437255859375 352.7854919433594 C 335.6506042480469 353.2854919433594 335.75726318359375 353.8221435546875 335.75726318359375 354.3954772949219 L 335.75726318359375 355.0754699707031 L 334.24725341796875 355.30548095703125 L 334.24725341796875 354.3954772949219 C 334.24725341796875 354.0154724121094 334.17724609375 353.66546630859375 334.0372619628906 353.3454895019531 C 333.8972473144531 353.018798828125 333.7072448730469 352.7354736328125 333.4672546386719 352.4954833984375 C 333.2205810546875 352.2488098144531 332.937255859375 352.05548095703125 332.61724853515625 351.91546630859375 C 332.29058837890625 351.7754821777344 331.9405822753906 351.7054748535156 331.5672607421875 351.7054748535156 L 330.50726318359375 351.7054748535156 C 330.1339111328125 351.7054748535156 329.783935546875 351.7754821777344 329.4572448730469 351.91546630859375 C 329.13726806640625 352.05548095703125 328.8539123535156 352.2488098144531 328.6072692871094 352.4954833984375 C 328.360595703125 352.7354736328125 328.1672668457031 353.018798828125 328.0272521972656 353.3454895019531 C 327.88726806640625 353.66546630859375 327.8172607421875 354.0154724121094 327.8172607421875 354.3954772949219 L 327.8172607421875 363.41546630859375 C 327.8172607421875 363.788818359375 327.88726806640625 364.1388244628906 328.0272521972656 364.4654846191406 C 328.1672668457031 364.7854919433594 328.360595703125 365.0688171386719 328.6072692871094 365.31549072265625 C 328.8539123535156 365.5621337890625 329.13726806640625 365.7554931640625 329.4572448730469 365.8954772949219 C 329.783935546875 366.0354919433594 330.1339111328125 366.10546875 330.50726318359375 366.10546875 L 331.5672607421875 366.10546875 C 331.9405822753906 366.10546875 332.29058837890625 366.0354919433594 332.61724853515625 365.8954772949219 C 332.937255859375 365.7554931640625 333.2205810546875 365.5621337890625 333.4672546386719 365.31549072265625 C 333.7072448730469 365.0688171386719 333.8972473144531 364.7854919433594 334.0372619628906 364.4654846191406 C 334.17724609375 364.1388244628906 334.24725341796875 363.788818359375 334.24725341796875 363.41546630859375 L 334.24725341796875 362.5054931640625 L 335.75726318359375 362.7454833984375 L 335.75726318359375 363.41546630859375 L 335.75726318359375 363.41546630859375 ZM 346.1806335449219 367.30548095703125 L 345.380615234375 366.10546875 C 345.053955078125 366.538818359375 344.6439514160156 366.8854675292969 344.150634765625 367.1454772949219 C 343.65728759765625 367.4054870605469 343.1172790527344 367.5354919433594 342.5306091308594 367.5354919433594 L 342.1706237792969 367.5354919433594 C 341.6839599609375 367.5354919433594 341.227294921875 367.44549560546875 340.8006286621094 367.2654724121094 C 340.3672790527344 367.0788269042969 339.9906311035156 366.8254699707031 339.6706237792969 366.5054931640625 C 339.3506164550781 366.18548583984375 339.1006164550781 365.8121337890625 338.9206237792969 365.3854675292969 C 338.73394775390625 364.9521484375 338.640625 364.4954833984375 338.640625 364.0154724121094 L 338.640625 363.8954772949219 C 338.640625 363.4088134765625 338.73394775390625 362.9521484375 338.9206237792969 362.5254821777344 C 339.1006164550781 362.0921630859375 339.3506164550781 361.7154846191406 339.6706237792969 361.3954772949219 C 339.9906311035156 361.0754699707031 340.3672790527344 360.8254699707031 340.8006286621094 360.6454772949219 C 341.227294921875 360.45880126953125 341.6839599609375 360.365478515625 342.1706237792969 360.365478515625 L 345.2206115722656 360.365478515625 L 345.2206115722656 358.5154724121094 C 345.2206115722656 358.22882080078125 345.1639404296875 357.95880126953125 345.0506286621094 357.7054748535156 C 344.9439697265625 357.4521484375 344.79730224609375 357.22882080078125 344.6106262207031 357.0354919433594 C 344.4239501953125 356.84881591796875 344.20062255859375 356.7021484375 343.94061279296875 356.5954895019531 C 343.6872863769531 356.4821472167969 343.41729736328125 356.42547607421875 343.130615234375 356.42547607421875 L 342.2906188964844 356.42547607421875 C 341.9972839355469 356.42547607421875 341.7239685058594 356.4821472167969 341.4706115722656 356.5954895019531 C 341.21728515625 356.7021484375 340.9972839355469 356.84881591796875 340.81060791015625 357.0354919433594 C 340.62396240234375 357.22882080078125 340.4739685058594 357.4521484375 340.3606262207031 357.7054748535156 C 340.25396728515625 357.95880126953125 340.20062255859375 358.22882080078125 340.20062255859375 358.5154724121094 L 340.20062255859375 358.94549560546875 L 338.7606201171875 358.7154846191406 L 338.7606201171875 358.5954895019531 C 338.7606201171875 358.115478515625 338.8506164550781 357.6588134765625 339.0306091308594 357.2254943847656 C 339.21728515625 356.798828125 339.4706115722656 356.42547607421875 339.7906188964844 356.10546875 C 340.1106262207031 355.7854919433594 340.48394775390625 355.5321350097656 340.9106140136719 355.3454895019531 C 341.3439636230469 355.16546630859375 341.803955078125 355.0754699707031 342.2906188964844 355.0754699707031 L 343.130615234375 355.0754699707031 C 343.6172790527344 355.0754699707031 344.0739440917969 355.16546630859375 344.5006103515625 355.3454895019531 C 344.9339599609375 355.5321350097656 345.31060791015625 355.7854919433594 345.630615234375 356.10546875 C 345.95062255859375 356.42547607421875 346.20062255859375 356.798828125 346.380615234375 357.2254943847656 C 346.5672912597656 357.6588134765625 346.6606140136719 358.115478515625 346.6606140136719 358.5954895019531 L 346.6606140136719 367.30548095703125 L 346.1806335449219 367.30548095703125 M 345.2206115722656 361.4954833984375 L 342.1706237792969 361.4954833984375 C 341.8839416503906 361.4954833984375 341.6106262207031 361.548828125 341.3506164550781 361.6554870605469 C 341.0972900390625 361.768798828125 340.8772888183594 361.9188232421875 340.69061279296875 362.10546875 C 340.50396728515625 362.298828125 340.3572998046875 362.52215576171875 340.2506103515625 362.7754821777344 C 340.1372985839844 363.02880859375 340.08062744140625 363.3021545410156 340.08062744140625 363.5954895019531 L 340.08062744140625 364.0954895019531 C 340.08062744140625 364.38214111328125 340.1372985839844 364.65216064453125 340.2506103515625 364.9054870605469 C 340.3572998046875 365.1588134765625 340.50396728515625 365.38214111328125 340.69061279296875 365.5754699707031 C 340.8772888183594 365.76214599609375 341.0972900390625 365.9088134765625 341.3506164550781 366.0154724121094 C 341.6106262207031 366.1221618652344 341.8839416503906 366.17547607421875 342.1706237792969 366.17547607421875 L 343.130615234375 366.17547607421875 C 343.41729736328125 366.17547607421875 343.6872863769531 366.1221618652344 343.94061279296875 366.0154724121094 C 344.20062255859375 365.9088134765625 344.4239501953125 365.76214599609375 344.6106262207031 365.5754699707031 C 344.79730224609375 365.38214111328125 344.9439697265625 365.1588134765625 345.0506286621094 364.9054870605469 C 345.1639404296875 364.65216064453125 345.2206115722656 364.38214111328125 345.2206115722656 364.0954895019531 L 345.2206115722656 361.4954833984375 ZM 353.06829833984375 356.67547607421875 C 352.7816162109375 356.67547607421875 352.50830078125 356.7321472167969 352.248291015625 356.8454895019531 C 351.9949645996094 356.9521484375 351.77496337890625 357.09881591796875 351.5882873535156 357.2854919433594 C 351.4016418457031 357.4721374511719 351.2549743652344 357.692138671875 351.1482849121094 357.94549560546875 C 351.03497314453125 358.1988220214844 350.9783020019531 358.4721374511719 350.9783020019531 358.7654724121094 L 350.9783020019531 367.30548095703125 L 349.5382995605469 367.30548095703125 L 349.5382995605469 355.30548095703125 L 350.018310546875 355.30548095703125 L 350.80828857421875 356.5254821777344 C 351.13494873046875 356.0788269042969 351.5449523925781 355.7254943847656 352.0382995605469 355.4654846191406 C 352.5382995605469 355.2054748535156 353.0816345214844 355.0754699707031 353.6683044433594 355.0754699707031 L 354.50830078125 355.0754699707031 L 354.50830078125 356.67547607421875 L 353.06829833984375 356.67547607421875 ZM 364.44842529296875 364.0154724121094 C 364.44842529296875 364.4954833984375 364.3551025390625 364.9521484375 364.1684265136719 365.3854675292969 C 363.9884338378906 365.8121337890625 363.7384338378906 366.18548583984375 363.4184265136719 366.5054931640625 C 363.0984191894531 366.8254699707031 362.7217712402344 367.0788269042969 362.2884216308594 367.2654724121094 C 361.86175537109375 367.44549560546875 361.40509033203125 367.5354919433594 360.9184265136719 367.5354919433594 L 359.95843505859375 367.5354919433594 C 359.4717712402344 367.5354919433594 359.0151062011719 367.44549560546875 358.58843994140625 367.2654724121094 C 358.15509033203125 367.0788269042969 357.7784423828125 366.8254699707031 357.45843505859375 366.5054931640625 C 357.138427734375 366.18548583984375 356.888427734375 365.8121337890625 356.70843505859375 365.3854675292969 C 356.5217590332031 364.9521484375 356.4284362792969 364.4954833984375 356.4284362792969 364.0154724121094 L 356.4284362792969 358.5954895019531 C 356.4284362792969 358.115478515625 356.5217590332031 357.6588134765625 356.70843505859375 357.2254943847656 C 356.888427734375 356.798828125 357.138427734375 356.42547607421875 357.45843505859375 356.10546875 C 357.7784423828125 355.7854919433594 358.15509033203125 355.5321350097656 358.58843994140625 355.3454895019531 C 359.0151062011719 355.16546630859375 359.4717712402344 355.0754699707031 359.95843505859375 355.0754699707031 L 360.9184265136719 355.0754699707031 C 361.40509033203125 355.0754699707031 361.86175537109375 355.16546630859375 362.2884216308594 355.3454895019531 C 362.7217712402344 355.5321350097656 363.0984191894531 355.7854919433594 363.4184265136719 356.10546875 C 363.7384338378906 356.42547607421875 363.9884338378906 356.798828125 364.1684265136719 357.2254943847656 C 364.3551025390625 357.6588134765625 364.44842529296875 358.115478515625 364.44842529296875 358.5954895019531 L 364.44842529296875 361.42547607421875 L 357.8684387207031 361.42547607421875 L 357.8684387207031 364.0954895019531 C 357.8684387207031 364.38214111328125 357.92510986328125 364.65216064453125 358.0384216308594 364.9054870605469 C 358.1451110839844 365.1588134765625 358.2917785644531 365.38214111328125 358.4784240722656 365.5754699707031 C 358.66510009765625 365.76214599609375 358.8851013183594 365.9088134765625 359.138427734375 366.0154724121094 C 359.3984375 366.1221618652344 359.6717529296875 366.17547607421875 359.95843505859375 366.17547607421875 L 360.9184265136719 366.17547607421875 C 361.2051086425781 366.17547607421875 361.47509765625 366.1221618652344 361.7284240722656 366.0154724121094 C 361.9884338378906 365.9088134765625 362.2117614746094 365.76214599609375 362.3984375 365.5754699707031 C 362.5851135253906 365.38214111328125 362.7317810058594 365.1588134765625 362.83843994140625 364.9054870605469 C 362.9517822265625 364.65216064453125 363.0084228515625 364.38214111328125 363.0084228515625 364.0954895019531 L 363.0084228515625 363.29547119140625 L 364.44842529296875 363.5354919433594 L 364.44842529296875 364.0154724121094 L 364.44842529296875 364.0154724121094 M 363.0084228515625 358.5154724121094 C 363.0084228515625 358.22882080078125 362.9517822265625 357.95880126953125 362.83843994140625 357.7054748535156 C 362.7317810058594 357.4521484375 362.5851135253906 357.22882080078125 362.3984375 357.0354919433594 C 362.2117614746094 356.84881591796875 361.9884338378906 356.7021484375 361.7284240722656 356.5954895019531 C 361.47509765625 356.4821472167969 361.2051086425781 356.42547607421875 360.9184265136719 356.42547607421875 L 359.95843505859375 356.42547607421875 C 359.6717529296875 356.42547607421875 359.3984375 356.4821472167969 359.138427734375 356.5954895019531 C 358.8851013183594 356.7021484375 358.66510009765625 356.84881591796875 358.4784240722656 357.0354919433594 C 358.2917785644531 357.22882080078125 358.1451110839844 357.4521484375 358.0384216308594 357.7054748535156 C 357.92510986328125 357.95880126953125 357.8684387207031 358.22882080078125 357.8684387207031 358.5154724121094 L 357.8684387207031 360.29547119140625 L 363.0084228515625 360.29547119140625 L 363.0084228515625 358.5154724121094 Z" transform="matrix(0.4786711037158966, 0, 0, 0.4786711037158966, -9.801029205322266, 6.279353618621826)" style="fill: rgb(255, 255, 255); white-space: pre; color: rgb(255, 255, 255);"/></svg>