<?xml version="1.0" encoding="utf-8"?>
<svg id="master-artboard" viewBox="0 0 574.9747314453125 350.3532409667969" data-name="Layer 1" xmlns="http://www.w3.org/2000/svg" width="574.9747314453125px" height="350.3532409667969px"><rect id="ee-background" x="0" y="0" width="574.9747314453125" height="350.3532409667969" style="fill: white; fill-opacity: 0; pointer-events: none;"/><title>Untitled-1</title><g transform="matrix(0.2510211351532229, 0, 0, 0.2510211351532229, -31.226289323645133, -25.943703723657002)"><path d="M 443.4800109863281 834.9299926757812 L 443.4800109863281 170.07000732421875 L 612.2100219726562 170.07000732421875 L 612.2100219726562 537.489990234375 L 650.260009765625 537.489990234375 L 650.260009765625 256.1000061035156 L 691.6199951171875 219.63999938964844 L 827.260009765625 219.63999938964844 L 827.260009765625 412.1000061035156 L 1068.7900390625 412.1000061035156 L 1068.7900390625 805.4099731445312 L 1134.9599609375 805.4099731445312 L 1134.9599609375 482.0899963378906 L 1247.449951171875 482.0899963378906 L 1247.449951171875 534.5800170898438 L 1502.199951171875 534.5800170898438 L 1502.199951171875 636.260009765625 L 1541.9100341796875 636.260009765625 L 1541.9100341796875 536.0399780273438 L 1642.8199462890625 536.0399780273438 L 1747.0400390625 627.8900146484375 L 1747.0400390625 805.4099731445312 L 1780.1199951171875 805.4099731445312 L 1780.1199951171875 452.92999267578125 L 1929 452.92999267578125 L 1929 744.530029296875 L 1960.4300537109375 744.530029296875 L 1960.4300537109375 754.739990234375 L 2091.1201171875 639.5599975585938 L 2116.52001953125 639.5599975585938 L 2116.52001953125 1383.1500244140625 L 443.4800109863281 1383.1500244140625 L 443.4800109863281 834.9299926757812 Z" class="cls-2" style="fill: rgb(58, 83, 92); fill-opacity: 0.94;" transform="matrix(1, 0, 0, 1, 2.2737367544323206e-13, 0)"/><path d="M 1161.079962 323.519989 H 1319.989954 A 24.370001 24.370001 0 0 1 1344.359955 347.88999 V 347.899988 A 24.370001 24.370001 0 0 1 1319.989954 372.269989 H 1161.079962 A 24.370001 24.370001 0 0 1 1136.709961 347.899988 V 347.88999 A 24.370001 24.370001 0 0 1 1161.079962 323.519989 Z" class="cls-3" style="fill: rgb(45, 83, 98);" transform="matrix(1, 0, 0, 1, 2.2737367544323206e-13, 0)"/><path class="cls-3" d="M1381.66,323.52h0a24.37,24.37,0,0,0-24.37,24.37h0a24.37,24.37,0,0,0,24.37,24.37h0A24.37,24.37,0,0,0,1406,347.89h0A24.37,24.37,0,0,0,1381.66,323.52Z" style="fill: rgb(45, 83, 98);" transform="matrix(1, 0, 0, 1, 2.2737367544323206e-13, 0)"/><path d="M 778.460028 663.299988 H 937.37002 A 24.370001 24.370001 0 0 1 961.740021 687.669989 V 687.679987 A 24.370001 24.370001 0 0 1 937.37002 712.049988 H 778.460028 A 24.370001 24.370001 0 0 1 754.090027 687.679987 V 687.669989 A 24.370001 24.370001 0 0 1 778.460028 663.299988 Z" class="cls-3" style="fill: rgb(45, 83, 98);" transform="matrix(1, 0, 0, 1, 2.2737367544323206e-13, 0)"/><path class="cls-3" d="M716.78,712.05h0a24.37,24.37,0,0,0,24.37-24.37h0a24.37,24.37,0,0,0-24.37-24.37h0a24.37,24.37,0,0,0-24.37,24.37h0A24.37,24.37,0,0,0,716.78,712.05Z" style="fill: rgb(45, 83, 98); fill-opacity: 1;" transform="matrix(1, 0, 0, 1, 2.2737367544323206e-13, 0)"/><path class="cls-3" d="M2254,556H1981.42A24.37,24.37,0,0,0,1957,580.42h0a24.37,24.37,0,0,0,24.37,24.37h69.77a24.37,24.37,0,0,1,24.37,24.37h0a24.37,24.37,0,0,1-24.37,24.37h-23.3a24.37,24.37,0,0,0-24.37,24.37h0a24.37,24.37,0,0,0,24.37,24.37h164.44a24.37,24.37,0,0,0,24.37-24.37h0a24.37,24.37,0,0,0-24.37-24.37h-31.45a24.37,24.37,0,0,1-24.37-24.37h0a24.37,24.37,0,0,1,24.37-24.37H2254a24.37,24.37,0,0,0,24.37-24.37h0A24.37,24.37,0,0,0,2254,556Z" style="fill: rgb(45, 83, 98);" transform="matrix(1, 0, 0, 1, 2.2737367544323206e-13, 0)"/><path d="M 2254.009893 653.549988 H 2254.019892 A 24.370001 24.370001 0 0 1 2278.389893 677.919989 V 677.929987 A 24.370001 24.370001 0 0 1 2254.019892 702.299988 H 2254.009893 A 24.370001 24.370001 0 0 1 2229.639893 677.929987 V 677.919989 A 24.370001 24.370001 0 0 1 2254.009893 653.549988 Z" class="cls-3" style="fill: rgb(45, 83, 98);" transform="matrix(1, 0, 0, 1, 2.2737367544323206e-13, 0)"/><path class="cls-3" d="M545.09,848.94H434.48a24.37,24.37,0,0,1-24.37-24.37h0a24.37,24.37,0,0,1,24.37-24.37h32.86a24.37,24.37,0,0,0,24.37-24.37h0a24.37,24.37,0,0,0-24.37-24.37H194.75a24.37,24.37,0,0,0-24.37,24.37h0a24.37,24.37,0,0,0,24.37,24.37h130a24.37,24.37,0,0,1,24.37,24.37h0a24.37,24.37,0,0,1-24.37,24.37H293.34A24.37,24.37,0,0,0,269,873.32h0a24.37,24.37,0,0,0,24.37,24.37H545.09a24.37,24.37,0,0,0,24.37-24.37h0A24.37,24.37,0,0,0,545.09,848.94Z" style="fill: rgb(45, 83, 98);" transform="matrix(1, 0, 0, 1, 2.2737367544323206e-13, 0)"/><path d="M 231.349997 848.640015 H 231.359995 A 24.370001 24.370001 0 0 1 255.729996 873.010015 V 873.020014 A 24.370001 24.370001 0 0 1 231.359995 897.390015 H 231.349997 A 24.370001 24.370001 0 0 1 206.979996 873.020014 V 873.010015 A 24.370001 24.370001 0 0 1 231.349997 848.640015 Z" class="cls-3" style="fill: rgb(45, 83, 98);" transform="matrix(1, 0, 0, 1, 2.2737367544323206e-13, 0)"/><path d="M 1942.4200439453125 1382.9300537109375 L 1988.9100341796875 969.739990234375 L 1999.6099853515625 969.739990234375 L 1953.1199951171875 1382.9300537109375 L 1942.4200439453125 1382.9300537109375 Z" class="cls-4" style="fill: rgb(40, 76, 89);" transform="matrix(1, 0, 0, 1, 2.2737367544323206e-13, 0)"/><path d="M 1852.4300537109375 1382.9300537109375 L 1898.9300537109375 969.739990234375 L 1909.6199951171875 969.739990234375 L 1863.1300048828125 1382.9300537109375 L 1852.4300537109375 1382.9300537109375 Z" class="cls-4" style="fill: rgb(40, 76, 89);" transform="matrix(1, 0, 0, 1, 2.2737367544323206e-13, 0)"/><path d="M 1945.969970703125 1351.4100341796875 L 1944.8499755859375 1361.3699951171875 L 1865.550048828125 1361.3699951171875 L 1866.6700439453125 1351.4100341796875 L 1945.969970703125 1351.4100341796875 Z" class="cls-5" style="fill: rgb(67, 116, 137);" transform="matrix(1, 0, 0, 1, 2.2737367544323206e-13, 0)"/><path d="M 1940.489990234375 1361.3699951171875 L 1944.8499755859375 1361.3699951171875 L 1945.969970703125 1351.4100341796875 L 1941.6099853515625 1351.4100341796875 L 1940.489990234375 1361.3699951171875 Z" class="cls-6" style="fill: rgb(57, 99, 114);" transform="matrix(1, 0, 0, 1, 2.2737367544323206e-13, 0)"/><path d="M 1865.550048828125 1361.3699951171875 L 1869.9100341796875 1361.3699951171875 L 1871.030029296875 1351.4100341796875 L 1866.6700439453125 1351.4100341796875 L 1865.550048828125 1361.3699951171875 Z" class="cls-6" style="fill: rgb(57, 99, 114);" transform="matrix(1, 0, 0, 1, 2.2737367544323206e-13, 0)"/><path d="M 1951.68994140625 1300.56005859375 L 1950.5699462890625 1310.510009765625 L 1871.280029296875 1310.510009765625 L 1872.4000244140625 1300.56005859375 L 1951.68994140625 1300.56005859375 Z" class="cls-5" style="fill: rgb(67, 116, 137);" transform="matrix(1, 0, 0, 1, 2.2737367544323206e-13, 0)"/><path d="M 1946.2099609375 1310.510009765625 L 1950.5699462890625 1310.510009765625 L 1951.68994140625 1300.56005859375 L 1947.3299560546875 1300.56005859375 L 1946.2099609375 1310.510009765625 Z" class="cls-6" style="fill: rgb(57, 99, 114);" transform="matrix(1, 0, 0, 1, 2.2737367544323206e-13, 0)"/><path d="M 1871.280029296875 1310.510009765625 L 1875.6300048828125 1310.510009765625 L 1876.75 1300.56005859375 L 1872.4000244140625 1300.56005859375 L 1871.280029296875 1310.510009765625 Z" class="cls-6" style="fill: rgb(57, 99, 114);" transform="matrix(1, 0, 0, 1, 2.2737367544323206e-13, 0)"/><path d="M 1957.4100341796875 1249.68994140625 L 1956.2900390625 1259.6500244140625 L 1877 1259.6500244140625 L 1878.1199951171875 1249.68994140625 L 1957.4100341796875 1249.68994140625 Z" class="cls-5" style="fill: rgb(67, 116, 137);" transform="matrix(1, 0, 0, 1, 2.2737367544323206e-13, 0)"/><path d="M 1951.93994140625 1259.6500244140625 L 1956.2900390625 1259.6500244140625 L 1957.4100341796875 1249.68994140625 L 1953.06005859375 1249.68994140625 L 1951.93994140625 1259.6500244140625 Z" class="cls-6" style="fill: rgb(57, 99, 114);" transform="matrix(1, 0, 0, 1, 2.2737367544323206e-13, 0)"/><path d="M 1877 1259.6500244140625 L 1881.3599853515625 1259.6500244140625 L 1882.469970703125 1249.68994140625 L 1878.1199951171875 1249.68994140625 L 1877 1259.6500244140625 Z" class="cls-6" style="fill: rgb(57, 99, 114);" transform="matrix(1, 0, 0, 1, 2.2737367544323206e-13, 0)"/><path d="M 1963.1300048828125 1198.8399658203125 L 1962.02001953125 1208.7900390625 L 1882.719970703125 1208.7900390625 L 1883.8399658203125 1198.8399658203125 L 1963.1300048828125 1198.8399658203125 Z" class="cls-5" style="fill: rgb(67, 116, 137);" transform="matrix(1, 0, 0, 1, 2.2737367544323206e-13, 0)"/><path d="M 1957.6600341796875 1208.7900390625 L 1962.02001953125 1208.7900390625 L 1963.1300048828125 1198.8399658203125 L 1958.780029296875 1198.8399658203125 L 1957.6600341796875 1208.7900390625 Z" class="cls-6" style="fill: rgb(57, 99, 114);" transform="matrix(1, 0, 0, 1, 2.2737367544323206e-13, 0)"/><path d="M 1882.719970703125 1208.7900390625 L 1887.0799560546875 1208.7900390625 L 1888.199951171875 1198.8399658203125 L 1883.8399658203125 1198.8399658203125 L 1882.719970703125 1208.7900390625 Z" class="cls-6" style="fill: rgb(57, 99, 114);" transform="matrix(1, 0, 0, 1, 2.2737367544323206e-13, 0)"/><path d="M 1968.8599853515625 1147.969970703125 L 1967.739990234375 1157.9300537109375 L 1888.43994140625 1157.9300537109375 L 1889.56005859375 1147.969970703125 L 1968.8599853515625 1147.969970703125 Z" class="cls-5" style="fill: rgb(67, 116, 137);" transform="matrix(1, 0, 0, 1, 2.2737367544323206e-13, 0)"/><path d="M 1963.3800048828125 1157.9300537109375 L 1967.739990234375 1157.9300537109375 L 1968.8599853515625 1147.969970703125 L 1964.5 1147.969970703125 L 1963.3800048828125 1157.9300537109375 Z" class="cls-6" style="fill: rgb(57, 99, 114);" transform="matrix(1, 0, 0, 1, 2.2737367544323206e-13, 0)"/><path d="M 1888.43994140625 1157.9300537109375 L 1892.800048828125 1157.9300537109375 L 1893.9200439453125 1147.969970703125 L 1889.56005859375 1147.969970703125 L 1888.43994140625 1157.9300537109375 Z" class="cls-6" style="fill: rgb(57, 99, 114);" transform="matrix(1, 0, 0, 1, 2.2737367544323206e-13, 0)"/><path d="M 1974.5799560546875 1097.1199951171875 L 1973.4599609375 1107.0699462890625 L 1894.1700439453125 1107.0699462890625 L 1895.2900390625 1097.1199951171875 L 1974.5799560546875 1097.1199951171875 Z" class="cls-5" style="fill: rgb(67, 116, 137);" transform="matrix(1, 0, 0, 1, 2.2737367544323206e-13, 0)"/><path d="M 1969.1099853515625 1107.0699462890625 L 1973.4599609375 1107.0699462890625 L 1974.5799560546875 1097.1199951171875 L 1970.219970703125 1097.1199951171875 L 1969.1099853515625 1107.0699462890625 Z" class="cls-6" style="fill: rgb(57, 99, 114);" transform="matrix(1, 0, 0, 1, 2.2737367544323206e-13, 0)"/><path d="M 1894.1700439453125 1107.0699462890625 L 1898.52001953125 1107.0699462890625 L 1899.6400146484375 1097.1199951171875 L 1895.2900390625 1097.1199951171875 L 1894.1700439453125 1107.0699462890625 Z" class="cls-6" style="fill: rgb(57, 99, 114);" transform="matrix(1, 0, 0, 1, 2.2737367544323206e-13, 0)"/><path d="M 1980.300048828125 1046.260009765625 L 1979.1800537109375 1056.2099609375 L 1899.8900146484375 1056.2099609375 L 1901.010009765625 1046.260009765625 L 1980.300048828125 1046.260009765625 Z" class="cls-5" style="fill: rgb(67, 116, 137);" transform="matrix(1, 0, 0, 1, 2.2737367544323206e-13, 0)"/><path d="M 1974.8299560546875 1056.2099609375 L 1979.1800537109375 1056.2099609375 L 1980.300048828125 1046.260009765625 L 1975.949951171875 1046.260009765625 L 1974.8299560546875 1056.2099609375 Z" class="cls-6" style="fill: rgb(57, 99, 114);" transform="matrix(1, 0, 0, 1, 2.2737367544323206e-13, 0)"/><path d="M 1899.8900146484375 1056.2099609375 L 1904.25 1056.2099609375 L 1905.3699951171875 1046.260009765625 L 1901.010009765625 1046.260009765625 L 1899.8900146484375 1056.2099609375 Z" class="cls-6" style="fill: rgb(57, 99, 114);" transform="matrix(1, 0, 0, 1, 2.2737367544323206e-13, 0)"/><path d="M 1986.030029296875 995.3900146484375 L 1984.9100341796875 1005.3499755859375 L 1905.6099853515625 1005.3499755859375 L 1906.72998046875 995.3900146484375 L 1986.030029296875 995.3900146484375 Z" class="cls-5" style="fill: rgb(67, 116, 137);" transform="matrix(1, 0, 0, 1, 2.2737367544323206e-13, 0)"/><path d="M 1905.6099853515625 1005.3499755859375 L 1909.969970703125 1005.3499755859375 L 1911.0899658203125 995.3900146484375 L 1906.72998046875 995.3900146484375 L 1905.6099853515625 1005.3499755859375 Z" class="cls-6" style="fill: rgb(57, 99, 114);" transform="matrix(1, 0, 0, 1, 2.2737367544323206e-13, 0)"/><path d="M 1980.550048828125 1005.3499755859375 L 1984.9100341796875 1005.3499755859375 L 1986.030029296875 995.3900146484375 L 1981.6700439453125 995.3900146484375 L 1980.550048828125 1005.3499755859375 Z" class="cls-6" style="fill: rgb(57, 99, 114);" transform="matrix(1, 0, 0, 1, 2.2737367544323206e-13, 0)"/><path d="M 1956.0899658203125 1382.9300537109375 L 1909.5999755859375 969.739990234375 L 1898.9100341796875 969.739990234375 L 1945.4000244140625 1382.9300537109375 L 1956.0899658203125 1382.9300537109375 Z" class="cls-7" style="fill: rgb(55, 94, 112);" transform="matrix(1, 0, 0, 1, 2.2737367544323206e-13, 0)"/><path d="M 2046.0799560546875 1382.9300537109375 L 1999.5899658203125 969.739990234375 L 1988.8900146484375 969.739990234375 L 2035.3800048828125 1382.9300537109375 L 2046.0799560546875 1382.9300537109375 Z" class="cls-7" style="fill: rgb(55, 94, 112);" transform="matrix(1, 0, 0, 1, 2.2737367544323206e-13, 0)"/><path d="M 1952.550048828125 1351.4100341796875 L 1953.6600341796875 1361.3699951171875 L 2032.9599609375 1361.3699951171875 L 2031.8399658203125 1351.4100341796875 L 1952.550048828125 1351.4100341796875 Z" class="cls-8" style="fill: rgb(77, 141, 175);" transform="matrix(1, 0, 0, 1, 2.2737367544323206e-13, 0)"/><path d="M 1958.02001953125 1361.3699951171875 L 1953.6600341796875 1361.3699951171875 L 1952.550048828125 1351.4100341796875 L 1956.9000244140625 1351.4100341796875 L 1958.02001953125 1361.3699951171875 Z" class="cls-9" style="fill: rgb(59, 120, 147);" transform="matrix(1, 0, 0, 1, 2.2737367544323206e-13, 0)"/><path d="M 2032.9599609375 1361.3699951171875 L 2028.5999755859375 1361.3699951171875 L 2027.47998046875 1351.4100341796875 L 2031.8399658203125 1351.4100341796875 L 2032.9599609375 1361.3699951171875 Z" class="cls-9" style="fill: rgb(59, 120, 147);" transform="matrix(1, 0, 0, 1, 2.2737367544323206e-13, 0)"/><path d="M 1946.8199462890625 1300.56005859375 L 1947.93994140625 1310.510009765625 L 2027.239990234375 1310.510009765625 L 2026.1199951171875 1300.56005859375 L 1946.8199462890625 1300.56005859375 Z" class="cls-8" style="fill: rgb(77, 141, 175);" transform="matrix(1, 0, 0, 1, 2.2737367544323206e-13, 0)"/><path d="M 1952.300048828125 1310.510009765625 L 1947.93994140625 1310.510009765625 L 1946.8199462890625 1300.56005859375 L 1951.1800537109375 1300.56005859375 L 1952.300048828125 1310.510009765625 Z" class="cls-9" style="fill: rgb(59, 120, 147);" transform="matrix(1, 0, 0, 1, 2.2737367544323206e-13, 0)"/><path d="M 2027.239990234375 1310.510009765625 L 2022.8800048828125 1310.510009765625 L 2021.760009765625 1300.56005859375 L 2026.1199951171875 1300.56005859375 L 2027.239990234375 1310.510009765625 Z" class="cls-9" style="fill: rgb(59, 120, 147);" transform="matrix(1, 0, 0, 1, 2.2737367544323206e-13, 0)"/><path d="M 1941.0999755859375 1249.68994140625 L 1942.219970703125 1259.6500244140625 L 2021.510009765625 1259.6500244140625 L 2020.3900146484375 1249.68994140625 L 1941.0999755859375 1249.68994140625 Z" class="cls-8" style="fill: rgb(77, 141, 175);" transform="matrix(1, 0, 0, 1, 2.2737367544323206e-13, 0)"/><path d="M 1946.5799560546875 1259.6500244140625 L 1942.219970703125 1259.6500244140625 L 1941.0999755859375 1249.68994140625 L 1945.4599609375 1249.68994140625 L 1946.5799560546875 1259.6500244140625 Z" class="cls-9" style="fill: rgb(59, 120, 147);" transform="matrix(1, 0, 0, 1, 2.2737367544323206e-13, 0)"/><path d="M 2021.510009765625 1259.6500244140625 L 2017.1600341796875 1259.6500244140625 L 2016.0400390625 1249.68994140625 L 2020.3900146484375 1249.68994140625 L 2021.510009765625 1259.6500244140625 Z" class="cls-9" style="fill: rgb(59, 120, 147);" transform="matrix(1, 0, 0, 1, 2.2737367544323206e-13, 0)"/><path d="M 1935.3800048828125 1198.8399658203125 L 1936.5 1208.7900390625 L 2015.7900390625 1208.7900390625 L 2014.6700439453125 1198.8399658203125 L 1935.3800048828125 1198.8399658203125 Z" class="cls-8" style="fill: rgb(77, 141, 175);" transform="matrix(1, 0, 0, 1, 2.2737367544323206e-13, 0)"/><path d="M 1940.8499755859375 1208.7900390625 L 1936.5 1208.7900390625 L 1935.3800048828125 1198.8399658203125 L 1939.72998046875 1198.8399658203125 L 1940.8499755859375 1208.7900390625 Z" class="cls-9" style="fill: rgb(59, 120, 147);" transform="matrix(1, 0, 0, 1, 2.2737367544323206e-13, 0)"/><path d="M 2015.7900390625 1208.7900390625 L 2011.4300537109375 1208.7900390625 L 2010.31005859375 1198.8399658203125 L 2014.6700439453125 1198.8399658203125 L 2015.7900390625 1208.7900390625 Z" class="cls-9" style="fill: rgb(59, 120, 147);" transform="matrix(1, 0, 0, 1, 2.2737367544323206e-13, 0)"/><path d="M 1929.6500244140625 1147.969970703125 L 1930.77001953125 1157.9300537109375 L 2010.0699462890625 1157.9300537109375 L 2008.949951171875 1147.969970703125 L 1929.6500244140625 1147.969970703125 Z" class="cls-8" style="fill: rgb(77, 141, 175);" transform="matrix(1, 0, 0, 1, 2.2737367544323206e-13, 0)"/><path d="M 1935.1300048828125 1157.9300537109375 L 1930.77001953125 1157.9300537109375 L 1929.6500244140625 1147.969970703125 L 1934.010009765625 1147.969970703125 L 1935.1300048828125 1157.9300537109375 Z" class="cls-9" style="fill: rgb(59, 120, 147);" transform="matrix(1, 0, 0, 1, 2.2737367544323206e-13, 0)"/><path d="M 2010.0699462890625 1157.9300537109375 L 2005.7099609375 1157.9300537109375 L 2004.5899658203125 1147.969970703125 L 2008.949951171875 1147.969970703125 L 2010.0699462890625 1157.9300537109375 Z" class="cls-9" style="fill: rgb(59, 120, 147);" transform="matrix(1, 0, 0, 1, 2.2737367544323206e-13, 0)"/><path d="M 1923.9300537109375 1097.1199951171875 L 1925.050048828125 1107.0699462890625 L 2004.3499755859375 1107.0699462890625 L 2003.219970703125 1097.1199951171875 L 1923.9300537109375 1097.1199951171875 Z" class="cls-8" style="fill: rgb(77, 141, 175);" transform="matrix(1, 0, 0, 1, 2.2737367544323206e-13, 0)"/><path d="M 1929.4100341796875 1107.0699462890625 L 1925.050048828125 1107.0699462890625 L 1923.9300537109375 1097.1199951171875 L 1928.2900390625 1097.1199951171875 L 1929.4100341796875 1107.0699462890625 Z" class="cls-9" style="fill: rgb(59, 120, 147);" transform="matrix(1, 0, 0, 1, 2.2737367544323206e-13, 0)"/><path d="M 2004.3499755859375 1107.0699462890625 L 1999.989990234375 1107.0699462890625 L 1998.8699951171875 1097.1199951171875 L 2003.219970703125 1097.1199951171875 L 2004.3499755859375 1107.0699462890625 Z" class="cls-9" style="fill: rgb(59, 120, 147);" transform="matrix(1, 0, 0, 1, 2.2737367544323206e-13, 0)"/><path d="M 1918.2099609375 1046.260009765625 L 1919.3299560546875 1056.2099609375 L 1998.6199951171875 1056.2099609375 L 1997.5 1046.260009765625 L 1918.2099609375 1046.260009765625 Z" class="cls-8" style="fill: rgb(77, 141, 175);" transform="matrix(1, 0, 0, 1, 2.2737367544323206e-13, 0)"/><path d="M 1923.6800537109375 1056.2099609375 L 1919.3299560546875 1056.2099609375 L 1918.2099609375 1046.260009765625 L 1922.5699462890625 1046.260009765625 L 1923.6800537109375 1056.2099609375 Z" class="cls-9" style="fill: rgb(59, 120, 147);" transform="matrix(1, 0, 0, 1, 2.2737367544323206e-13, 0)"/><path d="M 1998.6199951171875 1056.2099609375 L 1994.27001953125 1056.2099609375 L 1993.1500244140625 1046.260009765625 L 1997.5 1046.260009765625 L 1998.6199951171875 1056.2099609375 Z" class="cls-9" style="fill: rgb(59, 120, 147);" transform="matrix(1, 0, 0, 1, 2.2737367544323206e-13, 0)"/><path d="M 1912.489990234375 995.3900146484375 L 1913.6099853515625 1005.3499755859375 L 1992.9000244140625 1005.3499755859375 L 1991.780029296875 995.3900146484375 L 1912.489990234375 995.3900146484375 Z" class="cls-8" style="fill: rgb(77, 141, 175);" transform="matrix(1, 0, 0, 1, 2.2737367544323206e-13, 0)"/><path d="M 1917.9599609375 1005.3499755859375 L 1913.6099853515625 1005.3499755859375 L 1912.489990234375 995.3900146484375 L 1916.8399658203125 995.3900146484375 L 1917.9599609375 1005.3499755859375 Z" class="cls-9" style="fill: rgb(59, 120, 147);" transform="matrix(1, 0, 0, 1, 2.2737367544323206e-13, 0)"/><path d="M 1992.9000244140625 1005.3499755859375 L 1988.5400390625 1005.3499755859375 L 1987.4200439453125 995.3900146484375 L 1991.780029296875 995.3900146484375 L 1992.9000244140625 1005.3499755859375 Z" class="cls-9" style="fill: rgb(59, 120, 147);" transform="matrix(1, 0, 0, 1, 2.2737367544323206e-13, 0)"/><path d="M 1884.589966 964.059998 H 2013.919968 V 969.739997 H 1884.589966 V 964.059998 Z" class="cls-6" style="fill: rgb(57, 99, 114);" transform="matrix(1, 0, 0, 1, 2.2737367544323206e-13, 0)"/><path d="M 1884.589966 951.01001 H 2013.919968 V 964.06001 H 1884.589966 V 951.01001 Z" class="cls-5" style="fill: rgb(67, 116, 137);" transform="matrix(1, 0, 0, 1, 2.2737367544323206e-13, 0)"/><path class="cls-10" d="M1696.88,1310.08l-24.6,61h61.09l-24.6-61A6.41,6.41,0,0,0,1696.88,1310.08Z" style="fill: rgb(39, 145, 133);" transform="matrix(1, 0, 0, 1, 2.2737367544323206e-13, 0)"/><path d="M 1671.640005 1371.130005 H 1734.020006 A 6.01 6.01 0 0 1 1740.030006 1377.140005 V 1377.140005 A 6.01 6.01 0 0 1 1734.020006 1383.150005 H 1671.640005 A 6.01 6.01 0 0 1 1665.630005 1377.140005 V 1377.140005 A 6.01 6.01 0 0 1 1671.640005 1371.130005 Z" class="cls-11" style="fill: rgb(201, 39, 35);" transform="matrix(1, 0, 0, 1, 2.2737367544323206e-13, 0)"/><path class="cls-12" d="M1671,1383.15h63.74c2.94,0,5.33-2.69,5.33-6h-74.4C1665.63,1380.46,1668,1383.15,1671,1383.15Z" style="fill: rgb(186, 32, 32);" transform="matrix(1, 0, 0, 1, 2.2737367544323206e-13, 0)"/><path d="M 1672.280029296875 1371.1300048828125 L 1733.3800048828125 1371.1300048828125 L 1731.81005859375 1367.25 L 1673.8499755859375 1367.25 L 1672.280029296875 1371.1300048828125 Z" class="cls-13" style="fill: rgb(221, 54, 49);" transform="matrix(1, 0, 0, 1, 2.2737367544323206e-13, 0)"/><path d="M 1686.739990234375 1335.260009765625 L 1718.9200439453125 1335.260009765625 L 1717.3599853515625 1331.3699951171875 L 1688.300048828125 1331.3699951171875 L 1686.739990234375 1335.260009765625 Z" class="cls-13" style="fill: rgb(34, 128, 117);" transform="matrix(1, 0, 0, 1, 2.2737367544323206e-13, 0)"/><path d="M 1689.8299560546875 1327.5799560546875 L 1715.8299560546875 1327.5799560546875 L 1714.260009765625 1323.699951171875 L 1691.3900146484375 1323.699951171875 L 1689.8299560546875 1327.5799560546875 Z" class="cls-13" style="fill: rgb(34, 128, 117);" transform="matrix(1, 0, 0, 1, 2.2737367544323206e-13, 0)"/><path class="cls-14" d="M998.58,998.21l73.11-40.39L1030.78,859l-80.26,23.11A270.4,270.4,0,0,0,889.33,821l23.14-80.28-98.79-40.93-40.42,73.12a270.4,270.4,0,0,0-86.52,0l-40.39-73.11-98.8,40.91,23.11,80.26a270.4,270.4,0,0,0-61.17,61.19l-80.28-23.14-40.93,98.79,73.12,40.42a270.39,270.39,0,0,0,0,86.52l-73.11,40.39,40.91,98.8,80.26-23.11a270.39,270.39,0,0,0,61.19,61.17l-23.14,80.28,98.79,40.93L686.69,1310a270.39,270.39,0,0,0,86.52,0l40.39,73.11,98.8-40.91L889.29,1262a270.39,270.39,0,0,0,61.17-61.19l80.28,23.14,40.93-98.79-73.12-40.42A270.4,270.4,0,0,0,998.58,998.21Zm-227.71,142a106.88,106.88,0,1,1,57.86-139.64A106.88,106.88,0,0,1,770.87,1140.19Z" style="fill: rgb(109, 110, 113);" transform="matrix(1, 0, 0, 1, 2.2737367544323206e-13, 0)"/><path class="cls-15" d="M730,840.43c-111,0-201,90-201,201s90,201,201,201,201-90,201-201S841,840.43,730,840.43Zm40.89,299.76a106.88,106.88,0,1,1,57.86-139.64A106.88,106.88,0,0,1,770.87,1140.19Z" style="fill: rgb(128, 130, 133);" transform="matrix(1, 0, 0, 1, 2.2737367544323206e-13, 0)"/><path d="M 832.86998 1245.130005 A 138.009995 138.009995 0 0 1 694.859985 1383.139999 A 138.009995 138.009995 0 0 1 556.849991 1245.130005 A 138.009995 138.009995 0 0 1 694.859985 1107.12001 A 138.009995 138.009995 0 0 1 832.86998 1245.130005 Z" class="cls-16" transform="matrix(0.5718595668753005, -0.8203515318283948, 0.8203515318283948, 0.5718595668753005, -723.9400010219214, 1103.1099773751193)" style="fill: rgb(216, 151, 40);"/><path d="M 671.75 1158.48999 H 717.959999 V 1331.769989 H 671.75 V 1158.48999 Z" class="cls-17" transform="matrix(0.5718595668753005, -0.8203515318283948, 0.8203515318283948, 0.5718595668753005, -723.9400010219214, 1103.1099773751193)" style="fill: rgb(230, 231, 232);"/><path class="cls-14" d="M2015.94,982.24l36.25-20-20.29-49-39.8,11.46a134.08,134.08,0,0,0-30.34-30.33l11.48-39.81-49-20.3-20,36.26a134.08,134.08,0,0,0-42.9,0l-20-36.25-49,20.29,11.46,39.8a134.08,134.08,0,0,0-30.33,30.34l-39.81-11.48-20.3,49,36.26,20a134.08,134.08,0,0,0,0,42.9l-36.25,20,20.29,49,39.8-11.46a134.08,134.08,0,0,0,30.34,30.33l-11.48,39.81,49,20.3,20-36.26a134.08,134.08,0,0,0,42.9,0l20,36.25,49-20.29-11.46-39.8a134.08,134.08,0,0,0,30.33-30.34l39.81,11.48,20.3-49-36.26-20A134.08,134.08,0,0,0,2015.94,982.24ZM1903,1052.64a53,53,0,1,1,28.69-69.24A53,53,0,0,1,1903,1052.64Z" style="fill: rgb(109, 110, 113);" transform="matrix(1, 0, 0, 1, 2.2737367544323206e-13, 0)"/><path class="cls-15" d="M1882.75,904a99.67,99.67,0,1,0,99.67,99.67A99.67,99.67,0,0,0,1882.75,904ZM1903,1052.64a53,53,0,1,1,28.69-69.24A53,53,0,0,1,1903,1052.64Z" style="fill: rgb(128, 130, 133);" transform="matrix(1, 0, 0, 1, 2.2737367544323206e-13, 0)"/><path class="cls-18" d="M618.61,1265.36H492.22v101.71a16.08,16.08,0,0,0,16.08,16.08h94.23a16.08,16.08,0,0,0,16.08-16.08Z" style="fill: rgb(187, 187, 187);" transform="matrix(1, 0, 0, 1, 2.2737367544323206e-13, 0)"/><path d="M 495.950012 1242.160034 H 614.880005 A 10.25 10.25 0 0 1 625.130005 1252.410034 V 1255.120033 A 10.25 10.25 0 0 1 614.880005 1265.370033 H 495.950012 A 10.25 10.25 0 0 1 485.700012 1255.120033 V 1252.410034 A 10.25 10.25 0 0 1 495.950012 1242.160034 Z" class="cls-19" style="fill: rgb(167, 169, 172);" transform="matrix(1, 0, 0, 1, 2.2737367544323206e-13, 0)"/><path class="cls-20" d="M555.42,1337c-19.05,0-36.87-5.72-50.17-16.12-15.27-11.93-23.34-28.92-23.34-49.13a5.14,5.14,0,1,1,10.29,0c0,37.76,32.77,55,63.23,55s63.23-17.2,63.23-55a5.14,5.14,0,1,1,10.29,0c0,20.21-8.07,37.2-23.34,49.13C592.29,1331.27,574.47,1337,555.42,1337Z" style="fill: rgb(147, 149, 152);" transform="matrix(1, 0, 0, 1, 2.2737367544323206e-13, 0)"/><path class="cls-18" d="M890.26,1265.36H763.88v101.71A16.08,16.08,0,0,0,780,1383.15h94.23a16.08,16.08,0,0,0,16.08-16.08Z" style="fill: rgb(187, 187, 187);" transform="matrix(1, 0, 0, 1, 2.2737367544323206e-13, 0)"/><path d="M 767.609985 1242.160034 H 886.539978 A 10.25 10.25 0 0 1 896.789978 1252.410034 V 1255.120033 A 10.25 10.25 0 0 1 886.539978 1265.370033 H 767.609985 A 10.25 10.25 0 0 1 757.359985 1255.120033 V 1252.410034 A 10.25 10.25 0 0 1 767.609985 1242.160034 Z" class="cls-19" style="fill: rgb(167, 169, 172);" transform="matrix(1, 0, 0, 1, 2.2737367544323206e-13, 0)"/><path class="cls-20" d="M827.07,1337c-19.05,0-36.87-5.72-50.17-16.12-15.27-11.93-23.34-28.92-23.34-49.13a5.14,5.14,0,1,1,10.29,0c0,37.76,32.77,55,63.23,55s63.23-17.2,63.23-55a5.14,5.14,0,1,1,10.29,0c0,20.21-8.07,37.2-23.34,49.13C863.94,1331.27,846.13,1337,827.07,1337Z" style="fill: rgb(147, 149, 152);" transform="matrix(1, 0, 0, 1, 2.2737367544323206e-13, 0)"/><path class="cls-18" d="M890.26,1124.37H763.88v101.71A16.08,16.08,0,0,0,780,1242.16h94.23a16.08,16.08,0,0,0,16.08-16.08Z" style="fill: rgb(187, 187, 187);" transform="matrix(1, 0, 0, 1, 2.2737367544323206e-13, 0)"/><path d="M 767.609985 1101.160034 H 886.539978 A 10.25 10.25 0 0 1 896.789978 1111.410034 V 1114.120033 A 10.25 10.25 0 0 1 886.539978 1124.370033 H 767.609985 A 10.25 10.25 0 0 1 757.359985 1114.120033 V 1111.410034 A 10.25 10.25 0 0 1 767.609985 1101.160034 Z" class="cls-19" style="fill: rgb(167, 169, 172);" transform="matrix(1, 0, 0, 1, 2.2737367544323206e-13, 0)"/><path class="cls-20" d="M827.07,1196c-19.05,0-36.87-5.72-50.17-16.12-15.27-11.93-23.34-28.92-23.34-49.13a5.14,5.14,0,1,1,10.29,0c0,37.76,32.77,55,63.23,55s63.23-17.2,63.23-55a5.14,5.14,0,1,1,10.29,0c0,20.21-8.07,37.2-23.34,49.13C863.94,1190.27,846.13,1196,827.07,1196Z" style="fill: rgb(147, 149, 152);" transform="matrix(1, 0, 0, 1, 2.2737367544323206e-13, 0)"/><g id="_Group_" data-name="&lt;Group&gt;" transform="matrix(1, 0, 0, 1, 2.2737367544323206e-13, 0)"><g id="_Group_2" data-name="&lt;Group&gt;"><path id="_Path_" data-name="&lt;Path&gt;" class="cls-21" d="M1694.29,1138.88H1732v145.24h-53.12a11.81,11.81,0,0,1-11.72-13.3l15.46-121.61A11.81,11.81,0,0,1,1694.29,1138.88Z" style="fill: rgb(241, 194, 50);"/><path d="M 1718.660034 1138.880005 H 1731.960034 V 1284.12001 H 1718.660034 V 1138.880005 Z" id="_Path_2" data-name="&lt;Path&gt;" class="cls-22" style="fill: rgb(228, 180, 43);"/><path id="_Path_3" data-name="&lt;Path&gt;" class="cls-21" d="M1892.09,1254.08h166V1084.79a7.65,7.65,0,0,0-7.65-7.65H1899.74a7.65,7.65,0,0,0-7.65,7.65Z" style="fill: rgb(241, 194, 50);"/><path id="_Path_4" data-name="&lt;Path&gt;" class="cls-21" d="M1733.7,1093h158.38v161.06h-166V1100.67A7.65,7.65,0,0,1,1733.7,1093Z" style="fill: rgb(241, 194, 50);"/><path d="M 1884.52002 1093.02002 H 1892.080019 V 1254.080017 H 1884.52002 V 1093.02002 Z" id="_Path_5" data-name="&lt;Path&gt;" class="cls-22" style="fill: rgb(228, 180, 43);"/><path d="M 1731.949951 1254.079956 H 2058.109955 V 1284.119957 H 1731.949951 V 1254.079956 Z" id="_Path_6" data-name="&lt;Path&gt;" class="cls-23" style="fill: rgb(241, 176, 55);"/><path id="_Path_7" data-name="&lt;Path&gt;" class="cls-24" d="M2195.65,1337.81a7.59,7.59,0,0,1-7.54-6.47,50.47,50.47,0,0,0-99.93,0,7.59,7.59,0,0,1-7.54,6.47h-4.07a10.79,10.79,0,0,1-10.79-10.79v-72.94h-7.67v16.54a13.5,13.5,0,0,1-13.5,13.5H1742.12v59.31a7.11,7.11,0,0,0,6.23,7.17,6.91,6.91,0,0,0,7.58-6.87v-39.67a1.84,1.84,0,0,1,1.84-1.84h0a1.84,1.84,0,0,1,1.81,1.5l7.28,39.06a9.61,9.61,0,0,0,9.44,7.85h151.17a9.61,9.61,0,0,0,6.79-2.81l5-5a9.61,9.61,0,0,1,6.79-2.81h92.62a9.61,9.61,0,0,1,6.79,2.81l7.56,7.55a9.61,9.61,0,0,0,6.79,2.81h157.06a9.61,9.61,0,0,0,9.61-9.61v-5.73Z" style="fill: rgb(51, 51, 51);"/><path d="M 2182.859894 1338.430054 A 44.720001 44.720001 0 0 1 2138.139893 1383.150055 A 44.720001 44.720001 0 0 1 2093.419891 1338.430054 A 44.720001 44.720001 0 0 1 2138.139893 1293.710052 A 44.720001 44.720001 0 0 1 2182.859894 1338.430054 Z" id="_Path_8" data-name="&lt;Path&gt;" class="cls-25" style="fill: rgb(38, 38, 38);"/><path id="_Path_9" data-name="&lt;Path&gt;" class="cls-26" d="M2248.76,1267.26l-50.27-166.57a10.79,10.79,0,0,0-10.33-7.67h-107a15.34,15.34,0,0,0-15.34,15.34V1327a10.79,10.79,0,0,0,10.79,10.79h4.07a7.59,7.59,0,0,0,7.54-6.47,50.47,50.47,0,0,1,99.93,0,7.59,7.59,0,0,0,7.54,6.47h38.88a10.79,10.79,0,0,0,7.63-3.16l3.91-3.91a10.79,10.79,0,0,0,3.16-7.63v-52.74A10.78,10.78,0,0,0,2248.76,1267.26Z" style="fill: rgb(236, 221, 187);"/><path id="_Path_10" data-name="&lt;Path&gt;" class="cls-27" d="M2066.92,1102.57a15.34,15.34,0,0,1,14.21-9.55h107a10.78,10.78,0,0,1,10.33,7.67l50.27,166.57a10.78,10.78,0,0,1,.46,3.12v51.41C2127.5,1301.71,2083,1179.15,2066.92,1102.57Z" style="fill: rgb(252, 238, 200);"/><g id="_Group_3" data-name="&lt;Group&gt;"><path id="_Compound_Path_" data-name="&lt;Compound Path&gt;" class="cls-24" d="M2138.14,1371.14a32.71,32.71,0,1,1,32.71-32.71A32.75,32.75,0,0,1,2138.14,1371.14Zm0-63.09a30.38,30.38,0,1,0,30.38,30.38A30.42,30.42,0,0,0,2138.14,1308Z" style="fill: rgb(51, 51, 51);"/></g><path d="M 2158.889893 1338.430054 A 20.75 20.75 0 0 1 2138.139893 1359.180054 A 20.75 20.75 0 0 1 2117.389893 1338.430054 A 20.75 20.75 0 0 1 2138.139893 1317.680054 A 20.75 20.75 0 0 1 2158.889893 1338.430054 Z" id="_Path_11" data-name="&lt;Path&gt;" class="cls-28" style="fill: rgb(111, 113, 113);"/><path id="_Path_12" data-name="&lt;Path&gt;" class="cls-29" d="M2150.37,1338.46c-3.39,1-21.05,1-24.45,0-3.9-.74-.83-13.58,12.22-13.85C2151.2,1324.89,2154.26,1337.73,2150.37,1338.46Z" style="fill: rgb(149, 149, 149);"/><g id="_Group_4" data-name="&lt;Group&gt;"><path d="M 1896.53006 1338.430054 A 44.720001 44.720001 0 0 1 1851.810059 1383.150055 A 44.720001 44.720001 0 0 1 1807.090057 1338.430054 A 44.720001 44.720001 0 0 1 1851.810059 1293.710052 A 44.720001 44.720001 0 0 1 1896.53006 1338.430054 Z" id="_Path_13" data-name="&lt;Path&gt;" class="cls-25" style="fill: rgb(38, 38, 38);"/><g id="_Group_5" data-name="&lt;Group&gt;"><path id="_Compound_Path_2" data-name="&lt;Compound Path&gt;" class="cls-24" d="M1851.81,1371.14a32.71,32.71,0,1,1,32.71-32.71A32.75,32.75,0,0,1,1851.81,1371.14Zm0-63.09a30.38,30.38,0,1,0,30.38,30.38A30.42,30.42,0,0,0,1851.81,1308Z" style="fill: rgb(51, 51, 51);"/></g><path d="M 1872.560059 1338.430054 A 20.75 20.75 0 0 1 1851.810059 1359.180054 A 20.75 20.75 0 0 1 1831.060059 1338.430054 A 20.75 20.75 0 0 1 1851.810059 1317.680054 A 20.75 20.75 0 0 1 1872.560059 1338.430054 Z" id="_Path_14" data-name="&lt;Path&gt;" class="cls-28" style="fill: rgb(111, 113, 113);"/><path id="_Path_15" data-name="&lt;Path&gt;" class="cls-29" d="M1864,1338.46c-3.39,1-21.05,1-24.45,0-3.9-.74-.83-13.58,12.22-13.85C1864.86,1324.89,1867.93,1337.73,1864,1338.46Z" style="fill: rgb(149, 149, 149);"/></g><path d="M 2213.750117 1300.420044 H 2251.130116 A 2.88 2.88 0 0 1 2254.010117 1303.300044 V 1323.270043 A 2.88 2.88 0 0 1 2251.130116 1326.150043 H 2213.750117 A 2.88 2.88 0 0 1 2210.870117 1323.270043 V 1303.300044 A 2.88 2.88 0 0 1 2213.750117 1300.420044 Z" id="_Path_16" data-name="&lt;Path&gt;" class="cls-25" style="fill: rgb(38, 38, 38);"/><path id="_Path_17" data-name="&lt;Path&gt;" class="cls-30" d="M2231.48,1295.78h19.73a2.8,2.8,0,0,0,2.8-2.8v-19.49a2.8,2.8,0,0,0-2.8-2.8h-19.73Z" style="fill: rgb(241, 230, 79);"/><path id="_Path_18" data-name="&lt;Path&gt;" class="cls-31" d="M2149.22,1191.72l9.67,23.7a5.35,5.35,0,0,0,4.4,3.43l50.17,5.74a5.35,5.35,0,0,0,5.73-6.86l-32.12-108.41a4,4,0,0,0-3.86-2.87h-98a6,6,0,0,0-6,6v70.5a5.35,5.35,0,0,0,5.35,5.35h59.65A5.35,5.35,0,0,1,2149.22,1191.72Z" style="fill: rgb(180, 173, 167);"/><path id="_Path_19" data-name="&lt;Path&gt;" class="cls-25" d="M2237,1215h-4.07c-2.71,0-4.91-1.74-4.91-3.88v-29c0-2.14,2.2-3.88,4.91-3.88H2237c2.71,0,4.91,1.74,4.91,3.88v29C2241.89,1213.3,2239.69,1215,2237,1215Z" style="fill: rgb(38, 38, 38);"/><path id="_Path_20" data-name="&lt;Path&gt;" class="cls-32" d="M2187.07,1109.31a4,4,0,0,0-3.86-2.87h-98a6,6,0,0,0-6,6v10.83h112Z" style="fill: rgb(159, 155, 151);"/><path id="_Path_21" data-name="&lt;Path&gt;" class="cls-24" d="M2233,1215v6.23a2.09,2.09,0,0,1-1,1.82l-8.15,4a1.92,1.92,0,0,0-1,2.27h0a1.92,1.92,0,0,0,2.69,1.16l8.21-4.08a5.94,5.94,0,0,0,3.11-5.22V1215Z" style="fill: rgb(51, 51, 51);"/><path id="_Path_22" data-name="&lt;Path&gt;" class="cls-33" d="M2104.24,1211.84h-21.39a3.65,3.65,0,0,1-3.65-3.65h0a3.65,3.65,0,0,1,3.65-3.65h21.39a3.65,3.65,0,0,1,3.65,3.65h0A3.65,3.65,0,0,1,2104.24,1211.84Z" style="fill: rgb(115, 79, 71);"/><path id="_Path_23" data-name="&lt;Path&gt;" class="cls-34" d="M2058.12,1254.08v16.54a13.48,13.48,0,0,1-.61,4,13.33,13.33,0,0,1-.75,1.85q-.25.51-.53,1a13.54,13.54,0,0,1-2.07,2.69l0,0a13.6,13.6,0,0,1-1.8,1.5l-.42.28a13.43,13.43,0,0,1-2,1.06l-.38.14a13.44,13.44,0,0,1-4.92.94H1736v7h329.79v-37Z" style="fill: rgb(45, 45, 45);"/><path id="_Path_24" data-name="&lt;Path&gt;" class="cls-35" d="M2084.56,1188.25h23.84l-13.09-43.51a8.22,8.22,0,0,0-16.1,2.37v35.79A5.35,5.35,0,0,0,2084.56,1188.25Z" style="fill: rgb(146, 141, 137);"/><path id="_Path_25" data-name="&lt;Path&gt;" class="cls-35" d="M2219.19,1217.72l-3-10h-7.1a3.9,3.9,0,0,0-3.68,2.62l-3.53,10.17-3.3-1,10-29.45a7,7,0,0,0-13.16-4.48l-12.12,35.61,14.13,1.62h0l16,1.83A5.35,5.35,0,0,0,2219.19,1217.72Z" style="fill: rgb(146, 141, 137);"/><path d="M 1731.949951 1254.079956 H 2058.109955 V 1260.399956 H 1731.949951 V 1254.079956 Z" id="_Path_26" data-name="&lt;Path&gt;" class="cls-36" style="fill: rgb(229, 161, 49);"/><path id="_Path_27" data-name="&lt;Path&gt;" class="cls-30" d="M1752.9,1266.85H1751a2.6,2.6,0,0,1-2.6-2.6v-10.16h7.16v10.16A2.6,2.6,0,0,1,1752.9,1266.85Z" style="fill: rgb(241, 230, 79);"/><path id="_Path_28" data-name="&lt;Path&gt;" class="cls-30" d="M1810.74,1266.85h-1.95a2.6,2.6,0,0,1-2.6-2.6v-10.16h7.16v10.16A2.6,2.6,0,0,1,1810.74,1266.85Z" style="fill: rgb(241, 230, 79);"/><path id="_Path_29" data-name="&lt;Path&gt;" class="cls-30" d="M1868.59,1266.85h-1.95a2.6,2.6,0,0,1-2.6-2.6v-10.16h7.16v10.16A2.6,2.6,0,0,1,1868.59,1266.85Z" style="fill: rgb(241, 230, 79);"/><path id="_Path_30" data-name="&lt;Path&gt;" class="cls-30" d="M1926.43,1266.85h-1.95a2.6,2.6,0,0,1-2.6-2.6v-10.16H1929v10.16A2.6,2.6,0,0,1,1926.43,1266.85Z" style="fill: rgb(241, 230, 79);"/><path id="_Path_31" data-name="&lt;Path&gt;" class="cls-30" d="M1984.27,1266.85h-1.95a2.6,2.6,0,0,1-2.6-2.6v-10.16h7.16v10.16A2.6,2.6,0,0,1,1984.27,1266.85Z" style="fill: rgb(241, 230, 79);"/><path id="_Path_32" data-name="&lt;Path&gt;" class="cls-30" d="M2042.11,1266.85h-1.95a2.6,2.6,0,0,1-2.6-2.6v-10.16h7.16v10.16A2.6,2.6,0,0,1,2042.11,1266.85Z" style="fill: rgb(241, 230, 79);"/><path id="_Path_33" data-name="&lt;Path&gt;" class="cls-21" d="M2219.51,1270.7a2.8,2.8,0,0,0-2.8,2.8V1293a2.8,2.8,0,0,0,2.8,2.8H2228V1270.7Z" style="fill: rgb(241, 194, 50);"/></g></g><g id="_Group_6" data-name="&lt;Group&gt;" transform="matrix(1, 0, 0, 1, 2.2737367544323206e-13, 0)"><path d="M 898.270016 589.590027 H 1849.810001 A 32.939999 32.939999 0 0 1 1882.75 622.530025 V 1255.500004 A 32.939999 32.939999 0 0 1 1849.810001 1288.440002 H 898.270016 A 32.939999 32.939999 0 0 1 865.330017 1255.500004 V 622.530025 A 32.939999 32.939999 0 0 1 898.270016 589.590027 Z" id="_Path_34" data-name="&lt;Path&gt;" class="cls-37" style="fill: rgb(241, 241, 242);"/><path id="_Path_35" data-name="&lt;Path&gt;" class="cls-38" d="M1849.81,586.52H898.26a32.94,32.94,0,0,0-32.94,32.94v572.34H1882.75V619.45A32.94,32.94,0,0,0,1849.81,586.52Z" style="fill: rgb(43, 50, 54);"/><path d="M 908.56002 612.210022 H 1839.519997 A 17.540001 17.540001 0 0 1 1857.059998 629.750023 V 1148.560036 A 17.540001 17.540001 0 0 1 1839.519997 1166.100037 H 908.56002 A 17.540001 17.540001 0 0 1 891.02002 1148.560036 V 629.750023 A 17.540001 17.540001 0 0 1 908.56002 612.210022 Z" id="_Path_36" data-name="&lt;Path&gt;" class="cls-39" style="fill: rgb(209, 211, 212);"/><path d="M 1156.969971 1288.459961 H 1591.109985 V 1351.589962 H 1156.969971 V 1288.459961 Z" id="_Path_37" data-name="&lt;Path&gt;" class="cls-40" style="fill: rgb(187, 189, 191);"/><path id="_Path_38" data-name="&lt;Path&gt;" class="cls-41" d="M1591.11,1298.06c0,37-434.14,37-434.14,0v-9.6h434.14Z" style="fill: rgb(166, 168, 171);"/><path id="_Path_39" data-name="&lt;Path&gt;" class="cls-37" d="M1752.22,1383.15H995.85c-10.11,0-18.3-7.07-18.3-15.78h0c0-8.72,8.19-15.78,18.3-15.78h756.38c10.11,0,18.3,7.07,18.3,15.78h0C1770.52,1376.09,1762.33,1383.15,1752.22,1383.15Z" style="fill: rgb(241, 241, 242);"/><path d="M 1397.370039 1241.130005 A 23.33 23.33 0 0 1 1374.040039 1264.460005 A 23.33 23.33 0 0 1 1350.710039 1241.130005 A 23.33 23.33 0 0 1 1374.040039 1217.800005 A 23.33 23.33 0 0 1 1397.370039 1241.130005 Z" class="cls-42" style="fill: rgb(219, 219, 221);"/></g><path d="M 1471.030029 1117.640015 H 1499.660028 V 1383.150024 H 1471.030029 V 1117.640015 Z" class="cls-43" style="fill: rgb(204, 204, 204);" transform="matrix(1, 0, 0, 1, 2.2737367544323206e-13, 0)"/><path d="M 1812.099976 1117.640015 H 1840.729975 V 1383.150024 H 1812.099976 V 1117.640015 Z" class="cls-43" style="fill: rgb(204, 204, 204);" transform="matrix(1, 0, 0, 1, 2.2737367544323206e-13, 0)"/><path d="M 1812.099976 1117.640015 H 1826.409976 V 1383.150024 H 1812.099976 V 1117.640015 Z" class="cls-44" style="fill: rgb(188, 187, 187);" transform="matrix(1, 0, 0, 1, 2.2737367544323206e-13, 0)"/><path d="M 1471.030029 1117.640015 H 1485.34003 V 1383.150024 H 1471.030029 V 1117.640015 Z" class="cls-44" style="fill: rgb(188, 187, 187);" transform="matrix(1, 0, 0, 1, 2.2737367544323206e-13, 0)"/><path d="M 1499.660034 1123.569946 H 1812.100037 V 1245.429947 H 1499.660034 V 1123.569946 Z" class="cls-45" style="fill: rgb(242, 196, 54);" transform="matrix(1, 0, 0, 1, 2.2737367544323206e-13, 0)"/><path d="M 1769.780029296875 1245.4300537109375 L 1812.0999755859375 1245.4300537109375 L 1812.0999755859375 1144.3800048828125 L 1769.780029296875 1245.4300537109375 Z" class="cls-46" style="fill: rgb(35, 39, 37);" transform="matrix(1, 0, 0, 1, 2.2737367544323206e-13, 0)"/><path d="M 1718.739990234375 1245.4300537109375 L 1655.8800048828125 1245.4300537109375 L 1706.9100341796875 1123.5699462890625 L 1769.780029296875 1123.5699462890625 L 1718.739990234375 1245.4300537109375 Z" class="cls-46" style="fill: rgb(35, 39, 37);" transform="matrix(1, 0, 0, 1, 2.2737367544323206e-13, 0)"/><path d="M 1604.8399658203125 1245.4300537109375 L 1541.97998046875 1245.4300537109375 L 1593.02001953125 1123.5699462890625 L 1655.8800048828125 1123.5699462890625 L 1604.8399658203125 1245.4300537109375 Z" class="cls-46" style="fill: rgb(35, 39, 37);" transform="matrix(1, 0, 0, 1, 2.2737367544323206e-13, 0)"/><path d="M 1541.97998046875 1123.5699462890625 L 1499.6600341796875 1123.5699462890625 L 1499.6600341796875 1224.6300048828125 L 1541.97998046875 1123.5699462890625 Z" class="cls-46" style="fill: rgb(35, 39, 37);" transform="matrix(1, 0, 0, 1, 2.2737367544323206e-13, 0)"/><path class="cls-47" d="M1025.07,1383.15h0a9.56,9.56,0,0,0,9.56-9.56V579.89a9.56,9.56,0,0,0-9.56-9.56h0a9.56,9.56,0,0,0-9.56,9.56v793.7A9.56,9.56,0,0,0,1025.07,1383.15Z" style="fill: rgb(242, 177, 55);" transform="matrix(1, 0, 0, 1, 2.2737367544323206e-13, 0)"/><path class="cls-47" d="M1126.75,1383.15h0a9.56,9.56,0,0,0,9.56-9.56V579.89a9.56,9.56,0,0,0-9.56-9.56h0a9.56,9.56,0,0,0-9.56,9.56v793.7A9.56,9.56,0,0,0,1126.75,1383.15Z" style="fill: rgb(242, 177, 55);" transform="matrix(1, 0, 0, 1, 2.2737367544323206e-13, 0)"/><path d="M 1034.630005 1313.060059 H 1117.200005 V 1332.170059 H 1034.630005 V 1313.060059 Z" class="cls-48" style="fill: rgb(242, 195, 65);" transform="matrix(1, 0, 0, 1, 2.2737367544323206e-13, 0)"/><path d="M 1034.630005 1313.060059 H 1042.420005 V 1332.170059 H 1034.630005 V 1313.060059 Z" class="cls-49" style="fill: rgb(226, 181, 68);" transform="matrix(1, 0, 0, 1, 2.2737367544323206e-13, 0)"/><path d="M 1109.410034 1313.060059 H 1117.200034 V 1332.170059 H 1109.410034 V 1313.060059 Z" class="cls-49" style="fill: rgb(226, 181, 68);" transform="matrix(1, 0, 0, 1, 2.2737367544323206e-13, 0)"/><path d="M 1034.630005 1215.359985 H 1117.200005 V 1234.469986 H 1034.630005 V 1215.359985 Z" class="cls-48" style="fill: rgb(242, 195, 65);" transform="matrix(1, 0, 0, 1, 2.2737367544323206e-13, 0)"/><path d="M 1034.630005 1215.359985 H 1042.420005 V 1234.469986 H 1034.630005 V 1215.359985 Z" class="cls-49" style="fill: rgb(226, 181, 68);" transform="matrix(1, 0, 0, 1, 2.2737367544323206e-13, 0)"/><path d="M 1109.410034 1215.359985 H 1117.200034 V 1234.469986 H 1109.410034 V 1215.359985 Z" class="cls-49" style="fill: rgb(226, 181, 68);" transform="matrix(1, 0, 0, 1, 2.2737367544323206e-13, 0)"/><path d="M 1034.630005 1117.660034 H 1117.200005 V 1136.770035 H 1034.630005 V 1117.660034 Z" class="cls-48" style="fill: rgb(242, 195, 65);" transform="matrix(1, 0, 0, 1, 2.2737367544323206e-13, 0)"/><path d="M 1034.630005 1117.660034 H 1042.420005 V 1136.770035 H 1034.630005 V 1117.660034 Z" class="cls-49" style="fill: rgb(226, 181, 68);" transform="matrix(1, 0, 0, 1, 2.2737367544323206e-13, 0)"/><path d="M 1109.410034 1117.660034 H 1117.200034 V 1136.770035 H 1109.410034 V 1117.660034 Z" class="cls-49" style="fill: rgb(226, 181, 68);" transform="matrix(1, 0, 0, 1, 2.2737367544323206e-13, 0)"/><path d="M 1034.630005 1019.960022 H 1117.200005 V 1039.070023 H 1034.630005 V 1019.960022 Z" class="cls-48" style="fill: rgb(242, 195, 65);" transform="matrix(1, 0, 0, 1, 2.2737367544323206e-13, 0)"/><path d="M 1034.630005 1019.960022 H 1042.420005 V 1039.070023 H 1034.630005 V 1019.960022 Z" class="cls-49" style="fill: rgb(226, 181, 68);" transform="matrix(1, 0, 0, 1, 2.2737367544323206e-13, 0)"/><path d="M 1109.410034 1019.960022 H 1117.200034 V 1039.070023 H 1109.410034 V 1019.960022 Z" class="cls-49" style="fill: rgb(226, 181, 68);" transform="matrix(1, 0, 0, 1, 2.2737367544323206e-13, 0)"/><path d="M 1034.630005 922.27002 H 1117.200005 V 941.38002 H 1034.630005 V 922.27002 Z" class="cls-48" style="fill: rgb(242, 195, 65);" transform="matrix(1, 0, 0, 1, 2.2737367544323206e-13, 0)"/><path d="M 1034.630005 922.27002 H 1042.420005 V 941.38002 H 1034.630005 V 922.27002 Z" class="cls-49" style="fill: rgb(226, 181, 68);" transform="matrix(1, 0, 0, 1, 2.2737367544323206e-13, 0)"/><path d="M 1109.410034 922.27002 H 1117.200034 V 941.38002 H 1109.410034 V 922.27002 Z" class="cls-49" style="fill: rgb(226, 181, 68);" transform="matrix(1, 0, 0, 1, 2.2737367544323206e-13, 0)"/><path d="M 1034.630005 824.570007 H 1117.200005 V 843.680008 H 1034.630005 V 824.570007 Z" class="cls-48" style="fill: rgb(242, 195, 65);" transform="matrix(1, 0, 0, 1, 2.2737367544323206e-13, 0)"/><path d="M 1034.630005 824.570007 H 1042.420005 V 843.680008 H 1034.630005 V 824.570007 Z" class="cls-49" style="fill: rgb(226, 181, 68);" transform="matrix(1, 0, 0, 1, 2.2737367544323206e-13, 0)"/><path d="M 1109.410034 824.570007 H 1117.200034 V 843.680008 H 1109.410034 V 824.570007 Z" class="cls-49" style="fill: rgb(226, 181, 68);" transform="matrix(1, 0, 0, 1, 2.2737367544323206e-13, 0)"/><path d="M 1034.630005 726.869995 H 1117.200005 V 745.979996 H 1034.630005 V 726.869995 Z" class="cls-48" style="fill: rgb(242, 195, 65);" transform="matrix(1, 0, 0, 1, 2.2737367544323206e-13, 0)"/><path d="M 1034.630005 726.869995 H 1042.420005 V 745.979996 H 1034.630005 V 726.869995 Z" class="cls-49" style="fill: rgb(226, 181, 68);" transform="matrix(1, 0, 0, 1, 2.2737367544323206e-13, 0)"/><path d="M 1109.410034 726.869995 H 1117.200034 V 745.979996 H 1109.410034 V 726.869995 Z" class="cls-49" style="fill: rgb(226, 181, 68);" transform="matrix(1, 0, 0, 1, 2.2737367544323206e-13, 0)"/><path d="M 1034.630005 629.169983 H 1117.200005 V 648.279984 H 1034.630005 V 629.169983 Z" class="cls-48" style="fill: rgb(242, 195, 65);" transform="matrix(1, 0, 0, 1, 2.2737367544323206e-13, 0)"/><path d="M 1034.630005 629.169983 H 1042.420005 V 648.279984 H 1034.630005 V 629.169983 Z" class="cls-49" style="fill: rgb(226, 181, 68);" transform="matrix(1, 0, 0, 1, 2.2737367544323206e-13, 0)"/><path d="M 1109.410034 629.169983 H 1117.200034 V 648.279984 H 1109.410034 V 629.169983 Z" class="cls-49" style="fill: rgb(226, 181, 68);" transform="matrix(1, 0, 0, 1, 2.2737367544323206e-13, 0)"/><path d="M 448.8900146484375 408.3599853515625 L 446.7200012207031 405 L 728.3699951171875 222.69000244140625 L 729.219970703125 222.9199981689453 L 1400.989990234375 402.5799865722656 L 1399.949951171875 406.45001220703125 L 729.0499877929688 227.00999450683594 L 448.8900146484375 408.3599853515625 Z" class="cls-25" style="fill: rgb(38, 38, 38);" transform="matrix(1, 0, 0, 1, 2.2737367544323206e-13, 0)"/><path d="M 448.54998779296875 408.3599853515625 L 446.3699951171875 405 L 728.02001953125 222.69000244140625 L 728.8800048828125 222.9199981689453 L 1400.6400146484375 402.5799865722656 L 1399.6099853515625 406.45001220703125 L 728.7000122070312 227.00999450683594 L 448.54998779296875 408.3599853515625 Z" class="cls-25" style="fill: rgb(38, 38, 38);" transform="matrix(1, 0, 0, 1, 2.2737367544323206e-13, 0)"/><path d="M 539.469970703125 408.3599853515625 L 537.2999877929688 405 L 728.02001953125 222.69000244140625 L 728.8800048828125 222.9199981689453 L 1305.469970703125 402.5799865722656 L 1304.43994140625 406.45001220703125 L 728.7000122070312 227.00999450683594 L 539.469970703125 408.3599853515625 Z" class="cls-25" style="fill: rgb(38, 38, 38);" transform="matrix(1, 0, 0, 1, 2.2737367544323206e-13, 0)"/><path class="cls-25" d="M1403,403.48l-1.46-1.46H834v52h619.54ZM856.43,428,839,445.48V410.55ZM842.5,407h34.93L860,424.48ZM860,431.55,877.43,449H842.5ZM863.5,428,881,410.55v34.93ZM886,410.55,903.43,428,886,445.48ZM889.5,407h34.93L907,424.48ZM907,431.55,924.43,449H889.5ZM910.5,428,928,410.55v34.93ZM933,410.55,950.43,428,933,445.48ZM936.5,407h34.93L954,424.48ZM954,431.55,971.43,449H936.5ZM957.5,428,975,410.55v34.93ZM980,410.55,997.43,428,980,445.48ZM983.5,407h34.93L1001,424.48ZM1001,431.55,1018.43,449H983.5Zm3.54-3.54L1022,410.55v34.93ZM1027,410.55,1044.43,428,1027,445.48Zm3.54-3.54h34.93L1048,424.48ZM1048,431.55,1065.43,449H1030.5Zm3.54-3.54L1069,410.55v34.93ZM1074,410.55,1091.43,428,1074,445.48Zm3.54-3.54h34.93L1095,424.48ZM1095,431.55,1112.43,449H1077.5Zm3.54-3.54L1116,410.55v34.93ZM1121,410.55,1138.43,428,1121,445.48Zm3.54-3.54h34.93L1142,424.48ZM1142,431.55,1159.43,449H1124.5Zm3.54-3.54L1163,410.55v34.93ZM1168,410.55,1185.43,428,1168,445.48Zm3.54-3.54h34.93L1189,424.48ZM1189,431.55,1206.43,449H1171.5Zm3.54-3.54L1210,410.55v34.93ZM1215,410.55,1232.43,428,1215,445.48Zm3.54-3.54h34.93L1236,424.48ZM1236,431.55,1253.43,449H1218.5Zm3.54-3.54L1257,410.55v34.93ZM1262,410.55,1279.43,428,1262,445.48Zm3.54-3.54h34.93L1283,424.48ZM1283,431.55,1300.43,449H1265.5Zm3.54-3.54L1304,410.55v34.93ZM1309,410.55,1326.43,428,1309,445.48Zm3.54-3.54h34.93L1330,424.48ZM1330,431.55,1347.43,449H1312.5Zm3.54-3.54L1351,410.55v34.93ZM1356,410.55,1373.43,428,1356,445.48Zm3.54-3.54h34.93L1377,424.48ZM1377,431.55,1394.43,449H1359.5Zm3.54-3.54L1398,410.55v34.93ZM1403,410.55,1441.43,449H1403Z" style="fill: rgb(38, 38, 38);" transform="matrix(1, 0, 0, 1, 2.2737367544323206e-13, 0)"/><path class="cls-25" d="M674.47,563v757h52V516h-52Zm8.54,0,17.46-17.46L717.93,563Zm34.93,5-17.46,17.46L683,568Zm-21,21-17.46,17.46V571.55ZM683,610l17.46-17.46L717.93,610Zm34.93,5-17.46,17.46L683,615Zm-21,21-17.46,17.46V618.55ZM683,657l17.46-17.46L717.93,657Zm34.93,5-17.46,17.46L683,662Zm-21,21-17.46,17.46V665.55ZM683,704l17.46-17.46L717.93,704Zm34.93,5-17.46,17.46L683,709Zm-21,21-17.46,17.46V712.55ZM683,751l17.46-17.46L717.93,751Zm34.93,5-17.46,17.46L683,756Zm-21,21-17.46,17.46V759.55ZM683,798l17.46-17.46L717.93,798Zm34.93,5-17.46,17.46L683,803Zm-21,21-17.46,17.46V806.55ZM683,845l17.46-17.46L717.93,845Zm34.93,5-17.46,17.46L683,850Zm-21,21-17.46,17.46V853.55ZM683,892l17.46-17.46L717.93,892Zm34.93,5-17.46,17.46L683,897Zm-21,21-17.46,17.46V900.55ZM683,939l17.46-17.46L717.93,939Zm34.93,5-17.46,17.46L683,944Zm-21,21-17.46,17.46V947.55ZM683,986l17.46-17.46L717.93,986Zm34.93,5-17.46,17.46L683,991Zm-21,21-17.46,17.46V994.55ZM683,1033l17.46-17.46L717.93,1033Zm34.93,5-17.46,17.46L683,1038Zm-21,21-17.46,17.46v-34.93ZM683,1080l17.46-17.46L717.93,1080Zm34.93,5-17.46,17.46L683,1085Zm-21,21-17.46,17.46v-34.93ZM683,1127l17.46-17.46L717.93,1127Zm34.93,5-17.46,17.46L683,1132Zm-21,21-17.46,17.46v-34.93ZM683,1174l17.46-17.46L717.93,1174Zm34.93,5-17.46,17.46L683,1179Zm-21,21-17.46,17.46v-34.93ZM683,1221l17.46-17.46L717.93,1221Zm34.93,5-17.46,17.46L683,1226Zm-21,21-17.46,17.46v-34.93ZM683,1268l17.46-17.46L717.93,1268Zm34.93,5-17.46,17.46L683,1273Zm-21,21-17.46,17.46v-34.93Zm3.54,3.54L717.93,1315H683ZM704,1294l17.46-17.46v34.93Zm0-47,17.46-17.46v34.93Zm0-47,17.46-17.46v34.93Zm0-47,17.46-17.46v34.93Zm0-47,17.46-17.46v34.93Zm0-47,17.46-17.46v34.93Zm0-47,17.46-17.46v34.93Zm0-47,17.46-17.46v34.93Zm0-47,17.46-17.46v34.93Zm0-47,17.46-17.46v34.93Zm0-47,17.46-17.46v34.93Zm0-47,17.46-17.46v34.93Zm0-47,17.46-17.46v34.93Zm0-47,17.46-17.46v34.93Zm0-47,17.46-17.46v34.93Zm0-47,17.46-17.46v34.93Zm0-47,17.46-17.46v34.93Zm-3.54-3.54L683,521h34.93ZM696.93,542l-17.46,17.46V524.55Z" style="fill: rgb(38, 38, 38);" transform="matrix(1, 0, 0, 1, 2.2737367544323206e-13, 0)"/><path class="cls-25" d="M584,402H443v52H636V402H584ZM465.43,428,448,445.48V410.55ZM451.5,407h34.93L469,424.48ZM469,431.55,486.43,449H451.5ZM472.5,428,490,410.55v34.93ZM495,410.55,512.43,428,495,445.48ZM498.5,407h34.93L516,424.48ZM516,431.55,533.43,449H498.5ZM519.5,428,537,410.55v34.93ZM542,410.55,559.43,428,542,445.48ZM545.5,407h34.93L563,424.48ZM563,431.55,580.43,449H545.5ZM566.5,428,584,410.55v34.93ZM589,410.55,606.43,428,589,445.48Zm21,21L627.43,449H592.5ZM613.5,428,631,410.55v34.93ZM610,424.48,592.5,407h34.93Z" style="fill: rgb(38, 38, 38);" transform="matrix(1, 0, 0, 1, 2.2737367544323206e-13, 0)"/><path class="cls-50" d="M648,298.52h0a14.5,14.5,0,0,0-14.5,14.5v105.5h29V313A14.5,14.5,0,0,0,648,298.52Z" style="fill: rgb(242, 242, 242);" transform="matrix(1, 0, 0, 1, 2.2737367544323206e-13, 0)"/><path d="M 700.469971 451.519989 H 836.469971 V 518.519989 H 700.469971 V 451.519989 Z" class="cls-51" style="fill: rgb(216, 152, 40);" transform="matrix(1, 0, 0, 1, 2.2737367544323206e-13, 0)"/><path class="cls-50" d="M838.89,501.52H722.47v-33H838.89a3.25,3.25,0,0,1,3.25,3.25v26.5A3.25,3.25,0,0,1,838.89,501.52Z" style="fill: rgb(242, 242, 242);" transform="matrix(1, 0, 0, 1, 2.2737367544323206e-13, 0)"/><path d="M 633.469971 451.519989 H 700.469971 V 518.519989 H 633.469971 V 451.519989 Z" class="cls-45" style="fill: rgb(242, 196, 54);" transform="matrix(1, 0, 0, 1, 2.2737367544323206e-13, 0)"/><path d="M 622.469971 418.519989 H 847.469971 V 451.519989 H 622.469971 V 418.519989 Z" class="cls-52" style="fill: rgb(190, 117, 42);" transform="matrix(1, 0, 0, 1, 2.2737367544323206e-13, 0)"/><path d="M 836.469970703125 418.510009765625 L 847.469970703125 349.510009765625 L 785.469970703125 287.510009765625 L 700.469970703125 287.510009765625 L 700.469970703125 418.510009765625 L 836.469970703125 418.510009765625 Z" class="cls-51" style="fill: rgb(216, 152, 40);" transform="matrix(1, 0, 0, 1, 2.2737367544323206e-13, 0)"/><path d="M 722.469970703125 396.510009765625 L 722.469970703125 309.510009765625 L 776.3599853515625 309.510009765625 L 825.469970703125 358.6300048828125 L 817.469970703125 396.510009765625 L 722.469970703125 396.510009765625 Z" class="cls-50" style="fill: rgb(242, 242, 242);" transform="matrix(1, 0, 0, 1, 2.2737367544323206e-13, 0)"/><path d="M 647.469970703125 418.510009765625 L 647.469970703125 325.510009765625 L 700.469970703125 299.010009765625 L 700.469970703125 418.510009765625 L 647.469970703125 418.510009765625 Z" class="cls-45" style="fill: rgb(242, 196, 54);" transform="matrix(1, 0, 0, 1, 2.2737367544323206e-13, 0)"/><path class="cls-53" d="M700.47,287.52h22a21.49,21.49,0,0,0-21.47-21h0a21.5,21.5,0,0,0-21.5,21.5v21.5l21-10.5Z" style="fill: rgb(216, 216, 216);" transform="matrix(1, 0, 0, 1, 2.2737367544323206e-13, 0)"/><path class="cls-54" d="M693,290.52h-13.5v-3H693a1.5,1.5,0,0,1,1.5,1.5h0A1.5,1.5,0,0,1,693,290.52Z" style="fill: rgb(181, 177, 177);" transform="matrix(1, 0, 0, 1, 2.2737367544323206e-13, 0)"/><path class="cls-54" d="M693,296.52h-13.5v-3H693a1.5,1.5,0,0,1,1.5,1.5h0A1.5,1.5,0,0,1,693,296.52Z" style="fill: rgb(181, 177, 177);" transform="matrix(1, 0, 0, 1, 2.2737367544323206e-13, 0)"/><path class="cls-54" d="M693,302.52h-13.5v-3H693a1.5,1.5,0,0,1,1.5,1.5h0A1.5,1.5,0,0,1,693,302.52Z" style="fill: rgb(181, 177, 177);" transform="matrix(1, 0, 0, 1, 2.2737367544323206e-13, 0)"/><path d="M 687.469970703125 305.510009765625 L 679.469970703125 305.510009765625 L 679.469970703125 308.510009765625 L 681.469970703125 308.510009765625 L 687.469970703125 305.510009765625 Z" class="cls-54" style="fill: rgb(181, 177, 177);" transform="matrix(1, 0, 0, 1, 2.2737367544323206e-13, 0)"/><path d="M 468.970001 451.519989 H 539.470001 V 464.519989 H 468.970001 V 451.519989 Z" class="cls-55" style="fill: rgb(188, 125, 25);" transform="matrix(1, 0, 0, 1, 2.2737367544323206e-13, 0)"/><path d="M 477.220001 464.519989 H 531.220001 V 477.519989 H 477.220001 V 464.519989 Z" class="cls-51" style="fill: rgb(216, 152, 40);" transform="matrix(1, 0, 0, 1, 2.2737367544323206e-13, 0)"/><path d="M 1223.969971 451.519989 H 1294.469971 V 464.519989 H 1223.969971 V 451.519989 Z" class="cls-55" style="fill: rgb(188, 125, 25);" transform="matrix(1, 0, 0, 1, 2.2737367544323206e-13, 0)"/><path d="M 1230.469971 795 H 1287.969971 A 6.5 6.5 0 0 1 1294.469971 801.5 V 801.5 A 6.5 6.5 0 0 1 1287.969971 808 H 1230.469971 A 6.5 6.5 0 0 1 1223.969971 801.5 V 801.5 A 6.5 6.5 0 0 1 1230.469971 795 Z" class="cls-55" style="fill: rgb(188, 125, 25);" transform="matrix(1, 0, 0, 1, 2.2737367544323206e-13, 0)"/><path d="M 1232.219971 464.519989 H 1286.219971 V 477.519989 H 1232.219971 V 464.519989 Z" class="cls-51" style="fill: rgb(216, 152, 40);" transform="matrix(1, 0, 0, 1, 2.2737367544323206e-13, 0)"/><path d="M 644.969971 518.52002 H 755.969971 V 531.52002 H 644.969971 V 518.52002 Z" class="cls-55" style="fill: rgb(188, 125, 25);" transform="matrix(1, 0, 0, 1, 2.2737367544323206e-13, 0)"/><path d="M 657.960022 531.52002 H 742.980019 V 544.52002 H 657.960022 V 531.52002 Z" class="cls-51" style="fill: rgb(216, 152, 40);" transform="matrix(1, 0, 0, 1, 2.2737367544323206e-13, 0)"/><path class="cls-45" d="M728.71,216.85h0a6.26,6.26,0,0,0-6.26,6.26v64.4H735v-64.4A6.26,6.26,0,0,0,728.71,216.85Z" style="fill: rgb(242, 196, 54);" transform="matrix(1, 0, 0, 1, 2.2737367544323206e-13, 0)"/><path d="M 569.469971 1351.589966 H 831.469971 V 1383.149965 H 569.469971 V 1351.589966 Z" class="cls-55" style="fill: rgb(188, 125, 25);" transform="matrix(1, 0, 0, 1, 2.2737367544323206e-13, 0)"/><path d="M 585.799988 1320.030029 H 815.12999 V 1351.590029 H 585.799988 V 1320.030029 Z" class="cls-45" style="fill: rgb(242, 196, 54);" transform="matrix(1, 0, 0, 1, 2.2737367544323206e-13, 0)"/><path d="M 1241.069946 477.519989 H 1247.069946 V 795 H 1241.069946 V 477.519989 Z" class="cls-25" style="fill: rgb(38, 38, 38);" transform="matrix(1, 0, 0, 1, 2.2737367544323206e-13, 0)"/><path d="M 1271.369995 477.519989 H 1277.369995 V 795 H 1271.369995 V 477.519989 Z" class="cls-25" style="fill: rgb(38, 38, 38);" transform="matrix(1, 0, 0, 1, 2.2737367544323206e-13, 0)"/><path d="M 1231.619995 808 H 1286.819996 V 818.7 H 1231.619995 V 808 Z" class="cls-51" style="fill: rgb(216, 152, 40);" transform="matrix(1, 0, 0, 1, 2.2737367544323206e-13, 0)"/><path d="M 1259.219970703125 818.7000122070312 L 1231.6199951171875 818.7000122070312 L 1242.27001953125 837.75 L 1259.219970703125 837.75 L 1276.1700439453125 837.75 L 1286.8199462890625 818.7000122070312 L 1259.219970703125 818.7000122070312 Z" class="cls-52" style="fill: rgb(190, 117, 42);" transform="matrix(1, 0, 0, 1, 2.2737367544323206e-13, 0)"/><path class="cls-51" d="M1274,856.35l-1.31,1.63a14.27,14.27,0,0,0-2.62,5.58,11.29,11.29,0,0,1-11.48,8.54,11.28,11.28,0,0,1-1.83-22.29,7.61,7.61,0,0,0,5.86-7.51v-4.56h-7v4.56a.73.73,0,0,1-.58.71,18.28,18.28,0,0,0,4,36.09h.14a18.11,18.11,0,0,0,12.61-5.06,18.38,18.38,0,0,0,3.33-4.27,12.9,12.9,0,0,0-.63-13.42h0A.27.27,0,0,0,1274,856.35Z" style="fill: rgb(216, 152, 40);" transform="matrix(1, 0, 0, 1, 2.2737367544323206e-13, 0)"/><path class="cls-10" d="M896.76,1119.72l-88.69,220.09h220.25l-88.69-220.09C931.86,1100.42,904.54,1100.42,896.76,1119.72Z" style="fill: rgb(39, 145, 133);" transform="matrix(1, 0, 0, 1, 2.2737367544323206e-13, 0)"/><path d="M 805.760027 1339.819946 H 1030.630018 A 21.67 21.665001 0 0 1 1052.300018 1361.484947 V 1361.484947 A 21.67 21.665001 0 0 1 1030.630018 1383.149948 H 805.760027 A 21.67 21.665001 0 0 1 784.090027 1361.484947 V 1361.484947 A 21.67 21.665001 0 0 1 805.760027 1339.819946 Z" class="cls-11" style="fill: rgb(48, 177, 162);" transform="matrix(1, 0, 0, 1, 2.2737367544323206e-13, 0)"/><path class="cls-12" d="M803.3,1383.15h229.8c10.61,0,19.2-9.7,19.2-21.67H784.09C784.09,1373.45,792.69,1383.15,803.3,1383.15Z" style="fill: rgb(39, 145, 133);" transform="matrix(1, 0, 0, 1, 2.2737367544323206e-13, 0)"/><path d="M 808.0700073242188 1339.8199462890625 L 1028.3199462890625 1339.8199462890625 L 1022.6799926757812 1325.8199462890625 L 813.7100219726562 1325.8199462890625 L 808.0700073242188 1339.8199462890625 Z" class="cls-13" style="fill: rgb(48, 179, 163);" transform="matrix(1, 0, 0, 1, 2.2737367544323206e-13, 0)"/><path d="M 860.1900024414062 1210.47998046875 L 976.2100219726562 1210.47998046875 L 970.5700073242188 1196.47998046875 L 865.8300170898438 1196.47998046875 L 860.1900024414062 1210.47998046875 Z" class="cls-13" style="fill: rgb(25, 94, 86);" transform="matrix(1, 0, 0, 1, 2.2737367544323206e-13, 0)"/><path d="M 871.3400268554688 1182.8199462890625 L 965.0599975585938 1182.8199462890625 L 959.4199829101562 1168.8199462890625 L 876.97998046875 1168.8199462890625 L 871.3400268554688 1182.8199462890625 Z" class="cls-13" style="fill: rgb(25, 94, 86);" transform="matrix(1, 0, 0, 1, 2.2737367544323206e-13, 0)"/><path class="cls-10" d="M1973.46,1310.08l-24.6,61h61.09l-24.6-61A6.41,6.41,0,0,0,1973.46,1310.08Z" style="fill: rgb(39, 145, 133);" transform="matrix(1, 0, 0, 1, 2.2737367544323206e-13, 0)"/><path d="M 1948.209951 1371.130005 H 2010.589952 A 6.01 6.01 0 0 1 2016.599953 1377.140005 V 1377.140005 A 6.01 6.01 0 0 1 2010.589952 1383.150005 H 1948.209951 A 6.01 6.01 0 0 1 1942.199951 1377.140005 V 1377.140005 A 6.01 6.01 0 0 1 1948.209951 1371.130005 Z" class="cls-11" style="fill: rgb(39, 145, 133);" transform="matrix(1, 0, 0, 1, 2.2737367544323206e-13, 0)"/><path class="cls-12" d="M1947.53,1383.15h63.74c2.94,0,5.33-2.69,5.33-6h-74.4C1942.2,1380.46,1944.59,1383.15,1947.53,1383.15Z" style="fill: rgb(34, 128, 117);" transform="matrix(1, 0, 0, 1, 2.2737367544323206e-13, 0)"/><path d="M 1948.8599853515625 1371.1300048828125 L 2009.949951171875 1371.1300048828125 L 2008.3800048828125 1367.25 L 1950.4200439453125 1367.25 L 1948.8599853515625 1371.1300048828125 Z" class="cls-13" style="fill: rgb(39, 145, 133);" transform="matrix(1, 0, 0, 1, 2.2737367544323206e-13, 0)"/><path d="M 1963.31005859375 1335.260009765625 L 1995.489990234375 1335.260009765625 L 1993.9300537109375 1331.3699951171875 L 1964.8800048828125 1331.3699951171875 L 1963.31005859375 1335.260009765625 Z" class="cls-13" style="fill: rgb(34, 128, 117);" transform="matrix(1, 0, 0, 1, 2.2737367544323206e-13, 0)"/><path d="M 1966.4000244140625 1327.5799560546875 L 1992.4000244140625 1327.5799560546875 L 1990.8399658203125 1323.699951171875 L 1967.969970703125 1323.699951171875 L 1966.4000244140625 1327.5799560546875 Z" class="cls-13" style="fill: rgb(34, 128, 117);" transform="matrix(1, 0, 0, 1, 2.2737367544323206e-13, 0)"/></g><g transform="matrix(0.13302750885486603, 0, 0, 0.13302750885486603, 392.30062194450727, 132.14461211365855)"><path fill="#36255F" d="M 1388.624 672.938 C 1388.624 667.759 1384.498 662.672 1379.428 661.614 L 1362.0690000000002 657.952 C 1357.0280000000002 656.894 1351.9810000000002 651.899 1350.9060000000002 646.864 L 1346.593 630.659 C 1345.0130000000001 625.745 1346.867 618.895 1350.7060000000001 615.457 L 1363.9050000000002 603.6419999999999 C 1367.746 600.1859999999999 1368.7920000000001 593.7199999999999 1366.2000000000003 589.246 L 1352.4620000000002 565.461 C 1349.8940000000002 560.976 1343.7720000000002 558.652 1338.851 560.255 L 1322.0110000000002 565.771 C 1317.1030000000003 567.3729999999999 1310.2470000000003 565.564 1306.7810000000002 561.7489999999999 L 1294.93 549.8979999999999 C 1291.097 546.4139999999999 1289.289 539.5589999999999 1290.903 534.6499999999999 L 1296.424 517.8109999999999 C 1298.027 512.9079999999999 1295.686 506.76699999999994 1291.201 504.1929999999999 L 1267.432 490.4609999999999 C 1262.952 487.8859999999999 1256.474 488.9159999999999 1253.018 492.7559999999999 L 1241.22 505.9559999999999 C 1237.7640000000001 509.7949999999999 1230.915 511.6659999999999 1226 510.0689999999999 L 1209.796 505.7719999999999 C 1204.761 504.6729999999999 1199.766 499.64999999999986 1198.707 494.59199999999987 L 1195.0610000000001 477.2259999999999 C 1193.9920000000002 472.15699999999987 1188.8990000000001 468.03699999999986 1183.7390000000003 468.03699999999986 L 1156.2620000000002 468.03699999999986 C 1151.101 468.03699999999986 1146.0080000000003 472.15699999999987 1144.9560000000001 477.2259999999999 L 1144.63 478.7479999999999 L 1141.294 494.59199999999987 C 1140.241 499.64999999999986 1135.24 504.6729999999999 1130.2050000000002 505.7719999999999 L 1114.0010000000002 510.0689999999999 C 1109.092 511.6659999999999 1102.2370000000003 509.7949999999999 1098.7980000000002 505.9559999999999 L 1086.9660000000001 492.7559999999999 C 1083.528 488.91599999999994 1077.0500000000002 487.8859999999999 1072.5870000000002 490.4609999999999 L 1048.8020000000001 504.19299999999987 C 1044.316 506.7669999999999 1041.976 512.9079999999999 1043.5770000000002 517.8109999999999 L 1049.0980000000002 534.6499999999999 C 1050.7120000000002 539.5589999999999 1048.9040000000002 546.4139999999999 1045.0700000000002 549.8979999999999 L 1033.2200000000003 561.7489999999999 C 1029.7520000000002 565.564 1022.8980000000003 567.3729999999999 1017.9900000000002 565.771 L 1001.1330000000003 560.255 C 996.2300000000002 558.635 990.1080000000003 560.976 987.5160000000003 565.461 L 973.7840000000003 589.246 C 971.2100000000004 593.709 972.2560000000003 600.186 976.0960000000003 603.6419999999999 L 989.2960000000004 615.457 C 993.1230000000004 618.895 994.9880000000004 625.745 993.4100000000004 630.659 L 989.0960000000005 646.864 C 988.0200000000004 651.899 982.9730000000004 656.894 977.9330000000004 657.952 L 960.5670000000005 661.614 C 955.5040000000005 662.667 951.3670000000004 667.76 951.3670000000004 672.921 L 951.3670000000004 700.397 C 951.3670000000004 705.558 955.5040000000004 710.657 960.5670000000005 711.7030000000001 L 977.9330000000004 715.3660000000001 C 982.9730000000004 716.4190000000001 988.0200000000004 721.4190000000001 989.0960000000005 726.4660000000001 L 993.4100000000004 742.6700000000001 C 994.9880000000004 747.5790000000001 993.1230000000004 754.4230000000001 989.2960000000004 757.8610000000001 L 976.0900000000004 769.6940000000001 C 972.2560000000004 773.1320000000001 971.2100000000004 779.6160000000001 973.7840000000003 784.0730000000001 L 987.5160000000003 807.8760000000001 C 990.1080000000003 812.3450000000001 996.2300000000004 814.7020000000001 1001.1330000000003 813.0830000000001 L 1017.9900000000002 807.5670000000001 C 1022.8980000000003 805.9630000000001 1054.6679169921877 782.8568999023439 1058.1349169921878 786.6678999023438 C 1058.1349169921878 786.6678999023438 1030.8550000000002 761.7669999999999 1030.8550000000002 686.651 C 1030.8550000000002 609.813 1093.1590000000003 547.5079999999999 1170.0020000000002 547.5079999999999 C 1174.351 547.5079999999999 1178.6360000000002 547.7769999999999 1182.8760000000002 548.16 C 1253.6770000000001 554.672 1315.9450439453126 618.6899682617187 1315.9450439453126 691.1799682617187 C 1315.9450439453126 718.4669682617188 1388.624 672.938 1388.624 672.938 Z" transform="matrix(0.21295076608657837, -0.0971921905875206, 0.0971921905875206, 0.21295076608657837, -158.16922232760817, 146.40985325589554)" style="fill: rgb(45, 83, 98);"/><path class="st7" d="M331.6,67.8h-26.1V94h26.1V67.8z M330.1,92.4H307V69.4h23.1V92.4z" style="fill: rgb(45, 83, 98);" transform="matrix(4.56813907623291, -4.45859956741333, 4.45859956741333, 4.56813907623291, -1688.5995124667807, 1173.776384678131)"/><path fill="#36255F" d="M 1388.624 672.938 C 1388.624 667.759 1384.498 662.672 1379.428 661.614 L 1362.0690000000002 657.952 C 1357.0280000000002 656.894 1351.9810000000002 651.899 1350.9060000000002 646.864 L 1346.593 630.659 C 1345.0130000000001 625.745 1346.867 618.895 1350.7060000000001 615.457 L 1363.9050000000002 603.6419999999999 C 1367.746 600.1859999999999 1368.7920000000001 593.7199999999999 1366.2000000000003 589.246 L 1352.4620000000002 565.461 C 1349.8940000000002 560.976 1343.7720000000002 558.652 1338.851 560.255 L 1322.0110000000002 565.771 C 1317.1030000000003 567.3729999999999 1310.2470000000003 565.564 1306.7810000000002 561.7489999999999 L 1294.93 549.8979999999999 C 1291.097 546.4139999999999 1289.289 539.5589999999999 1290.903 534.6499999999999 L 1296.424 517.8109999999999 C 1298.027 512.9079999999999 1295.686 506.76699999999994 1291.201 504.1929999999999 L 1267.432 490.4609999999999 C 1262.952 487.8859999999999 1256.474 488.9159999999999 1253.018 492.7559999999999 L 1241.22 505.9559999999999 C 1237.7640000000001 509.7949999999999 1230.915 511.6659999999999 1226 510.0689999999999 L 1209.796 505.7719999999999 C 1204.761 504.6729999999999 1199.766 499.64999999999986 1198.707 494.59199999999987 L 1195.0610000000001 477.2259999999999 C 1193.9920000000002 472.15699999999987 1188.8990000000001 468.03699999999986 1183.7390000000003 468.03699999999986 L 1156.2620000000002 468.03699999999986 C 1151.101 468.03699999999986 1146.0080000000003 472.15699999999987 1144.9560000000001 477.2259999999999 L 1144.63 478.7479999999999 L 1141.294 494.59199999999987 C 1140.241 499.64999999999986 1135.24 504.6729999999999 1130.2050000000002 505.7719999999999 L 1114.0010000000002 510.0689999999999 C 1109.092 511.6659999999999 1102.2370000000003 509.7949999999999 1098.7980000000002 505.9559999999999 L 1086.9660000000001 492.7559999999999 C 1083.528 488.91599999999994 1077.0500000000002 487.8859999999999 1072.5870000000002 490.4609999999999 L 1048.8020000000001 504.19299999999987 C 1044.316 506.7669999999999 1041.976 512.9079999999999 1043.5770000000002 517.8109999999999 L 1049.0980000000002 534.6499999999999 C 1050.7120000000002 539.5589999999999 1048.9040000000002 546.4139999999999 1045.0700000000002 549.8979999999999 L 1033.2200000000003 561.7489999999999 C 1029.7520000000002 565.564 1022.8980000000003 567.3729999999999 1017.9900000000002 565.771 L 1001.1330000000003 560.255 C 996.2300000000002 558.635 990.1080000000003 560.976 987.5160000000003 565.461 L 973.7840000000003 589.246 C 971.2100000000004 593.709 972.2560000000003 600.186 976.0960000000003 603.6419999999999 L 989.2960000000004 615.457 C 993.1230000000004 618.895 994.9880000000004 625.745 993.4100000000004 630.659 L 989.0960000000005 646.864 C 988.0200000000004 651.899 982.9730000000004 656.894 977.9330000000004 657.952 L 960.5670000000005 661.614 C 955.5040000000005 662.667 951.3670000000004 667.76 951.3670000000004 672.921 L 951.3670000000004 700.397 C 951.3670000000004 705.558 955.5040000000004 710.657 960.5670000000005 711.7030000000001 L 977.9330000000004 715.3660000000001 C 982.9730000000004 716.4190000000001 988.0200000000004 721.4190000000001 989.0960000000005 726.4660000000001 L 993.4100000000004 742.6700000000001 C 994.9880000000004 747.5790000000001 993.1230000000004 754.4230000000001 989.2960000000004 757.8610000000001 L 976.0900000000004 769.6940000000001 C 972.2560000000004 773.1320000000001 971.2100000000004 779.6160000000001 973.7840000000003 784.0730000000001 L 987.5160000000003 807.8760000000001 C 990.1080000000003 812.3450000000001 996.2300000000004 814.7020000000001 1001.1330000000003 813.0830000000001 L 1017.9900000000002 807.5670000000001 C 1022.8980000000003 805.9630000000001 1054.6679169921877 782.8568999023439 1058.1349169921878 786.6678999023438 C 1058.1349169921878 786.6678999023438 1030.8550000000002 761.7669999999999 1030.8550000000002 686.651 C 1030.8550000000002 609.813 1093.1590000000003 547.5079999999999 1170.0020000000002 547.5079999999999 C 1174.351 547.5079999999999 1178.6360000000002 547.7769999999999 1182.8760000000002 548.16 C 1253.6770000000001 554.672 1315.9450439453126 618.6899682617187 1315.9450439453126 691.1799682617187 C 1315.9450439453126 718.4669682617188 1388.624 672.938 1388.624 672.938 Z" transform="matrix(-0.23577670753002167, 0.10735955834388733, -0.10735955834388733, -0.23577670753002167, 444.30213064405496, 103.79886018930166)" style="fill: rgb(45, 83, 98);"/></g></svg>